%TF.GenerationSoftware,KiCad,Pcbnew,9.0.7*%
%TF.CreationDate,2026-03-11T17:21:33-04:00*%
%TF.ProjectId,TTL_box,54544c5f-626f-4782-9e6b-696361645f70,rev?*%
%TF.SameCoordinates,Original*%
%TF.FileFunction,Soldermask,Bot*%
%TF.FilePolarity,Negative*%
%FSLAX46Y46*%
G04 Gerber Fmt 4.6, Leading zero omitted, Abs format (unit mm)*
G04 Created by KiCad (PCBNEW 9.0.7) date 2026-03-11 17:21:33*
%MOMM*%
%LPD*%
G01*
G04 APERTURE LIST*
G04 Aperture macros list*
%AMRoundRect*
0 Rectangle with rounded corners*
0 $1 Rounding radius*
0 $2 $3 $4 $5 $6 $7 $8 $9 X,Y pos of 4 corners*
0 Add a 4 corners polygon primitive as box body*
4,1,4,$2,$3,$4,$5,$6,$7,$8,$9,$2,$3,0*
0 Add four circle primitives for the rounded corners*
1,1,$1+$1,$2,$3*
1,1,$1+$1,$4,$5*
1,1,$1+$1,$6,$7*
1,1,$1+$1,$8,$9*
0 Add four rect primitives between the rounded corners*
20,1,$1+$1,$2,$3,$4,$5,0*
20,1,$1+$1,$4,$5,$6,$7,0*
20,1,$1+$1,$6,$7,$8,$9,0*
20,1,$1+$1,$8,$9,$2,$3,0*%
G04 Aperture macros list end*
%ADD10R,3.500000X3.500000*%
%ADD11C,4.000000*%
%ADD12C,1.600000*%
%ADD13RoundRect,0.250000X0.650000X0.650000X-0.650000X0.650000X-0.650000X-0.650000X0.650000X-0.650000X0*%
%ADD14C,1.800000*%
%ADD15RoundRect,0.650000X0.650000X-0.650000X0.650000X0.650000X-0.650000X0.650000X-0.650000X-0.650000X0*%
%ADD16C,2.600000*%
%ADD17RoundRect,0.250000X-0.350000X0.350000X-0.350000X-0.350000X0.350000X-0.350000X0.350000X0.350000X0*%
%ADD18C,1.200000*%
%ADD19RoundRect,0.650000X-0.650000X-0.650000X0.650000X-0.650000X0.650000X0.650000X-0.650000X0.650000X0*%
%ADD20R,1.295400X1.295400*%
%ADD21C,1.295400*%
G04 APERTURE END LIST*
D10*
%TO.C,J2*%
X166341000Y-54729300D03*
D11*
X171366000Y-49704300D03*
X161316000Y-49704300D03*
X171366000Y-59754300D03*
X161316000Y-59754300D03*
%TD*%
D12*
%TO.C,R7*%
X128111000Y-63069300D03*
X135731000Y-63069300D03*
%TD*%
%TO.C,C4*%
X139541000Y-106369300D03*
X139541000Y-108869300D03*
%TD*%
D13*
%TO.C,D4*%
X135731000Y-103869300D03*
D14*
X128111000Y-103869300D03*
%TD*%
D13*
%TO.C,D1*%
X135731000Y-58069300D03*
D14*
X128111000Y-58069300D03*
%TD*%
D12*
%TO.C,R9*%
X128111000Y-83389300D03*
X135731000Y-83389300D03*
%TD*%
D15*
%TO.C,SW1*%
X119221000Y-63069300D03*
D16*
X119221000Y-57989300D03*
%TD*%
D12*
%TO.C,R17*%
X150056000Y-129729300D03*
X157676000Y-129729300D03*
%TD*%
%TO.C,R6*%
X124301000Y-121569300D03*
X124301000Y-129189300D03*
%TD*%
%TO.C,R13*%
X150056000Y-29729300D03*
X157676000Y-29729300D03*
%TD*%
%TO.C,R16*%
X150056000Y-104729300D03*
X157676000Y-104729300D03*
%TD*%
%TO.C,R15*%
X150056000Y-79729300D03*
X157676000Y-79729300D03*
%TD*%
D10*
%TO.C,J5*%
X166341000Y-129729300D03*
D11*
X171366000Y-124704300D03*
X161316000Y-124704300D03*
X171366000Y-134754300D03*
X161316000Y-134754300D03*
%TD*%
D10*
%TO.C,J1*%
X166341000Y-29729300D03*
D11*
X171366000Y-24704300D03*
X161316000Y-24704300D03*
X171366000Y-34754300D03*
X161316000Y-34754300D03*
%TD*%
D12*
%TO.C,R3*%
X124301000Y-75769300D03*
X124301000Y-83389300D03*
%TD*%
D13*
%TO.C,D3*%
X135731000Y-78389300D03*
D14*
X128111000Y-78389300D03*
%TD*%
D12*
%TO.C,R18*%
X150056000Y-154729300D03*
X157676000Y-154729300D03*
%TD*%
%TO.C,C5*%
X139541000Y-116529300D03*
X139541000Y-119029300D03*
%TD*%
D17*
%TO.C,C8*%
X138271000Y-134663401D03*
D18*
X138271000Y-136663401D03*
%TD*%
D12*
%TO.C,R12*%
X128111000Y-129189300D03*
X135731000Y-129189300D03*
%TD*%
D19*
%TO.C,SW7*%
X120491000Y-134663401D03*
D16*
X125571000Y-134663401D03*
%TD*%
D13*
%TO.C,D2*%
X135731000Y-68229300D03*
D14*
X128111000Y-68229300D03*
%TD*%
D12*
%TO.C,R8*%
X128111000Y-73229300D03*
X135731000Y-73229300D03*
%TD*%
%TO.C,C9*%
X138430000Y-96039300D03*
X140930000Y-96039300D03*
%TD*%
%TO.C,R5*%
X124301000Y-111409300D03*
X124301000Y-119029300D03*
%TD*%
D13*
%TO.C,D6*%
X135731000Y-124189300D03*
D14*
X128111000Y-124189300D03*
%TD*%
D15*
%TO.C,SW3*%
X119221000Y-83389300D03*
D16*
X119221000Y-78309300D03*
%TD*%
D12*
%TO.C,R14*%
X150056000Y-54729300D03*
X157676000Y-54729300D03*
%TD*%
D17*
%TO.C,C7*%
X131921000Y-134663401D03*
D18*
X131921000Y-136663401D03*
%TD*%
D12*
%TO.C,C3*%
X139541000Y-80889300D03*
X139541000Y-83389300D03*
%TD*%
D15*
%TO.C,SW6*%
X119221000Y-129189300D03*
D16*
X119221000Y-124109300D03*
%TD*%
D12*
%TO.C,C2*%
X139541000Y-70729300D03*
X139541000Y-73229300D03*
%TD*%
D15*
%TO.C,SW5*%
X119221000Y-119029300D03*
D16*
X119221000Y-113949300D03*
%TD*%
D15*
%TO.C,SW2*%
X119221000Y-73229300D03*
D16*
X119221000Y-68149300D03*
%TD*%
D12*
%TO.C,R4*%
X124301000Y-101249300D03*
X124301000Y-108869300D03*
%TD*%
%TO.C,R2*%
X124301000Y-65609300D03*
X124301000Y-73229300D03*
%TD*%
D13*
%TO.C,D5*%
X135731000Y-114029300D03*
D14*
X128111000Y-114029300D03*
%TD*%
D15*
%TO.C,SW4*%
X119221000Y-108869300D03*
D16*
X119221000Y-103789300D03*
%TD*%
D12*
%TO.C,R11*%
X128111000Y-119029300D03*
X135731000Y-119029300D03*
%TD*%
%TO.C,C1*%
X139541000Y-60529300D03*
X139541000Y-63029300D03*
%TD*%
%TO.C,C6*%
X139541000Y-126689300D03*
X139541000Y-129189300D03*
%TD*%
D10*
%TO.C,J6*%
X166341000Y-154729300D03*
D11*
X171366000Y-149704300D03*
X161316000Y-149704300D03*
X171366000Y-159754300D03*
X161316000Y-159754300D03*
%TD*%
D12*
%TO.C,R1*%
X124301000Y-55449300D03*
X124301000Y-63069300D03*
%TD*%
D10*
%TO.C,J4*%
X166341000Y-104729300D03*
D11*
X171366000Y-99704300D03*
X161316000Y-99704300D03*
X171366000Y-109754300D03*
X161316000Y-109754300D03*
%TD*%
D12*
%TO.C,R10*%
X128111000Y-108869300D03*
X135731000Y-108869300D03*
%TD*%
D10*
%TO.C,J3*%
X166341000Y-79729300D03*
D11*
X171366000Y-74704300D03*
X161316000Y-74704300D03*
X171366000Y-84754300D03*
X161316000Y-84754300D03*
%TD*%
D20*
%TO.C,U2*%
X133961000Y-88419300D03*
D21*
X131421000Y-88419300D03*
X128881000Y-88419300D03*
X126341000Y-88419300D03*
X123801000Y-88419300D03*
X121261000Y-88419300D03*
X118721000Y-88419300D03*
X118721000Y-96039300D03*
X121261000Y-96039300D03*
X123801000Y-96039300D03*
X126341000Y-96039300D03*
X128881000Y-96039300D03*
X131421000Y-96039300D03*
X133961000Y-96039300D03*
%TD*%
M02*
