%TF.GenerationSoftware,KiCad,Pcbnew,9.0.7*%
%TF.CreationDate,2026-03-11T17:21:32-04:00*%
%TF.ProjectId,TTL_box,54544c5f-626f-4782-9e6b-696361645f70,rev?*%
%TF.SameCoordinates,Original*%
%TF.FileFunction,Copper,L2,Bot*%
%TF.FilePolarity,Positive*%
%FSLAX46Y46*%
G04 Gerber Fmt 4.6, Leading zero omitted, Abs format (unit mm)*
G04 Created by KiCad (PCBNEW 9.0.7) date 2026-03-11 17:21:32*
%MOMM*%
%LPD*%
G01*
G04 APERTURE LIST*
G04 Aperture macros list*
%AMRoundRect*
0 Rectangle with rounded corners*
0 $1 Rounding radius*
0 $2 $3 $4 $5 $6 $7 $8 $9 X,Y pos of 4 corners*
0 Add a 4 corners polygon primitive as box body*
4,1,4,$2,$3,$4,$5,$6,$7,$8,$9,$2,$3,0*
0 Add four circle primitives for the rounded corners*
1,1,$1+$1,$2,$3*
1,1,$1+$1,$4,$5*
1,1,$1+$1,$6,$7*
1,1,$1+$1,$8,$9*
0 Add four rect primitives between the rounded corners*
20,1,$1+$1,$2,$3,$4,$5,0*
20,1,$1+$1,$4,$5,$6,$7,0*
20,1,$1+$1,$6,$7,$8,$9,0*
20,1,$1+$1,$8,$9,$2,$3,0*%
G04 Aperture macros list end*
%TA.AperFunction,ComponentPad*%
%ADD10R,3.500000X3.500000*%
%TD*%
%TA.AperFunction,ComponentPad*%
%ADD11C,4.000000*%
%TD*%
%TA.AperFunction,ComponentPad*%
%ADD12C,1.600000*%
%TD*%
%TA.AperFunction,ComponentPad*%
%ADD13RoundRect,0.250000X0.650000X0.650000X-0.650000X0.650000X-0.650000X-0.650000X0.650000X-0.650000X0*%
%TD*%
%TA.AperFunction,ComponentPad*%
%ADD14C,1.800000*%
%TD*%
%TA.AperFunction,ComponentPad*%
%ADD15RoundRect,0.650000X0.650000X-0.650000X0.650000X0.650000X-0.650000X0.650000X-0.650000X-0.650000X0*%
%TD*%
%TA.AperFunction,ComponentPad*%
%ADD16C,2.600000*%
%TD*%
%TA.AperFunction,ComponentPad*%
%ADD17RoundRect,0.250000X-0.350000X0.350000X-0.350000X-0.350000X0.350000X-0.350000X0.350000X0.350000X0*%
%TD*%
%TA.AperFunction,ComponentPad*%
%ADD18C,1.200000*%
%TD*%
%TA.AperFunction,ComponentPad*%
%ADD19RoundRect,0.650000X-0.650000X-0.650000X0.650000X-0.650000X0.650000X0.650000X-0.650000X0.650000X0*%
%TD*%
%TA.AperFunction,ComponentPad*%
%ADD20R,1.295400X1.295400*%
%TD*%
%TA.AperFunction,ComponentPad*%
%ADD21C,1.295400*%
%TD*%
G04 APERTURE END LIST*
D10*
%TO.P,J2,1,In*%
%TO.N,Net-(J2-In)*%
X166341000Y-54729300D03*
D11*
%TO.P,J2,2,Ext*%
%TO.N,GND*%
X171366000Y-49704300D03*
X161316000Y-49704300D03*
X171366000Y-59754300D03*
X161316000Y-59754300D03*
%TD*%
D12*
%TO.P,R7,1*%
%TO.N,Net-(D1-A)*%
X128111000Y-63069300D03*
%TO.P,R7,2*%
%TO.N,/1A*%
X135731000Y-63069300D03*
%TD*%
%TO.P,C4,1*%
%TO.N,GND*%
X139541000Y-106369300D03*
%TO.P,C4,2*%
%TO.N,/4A*%
X139541000Y-108869300D03*
%TD*%
D13*
%TO.P,D4,1,K*%
%TO.N,/4A*%
X135731000Y-103869300D03*
D14*
%TO.P,D4,2,A*%
%TO.N,Net-(D4-A)*%
X128111000Y-103869300D03*
%TD*%
D13*
%TO.P,D1,1,K*%
%TO.N,/1A*%
X135731000Y-58069300D03*
D14*
%TO.P,D1,2,A*%
%TO.N,Net-(D1-A)*%
X128111000Y-58069300D03*
%TD*%
D12*
%TO.P,R9,1*%
%TO.N,Net-(D3-A)*%
X128111000Y-83389300D03*
%TO.P,R9,2*%
%TO.N,/3A*%
X135731000Y-83389300D03*
%TD*%
D15*
%TO.P,SW1,1,A*%
%TO.N,Net-(D1-A)*%
X119221000Y-63069300D03*
D16*
%TO.P,SW1,2,B*%
%TO.N,GND*%
X119221000Y-57989300D03*
%TD*%
D12*
%TO.P,R17,1*%
%TO.N,/5Y*%
X150056000Y-129729300D03*
%TO.P,R17,2*%
%TO.N,Net-(J5-In)*%
X157676000Y-129729300D03*
%TD*%
%TO.P,R6,1*%
%TO.N,/5V_f*%
X124301000Y-121569300D03*
%TO.P,R6,2*%
%TO.N,Net-(D6-A)*%
X124301000Y-129189300D03*
%TD*%
%TO.P,R13,1*%
%TO.N,/1Y*%
X150056000Y-29729300D03*
%TO.P,R13,2*%
%TO.N,Net-(J1-In)*%
X157676000Y-29729300D03*
%TD*%
%TO.P,R16,1*%
%TO.N,/4Y*%
X150056000Y-104729300D03*
%TO.P,R16,2*%
%TO.N,Net-(J4-In)*%
X157676000Y-104729300D03*
%TD*%
%TO.P,R15,1*%
%TO.N,/3Y*%
X150056000Y-79729300D03*
%TO.P,R15,2*%
%TO.N,Net-(J3-In)*%
X157676000Y-79729300D03*
%TD*%
D10*
%TO.P,J5,1,In*%
%TO.N,Net-(J5-In)*%
X166341000Y-129729300D03*
D11*
%TO.P,J5,2,Ext*%
%TO.N,GND*%
X171366000Y-124704300D03*
X161316000Y-124704300D03*
X171366000Y-134754300D03*
X161316000Y-134754300D03*
%TD*%
D10*
%TO.P,J1,1,In*%
%TO.N,Net-(J1-In)*%
X166341000Y-29729300D03*
D11*
%TO.P,J1,2,Ext*%
%TO.N,GND*%
X171366000Y-24704300D03*
X161316000Y-24704300D03*
X171366000Y-34754300D03*
X161316000Y-34754300D03*
%TD*%
D12*
%TO.P,R3,1*%
%TO.N,/5V_f*%
X124301000Y-75769300D03*
%TO.P,R3,2*%
%TO.N,Net-(D3-A)*%
X124301000Y-83389300D03*
%TD*%
D13*
%TO.P,D3,1,K*%
%TO.N,/3A*%
X135731000Y-78389300D03*
D14*
%TO.P,D3,2,A*%
%TO.N,Net-(D3-A)*%
X128111000Y-78389300D03*
%TD*%
D12*
%TO.P,R18,1*%
%TO.N,/6Y*%
X150056000Y-154729300D03*
%TO.P,R18,2*%
%TO.N,Net-(J6-In)*%
X157676000Y-154729300D03*
%TD*%
%TO.P,C5,1*%
%TO.N,GND*%
X139541000Y-116529300D03*
%TO.P,C5,2*%
%TO.N,/5A*%
X139541000Y-119029300D03*
%TD*%
D17*
%TO.P,C8,1*%
%TO.N,/5V_f*%
X138271000Y-134663401D03*
D18*
%TO.P,C8,2*%
%TO.N,GND*%
X138271000Y-136663401D03*
%TD*%
D12*
%TO.P,R12,1*%
%TO.N,Net-(D6-A)*%
X128111000Y-129189300D03*
%TO.P,R12,2*%
%TO.N,/6A*%
X135731000Y-129189300D03*
%TD*%
D19*
%TO.P,SW7,1,A*%
%TO.N,+5V*%
X120491000Y-134663401D03*
D16*
%TO.P,SW7,2,B*%
%TO.N,/5V_f*%
X125571000Y-134663401D03*
%TD*%
D13*
%TO.P,D2,1,K*%
%TO.N,/2A*%
X135731000Y-68229300D03*
D14*
%TO.P,D2,2,A*%
%TO.N,Net-(D2-A)*%
X128111000Y-68229300D03*
%TD*%
D12*
%TO.P,R8,1*%
%TO.N,Net-(D2-A)*%
X128111000Y-73229300D03*
%TO.P,R8,2*%
%TO.N,/2A*%
X135731000Y-73229300D03*
%TD*%
%TO.P,C9,1*%
%TO.N,/5V_f*%
X138430000Y-96039300D03*
%TO.P,C9,2*%
%TO.N,GND*%
X140930000Y-96039300D03*
%TD*%
%TO.P,R5,1*%
%TO.N,/5V_f*%
X124301000Y-111409300D03*
%TO.P,R5,2*%
%TO.N,Net-(D5-A)*%
X124301000Y-119029300D03*
%TD*%
D13*
%TO.P,D6,1,K*%
%TO.N,/6A*%
X135731000Y-124189300D03*
D14*
%TO.P,D6,2,A*%
%TO.N,Net-(D6-A)*%
X128111000Y-124189300D03*
%TD*%
D15*
%TO.P,SW3,1,A*%
%TO.N,Net-(D3-A)*%
X119221000Y-83389300D03*
D16*
%TO.P,SW3,2,B*%
%TO.N,GND*%
X119221000Y-78309300D03*
%TD*%
D12*
%TO.P,R14,1*%
%TO.N,/2Y*%
X150056000Y-54729300D03*
%TO.P,R14,2*%
%TO.N,Net-(J2-In)*%
X157676000Y-54729300D03*
%TD*%
D17*
%TO.P,C7,1*%
%TO.N,/5V_f*%
X131921000Y-134663401D03*
D18*
%TO.P,C7,2*%
%TO.N,GND*%
X131921000Y-136663401D03*
%TD*%
D12*
%TO.P,C3,1*%
%TO.N,GND*%
X139541000Y-80889300D03*
%TO.P,C3,2*%
%TO.N,/3A*%
X139541000Y-83389300D03*
%TD*%
D15*
%TO.P,SW6,1,A*%
%TO.N,Net-(D6-A)*%
X119221000Y-129189300D03*
D16*
%TO.P,SW6,2,B*%
%TO.N,GND*%
X119221000Y-124109300D03*
%TD*%
D12*
%TO.P,C2,1*%
%TO.N,GND*%
X139541000Y-70729300D03*
%TO.P,C2,2*%
%TO.N,/2A*%
X139541000Y-73229300D03*
%TD*%
D15*
%TO.P,SW5,1,A*%
%TO.N,Net-(D5-A)*%
X119221000Y-119029300D03*
D16*
%TO.P,SW5,2,B*%
%TO.N,GND*%
X119221000Y-113949300D03*
%TD*%
D15*
%TO.P,SW2,1,A*%
%TO.N,Net-(D2-A)*%
X119221000Y-73229300D03*
D16*
%TO.P,SW2,2,B*%
%TO.N,GND*%
X119221000Y-68149300D03*
%TD*%
D12*
%TO.P,R4,1*%
%TO.N,/5V_f*%
X124301000Y-101249300D03*
%TO.P,R4,2*%
%TO.N,Net-(D4-A)*%
X124301000Y-108869300D03*
%TD*%
%TO.P,R2,1*%
%TO.N,/5V_f*%
X124301000Y-65609300D03*
%TO.P,R2,2*%
%TO.N,Net-(D2-A)*%
X124301000Y-73229300D03*
%TD*%
D13*
%TO.P,D5,1,K*%
%TO.N,/5A*%
X135731000Y-114029300D03*
D14*
%TO.P,D5,2,A*%
%TO.N,Net-(D5-A)*%
X128111000Y-114029300D03*
%TD*%
D15*
%TO.P,SW4,1,A*%
%TO.N,Net-(D4-A)*%
X119221000Y-108869300D03*
D16*
%TO.P,SW4,2,B*%
%TO.N,GND*%
X119221000Y-103789300D03*
%TD*%
D12*
%TO.P,R11,1*%
%TO.N,Net-(D5-A)*%
X128111000Y-119029300D03*
%TO.P,R11,2*%
%TO.N,/5A*%
X135731000Y-119029300D03*
%TD*%
%TO.P,C1,1*%
%TO.N,GND*%
X139541000Y-60529300D03*
%TO.P,C1,2*%
%TO.N,/1A*%
X139541000Y-63029300D03*
%TD*%
%TO.P,C6,1*%
%TO.N,GND*%
X139541000Y-126689300D03*
%TO.P,C6,2*%
%TO.N,/6A*%
X139541000Y-129189300D03*
%TD*%
D10*
%TO.P,J6,1,In*%
%TO.N,Net-(J6-In)*%
X166341000Y-154729300D03*
D11*
%TO.P,J6,2,Ext*%
%TO.N,GND*%
X171366000Y-149704300D03*
X161316000Y-149704300D03*
X171366000Y-159754300D03*
X161316000Y-159754300D03*
%TD*%
D12*
%TO.P,R1,1*%
%TO.N,/5V_f*%
X124301000Y-55449300D03*
%TO.P,R1,2*%
%TO.N,Net-(D1-A)*%
X124301000Y-63069300D03*
%TD*%
D10*
%TO.P,J4,1,In*%
%TO.N,Net-(J4-In)*%
X166341000Y-104729300D03*
D11*
%TO.P,J4,2,Ext*%
%TO.N,GND*%
X171366000Y-99704300D03*
X161316000Y-99704300D03*
X171366000Y-109754300D03*
X161316000Y-109754300D03*
%TD*%
D12*
%TO.P,R10,1*%
%TO.N,Net-(D4-A)*%
X128111000Y-108869300D03*
%TO.P,R10,2*%
%TO.N,/4A*%
X135731000Y-108869300D03*
%TD*%
D10*
%TO.P,J3,1,In*%
%TO.N,Net-(J3-In)*%
X166341000Y-79729300D03*
D11*
%TO.P,J3,2,Ext*%
%TO.N,GND*%
X171366000Y-74704300D03*
X161316000Y-74704300D03*
X171366000Y-84754300D03*
X161316000Y-84754300D03*
%TD*%
D20*
%TO.P,U2,1,1A*%
%TO.N,/1A*%
X133961000Y-88419300D03*
D21*
%TO.P,U2,2,1Y*%
%TO.N,/1Y*%
X131421000Y-88419300D03*
%TO.P,U2,3,2A*%
%TO.N,/2A*%
X128881000Y-88419300D03*
%TO.P,U2,4,2Y*%
%TO.N,/2Y*%
X126341000Y-88419300D03*
%TO.P,U2,5,3A*%
%TO.N,/3A*%
X123801000Y-88419300D03*
%TO.P,U2,6,3Y*%
%TO.N,/3Y*%
X121261000Y-88419300D03*
%TO.P,U2,7,GND*%
%TO.N,GND*%
X118721000Y-88419300D03*
%TO.P,U2,8,4Y*%
%TO.N,/4Y*%
X118721000Y-96039300D03*
%TO.P,U2,9,4A*%
%TO.N,/4A*%
X121261000Y-96039300D03*
%TO.P,U2,10,5Y*%
%TO.N,/5Y*%
X123801000Y-96039300D03*
%TO.P,U2,11,5A*%
%TO.N,/5A*%
X126341000Y-96039300D03*
%TO.P,U2,12,6Y*%
%TO.N,/6Y*%
X128881000Y-96039300D03*
%TO.P,U2,13,6A*%
%TO.N,/6A*%
X131421000Y-96039300D03*
%TO.P,U2,14,VCC*%
%TO.N,/5V_f*%
X133961000Y-96039300D03*
%TD*%
M02*
