%TF.GenerationSoftware,KiCad,Pcbnew,9.0.7*%
%TF.CreationDate,2026-03-11T17:21:33-04:00*%
%TF.ProjectId,TTL_box,54544c5f-626f-4782-9e6b-696361645f70,rev?*%
%TF.SameCoordinates,Original*%
%TF.FileFunction,Legend,Top*%
%TF.FilePolarity,Positive*%
%FSLAX46Y46*%
G04 Gerber Fmt 4.6, Leading zero omitted, Abs format (unit mm)*
G04 Created by KiCad (PCBNEW 9.0.7) date 2026-03-11 17:21:33*
%MOMM*%
%LPD*%
G01*
G04 APERTURE LIST*
%ADD10C,0.150000*%
%ADD11C,0.120000*%
%ADD12C,0.152400*%
G04 APERTURE END LIST*
D10*
X166036666Y-47714819D02*
X166036666Y-48429104D01*
X166036666Y-48429104D02*
X165989047Y-48571961D01*
X165989047Y-48571961D02*
X165893809Y-48667200D01*
X165893809Y-48667200D02*
X165750952Y-48714819D01*
X165750952Y-48714819D02*
X165655714Y-48714819D01*
X166465238Y-47810057D02*
X166512857Y-47762438D01*
X166512857Y-47762438D02*
X166608095Y-47714819D01*
X166608095Y-47714819D02*
X166846190Y-47714819D01*
X166846190Y-47714819D02*
X166941428Y-47762438D01*
X166941428Y-47762438D02*
X166989047Y-47810057D01*
X166989047Y-47810057D02*
X167036666Y-47905295D01*
X167036666Y-47905295D02*
X167036666Y-48000533D01*
X167036666Y-48000533D02*
X166989047Y-48143390D01*
X166989047Y-48143390D02*
X166417619Y-48714819D01*
X166417619Y-48714819D02*
X167036666Y-48714819D01*
X131754333Y-63524119D02*
X131421000Y-63047928D01*
X131182905Y-63524119D02*
X131182905Y-62524119D01*
X131182905Y-62524119D02*
X131563857Y-62524119D01*
X131563857Y-62524119D02*
X131659095Y-62571738D01*
X131659095Y-62571738D02*
X131706714Y-62619357D01*
X131706714Y-62619357D02*
X131754333Y-62714595D01*
X131754333Y-62714595D02*
X131754333Y-62857452D01*
X131754333Y-62857452D02*
X131706714Y-62952690D01*
X131706714Y-62952690D02*
X131659095Y-63000309D01*
X131659095Y-63000309D02*
X131563857Y-63047928D01*
X131563857Y-63047928D02*
X131182905Y-63047928D01*
X132087667Y-62524119D02*
X132754333Y-62524119D01*
X132754333Y-62524119D02*
X132325762Y-63524119D01*
X141950580Y-107785966D02*
X141998200Y-107833585D01*
X141998200Y-107833585D02*
X142045819Y-107976442D01*
X142045819Y-107976442D02*
X142045819Y-108071680D01*
X142045819Y-108071680D02*
X141998200Y-108214537D01*
X141998200Y-108214537D02*
X141902961Y-108309775D01*
X141902961Y-108309775D02*
X141807723Y-108357394D01*
X141807723Y-108357394D02*
X141617247Y-108405013D01*
X141617247Y-108405013D02*
X141474390Y-108405013D01*
X141474390Y-108405013D02*
X141283914Y-108357394D01*
X141283914Y-108357394D02*
X141188676Y-108309775D01*
X141188676Y-108309775D02*
X141093438Y-108214537D01*
X141093438Y-108214537D02*
X141045819Y-108071680D01*
X141045819Y-108071680D02*
X141045819Y-107976442D01*
X141045819Y-107976442D02*
X141093438Y-107833585D01*
X141093438Y-107833585D02*
X141141057Y-107785966D01*
X141379152Y-106928823D02*
X142045819Y-106928823D01*
X140998200Y-107166918D02*
X141712485Y-107405013D01*
X141712485Y-107405013D02*
X141712485Y-106785966D01*
X131182905Y-104324119D02*
X131182905Y-103324119D01*
X131182905Y-103324119D02*
X131421000Y-103324119D01*
X131421000Y-103324119D02*
X131563857Y-103371738D01*
X131563857Y-103371738D02*
X131659095Y-103466976D01*
X131659095Y-103466976D02*
X131706714Y-103562214D01*
X131706714Y-103562214D02*
X131754333Y-103752690D01*
X131754333Y-103752690D02*
X131754333Y-103895547D01*
X131754333Y-103895547D02*
X131706714Y-104086023D01*
X131706714Y-104086023D02*
X131659095Y-104181261D01*
X131659095Y-104181261D02*
X131563857Y-104276500D01*
X131563857Y-104276500D02*
X131421000Y-104324119D01*
X131421000Y-104324119D02*
X131182905Y-104324119D01*
X132611476Y-103657452D02*
X132611476Y-104324119D01*
X132373381Y-103276500D02*
X132135286Y-103990785D01*
X132135286Y-103990785D02*
X132754333Y-103990785D01*
X135469095Y-106224119D02*
X135469095Y-105224119D01*
X136040523Y-106224119D02*
X135611952Y-105652690D01*
X136040523Y-105224119D02*
X135469095Y-105795547D01*
X131182905Y-58524119D02*
X131182905Y-57524119D01*
X131182905Y-57524119D02*
X131421000Y-57524119D01*
X131421000Y-57524119D02*
X131563857Y-57571738D01*
X131563857Y-57571738D02*
X131659095Y-57666976D01*
X131659095Y-57666976D02*
X131706714Y-57762214D01*
X131706714Y-57762214D02*
X131754333Y-57952690D01*
X131754333Y-57952690D02*
X131754333Y-58095547D01*
X131754333Y-58095547D02*
X131706714Y-58286023D01*
X131706714Y-58286023D02*
X131659095Y-58381261D01*
X131659095Y-58381261D02*
X131563857Y-58476500D01*
X131563857Y-58476500D02*
X131421000Y-58524119D01*
X131421000Y-58524119D02*
X131182905Y-58524119D01*
X132706714Y-58524119D02*
X132135286Y-58524119D01*
X132421000Y-58524119D02*
X132421000Y-57524119D01*
X132421000Y-57524119D02*
X132325762Y-57666976D01*
X132325762Y-57666976D02*
X132230524Y-57762214D01*
X132230524Y-57762214D02*
X132135286Y-57809833D01*
X135469095Y-60424119D02*
X135469095Y-59424119D01*
X136040523Y-60424119D02*
X135611952Y-59852690D01*
X136040523Y-59424119D02*
X135469095Y-59995547D01*
X131754333Y-83844119D02*
X131421000Y-83367928D01*
X131182905Y-83844119D02*
X131182905Y-82844119D01*
X131182905Y-82844119D02*
X131563857Y-82844119D01*
X131563857Y-82844119D02*
X131659095Y-82891738D01*
X131659095Y-82891738D02*
X131706714Y-82939357D01*
X131706714Y-82939357D02*
X131754333Y-83034595D01*
X131754333Y-83034595D02*
X131754333Y-83177452D01*
X131754333Y-83177452D02*
X131706714Y-83272690D01*
X131706714Y-83272690D02*
X131659095Y-83320309D01*
X131659095Y-83320309D02*
X131563857Y-83367928D01*
X131563857Y-83367928D02*
X131182905Y-83367928D01*
X132230524Y-83844119D02*
X132421000Y-83844119D01*
X132421000Y-83844119D02*
X132516238Y-83796500D01*
X132516238Y-83796500D02*
X132563857Y-83748880D01*
X132563857Y-83748880D02*
X132659095Y-83606023D01*
X132659095Y-83606023D02*
X132706714Y-83415547D01*
X132706714Y-83415547D02*
X132706714Y-83034595D01*
X132706714Y-83034595D02*
X132659095Y-82939357D01*
X132659095Y-82939357D02*
X132611476Y-82891738D01*
X132611476Y-82891738D02*
X132516238Y-82844119D01*
X132516238Y-82844119D02*
X132325762Y-82844119D01*
X132325762Y-82844119D02*
X132230524Y-82891738D01*
X132230524Y-82891738D02*
X132182905Y-82939357D01*
X132182905Y-82939357D02*
X132135286Y-83034595D01*
X132135286Y-83034595D02*
X132135286Y-83272690D01*
X132135286Y-83272690D02*
X132182905Y-83367928D01*
X132182905Y-83367928D02*
X132230524Y-83415547D01*
X132230524Y-83415547D02*
X132325762Y-83463166D01*
X132325762Y-83463166D02*
X132516238Y-83463166D01*
X132516238Y-83463166D02*
X132611476Y-83415547D01*
X132611476Y-83415547D02*
X132659095Y-83367928D01*
X132659095Y-83367928D02*
X132706714Y-83272690D01*
X117128200Y-61862632D02*
X117175819Y-61719775D01*
X117175819Y-61719775D02*
X117175819Y-61481680D01*
X117175819Y-61481680D02*
X117128200Y-61386442D01*
X117128200Y-61386442D02*
X117080580Y-61338823D01*
X117080580Y-61338823D02*
X116985342Y-61291204D01*
X116985342Y-61291204D02*
X116890104Y-61291204D01*
X116890104Y-61291204D02*
X116794866Y-61338823D01*
X116794866Y-61338823D02*
X116747247Y-61386442D01*
X116747247Y-61386442D02*
X116699628Y-61481680D01*
X116699628Y-61481680D02*
X116652009Y-61672156D01*
X116652009Y-61672156D02*
X116604390Y-61767394D01*
X116604390Y-61767394D02*
X116556771Y-61815013D01*
X116556771Y-61815013D02*
X116461533Y-61862632D01*
X116461533Y-61862632D02*
X116366295Y-61862632D01*
X116366295Y-61862632D02*
X116271057Y-61815013D01*
X116271057Y-61815013D02*
X116223438Y-61767394D01*
X116223438Y-61767394D02*
X116175819Y-61672156D01*
X116175819Y-61672156D02*
X116175819Y-61434061D01*
X116175819Y-61434061D02*
X116223438Y-61291204D01*
X116175819Y-60957870D02*
X117175819Y-60719775D01*
X117175819Y-60719775D02*
X116461533Y-60529299D01*
X116461533Y-60529299D02*
X117175819Y-60338823D01*
X117175819Y-60338823D02*
X116175819Y-60100728D01*
X117175819Y-59195966D02*
X117175819Y-59767394D01*
X117175819Y-59481680D02*
X116175819Y-59481680D01*
X116175819Y-59481680D02*
X116318676Y-59576918D01*
X116318676Y-59576918D02*
X116413914Y-59672156D01*
X116413914Y-59672156D02*
X116461533Y-59767394D01*
X153223142Y-130184119D02*
X152889809Y-129707928D01*
X152651714Y-130184119D02*
X152651714Y-129184119D01*
X152651714Y-129184119D02*
X153032666Y-129184119D01*
X153032666Y-129184119D02*
X153127904Y-129231738D01*
X153127904Y-129231738D02*
X153175523Y-129279357D01*
X153175523Y-129279357D02*
X153223142Y-129374595D01*
X153223142Y-129374595D02*
X153223142Y-129517452D01*
X153223142Y-129517452D02*
X153175523Y-129612690D01*
X153175523Y-129612690D02*
X153127904Y-129660309D01*
X153127904Y-129660309D02*
X153032666Y-129707928D01*
X153032666Y-129707928D02*
X152651714Y-129707928D01*
X154175523Y-130184119D02*
X153604095Y-130184119D01*
X153889809Y-130184119D02*
X153889809Y-129184119D01*
X153889809Y-129184119D02*
X153794571Y-129326976D01*
X153794571Y-129326976D02*
X153699333Y-129422214D01*
X153699333Y-129422214D02*
X153604095Y-129469833D01*
X154508857Y-129184119D02*
X155175523Y-129184119D01*
X155175523Y-129184119D02*
X154746952Y-130184119D01*
X124755819Y-125545966D02*
X124279628Y-125879299D01*
X124755819Y-126117394D02*
X123755819Y-126117394D01*
X123755819Y-126117394D02*
X123755819Y-125736442D01*
X123755819Y-125736442D02*
X123803438Y-125641204D01*
X123803438Y-125641204D02*
X123851057Y-125593585D01*
X123851057Y-125593585D02*
X123946295Y-125545966D01*
X123946295Y-125545966D02*
X124089152Y-125545966D01*
X124089152Y-125545966D02*
X124184390Y-125593585D01*
X124184390Y-125593585D02*
X124232009Y-125641204D01*
X124232009Y-125641204D02*
X124279628Y-125736442D01*
X124279628Y-125736442D02*
X124279628Y-126117394D01*
X123755819Y-124688823D02*
X123755819Y-124879299D01*
X123755819Y-124879299D02*
X123803438Y-124974537D01*
X123803438Y-124974537D02*
X123851057Y-125022156D01*
X123851057Y-125022156D02*
X123993914Y-125117394D01*
X123993914Y-125117394D02*
X124184390Y-125165013D01*
X124184390Y-125165013D02*
X124565342Y-125165013D01*
X124565342Y-125165013D02*
X124660580Y-125117394D01*
X124660580Y-125117394D02*
X124708200Y-125069775D01*
X124708200Y-125069775D02*
X124755819Y-124974537D01*
X124755819Y-124974537D02*
X124755819Y-124784061D01*
X124755819Y-124784061D02*
X124708200Y-124688823D01*
X124708200Y-124688823D02*
X124660580Y-124641204D01*
X124660580Y-124641204D02*
X124565342Y-124593585D01*
X124565342Y-124593585D02*
X124327247Y-124593585D01*
X124327247Y-124593585D02*
X124232009Y-124641204D01*
X124232009Y-124641204D02*
X124184390Y-124688823D01*
X124184390Y-124688823D02*
X124136771Y-124784061D01*
X124136771Y-124784061D02*
X124136771Y-124974537D01*
X124136771Y-124974537D02*
X124184390Y-125069775D01*
X124184390Y-125069775D02*
X124232009Y-125117394D01*
X124232009Y-125117394D02*
X124327247Y-125165013D01*
X153223142Y-30184119D02*
X152889809Y-29707928D01*
X152651714Y-30184119D02*
X152651714Y-29184119D01*
X152651714Y-29184119D02*
X153032666Y-29184119D01*
X153032666Y-29184119D02*
X153127904Y-29231738D01*
X153127904Y-29231738D02*
X153175523Y-29279357D01*
X153175523Y-29279357D02*
X153223142Y-29374595D01*
X153223142Y-29374595D02*
X153223142Y-29517452D01*
X153223142Y-29517452D02*
X153175523Y-29612690D01*
X153175523Y-29612690D02*
X153127904Y-29660309D01*
X153127904Y-29660309D02*
X153032666Y-29707928D01*
X153032666Y-29707928D02*
X152651714Y-29707928D01*
X154175523Y-30184119D02*
X153604095Y-30184119D01*
X153889809Y-30184119D02*
X153889809Y-29184119D01*
X153889809Y-29184119D02*
X153794571Y-29326976D01*
X153794571Y-29326976D02*
X153699333Y-29422214D01*
X153699333Y-29422214D02*
X153604095Y-29469833D01*
X154508857Y-29184119D02*
X155127904Y-29184119D01*
X155127904Y-29184119D02*
X154794571Y-29565071D01*
X154794571Y-29565071D02*
X154937428Y-29565071D01*
X154937428Y-29565071D02*
X155032666Y-29612690D01*
X155032666Y-29612690D02*
X155080285Y-29660309D01*
X155080285Y-29660309D02*
X155127904Y-29755547D01*
X155127904Y-29755547D02*
X155127904Y-29993642D01*
X155127904Y-29993642D02*
X155080285Y-30088880D01*
X155080285Y-30088880D02*
X155032666Y-30136500D01*
X155032666Y-30136500D02*
X154937428Y-30184119D01*
X154937428Y-30184119D02*
X154651714Y-30184119D01*
X154651714Y-30184119D02*
X154556476Y-30136500D01*
X154556476Y-30136500D02*
X154508857Y-30088880D01*
X153223142Y-105184119D02*
X152889809Y-104707928D01*
X152651714Y-105184119D02*
X152651714Y-104184119D01*
X152651714Y-104184119D02*
X153032666Y-104184119D01*
X153032666Y-104184119D02*
X153127904Y-104231738D01*
X153127904Y-104231738D02*
X153175523Y-104279357D01*
X153175523Y-104279357D02*
X153223142Y-104374595D01*
X153223142Y-104374595D02*
X153223142Y-104517452D01*
X153223142Y-104517452D02*
X153175523Y-104612690D01*
X153175523Y-104612690D02*
X153127904Y-104660309D01*
X153127904Y-104660309D02*
X153032666Y-104707928D01*
X153032666Y-104707928D02*
X152651714Y-104707928D01*
X154175523Y-105184119D02*
X153604095Y-105184119D01*
X153889809Y-105184119D02*
X153889809Y-104184119D01*
X153889809Y-104184119D02*
X153794571Y-104326976D01*
X153794571Y-104326976D02*
X153699333Y-104422214D01*
X153699333Y-104422214D02*
X153604095Y-104469833D01*
X155032666Y-104184119D02*
X154842190Y-104184119D01*
X154842190Y-104184119D02*
X154746952Y-104231738D01*
X154746952Y-104231738D02*
X154699333Y-104279357D01*
X154699333Y-104279357D02*
X154604095Y-104422214D01*
X154604095Y-104422214D02*
X154556476Y-104612690D01*
X154556476Y-104612690D02*
X154556476Y-104993642D01*
X154556476Y-104993642D02*
X154604095Y-105088880D01*
X154604095Y-105088880D02*
X154651714Y-105136500D01*
X154651714Y-105136500D02*
X154746952Y-105184119D01*
X154746952Y-105184119D02*
X154937428Y-105184119D01*
X154937428Y-105184119D02*
X155032666Y-105136500D01*
X155032666Y-105136500D02*
X155080285Y-105088880D01*
X155080285Y-105088880D02*
X155127904Y-104993642D01*
X155127904Y-104993642D02*
X155127904Y-104755547D01*
X155127904Y-104755547D02*
X155080285Y-104660309D01*
X155080285Y-104660309D02*
X155032666Y-104612690D01*
X155032666Y-104612690D02*
X154937428Y-104565071D01*
X154937428Y-104565071D02*
X154746952Y-104565071D01*
X154746952Y-104565071D02*
X154651714Y-104612690D01*
X154651714Y-104612690D02*
X154604095Y-104660309D01*
X154604095Y-104660309D02*
X154556476Y-104755547D01*
X153223142Y-80184119D02*
X152889809Y-79707928D01*
X152651714Y-80184119D02*
X152651714Y-79184119D01*
X152651714Y-79184119D02*
X153032666Y-79184119D01*
X153032666Y-79184119D02*
X153127904Y-79231738D01*
X153127904Y-79231738D02*
X153175523Y-79279357D01*
X153175523Y-79279357D02*
X153223142Y-79374595D01*
X153223142Y-79374595D02*
X153223142Y-79517452D01*
X153223142Y-79517452D02*
X153175523Y-79612690D01*
X153175523Y-79612690D02*
X153127904Y-79660309D01*
X153127904Y-79660309D02*
X153032666Y-79707928D01*
X153032666Y-79707928D02*
X152651714Y-79707928D01*
X154175523Y-80184119D02*
X153604095Y-80184119D01*
X153889809Y-80184119D02*
X153889809Y-79184119D01*
X153889809Y-79184119D02*
X153794571Y-79326976D01*
X153794571Y-79326976D02*
X153699333Y-79422214D01*
X153699333Y-79422214D02*
X153604095Y-79469833D01*
X155080285Y-79184119D02*
X154604095Y-79184119D01*
X154604095Y-79184119D02*
X154556476Y-79660309D01*
X154556476Y-79660309D02*
X154604095Y-79612690D01*
X154604095Y-79612690D02*
X154699333Y-79565071D01*
X154699333Y-79565071D02*
X154937428Y-79565071D01*
X154937428Y-79565071D02*
X155032666Y-79612690D01*
X155032666Y-79612690D02*
X155080285Y-79660309D01*
X155080285Y-79660309D02*
X155127904Y-79755547D01*
X155127904Y-79755547D02*
X155127904Y-79993642D01*
X155127904Y-79993642D02*
X155080285Y-80088880D01*
X155080285Y-80088880D02*
X155032666Y-80136500D01*
X155032666Y-80136500D02*
X154937428Y-80184119D01*
X154937428Y-80184119D02*
X154699333Y-80184119D01*
X154699333Y-80184119D02*
X154604095Y-80136500D01*
X154604095Y-80136500D02*
X154556476Y-80088880D01*
X166036666Y-122644819D02*
X166036666Y-123359104D01*
X166036666Y-123359104D02*
X165989047Y-123501961D01*
X165989047Y-123501961D02*
X165893809Y-123597200D01*
X165893809Y-123597200D02*
X165750952Y-123644819D01*
X165750952Y-123644819D02*
X165655714Y-123644819D01*
X166989047Y-122644819D02*
X166512857Y-122644819D01*
X166512857Y-122644819D02*
X166465238Y-123121009D01*
X166465238Y-123121009D02*
X166512857Y-123073390D01*
X166512857Y-123073390D02*
X166608095Y-123025771D01*
X166608095Y-123025771D02*
X166846190Y-123025771D01*
X166846190Y-123025771D02*
X166941428Y-123073390D01*
X166941428Y-123073390D02*
X166989047Y-123121009D01*
X166989047Y-123121009D02*
X167036666Y-123216247D01*
X167036666Y-123216247D02*
X167036666Y-123454342D01*
X167036666Y-123454342D02*
X166989047Y-123549580D01*
X166989047Y-123549580D02*
X166941428Y-123597200D01*
X166941428Y-123597200D02*
X166846190Y-123644819D01*
X166846190Y-123644819D02*
X166608095Y-123644819D01*
X166608095Y-123644819D02*
X166512857Y-123597200D01*
X166512857Y-123597200D02*
X166465238Y-123549580D01*
X166036666Y-22822819D02*
X166036666Y-23537104D01*
X166036666Y-23537104D02*
X165989047Y-23679961D01*
X165989047Y-23679961D02*
X165893809Y-23775200D01*
X165893809Y-23775200D02*
X165750952Y-23822819D01*
X165750952Y-23822819D02*
X165655714Y-23822819D01*
X167036666Y-23822819D02*
X166465238Y-23822819D01*
X166750952Y-23822819D02*
X166750952Y-22822819D01*
X166750952Y-22822819D02*
X166655714Y-22965676D01*
X166655714Y-22965676D02*
X166560476Y-23060914D01*
X166560476Y-23060914D02*
X166465238Y-23108533D01*
X124755819Y-79745966D02*
X124279628Y-80079299D01*
X124755819Y-80317394D02*
X123755819Y-80317394D01*
X123755819Y-80317394D02*
X123755819Y-79936442D01*
X123755819Y-79936442D02*
X123803438Y-79841204D01*
X123803438Y-79841204D02*
X123851057Y-79793585D01*
X123851057Y-79793585D02*
X123946295Y-79745966D01*
X123946295Y-79745966D02*
X124089152Y-79745966D01*
X124089152Y-79745966D02*
X124184390Y-79793585D01*
X124184390Y-79793585D02*
X124232009Y-79841204D01*
X124232009Y-79841204D02*
X124279628Y-79936442D01*
X124279628Y-79936442D02*
X124279628Y-80317394D01*
X123755819Y-79412632D02*
X123755819Y-78793585D01*
X123755819Y-78793585D02*
X124136771Y-79126918D01*
X124136771Y-79126918D02*
X124136771Y-78984061D01*
X124136771Y-78984061D02*
X124184390Y-78888823D01*
X124184390Y-78888823D02*
X124232009Y-78841204D01*
X124232009Y-78841204D02*
X124327247Y-78793585D01*
X124327247Y-78793585D02*
X124565342Y-78793585D01*
X124565342Y-78793585D02*
X124660580Y-78841204D01*
X124660580Y-78841204D02*
X124708200Y-78888823D01*
X124708200Y-78888823D02*
X124755819Y-78984061D01*
X124755819Y-78984061D02*
X124755819Y-79269775D01*
X124755819Y-79269775D02*
X124708200Y-79365013D01*
X124708200Y-79365013D02*
X124660580Y-79412632D01*
X131182905Y-78844119D02*
X131182905Y-77844119D01*
X131182905Y-77844119D02*
X131421000Y-77844119D01*
X131421000Y-77844119D02*
X131563857Y-77891738D01*
X131563857Y-77891738D02*
X131659095Y-77986976D01*
X131659095Y-77986976D02*
X131706714Y-78082214D01*
X131706714Y-78082214D02*
X131754333Y-78272690D01*
X131754333Y-78272690D02*
X131754333Y-78415547D01*
X131754333Y-78415547D02*
X131706714Y-78606023D01*
X131706714Y-78606023D02*
X131659095Y-78701261D01*
X131659095Y-78701261D02*
X131563857Y-78796500D01*
X131563857Y-78796500D02*
X131421000Y-78844119D01*
X131421000Y-78844119D02*
X131182905Y-78844119D01*
X132087667Y-77844119D02*
X132706714Y-77844119D01*
X132706714Y-77844119D02*
X132373381Y-78225071D01*
X132373381Y-78225071D02*
X132516238Y-78225071D01*
X132516238Y-78225071D02*
X132611476Y-78272690D01*
X132611476Y-78272690D02*
X132659095Y-78320309D01*
X132659095Y-78320309D02*
X132706714Y-78415547D01*
X132706714Y-78415547D02*
X132706714Y-78653642D01*
X132706714Y-78653642D02*
X132659095Y-78748880D01*
X132659095Y-78748880D02*
X132611476Y-78796500D01*
X132611476Y-78796500D02*
X132516238Y-78844119D01*
X132516238Y-78844119D02*
X132230524Y-78844119D01*
X132230524Y-78844119D02*
X132135286Y-78796500D01*
X132135286Y-78796500D02*
X132087667Y-78748880D01*
X135469095Y-80744119D02*
X135469095Y-79744119D01*
X136040523Y-80744119D02*
X135611952Y-80172690D01*
X136040523Y-79744119D02*
X135469095Y-80315547D01*
X153223142Y-155184119D02*
X152889809Y-154707928D01*
X152651714Y-155184119D02*
X152651714Y-154184119D01*
X152651714Y-154184119D02*
X153032666Y-154184119D01*
X153032666Y-154184119D02*
X153127904Y-154231738D01*
X153127904Y-154231738D02*
X153175523Y-154279357D01*
X153175523Y-154279357D02*
X153223142Y-154374595D01*
X153223142Y-154374595D02*
X153223142Y-154517452D01*
X153223142Y-154517452D02*
X153175523Y-154612690D01*
X153175523Y-154612690D02*
X153127904Y-154660309D01*
X153127904Y-154660309D02*
X153032666Y-154707928D01*
X153032666Y-154707928D02*
X152651714Y-154707928D01*
X154175523Y-155184119D02*
X153604095Y-155184119D01*
X153889809Y-155184119D02*
X153889809Y-154184119D01*
X153889809Y-154184119D02*
X153794571Y-154326976D01*
X153794571Y-154326976D02*
X153699333Y-154422214D01*
X153699333Y-154422214D02*
X153604095Y-154469833D01*
X154746952Y-154612690D02*
X154651714Y-154565071D01*
X154651714Y-154565071D02*
X154604095Y-154517452D01*
X154604095Y-154517452D02*
X154556476Y-154422214D01*
X154556476Y-154422214D02*
X154556476Y-154374595D01*
X154556476Y-154374595D02*
X154604095Y-154279357D01*
X154604095Y-154279357D02*
X154651714Y-154231738D01*
X154651714Y-154231738D02*
X154746952Y-154184119D01*
X154746952Y-154184119D02*
X154937428Y-154184119D01*
X154937428Y-154184119D02*
X155032666Y-154231738D01*
X155032666Y-154231738D02*
X155080285Y-154279357D01*
X155080285Y-154279357D02*
X155127904Y-154374595D01*
X155127904Y-154374595D02*
X155127904Y-154422214D01*
X155127904Y-154422214D02*
X155080285Y-154517452D01*
X155080285Y-154517452D02*
X155032666Y-154565071D01*
X155032666Y-154565071D02*
X154937428Y-154612690D01*
X154937428Y-154612690D02*
X154746952Y-154612690D01*
X154746952Y-154612690D02*
X154651714Y-154660309D01*
X154651714Y-154660309D02*
X154604095Y-154707928D01*
X154604095Y-154707928D02*
X154556476Y-154803166D01*
X154556476Y-154803166D02*
X154556476Y-154993642D01*
X154556476Y-154993642D02*
X154604095Y-155088880D01*
X154604095Y-155088880D02*
X154651714Y-155136500D01*
X154651714Y-155136500D02*
X154746952Y-155184119D01*
X154746952Y-155184119D02*
X154937428Y-155184119D01*
X154937428Y-155184119D02*
X155032666Y-155136500D01*
X155032666Y-155136500D02*
X155080285Y-155088880D01*
X155080285Y-155088880D02*
X155127904Y-154993642D01*
X155127904Y-154993642D02*
X155127904Y-154803166D01*
X155127904Y-154803166D02*
X155080285Y-154707928D01*
X155080285Y-154707928D02*
X155032666Y-154660309D01*
X155032666Y-154660309D02*
X154937428Y-154612690D01*
X141950580Y-117945966D02*
X141998200Y-117993585D01*
X141998200Y-117993585D02*
X142045819Y-118136442D01*
X142045819Y-118136442D02*
X142045819Y-118231680D01*
X142045819Y-118231680D02*
X141998200Y-118374537D01*
X141998200Y-118374537D02*
X141902961Y-118469775D01*
X141902961Y-118469775D02*
X141807723Y-118517394D01*
X141807723Y-118517394D02*
X141617247Y-118565013D01*
X141617247Y-118565013D02*
X141474390Y-118565013D01*
X141474390Y-118565013D02*
X141283914Y-118517394D01*
X141283914Y-118517394D02*
X141188676Y-118469775D01*
X141188676Y-118469775D02*
X141093438Y-118374537D01*
X141093438Y-118374537D02*
X141045819Y-118231680D01*
X141045819Y-118231680D02*
X141045819Y-118136442D01*
X141045819Y-118136442D02*
X141093438Y-117993585D01*
X141093438Y-117993585D02*
X141141057Y-117945966D01*
X141045819Y-117041204D02*
X141045819Y-117517394D01*
X141045819Y-117517394D02*
X141522009Y-117565013D01*
X141522009Y-117565013D02*
X141474390Y-117517394D01*
X141474390Y-117517394D02*
X141426771Y-117422156D01*
X141426771Y-117422156D02*
X141426771Y-117184061D01*
X141426771Y-117184061D02*
X141474390Y-117088823D01*
X141474390Y-117088823D02*
X141522009Y-117041204D01*
X141522009Y-117041204D02*
X141617247Y-116993585D01*
X141617247Y-116993585D02*
X141855342Y-116993585D01*
X141855342Y-116993585D02*
X141950580Y-117041204D01*
X141950580Y-117041204D02*
X141998200Y-117088823D01*
X141998200Y-117088823D02*
X142045819Y-117184061D01*
X142045819Y-117184061D02*
X142045819Y-117422156D01*
X142045819Y-117422156D02*
X141998200Y-117517394D01*
X141998200Y-117517394D02*
X141950580Y-117565013D01*
X141880580Y-135830067D02*
X141928200Y-135877686D01*
X141928200Y-135877686D02*
X141975819Y-136020543D01*
X141975819Y-136020543D02*
X141975819Y-136115781D01*
X141975819Y-136115781D02*
X141928200Y-136258638D01*
X141928200Y-136258638D02*
X141832961Y-136353876D01*
X141832961Y-136353876D02*
X141737723Y-136401495D01*
X141737723Y-136401495D02*
X141547247Y-136449114D01*
X141547247Y-136449114D02*
X141404390Y-136449114D01*
X141404390Y-136449114D02*
X141213914Y-136401495D01*
X141213914Y-136401495D02*
X141118676Y-136353876D01*
X141118676Y-136353876D02*
X141023438Y-136258638D01*
X141023438Y-136258638D02*
X140975819Y-136115781D01*
X140975819Y-136115781D02*
X140975819Y-136020543D01*
X140975819Y-136020543D02*
X141023438Y-135877686D01*
X141023438Y-135877686D02*
X141071057Y-135830067D01*
X141404390Y-135258638D02*
X141356771Y-135353876D01*
X141356771Y-135353876D02*
X141309152Y-135401495D01*
X141309152Y-135401495D02*
X141213914Y-135449114D01*
X141213914Y-135449114D02*
X141166295Y-135449114D01*
X141166295Y-135449114D02*
X141071057Y-135401495D01*
X141071057Y-135401495D02*
X141023438Y-135353876D01*
X141023438Y-135353876D02*
X140975819Y-135258638D01*
X140975819Y-135258638D02*
X140975819Y-135068162D01*
X140975819Y-135068162D02*
X141023438Y-134972924D01*
X141023438Y-134972924D02*
X141071057Y-134925305D01*
X141071057Y-134925305D02*
X141166295Y-134877686D01*
X141166295Y-134877686D02*
X141213914Y-134877686D01*
X141213914Y-134877686D02*
X141309152Y-134925305D01*
X141309152Y-134925305D02*
X141356771Y-134972924D01*
X141356771Y-134972924D02*
X141404390Y-135068162D01*
X141404390Y-135068162D02*
X141404390Y-135258638D01*
X141404390Y-135258638D02*
X141452009Y-135353876D01*
X141452009Y-135353876D02*
X141499628Y-135401495D01*
X141499628Y-135401495D02*
X141594866Y-135449114D01*
X141594866Y-135449114D02*
X141785342Y-135449114D01*
X141785342Y-135449114D02*
X141880580Y-135401495D01*
X141880580Y-135401495D02*
X141928200Y-135353876D01*
X141928200Y-135353876D02*
X141975819Y-135258638D01*
X141975819Y-135258638D02*
X141975819Y-135068162D01*
X141975819Y-135068162D02*
X141928200Y-134972924D01*
X141928200Y-134972924D02*
X141880580Y-134925305D01*
X141880580Y-134925305D02*
X141785342Y-134877686D01*
X141785342Y-134877686D02*
X141594866Y-134877686D01*
X141594866Y-134877686D02*
X141499628Y-134925305D01*
X141499628Y-134925305D02*
X141452009Y-134972924D01*
X141452009Y-134972924D02*
X141404390Y-135068162D01*
X131278142Y-129644119D02*
X130944809Y-129167928D01*
X130706714Y-129644119D02*
X130706714Y-128644119D01*
X130706714Y-128644119D02*
X131087666Y-128644119D01*
X131087666Y-128644119D02*
X131182904Y-128691738D01*
X131182904Y-128691738D02*
X131230523Y-128739357D01*
X131230523Y-128739357D02*
X131278142Y-128834595D01*
X131278142Y-128834595D02*
X131278142Y-128977452D01*
X131278142Y-128977452D02*
X131230523Y-129072690D01*
X131230523Y-129072690D02*
X131182904Y-129120309D01*
X131182904Y-129120309D02*
X131087666Y-129167928D01*
X131087666Y-129167928D02*
X130706714Y-129167928D01*
X132230523Y-129644119D02*
X131659095Y-129644119D01*
X131944809Y-129644119D02*
X131944809Y-128644119D01*
X131944809Y-128644119D02*
X131849571Y-128786976D01*
X131849571Y-128786976D02*
X131754333Y-128882214D01*
X131754333Y-128882214D02*
X131659095Y-128929833D01*
X132611476Y-128739357D02*
X132659095Y-128691738D01*
X132659095Y-128691738D02*
X132754333Y-128644119D01*
X132754333Y-128644119D02*
X132992428Y-128644119D01*
X132992428Y-128644119D02*
X133087666Y-128691738D01*
X133087666Y-128691738D02*
X133135285Y-128739357D01*
X133135285Y-128739357D02*
X133182904Y-128834595D01*
X133182904Y-128834595D02*
X133182904Y-128929833D01*
X133182904Y-128929833D02*
X133135285Y-129072690D01*
X133135285Y-129072690D02*
X132563857Y-129644119D01*
X132563857Y-129644119D02*
X133182904Y-129644119D01*
X121697667Y-132570601D02*
X121840524Y-132618220D01*
X121840524Y-132618220D02*
X122078619Y-132618220D01*
X122078619Y-132618220D02*
X122173857Y-132570601D01*
X122173857Y-132570601D02*
X122221476Y-132522981D01*
X122221476Y-132522981D02*
X122269095Y-132427743D01*
X122269095Y-132427743D02*
X122269095Y-132332505D01*
X122269095Y-132332505D02*
X122221476Y-132237267D01*
X122221476Y-132237267D02*
X122173857Y-132189648D01*
X122173857Y-132189648D02*
X122078619Y-132142029D01*
X122078619Y-132142029D02*
X121888143Y-132094410D01*
X121888143Y-132094410D02*
X121792905Y-132046791D01*
X121792905Y-132046791D02*
X121745286Y-131999172D01*
X121745286Y-131999172D02*
X121697667Y-131903934D01*
X121697667Y-131903934D02*
X121697667Y-131808696D01*
X121697667Y-131808696D02*
X121745286Y-131713458D01*
X121745286Y-131713458D02*
X121792905Y-131665839D01*
X121792905Y-131665839D02*
X121888143Y-131618220D01*
X121888143Y-131618220D02*
X122126238Y-131618220D01*
X122126238Y-131618220D02*
X122269095Y-131665839D01*
X122602429Y-131618220D02*
X122840524Y-132618220D01*
X122840524Y-132618220D02*
X123031000Y-131903934D01*
X123031000Y-131903934D02*
X123221476Y-132618220D01*
X123221476Y-132618220D02*
X123459572Y-131618220D01*
X123745286Y-131618220D02*
X124411952Y-131618220D01*
X124411952Y-131618220D02*
X123983381Y-132618220D01*
X131182905Y-68684119D02*
X131182905Y-67684119D01*
X131182905Y-67684119D02*
X131421000Y-67684119D01*
X131421000Y-67684119D02*
X131563857Y-67731738D01*
X131563857Y-67731738D02*
X131659095Y-67826976D01*
X131659095Y-67826976D02*
X131706714Y-67922214D01*
X131706714Y-67922214D02*
X131754333Y-68112690D01*
X131754333Y-68112690D02*
X131754333Y-68255547D01*
X131754333Y-68255547D02*
X131706714Y-68446023D01*
X131706714Y-68446023D02*
X131659095Y-68541261D01*
X131659095Y-68541261D02*
X131563857Y-68636500D01*
X131563857Y-68636500D02*
X131421000Y-68684119D01*
X131421000Y-68684119D02*
X131182905Y-68684119D01*
X132135286Y-67779357D02*
X132182905Y-67731738D01*
X132182905Y-67731738D02*
X132278143Y-67684119D01*
X132278143Y-67684119D02*
X132516238Y-67684119D01*
X132516238Y-67684119D02*
X132611476Y-67731738D01*
X132611476Y-67731738D02*
X132659095Y-67779357D01*
X132659095Y-67779357D02*
X132706714Y-67874595D01*
X132706714Y-67874595D02*
X132706714Y-67969833D01*
X132706714Y-67969833D02*
X132659095Y-68112690D01*
X132659095Y-68112690D02*
X132087667Y-68684119D01*
X132087667Y-68684119D02*
X132706714Y-68684119D01*
X135469095Y-70584119D02*
X135469095Y-69584119D01*
X136040523Y-70584119D02*
X135611952Y-70012690D01*
X136040523Y-69584119D02*
X135469095Y-70155547D01*
X131754333Y-73684119D02*
X131421000Y-73207928D01*
X131182905Y-73684119D02*
X131182905Y-72684119D01*
X131182905Y-72684119D02*
X131563857Y-72684119D01*
X131563857Y-72684119D02*
X131659095Y-72731738D01*
X131659095Y-72731738D02*
X131706714Y-72779357D01*
X131706714Y-72779357D02*
X131754333Y-72874595D01*
X131754333Y-72874595D02*
X131754333Y-73017452D01*
X131754333Y-73017452D02*
X131706714Y-73112690D01*
X131706714Y-73112690D02*
X131659095Y-73160309D01*
X131659095Y-73160309D02*
X131563857Y-73207928D01*
X131563857Y-73207928D02*
X131182905Y-73207928D01*
X132325762Y-73112690D02*
X132230524Y-73065071D01*
X132230524Y-73065071D02*
X132182905Y-73017452D01*
X132182905Y-73017452D02*
X132135286Y-72922214D01*
X132135286Y-72922214D02*
X132135286Y-72874595D01*
X132135286Y-72874595D02*
X132182905Y-72779357D01*
X132182905Y-72779357D02*
X132230524Y-72731738D01*
X132230524Y-72731738D02*
X132325762Y-72684119D01*
X132325762Y-72684119D02*
X132516238Y-72684119D01*
X132516238Y-72684119D02*
X132611476Y-72731738D01*
X132611476Y-72731738D02*
X132659095Y-72779357D01*
X132659095Y-72779357D02*
X132706714Y-72874595D01*
X132706714Y-72874595D02*
X132706714Y-72922214D01*
X132706714Y-72922214D02*
X132659095Y-73017452D01*
X132659095Y-73017452D02*
X132611476Y-73065071D01*
X132611476Y-73065071D02*
X132516238Y-73112690D01*
X132516238Y-73112690D02*
X132325762Y-73112690D01*
X132325762Y-73112690D02*
X132230524Y-73160309D01*
X132230524Y-73160309D02*
X132182905Y-73207928D01*
X132182905Y-73207928D02*
X132135286Y-73303166D01*
X132135286Y-73303166D02*
X132135286Y-73493642D01*
X132135286Y-73493642D02*
X132182905Y-73588880D01*
X132182905Y-73588880D02*
X132230524Y-73636500D01*
X132230524Y-73636500D02*
X132325762Y-73684119D01*
X132325762Y-73684119D02*
X132516238Y-73684119D01*
X132516238Y-73684119D02*
X132611476Y-73636500D01*
X132611476Y-73636500D02*
X132659095Y-73588880D01*
X132659095Y-73588880D02*
X132706714Y-73493642D01*
X132706714Y-73493642D02*
X132706714Y-73303166D01*
X132706714Y-73303166D02*
X132659095Y-73207928D01*
X132659095Y-73207928D02*
X132611476Y-73160309D01*
X132611476Y-73160309D02*
X132516238Y-73112690D01*
X139513333Y-94348880D02*
X139465714Y-94396500D01*
X139465714Y-94396500D02*
X139322857Y-94444119D01*
X139322857Y-94444119D02*
X139227619Y-94444119D01*
X139227619Y-94444119D02*
X139084762Y-94396500D01*
X139084762Y-94396500D02*
X138989524Y-94301261D01*
X138989524Y-94301261D02*
X138941905Y-94206023D01*
X138941905Y-94206023D02*
X138894286Y-94015547D01*
X138894286Y-94015547D02*
X138894286Y-93872690D01*
X138894286Y-93872690D02*
X138941905Y-93682214D01*
X138941905Y-93682214D02*
X138989524Y-93586976D01*
X138989524Y-93586976D02*
X139084762Y-93491738D01*
X139084762Y-93491738D02*
X139227619Y-93444119D01*
X139227619Y-93444119D02*
X139322857Y-93444119D01*
X139322857Y-93444119D02*
X139465714Y-93491738D01*
X139465714Y-93491738D02*
X139513333Y-93539357D01*
X139989524Y-94444119D02*
X140180000Y-94444119D01*
X140180000Y-94444119D02*
X140275238Y-94396500D01*
X140275238Y-94396500D02*
X140322857Y-94348880D01*
X140322857Y-94348880D02*
X140418095Y-94206023D01*
X140418095Y-94206023D02*
X140465714Y-94015547D01*
X140465714Y-94015547D02*
X140465714Y-93634595D01*
X140465714Y-93634595D02*
X140418095Y-93539357D01*
X140418095Y-93539357D02*
X140370476Y-93491738D01*
X140370476Y-93491738D02*
X140275238Y-93444119D01*
X140275238Y-93444119D02*
X140084762Y-93444119D01*
X140084762Y-93444119D02*
X139989524Y-93491738D01*
X139989524Y-93491738D02*
X139941905Y-93539357D01*
X139941905Y-93539357D02*
X139894286Y-93634595D01*
X139894286Y-93634595D02*
X139894286Y-93872690D01*
X139894286Y-93872690D02*
X139941905Y-93967928D01*
X139941905Y-93967928D02*
X139989524Y-94015547D01*
X139989524Y-94015547D02*
X140084762Y-94063166D01*
X140084762Y-94063166D02*
X140275238Y-94063166D01*
X140275238Y-94063166D02*
X140370476Y-94015547D01*
X140370476Y-94015547D02*
X140418095Y-93967928D01*
X140418095Y-93967928D02*
X140465714Y-93872690D01*
X124755819Y-115385966D02*
X124279628Y-115719299D01*
X124755819Y-115957394D02*
X123755819Y-115957394D01*
X123755819Y-115957394D02*
X123755819Y-115576442D01*
X123755819Y-115576442D02*
X123803438Y-115481204D01*
X123803438Y-115481204D02*
X123851057Y-115433585D01*
X123851057Y-115433585D02*
X123946295Y-115385966D01*
X123946295Y-115385966D02*
X124089152Y-115385966D01*
X124089152Y-115385966D02*
X124184390Y-115433585D01*
X124184390Y-115433585D02*
X124232009Y-115481204D01*
X124232009Y-115481204D02*
X124279628Y-115576442D01*
X124279628Y-115576442D02*
X124279628Y-115957394D01*
X123755819Y-114481204D02*
X123755819Y-114957394D01*
X123755819Y-114957394D02*
X124232009Y-115005013D01*
X124232009Y-115005013D02*
X124184390Y-114957394D01*
X124184390Y-114957394D02*
X124136771Y-114862156D01*
X124136771Y-114862156D02*
X124136771Y-114624061D01*
X124136771Y-114624061D02*
X124184390Y-114528823D01*
X124184390Y-114528823D02*
X124232009Y-114481204D01*
X124232009Y-114481204D02*
X124327247Y-114433585D01*
X124327247Y-114433585D02*
X124565342Y-114433585D01*
X124565342Y-114433585D02*
X124660580Y-114481204D01*
X124660580Y-114481204D02*
X124708200Y-114528823D01*
X124708200Y-114528823D02*
X124755819Y-114624061D01*
X124755819Y-114624061D02*
X124755819Y-114862156D01*
X124755819Y-114862156D02*
X124708200Y-114957394D01*
X124708200Y-114957394D02*
X124660580Y-115005013D01*
X131182905Y-124644119D02*
X131182905Y-123644119D01*
X131182905Y-123644119D02*
X131421000Y-123644119D01*
X131421000Y-123644119D02*
X131563857Y-123691738D01*
X131563857Y-123691738D02*
X131659095Y-123786976D01*
X131659095Y-123786976D02*
X131706714Y-123882214D01*
X131706714Y-123882214D02*
X131754333Y-124072690D01*
X131754333Y-124072690D02*
X131754333Y-124215547D01*
X131754333Y-124215547D02*
X131706714Y-124406023D01*
X131706714Y-124406023D02*
X131659095Y-124501261D01*
X131659095Y-124501261D02*
X131563857Y-124596500D01*
X131563857Y-124596500D02*
X131421000Y-124644119D01*
X131421000Y-124644119D02*
X131182905Y-124644119D01*
X132611476Y-123644119D02*
X132421000Y-123644119D01*
X132421000Y-123644119D02*
X132325762Y-123691738D01*
X132325762Y-123691738D02*
X132278143Y-123739357D01*
X132278143Y-123739357D02*
X132182905Y-123882214D01*
X132182905Y-123882214D02*
X132135286Y-124072690D01*
X132135286Y-124072690D02*
X132135286Y-124453642D01*
X132135286Y-124453642D02*
X132182905Y-124548880D01*
X132182905Y-124548880D02*
X132230524Y-124596500D01*
X132230524Y-124596500D02*
X132325762Y-124644119D01*
X132325762Y-124644119D02*
X132516238Y-124644119D01*
X132516238Y-124644119D02*
X132611476Y-124596500D01*
X132611476Y-124596500D02*
X132659095Y-124548880D01*
X132659095Y-124548880D02*
X132706714Y-124453642D01*
X132706714Y-124453642D02*
X132706714Y-124215547D01*
X132706714Y-124215547D02*
X132659095Y-124120309D01*
X132659095Y-124120309D02*
X132611476Y-124072690D01*
X132611476Y-124072690D02*
X132516238Y-124025071D01*
X132516238Y-124025071D02*
X132325762Y-124025071D01*
X132325762Y-124025071D02*
X132230524Y-124072690D01*
X132230524Y-124072690D02*
X132182905Y-124120309D01*
X132182905Y-124120309D02*
X132135286Y-124215547D01*
X135469095Y-126544119D02*
X135469095Y-125544119D01*
X136040523Y-126544119D02*
X135611952Y-125972690D01*
X136040523Y-125544119D02*
X135469095Y-126115547D01*
X117128200Y-82182632D02*
X117175819Y-82039775D01*
X117175819Y-82039775D02*
X117175819Y-81801680D01*
X117175819Y-81801680D02*
X117128200Y-81706442D01*
X117128200Y-81706442D02*
X117080580Y-81658823D01*
X117080580Y-81658823D02*
X116985342Y-81611204D01*
X116985342Y-81611204D02*
X116890104Y-81611204D01*
X116890104Y-81611204D02*
X116794866Y-81658823D01*
X116794866Y-81658823D02*
X116747247Y-81706442D01*
X116747247Y-81706442D02*
X116699628Y-81801680D01*
X116699628Y-81801680D02*
X116652009Y-81992156D01*
X116652009Y-81992156D02*
X116604390Y-82087394D01*
X116604390Y-82087394D02*
X116556771Y-82135013D01*
X116556771Y-82135013D02*
X116461533Y-82182632D01*
X116461533Y-82182632D02*
X116366295Y-82182632D01*
X116366295Y-82182632D02*
X116271057Y-82135013D01*
X116271057Y-82135013D02*
X116223438Y-82087394D01*
X116223438Y-82087394D02*
X116175819Y-81992156D01*
X116175819Y-81992156D02*
X116175819Y-81754061D01*
X116175819Y-81754061D02*
X116223438Y-81611204D01*
X116175819Y-81277870D02*
X117175819Y-81039775D01*
X117175819Y-81039775D02*
X116461533Y-80849299D01*
X116461533Y-80849299D02*
X117175819Y-80658823D01*
X117175819Y-80658823D02*
X116175819Y-80420728D01*
X116175819Y-80135013D02*
X116175819Y-79515966D01*
X116175819Y-79515966D02*
X116556771Y-79849299D01*
X116556771Y-79849299D02*
X116556771Y-79706442D01*
X116556771Y-79706442D02*
X116604390Y-79611204D01*
X116604390Y-79611204D02*
X116652009Y-79563585D01*
X116652009Y-79563585D02*
X116747247Y-79515966D01*
X116747247Y-79515966D02*
X116985342Y-79515966D01*
X116985342Y-79515966D02*
X117080580Y-79563585D01*
X117080580Y-79563585D02*
X117128200Y-79611204D01*
X117128200Y-79611204D02*
X117175819Y-79706442D01*
X117175819Y-79706442D02*
X117175819Y-79992156D01*
X117175819Y-79992156D02*
X117128200Y-80087394D01*
X117128200Y-80087394D02*
X117080580Y-80135013D01*
X153223142Y-55184119D02*
X152889809Y-54707928D01*
X152651714Y-55184119D02*
X152651714Y-54184119D01*
X152651714Y-54184119D02*
X153032666Y-54184119D01*
X153032666Y-54184119D02*
X153127904Y-54231738D01*
X153127904Y-54231738D02*
X153175523Y-54279357D01*
X153175523Y-54279357D02*
X153223142Y-54374595D01*
X153223142Y-54374595D02*
X153223142Y-54517452D01*
X153223142Y-54517452D02*
X153175523Y-54612690D01*
X153175523Y-54612690D02*
X153127904Y-54660309D01*
X153127904Y-54660309D02*
X153032666Y-54707928D01*
X153032666Y-54707928D02*
X152651714Y-54707928D01*
X154175523Y-55184119D02*
X153604095Y-55184119D01*
X153889809Y-55184119D02*
X153889809Y-54184119D01*
X153889809Y-54184119D02*
X153794571Y-54326976D01*
X153794571Y-54326976D02*
X153699333Y-54422214D01*
X153699333Y-54422214D02*
X153604095Y-54469833D01*
X155032666Y-54517452D02*
X155032666Y-55184119D01*
X154794571Y-54136500D02*
X154556476Y-54850785D01*
X154556476Y-54850785D02*
X155175523Y-54850785D01*
X135530580Y-135830067D02*
X135578200Y-135877686D01*
X135578200Y-135877686D02*
X135625819Y-136020543D01*
X135625819Y-136020543D02*
X135625819Y-136115781D01*
X135625819Y-136115781D02*
X135578200Y-136258638D01*
X135578200Y-136258638D02*
X135482961Y-136353876D01*
X135482961Y-136353876D02*
X135387723Y-136401495D01*
X135387723Y-136401495D02*
X135197247Y-136449114D01*
X135197247Y-136449114D02*
X135054390Y-136449114D01*
X135054390Y-136449114D02*
X134863914Y-136401495D01*
X134863914Y-136401495D02*
X134768676Y-136353876D01*
X134768676Y-136353876D02*
X134673438Y-136258638D01*
X134673438Y-136258638D02*
X134625819Y-136115781D01*
X134625819Y-136115781D02*
X134625819Y-136020543D01*
X134625819Y-136020543D02*
X134673438Y-135877686D01*
X134673438Y-135877686D02*
X134721057Y-135830067D01*
X134625819Y-135496733D02*
X134625819Y-134830067D01*
X134625819Y-134830067D02*
X135625819Y-135258638D01*
X141950580Y-82305966D02*
X141998200Y-82353585D01*
X141998200Y-82353585D02*
X142045819Y-82496442D01*
X142045819Y-82496442D02*
X142045819Y-82591680D01*
X142045819Y-82591680D02*
X141998200Y-82734537D01*
X141998200Y-82734537D02*
X141902961Y-82829775D01*
X141902961Y-82829775D02*
X141807723Y-82877394D01*
X141807723Y-82877394D02*
X141617247Y-82925013D01*
X141617247Y-82925013D02*
X141474390Y-82925013D01*
X141474390Y-82925013D02*
X141283914Y-82877394D01*
X141283914Y-82877394D02*
X141188676Y-82829775D01*
X141188676Y-82829775D02*
X141093438Y-82734537D01*
X141093438Y-82734537D02*
X141045819Y-82591680D01*
X141045819Y-82591680D02*
X141045819Y-82496442D01*
X141045819Y-82496442D02*
X141093438Y-82353585D01*
X141093438Y-82353585D02*
X141141057Y-82305966D01*
X141045819Y-81972632D02*
X141045819Y-81353585D01*
X141045819Y-81353585D02*
X141426771Y-81686918D01*
X141426771Y-81686918D02*
X141426771Y-81544061D01*
X141426771Y-81544061D02*
X141474390Y-81448823D01*
X141474390Y-81448823D02*
X141522009Y-81401204D01*
X141522009Y-81401204D02*
X141617247Y-81353585D01*
X141617247Y-81353585D02*
X141855342Y-81353585D01*
X141855342Y-81353585D02*
X141950580Y-81401204D01*
X141950580Y-81401204D02*
X141998200Y-81448823D01*
X141998200Y-81448823D02*
X142045819Y-81544061D01*
X142045819Y-81544061D02*
X142045819Y-81829775D01*
X142045819Y-81829775D02*
X141998200Y-81925013D01*
X141998200Y-81925013D02*
X141950580Y-81972632D01*
X117128200Y-127982632D02*
X117175819Y-127839775D01*
X117175819Y-127839775D02*
X117175819Y-127601680D01*
X117175819Y-127601680D02*
X117128200Y-127506442D01*
X117128200Y-127506442D02*
X117080580Y-127458823D01*
X117080580Y-127458823D02*
X116985342Y-127411204D01*
X116985342Y-127411204D02*
X116890104Y-127411204D01*
X116890104Y-127411204D02*
X116794866Y-127458823D01*
X116794866Y-127458823D02*
X116747247Y-127506442D01*
X116747247Y-127506442D02*
X116699628Y-127601680D01*
X116699628Y-127601680D02*
X116652009Y-127792156D01*
X116652009Y-127792156D02*
X116604390Y-127887394D01*
X116604390Y-127887394D02*
X116556771Y-127935013D01*
X116556771Y-127935013D02*
X116461533Y-127982632D01*
X116461533Y-127982632D02*
X116366295Y-127982632D01*
X116366295Y-127982632D02*
X116271057Y-127935013D01*
X116271057Y-127935013D02*
X116223438Y-127887394D01*
X116223438Y-127887394D02*
X116175819Y-127792156D01*
X116175819Y-127792156D02*
X116175819Y-127554061D01*
X116175819Y-127554061D02*
X116223438Y-127411204D01*
X116175819Y-127077870D02*
X117175819Y-126839775D01*
X117175819Y-126839775D02*
X116461533Y-126649299D01*
X116461533Y-126649299D02*
X117175819Y-126458823D01*
X117175819Y-126458823D02*
X116175819Y-126220728D01*
X116175819Y-125411204D02*
X116175819Y-125601680D01*
X116175819Y-125601680D02*
X116223438Y-125696918D01*
X116223438Y-125696918D02*
X116271057Y-125744537D01*
X116271057Y-125744537D02*
X116413914Y-125839775D01*
X116413914Y-125839775D02*
X116604390Y-125887394D01*
X116604390Y-125887394D02*
X116985342Y-125887394D01*
X116985342Y-125887394D02*
X117080580Y-125839775D01*
X117080580Y-125839775D02*
X117128200Y-125792156D01*
X117128200Y-125792156D02*
X117175819Y-125696918D01*
X117175819Y-125696918D02*
X117175819Y-125506442D01*
X117175819Y-125506442D02*
X117128200Y-125411204D01*
X117128200Y-125411204D02*
X117080580Y-125363585D01*
X117080580Y-125363585D02*
X116985342Y-125315966D01*
X116985342Y-125315966D02*
X116747247Y-125315966D01*
X116747247Y-125315966D02*
X116652009Y-125363585D01*
X116652009Y-125363585D02*
X116604390Y-125411204D01*
X116604390Y-125411204D02*
X116556771Y-125506442D01*
X116556771Y-125506442D02*
X116556771Y-125696918D01*
X116556771Y-125696918D02*
X116604390Y-125792156D01*
X116604390Y-125792156D02*
X116652009Y-125839775D01*
X116652009Y-125839775D02*
X116747247Y-125887394D01*
X141950580Y-72145966D02*
X141998200Y-72193585D01*
X141998200Y-72193585D02*
X142045819Y-72336442D01*
X142045819Y-72336442D02*
X142045819Y-72431680D01*
X142045819Y-72431680D02*
X141998200Y-72574537D01*
X141998200Y-72574537D02*
X141902961Y-72669775D01*
X141902961Y-72669775D02*
X141807723Y-72717394D01*
X141807723Y-72717394D02*
X141617247Y-72765013D01*
X141617247Y-72765013D02*
X141474390Y-72765013D01*
X141474390Y-72765013D02*
X141283914Y-72717394D01*
X141283914Y-72717394D02*
X141188676Y-72669775D01*
X141188676Y-72669775D02*
X141093438Y-72574537D01*
X141093438Y-72574537D02*
X141045819Y-72431680D01*
X141045819Y-72431680D02*
X141045819Y-72336442D01*
X141045819Y-72336442D02*
X141093438Y-72193585D01*
X141093438Y-72193585D02*
X141141057Y-72145966D01*
X141141057Y-71765013D02*
X141093438Y-71717394D01*
X141093438Y-71717394D02*
X141045819Y-71622156D01*
X141045819Y-71622156D02*
X141045819Y-71384061D01*
X141045819Y-71384061D02*
X141093438Y-71288823D01*
X141093438Y-71288823D02*
X141141057Y-71241204D01*
X141141057Y-71241204D02*
X141236295Y-71193585D01*
X141236295Y-71193585D02*
X141331533Y-71193585D01*
X141331533Y-71193585D02*
X141474390Y-71241204D01*
X141474390Y-71241204D02*
X142045819Y-71812632D01*
X142045819Y-71812632D02*
X142045819Y-71193585D01*
X117128200Y-117822632D02*
X117175819Y-117679775D01*
X117175819Y-117679775D02*
X117175819Y-117441680D01*
X117175819Y-117441680D02*
X117128200Y-117346442D01*
X117128200Y-117346442D02*
X117080580Y-117298823D01*
X117080580Y-117298823D02*
X116985342Y-117251204D01*
X116985342Y-117251204D02*
X116890104Y-117251204D01*
X116890104Y-117251204D02*
X116794866Y-117298823D01*
X116794866Y-117298823D02*
X116747247Y-117346442D01*
X116747247Y-117346442D02*
X116699628Y-117441680D01*
X116699628Y-117441680D02*
X116652009Y-117632156D01*
X116652009Y-117632156D02*
X116604390Y-117727394D01*
X116604390Y-117727394D02*
X116556771Y-117775013D01*
X116556771Y-117775013D02*
X116461533Y-117822632D01*
X116461533Y-117822632D02*
X116366295Y-117822632D01*
X116366295Y-117822632D02*
X116271057Y-117775013D01*
X116271057Y-117775013D02*
X116223438Y-117727394D01*
X116223438Y-117727394D02*
X116175819Y-117632156D01*
X116175819Y-117632156D02*
X116175819Y-117394061D01*
X116175819Y-117394061D02*
X116223438Y-117251204D01*
X116175819Y-116917870D02*
X117175819Y-116679775D01*
X117175819Y-116679775D02*
X116461533Y-116489299D01*
X116461533Y-116489299D02*
X117175819Y-116298823D01*
X117175819Y-116298823D02*
X116175819Y-116060728D01*
X116175819Y-115203585D02*
X116175819Y-115679775D01*
X116175819Y-115679775D02*
X116652009Y-115727394D01*
X116652009Y-115727394D02*
X116604390Y-115679775D01*
X116604390Y-115679775D02*
X116556771Y-115584537D01*
X116556771Y-115584537D02*
X116556771Y-115346442D01*
X116556771Y-115346442D02*
X116604390Y-115251204D01*
X116604390Y-115251204D02*
X116652009Y-115203585D01*
X116652009Y-115203585D02*
X116747247Y-115155966D01*
X116747247Y-115155966D02*
X116985342Y-115155966D01*
X116985342Y-115155966D02*
X117080580Y-115203585D01*
X117080580Y-115203585D02*
X117128200Y-115251204D01*
X117128200Y-115251204D02*
X117175819Y-115346442D01*
X117175819Y-115346442D02*
X117175819Y-115584537D01*
X117175819Y-115584537D02*
X117128200Y-115679775D01*
X117128200Y-115679775D02*
X117080580Y-115727394D01*
X117128200Y-72022632D02*
X117175819Y-71879775D01*
X117175819Y-71879775D02*
X117175819Y-71641680D01*
X117175819Y-71641680D02*
X117128200Y-71546442D01*
X117128200Y-71546442D02*
X117080580Y-71498823D01*
X117080580Y-71498823D02*
X116985342Y-71451204D01*
X116985342Y-71451204D02*
X116890104Y-71451204D01*
X116890104Y-71451204D02*
X116794866Y-71498823D01*
X116794866Y-71498823D02*
X116747247Y-71546442D01*
X116747247Y-71546442D02*
X116699628Y-71641680D01*
X116699628Y-71641680D02*
X116652009Y-71832156D01*
X116652009Y-71832156D02*
X116604390Y-71927394D01*
X116604390Y-71927394D02*
X116556771Y-71975013D01*
X116556771Y-71975013D02*
X116461533Y-72022632D01*
X116461533Y-72022632D02*
X116366295Y-72022632D01*
X116366295Y-72022632D02*
X116271057Y-71975013D01*
X116271057Y-71975013D02*
X116223438Y-71927394D01*
X116223438Y-71927394D02*
X116175819Y-71832156D01*
X116175819Y-71832156D02*
X116175819Y-71594061D01*
X116175819Y-71594061D02*
X116223438Y-71451204D01*
X116175819Y-71117870D02*
X117175819Y-70879775D01*
X117175819Y-70879775D02*
X116461533Y-70689299D01*
X116461533Y-70689299D02*
X117175819Y-70498823D01*
X117175819Y-70498823D02*
X116175819Y-70260728D01*
X116271057Y-69927394D02*
X116223438Y-69879775D01*
X116223438Y-69879775D02*
X116175819Y-69784537D01*
X116175819Y-69784537D02*
X116175819Y-69546442D01*
X116175819Y-69546442D02*
X116223438Y-69451204D01*
X116223438Y-69451204D02*
X116271057Y-69403585D01*
X116271057Y-69403585D02*
X116366295Y-69355966D01*
X116366295Y-69355966D02*
X116461533Y-69355966D01*
X116461533Y-69355966D02*
X116604390Y-69403585D01*
X116604390Y-69403585D02*
X117175819Y-69975013D01*
X117175819Y-69975013D02*
X117175819Y-69355966D01*
X127125819Y-105225966D02*
X126649628Y-105559299D01*
X127125819Y-105797394D02*
X126125819Y-105797394D01*
X126125819Y-105797394D02*
X126125819Y-105416442D01*
X126125819Y-105416442D02*
X126173438Y-105321204D01*
X126173438Y-105321204D02*
X126221057Y-105273585D01*
X126221057Y-105273585D02*
X126316295Y-105225966D01*
X126316295Y-105225966D02*
X126459152Y-105225966D01*
X126459152Y-105225966D02*
X126554390Y-105273585D01*
X126554390Y-105273585D02*
X126602009Y-105321204D01*
X126602009Y-105321204D02*
X126649628Y-105416442D01*
X126649628Y-105416442D02*
X126649628Y-105797394D01*
X126459152Y-104368823D02*
X127125819Y-104368823D01*
X126078200Y-104606918D02*
X126792485Y-104845013D01*
X126792485Y-104845013D02*
X126792485Y-104225966D01*
X124755819Y-69585966D02*
X124279628Y-69919299D01*
X124755819Y-70157394D02*
X123755819Y-70157394D01*
X123755819Y-70157394D02*
X123755819Y-69776442D01*
X123755819Y-69776442D02*
X123803438Y-69681204D01*
X123803438Y-69681204D02*
X123851057Y-69633585D01*
X123851057Y-69633585D02*
X123946295Y-69585966D01*
X123946295Y-69585966D02*
X124089152Y-69585966D01*
X124089152Y-69585966D02*
X124184390Y-69633585D01*
X124184390Y-69633585D02*
X124232009Y-69681204D01*
X124232009Y-69681204D02*
X124279628Y-69776442D01*
X124279628Y-69776442D02*
X124279628Y-70157394D01*
X123851057Y-69205013D02*
X123803438Y-69157394D01*
X123803438Y-69157394D02*
X123755819Y-69062156D01*
X123755819Y-69062156D02*
X123755819Y-68824061D01*
X123755819Y-68824061D02*
X123803438Y-68728823D01*
X123803438Y-68728823D02*
X123851057Y-68681204D01*
X123851057Y-68681204D02*
X123946295Y-68633585D01*
X123946295Y-68633585D02*
X124041533Y-68633585D01*
X124041533Y-68633585D02*
X124184390Y-68681204D01*
X124184390Y-68681204D02*
X124755819Y-69252632D01*
X124755819Y-69252632D02*
X124755819Y-68633585D01*
X131182905Y-114484119D02*
X131182905Y-113484119D01*
X131182905Y-113484119D02*
X131421000Y-113484119D01*
X131421000Y-113484119D02*
X131563857Y-113531738D01*
X131563857Y-113531738D02*
X131659095Y-113626976D01*
X131659095Y-113626976D02*
X131706714Y-113722214D01*
X131706714Y-113722214D02*
X131754333Y-113912690D01*
X131754333Y-113912690D02*
X131754333Y-114055547D01*
X131754333Y-114055547D02*
X131706714Y-114246023D01*
X131706714Y-114246023D02*
X131659095Y-114341261D01*
X131659095Y-114341261D02*
X131563857Y-114436500D01*
X131563857Y-114436500D02*
X131421000Y-114484119D01*
X131421000Y-114484119D02*
X131182905Y-114484119D01*
X132659095Y-113484119D02*
X132182905Y-113484119D01*
X132182905Y-113484119D02*
X132135286Y-113960309D01*
X132135286Y-113960309D02*
X132182905Y-113912690D01*
X132182905Y-113912690D02*
X132278143Y-113865071D01*
X132278143Y-113865071D02*
X132516238Y-113865071D01*
X132516238Y-113865071D02*
X132611476Y-113912690D01*
X132611476Y-113912690D02*
X132659095Y-113960309D01*
X132659095Y-113960309D02*
X132706714Y-114055547D01*
X132706714Y-114055547D02*
X132706714Y-114293642D01*
X132706714Y-114293642D02*
X132659095Y-114388880D01*
X132659095Y-114388880D02*
X132611476Y-114436500D01*
X132611476Y-114436500D02*
X132516238Y-114484119D01*
X132516238Y-114484119D02*
X132278143Y-114484119D01*
X132278143Y-114484119D02*
X132182905Y-114436500D01*
X132182905Y-114436500D02*
X132135286Y-114388880D01*
X135469095Y-116384119D02*
X135469095Y-115384119D01*
X136040523Y-116384119D02*
X135611952Y-115812690D01*
X136040523Y-115384119D02*
X135469095Y-115955547D01*
X117128200Y-107662632D02*
X117175819Y-107519775D01*
X117175819Y-107519775D02*
X117175819Y-107281680D01*
X117175819Y-107281680D02*
X117128200Y-107186442D01*
X117128200Y-107186442D02*
X117080580Y-107138823D01*
X117080580Y-107138823D02*
X116985342Y-107091204D01*
X116985342Y-107091204D02*
X116890104Y-107091204D01*
X116890104Y-107091204D02*
X116794866Y-107138823D01*
X116794866Y-107138823D02*
X116747247Y-107186442D01*
X116747247Y-107186442D02*
X116699628Y-107281680D01*
X116699628Y-107281680D02*
X116652009Y-107472156D01*
X116652009Y-107472156D02*
X116604390Y-107567394D01*
X116604390Y-107567394D02*
X116556771Y-107615013D01*
X116556771Y-107615013D02*
X116461533Y-107662632D01*
X116461533Y-107662632D02*
X116366295Y-107662632D01*
X116366295Y-107662632D02*
X116271057Y-107615013D01*
X116271057Y-107615013D02*
X116223438Y-107567394D01*
X116223438Y-107567394D02*
X116175819Y-107472156D01*
X116175819Y-107472156D02*
X116175819Y-107234061D01*
X116175819Y-107234061D02*
X116223438Y-107091204D01*
X116175819Y-106757870D02*
X117175819Y-106519775D01*
X117175819Y-106519775D02*
X116461533Y-106329299D01*
X116461533Y-106329299D02*
X117175819Y-106138823D01*
X117175819Y-106138823D02*
X116175819Y-105900728D01*
X116509152Y-105091204D02*
X117175819Y-105091204D01*
X116128200Y-105329299D02*
X116842485Y-105567394D01*
X116842485Y-105567394D02*
X116842485Y-104948347D01*
X131278142Y-119484119D02*
X130944809Y-119007928D01*
X130706714Y-119484119D02*
X130706714Y-118484119D01*
X130706714Y-118484119D02*
X131087666Y-118484119D01*
X131087666Y-118484119D02*
X131182904Y-118531738D01*
X131182904Y-118531738D02*
X131230523Y-118579357D01*
X131230523Y-118579357D02*
X131278142Y-118674595D01*
X131278142Y-118674595D02*
X131278142Y-118817452D01*
X131278142Y-118817452D02*
X131230523Y-118912690D01*
X131230523Y-118912690D02*
X131182904Y-118960309D01*
X131182904Y-118960309D02*
X131087666Y-119007928D01*
X131087666Y-119007928D02*
X130706714Y-119007928D01*
X132230523Y-119484119D02*
X131659095Y-119484119D01*
X131944809Y-119484119D02*
X131944809Y-118484119D01*
X131944809Y-118484119D02*
X131849571Y-118626976D01*
X131849571Y-118626976D02*
X131754333Y-118722214D01*
X131754333Y-118722214D02*
X131659095Y-118769833D01*
X133182904Y-119484119D02*
X132611476Y-119484119D01*
X132897190Y-119484119D02*
X132897190Y-118484119D01*
X132897190Y-118484119D02*
X132801952Y-118626976D01*
X132801952Y-118626976D02*
X132706714Y-118722214D01*
X132706714Y-118722214D02*
X132611476Y-118769833D01*
X141950580Y-61945966D02*
X141998200Y-61993585D01*
X141998200Y-61993585D02*
X142045819Y-62136442D01*
X142045819Y-62136442D02*
X142045819Y-62231680D01*
X142045819Y-62231680D02*
X141998200Y-62374537D01*
X141998200Y-62374537D02*
X141902961Y-62469775D01*
X141902961Y-62469775D02*
X141807723Y-62517394D01*
X141807723Y-62517394D02*
X141617247Y-62565013D01*
X141617247Y-62565013D02*
X141474390Y-62565013D01*
X141474390Y-62565013D02*
X141283914Y-62517394D01*
X141283914Y-62517394D02*
X141188676Y-62469775D01*
X141188676Y-62469775D02*
X141093438Y-62374537D01*
X141093438Y-62374537D02*
X141045819Y-62231680D01*
X141045819Y-62231680D02*
X141045819Y-62136442D01*
X141045819Y-62136442D02*
X141093438Y-61993585D01*
X141093438Y-61993585D02*
X141141057Y-61945966D01*
X142045819Y-60993585D02*
X142045819Y-61565013D01*
X142045819Y-61279299D02*
X141045819Y-61279299D01*
X141045819Y-61279299D02*
X141188676Y-61374537D01*
X141188676Y-61374537D02*
X141283914Y-61469775D01*
X141283914Y-61469775D02*
X141331533Y-61565013D01*
X141950580Y-128105966D02*
X141998200Y-128153585D01*
X141998200Y-128153585D02*
X142045819Y-128296442D01*
X142045819Y-128296442D02*
X142045819Y-128391680D01*
X142045819Y-128391680D02*
X141998200Y-128534537D01*
X141998200Y-128534537D02*
X141902961Y-128629775D01*
X141902961Y-128629775D02*
X141807723Y-128677394D01*
X141807723Y-128677394D02*
X141617247Y-128725013D01*
X141617247Y-128725013D02*
X141474390Y-128725013D01*
X141474390Y-128725013D02*
X141283914Y-128677394D01*
X141283914Y-128677394D02*
X141188676Y-128629775D01*
X141188676Y-128629775D02*
X141093438Y-128534537D01*
X141093438Y-128534537D02*
X141045819Y-128391680D01*
X141045819Y-128391680D02*
X141045819Y-128296442D01*
X141045819Y-128296442D02*
X141093438Y-128153585D01*
X141093438Y-128153585D02*
X141141057Y-128105966D01*
X141045819Y-127248823D02*
X141045819Y-127439299D01*
X141045819Y-127439299D02*
X141093438Y-127534537D01*
X141093438Y-127534537D02*
X141141057Y-127582156D01*
X141141057Y-127582156D02*
X141283914Y-127677394D01*
X141283914Y-127677394D02*
X141474390Y-127725013D01*
X141474390Y-127725013D02*
X141855342Y-127725013D01*
X141855342Y-127725013D02*
X141950580Y-127677394D01*
X141950580Y-127677394D02*
X141998200Y-127629775D01*
X141998200Y-127629775D02*
X142045819Y-127534537D01*
X142045819Y-127534537D02*
X142045819Y-127344061D01*
X142045819Y-127344061D02*
X141998200Y-127248823D01*
X141998200Y-127248823D02*
X141950580Y-127201204D01*
X141950580Y-127201204D02*
X141855342Y-127153585D01*
X141855342Y-127153585D02*
X141617247Y-127153585D01*
X141617247Y-127153585D02*
X141522009Y-127201204D01*
X141522009Y-127201204D02*
X141474390Y-127248823D01*
X141474390Y-127248823D02*
X141426771Y-127344061D01*
X141426771Y-127344061D02*
X141426771Y-127534537D01*
X141426771Y-127534537D02*
X141474390Y-127629775D01*
X141474390Y-127629775D02*
X141522009Y-127677394D01*
X141522009Y-127677394D02*
X141617247Y-127725013D01*
X166036666Y-147790819D02*
X166036666Y-148505104D01*
X166036666Y-148505104D02*
X165989047Y-148647961D01*
X165989047Y-148647961D02*
X165893809Y-148743200D01*
X165893809Y-148743200D02*
X165750952Y-148790819D01*
X165750952Y-148790819D02*
X165655714Y-148790819D01*
X166941428Y-147790819D02*
X166750952Y-147790819D01*
X166750952Y-147790819D02*
X166655714Y-147838438D01*
X166655714Y-147838438D02*
X166608095Y-147886057D01*
X166608095Y-147886057D02*
X166512857Y-148028914D01*
X166512857Y-148028914D02*
X166465238Y-148219390D01*
X166465238Y-148219390D02*
X166465238Y-148600342D01*
X166465238Y-148600342D02*
X166512857Y-148695580D01*
X166512857Y-148695580D02*
X166560476Y-148743200D01*
X166560476Y-148743200D02*
X166655714Y-148790819D01*
X166655714Y-148790819D02*
X166846190Y-148790819D01*
X166846190Y-148790819D02*
X166941428Y-148743200D01*
X166941428Y-148743200D02*
X166989047Y-148695580D01*
X166989047Y-148695580D02*
X167036666Y-148600342D01*
X167036666Y-148600342D02*
X167036666Y-148362247D01*
X167036666Y-148362247D02*
X166989047Y-148267009D01*
X166989047Y-148267009D02*
X166941428Y-148219390D01*
X166941428Y-148219390D02*
X166846190Y-148171771D01*
X166846190Y-148171771D02*
X166655714Y-148171771D01*
X166655714Y-148171771D02*
X166560476Y-148219390D01*
X166560476Y-148219390D02*
X166512857Y-148267009D01*
X166512857Y-148267009D02*
X166465238Y-148362247D01*
X124755819Y-59425966D02*
X124279628Y-59759299D01*
X124755819Y-59997394D02*
X123755819Y-59997394D01*
X123755819Y-59997394D02*
X123755819Y-59616442D01*
X123755819Y-59616442D02*
X123803438Y-59521204D01*
X123803438Y-59521204D02*
X123851057Y-59473585D01*
X123851057Y-59473585D02*
X123946295Y-59425966D01*
X123946295Y-59425966D02*
X124089152Y-59425966D01*
X124089152Y-59425966D02*
X124184390Y-59473585D01*
X124184390Y-59473585D02*
X124232009Y-59521204D01*
X124232009Y-59521204D02*
X124279628Y-59616442D01*
X124279628Y-59616442D02*
X124279628Y-59997394D01*
X124755819Y-58473585D02*
X124755819Y-59045013D01*
X124755819Y-58759299D02*
X123755819Y-58759299D01*
X123755819Y-58759299D02*
X123898676Y-58854537D01*
X123898676Y-58854537D02*
X123993914Y-58949775D01*
X123993914Y-58949775D02*
X124041533Y-59045013D01*
X166036666Y-97752819D02*
X166036666Y-98467104D01*
X166036666Y-98467104D02*
X165989047Y-98609961D01*
X165989047Y-98609961D02*
X165893809Y-98705200D01*
X165893809Y-98705200D02*
X165750952Y-98752819D01*
X165750952Y-98752819D02*
X165655714Y-98752819D01*
X166941428Y-98086152D02*
X166941428Y-98752819D01*
X166703333Y-97705200D02*
X166465238Y-98419485D01*
X166465238Y-98419485D02*
X167084285Y-98419485D01*
X131278142Y-109324119D02*
X130944809Y-108847928D01*
X130706714Y-109324119D02*
X130706714Y-108324119D01*
X130706714Y-108324119D02*
X131087666Y-108324119D01*
X131087666Y-108324119D02*
X131182904Y-108371738D01*
X131182904Y-108371738D02*
X131230523Y-108419357D01*
X131230523Y-108419357D02*
X131278142Y-108514595D01*
X131278142Y-108514595D02*
X131278142Y-108657452D01*
X131278142Y-108657452D02*
X131230523Y-108752690D01*
X131230523Y-108752690D02*
X131182904Y-108800309D01*
X131182904Y-108800309D02*
X131087666Y-108847928D01*
X131087666Y-108847928D02*
X130706714Y-108847928D01*
X132230523Y-109324119D02*
X131659095Y-109324119D01*
X131944809Y-109324119D02*
X131944809Y-108324119D01*
X131944809Y-108324119D02*
X131849571Y-108466976D01*
X131849571Y-108466976D02*
X131754333Y-108562214D01*
X131754333Y-108562214D02*
X131659095Y-108609833D01*
X132849571Y-108324119D02*
X132944809Y-108324119D01*
X132944809Y-108324119D02*
X133040047Y-108371738D01*
X133040047Y-108371738D02*
X133087666Y-108419357D01*
X133087666Y-108419357D02*
X133135285Y-108514595D01*
X133135285Y-108514595D02*
X133182904Y-108705071D01*
X133182904Y-108705071D02*
X133182904Y-108943166D01*
X133182904Y-108943166D02*
X133135285Y-109133642D01*
X133135285Y-109133642D02*
X133087666Y-109228880D01*
X133087666Y-109228880D02*
X133040047Y-109276500D01*
X133040047Y-109276500D02*
X132944809Y-109324119D01*
X132944809Y-109324119D02*
X132849571Y-109324119D01*
X132849571Y-109324119D02*
X132754333Y-109276500D01*
X132754333Y-109276500D02*
X132706714Y-109228880D01*
X132706714Y-109228880D02*
X132659095Y-109133642D01*
X132659095Y-109133642D02*
X132611476Y-108943166D01*
X132611476Y-108943166D02*
X132611476Y-108705071D01*
X132611476Y-108705071D02*
X132659095Y-108514595D01*
X132659095Y-108514595D02*
X132706714Y-108419357D01*
X132706714Y-108419357D02*
X132754333Y-108371738D01*
X132754333Y-108371738D02*
X132849571Y-108324119D01*
X166036666Y-72860819D02*
X166036666Y-73575104D01*
X166036666Y-73575104D02*
X165989047Y-73717961D01*
X165989047Y-73717961D02*
X165893809Y-73813200D01*
X165893809Y-73813200D02*
X165750952Y-73860819D01*
X165750952Y-73860819D02*
X165655714Y-73860819D01*
X166417619Y-72860819D02*
X167036666Y-72860819D01*
X167036666Y-72860819D02*
X166703333Y-73241771D01*
X166703333Y-73241771D02*
X166846190Y-73241771D01*
X166846190Y-73241771D02*
X166941428Y-73289390D01*
X166941428Y-73289390D02*
X166989047Y-73337009D01*
X166989047Y-73337009D02*
X167036666Y-73432247D01*
X167036666Y-73432247D02*
X167036666Y-73670342D01*
X167036666Y-73670342D02*
X166989047Y-73765580D01*
X166989047Y-73765580D02*
X166941428Y-73813200D01*
X166941428Y-73813200D02*
X166846190Y-73860819D01*
X166846190Y-73860819D02*
X166560476Y-73860819D01*
X166560476Y-73860819D02*
X166465238Y-73813200D01*
X166465238Y-73813200D02*
X166417619Y-73765580D01*
X126886180Y-91467395D02*
X126076657Y-91467395D01*
X126076657Y-91467395D02*
X125981419Y-91515014D01*
X125981419Y-91515014D02*
X125933800Y-91562633D01*
X125933800Y-91562633D02*
X125886180Y-91657871D01*
X125886180Y-91657871D02*
X125886180Y-91848347D01*
X125886180Y-91848347D02*
X125933800Y-91943585D01*
X125933800Y-91943585D02*
X125981419Y-91991204D01*
X125981419Y-91991204D02*
X126076657Y-92038823D01*
X126076657Y-92038823D02*
X126886180Y-92038823D01*
X126790942Y-92467395D02*
X126838561Y-92515014D01*
X126838561Y-92515014D02*
X126886180Y-92610252D01*
X126886180Y-92610252D02*
X126886180Y-92848347D01*
X126886180Y-92848347D02*
X126838561Y-92943585D01*
X126838561Y-92943585D02*
X126790942Y-92991204D01*
X126790942Y-92991204D02*
X126695704Y-93038823D01*
X126695704Y-93038823D02*
X126600466Y-93038823D01*
X126600466Y-93038823D02*
X126457609Y-92991204D01*
X126457609Y-92991204D02*
X125886180Y-92419776D01*
X125886180Y-92419776D02*
X125886180Y-93038823D01*
X135915880Y-88419300D02*
X135677785Y-88419300D01*
X135773023Y-88181205D02*
X135677785Y-88419300D01*
X135677785Y-88419300D02*
X135773023Y-88657395D01*
X135487309Y-88276443D02*
X135677785Y-88419300D01*
X135677785Y-88419300D02*
X135487309Y-88562157D01*
X134825519Y-88419299D02*
X135063614Y-88419299D01*
X134968376Y-88657394D02*
X135063614Y-88419299D01*
X135063614Y-88419299D02*
X134968376Y-88181204D01*
X135254090Y-88562156D02*
X135063614Y-88419299D01*
X135063614Y-88419299D02*
X135254090Y-88276442D01*
D11*
%TO.C,J2*%
X160611000Y-51904300D02*
X160611000Y-57554300D01*
X163516000Y-60459300D02*
X169166000Y-60459300D01*
X169166000Y-48999300D02*
X163516000Y-48999300D01*
X171641000Y-54729300D02*
X170941000Y-54229300D01*
X171641000Y-54729300D02*
X170941000Y-55229300D01*
X171841000Y-57554300D02*
X171841000Y-51904300D01*
%TO.C,R7*%
X128651000Y-61699300D02*
X135191000Y-61699300D01*
X128651000Y-62029300D02*
X128651000Y-61699300D01*
X128651000Y-64109300D02*
X128651000Y-64439300D01*
X128651000Y-64439300D02*
X135191000Y-64439300D01*
X135191000Y-61699300D02*
X135191000Y-62029300D01*
X135191000Y-64439300D02*
X135191000Y-64109300D01*
%TO.C,C4*%
X138621000Y-108384300D02*
X138621000Y-106854300D01*
X140461000Y-106854300D02*
X140461000Y-108384300D01*
%TO.C,D4*%
X129201000Y-102399300D02*
X129201000Y-102729300D01*
X129201000Y-105339300D02*
X129201000Y-105009300D01*
X133621000Y-105339300D02*
X133621000Y-102399300D01*
X133741000Y-105339300D02*
X133741000Y-102399300D01*
X133861000Y-105339300D02*
X133861000Y-102399300D01*
X134641000Y-102399300D02*
X129201000Y-102399300D01*
X134641000Y-102729300D02*
X134641000Y-102399300D01*
X134641000Y-105009300D02*
X134641000Y-105339300D01*
X134641000Y-105339300D02*
X129201000Y-105339300D01*
%TO.C,D1*%
X129201000Y-56599300D02*
X129201000Y-56929300D01*
X129201000Y-59539300D02*
X129201000Y-59209300D01*
X133621000Y-59539300D02*
X133621000Y-56599300D01*
X133741000Y-59539300D02*
X133741000Y-56599300D01*
X133861000Y-59539300D02*
X133861000Y-56599300D01*
X134641000Y-56599300D02*
X129201000Y-56599300D01*
X134641000Y-56929300D02*
X134641000Y-56599300D01*
X134641000Y-59209300D02*
X134641000Y-59539300D01*
X134641000Y-59539300D02*
X129201000Y-59539300D01*
%TO.C,R9*%
X128651000Y-82019300D02*
X135191000Y-82019300D01*
X128651000Y-82349300D02*
X128651000Y-82019300D01*
X128651000Y-84429300D02*
X128651000Y-84759300D01*
X128651000Y-84759300D02*
X135191000Y-84759300D01*
X135191000Y-82019300D02*
X135191000Y-82349300D01*
X135191000Y-84759300D02*
X135191000Y-84429300D01*
%TO.C,SW1*%
X117721000Y-64569300D02*
X117721000Y-56469300D01*
X117721000Y-64569300D02*
X120721000Y-64569300D01*
X120721000Y-56469300D02*
X117721000Y-56469300D01*
X120721000Y-56469300D02*
X120721000Y-64569300D01*
%TO.C,R17*%
X150596000Y-128359300D02*
X157136000Y-128359300D01*
X150596000Y-128689300D02*
X150596000Y-128359300D01*
X150596000Y-130769300D02*
X150596000Y-131099300D01*
X150596000Y-131099300D02*
X157136000Y-131099300D01*
X157136000Y-128359300D02*
X157136000Y-128689300D01*
X157136000Y-131099300D02*
X157136000Y-130769300D01*
%TO.C,R6*%
X122931000Y-122109300D02*
X122931000Y-128649300D01*
X122931000Y-128649300D02*
X123261000Y-128649300D01*
X123261000Y-122109300D02*
X122931000Y-122109300D01*
X125341000Y-122109300D02*
X125671000Y-122109300D01*
X125671000Y-122109300D02*
X125671000Y-128649300D01*
X125671000Y-128649300D02*
X125341000Y-128649300D01*
%TO.C,R13*%
X150596000Y-28359300D02*
X157136000Y-28359300D01*
X150596000Y-28689300D02*
X150596000Y-28359300D01*
X150596000Y-30769300D02*
X150596000Y-31099300D01*
X150596000Y-31099300D02*
X157136000Y-31099300D01*
X157136000Y-28359300D02*
X157136000Y-28689300D01*
X157136000Y-31099300D02*
X157136000Y-30769300D01*
%TO.C,R16*%
X150596000Y-103359300D02*
X157136000Y-103359300D01*
X150596000Y-103689300D02*
X150596000Y-103359300D01*
X150596000Y-105769300D02*
X150596000Y-106099300D01*
X150596000Y-106099300D02*
X157136000Y-106099300D01*
X157136000Y-103359300D02*
X157136000Y-103689300D01*
X157136000Y-106099300D02*
X157136000Y-105769300D01*
%TO.C,R15*%
X150596000Y-78359300D02*
X157136000Y-78359300D01*
X150596000Y-78689300D02*
X150596000Y-78359300D01*
X150596000Y-80769300D02*
X150596000Y-81099300D01*
X150596000Y-81099300D02*
X157136000Y-81099300D01*
X157136000Y-78359300D02*
X157136000Y-78689300D01*
X157136000Y-81099300D02*
X157136000Y-80769300D01*
%TO.C,J5*%
X160611000Y-126904300D02*
X160611000Y-132554300D01*
X163516000Y-135459300D02*
X169166000Y-135459300D01*
X169166000Y-123999300D02*
X163516000Y-123999300D01*
X171641000Y-129729300D02*
X170941000Y-129229300D01*
X171641000Y-129729300D02*
X170941000Y-130229300D01*
X171841000Y-132554300D02*
X171841000Y-126904300D01*
%TO.C,J1*%
X160611000Y-26904300D02*
X160611000Y-32554300D01*
X163516000Y-35459300D02*
X169166000Y-35459300D01*
X169166000Y-23999300D02*
X163516000Y-23999300D01*
X171641000Y-29729300D02*
X170941000Y-29229300D01*
X171641000Y-29729300D02*
X170941000Y-30229300D01*
X171841000Y-32554300D02*
X171841000Y-26904300D01*
%TO.C,R3*%
X122931000Y-76309300D02*
X122931000Y-82849300D01*
X122931000Y-82849300D02*
X123261000Y-82849300D01*
X123261000Y-76309300D02*
X122931000Y-76309300D01*
X125341000Y-76309300D02*
X125671000Y-76309300D01*
X125671000Y-76309300D02*
X125671000Y-82849300D01*
X125671000Y-82849300D02*
X125341000Y-82849300D01*
%TO.C,D3*%
X129201000Y-76919300D02*
X129201000Y-77249300D01*
X129201000Y-79859300D02*
X129201000Y-79529300D01*
X133621000Y-79859300D02*
X133621000Y-76919300D01*
X133741000Y-79859300D02*
X133741000Y-76919300D01*
X133861000Y-79859300D02*
X133861000Y-76919300D01*
X134641000Y-76919300D02*
X129201000Y-76919300D01*
X134641000Y-77249300D02*
X134641000Y-76919300D01*
X134641000Y-79529300D02*
X134641000Y-79859300D01*
X134641000Y-79859300D02*
X129201000Y-79859300D01*
%TO.C,R18*%
X150596000Y-153359300D02*
X157136000Y-153359300D01*
X150596000Y-153689300D02*
X150596000Y-153359300D01*
X150596000Y-155769300D02*
X150596000Y-156099300D01*
X150596000Y-156099300D02*
X157136000Y-156099300D01*
X157136000Y-153359300D02*
X157136000Y-153689300D01*
X157136000Y-156099300D02*
X157136000Y-155769300D01*
%TO.C,C5*%
X138621000Y-118544300D02*
X138621000Y-117014300D01*
X140461000Y-117014300D02*
X140461000Y-118544300D01*
%TO.C,C8*%
X137431000Y-135863401D02*
X136200000Y-135863401D01*
X137431000Y-135903401D02*
X136205000Y-135903401D01*
X137431000Y-135943401D02*
X136210000Y-135943401D01*
X137431000Y-135983401D02*
X136215000Y-135983401D01*
X137431000Y-136023401D02*
X136222000Y-136023401D01*
X137431000Y-136063401D02*
X136229000Y-136063401D01*
X137431000Y-136103401D02*
X136237000Y-136103401D01*
X137431000Y-136143401D02*
X136246000Y-136143401D01*
X137431000Y-136183401D02*
X136256000Y-136183401D01*
X137431000Y-136223401D02*
X136266000Y-136223401D01*
X137431000Y-136263401D02*
X136278000Y-136263401D01*
X137431000Y-136303401D02*
X136290000Y-136303401D01*
X137431000Y-136343401D02*
X136303000Y-136343401D01*
X137431000Y-136383401D02*
X136317000Y-136383401D01*
X137431000Y-136423401D02*
X136332000Y-136423401D01*
X137431000Y-136463401D02*
X136348000Y-136463401D01*
X137431000Y-136503401D02*
X136365000Y-136503401D01*
X137431000Y-136543401D02*
X136382000Y-136543401D01*
X137431000Y-136583401D02*
X136401000Y-136583401D01*
X137431000Y-136623401D02*
X136421000Y-136623401D01*
X137431000Y-136663401D02*
X136442000Y-136663401D01*
X137431000Y-136703401D02*
X136464000Y-136703401D01*
X137431000Y-136743401D02*
X136487000Y-136743401D01*
X137431000Y-136783401D02*
X136511000Y-136783401D01*
X137431000Y-136823401D02*
X136537000Y-136823401D01*
X137431000Y-136863401D02*
X136563000Y-136863401D01*
X137431000Y-136903401D02*
X136591000Y-136903401D01*
X137431000Y-136943401D02*
X136621000Y-136943401D01*
X137431000Y-136983401D02*
X136652000Y-136983401D01*
X137431000Y-137023401D02*
X136685000Y-137023401D01*
X137431000Y-137063401D02*
X136719000Y-137063401D01*
X137431000Y-137103401D02*
X136755000Y-137103401D01*
X137431000Y-137143401D02*
X136793000Y-137143401D01*
X137431000Y-137183401D02*
X136833000Y-137183401D01*
X137431000Y-137223401D02*
X136875000Y-137223401D01*
X137431000Y-137263401D02*
X136920000Y-137263401D01*
X137431000Y-137303401D02*
X136968000Y-137303401D01*
X137431000Y-137343401D02*
X137018000Y-137343401D01*
X137431000Y-137383401D02*
X137072000Y-137383401D01*
X137431000Y-137423401D02*
X137129000Y-137423401D01*
X137431000Y-137463401D02*
X137191000Y-137463401D01*
X138641000Y-137743401D02*
X137901000Y-137743401D01*
X138808000Y-137703401D02*
X137734000Y-137703401D01*
X138934000Y-137663401D02*
X137608000Y-137663401D01*
X139039000Y-137623401D02*
X137503000Y-137623401D01*
X139130000Y-137583401D02*
X137412000Y-137583401D01*
X139211000Y-137543401D02*
X137331000Y-137543401D01*
X139284000Y-137503401D02*
X137258000Y-137503401D01*
X139351000Y-137463401D02*
X139111000Y-137463401D01*
X139413000Y-137423401D02*
X139111000Y-137423401D01*
X139466000Y-133393600D02*
X139466000Y-133793600D01*
X139470000Y-137383401D02*
X139111000Y-137383401D01*
X139524000Y-137343401D02*
X139111000Y-137343401D01*
X139574000Y-137303401D02*
X139111000Y-137303401D01*
X139622000Y-137263401D02*
X139111000Y-137263401D01*
X139666000Y-133593600D02*
X139266000Y-133593600D01*
X139667000Y-137223401D02*
X139111000Y-137223401D01*
X139709000Y-137183401D02*
X139111000Y-137183401D01*
X139749000Y-137143401D02*
X139111000Y-137143401D01*
X139787000Y-137103401D02*
X139111000Y-137103401D01*
X139823000Y-137063401D02*
X139111000Y-137063401D01*
X139857000Y-137023401D02*
X139111000Y-137023401D01*
X139890000Y-136983401D02*
X139111000Y-136983401D01*
X139921000Y-136943401D02*
X139111000Y-136943401D01*
X139951000Y-136903401D02*
X139111000Y-136903401D01*
X139979000Y-136863401D02*
X139111000Y-136863401D01*
X140005000Y-136823401D02*
X139111000Y-136823401D01*
X140031000Y-136783401D02*
X139111000Y-136783401D01*
X140055000Y-136743401D02*
X139111000Y-136743401D01*
X140078000Y-136703401D02*
X139111000Y-136703401D01*
X140100000Y-136663401D02*
X139111000Y-136663401D01*
X140121000Y-136623401D02*
X139111000Y-136623401D01*
X140141000Y-136583401D02*
X139111000Y-136583401D01*
X140160000Y-136543401D02*
X139111000Y-136543401D01*
X140177000Y-136503401D02*
X139111000Y-136503401D01*
X140194000Y-136463401D02*
X139111000Y-136463401D01*
X140210000Y-136423401D02*
X139111000Y-136423401D01*
X140225000Y-136383401D02*
X139111000Y-136383401D01*
X140239000Y-136343401D02*
X139111000Y-136343401D01*
X140252000Y-136303401D02*
X139111000Y-136303401D01*
X140264000Y-136263401D02*
X139111000Y-136263401D01*
X140276000Y-136223401D02*
X139111000Y-136223401D01*
X140286000Y-136183401D02*
X139111000Y-136183401D01*
X140296000Y-136143401D02*
X139111000Y-136143401D01*
X140305000Y-136103401D02*
X139111000Y-136103401D01*
X140313000Y-136063401D02*
X139111000Y-136063401D01*
X140320000Y-136023401D02*
X139111000Y-136023401D01*
X140327000Y-135983401D02*
X139111000Y-135983401D01*
X140332000Y-135943401D02*
X139111000Y-135943401D01*
X140337000Y-135903401D02*
X139111000Y-135903401D01*
X140342000Y-135863401D02*
X139111000Y-135863401D01*
X140345000Y-135823401D02*
X136197000Y-135823401D01*
X140348000Y-135783401D02*
X136194000Y-135783401D01*
X140349000Y-135743401D02*
X136193000Y-135743401D01*
X140351000Y-135663401D02*
X136191000Y-135663401D01*
X140351000Y-135703401D02*
X136191000Y-135703401D01*
X140391000Y-135663401D02*
G75*
G02*
X136151000Y-135663401I-2120000J0D01*
G01*
X136151000Y-135663401D02*
G75*
G02*
X140391000Y-135663401I2120000J0D01*
G01*
%TO.C,R12*%
X128651000Y-127819300D02*
X135191000Y-127819300D01*
X128651000Y-128149300D02*
X128651000Y-127819300D01*
X128651000Y-130229300D02*
X128651000Y-130559300D01*
X128651000Y-130559300D02*
X135191000Y-130559300D01*
X135191000Y-127819300D02*
X135191000Y-128149300D01*
X135191000Y-130559300D02*
X135191000Y-130229300D01*
%TO.C,SW7*%
X118991000Y-133163401D02*
X118991000Y-136163401D01*
X118991000Y-133163401D02*
X127091000Y-133163401D01*
X127091000Y-136163401D02*
X118991000Y-136163401D01*
X127091000Y-136163401D02*
X127091000Y-133163401D01*
%TO.C,D2*%
X129201000Y-66759300D02*
X129201000Y-67089300D01*
X129201000Y-69699300D02*
X129201000Y-69369300D01*
X133621000Y-69699300D02*
X133621000Y-66759300D01*
X133741000Y-69699300D02*
X133741000Y-66759300D01*
X133861000Y-69699300D02*
X133861000Y-66759300D01*
X134641000Y-66759300D02*
X129201000Y-66759300D01*
X134641000Y-67089300D02*
X134641000Y-66759300D01*
X134641000Y-69369300D02*
X134641000Y-69699300D01*
X134641000Y-69699300D02*
X129201000Y-69699300D01*
%TO.C,R8*%
X128651000Y-71859300D02*
X135191000Y-71859300D01*
X128651000Y-72189300D02*
X128651000Y-71859300D01*
X128651000Y-74269300D02*
X128651000Y-74599300D01*
X128651000Y-74599300D02*
X135191000Y-74599300D01*
X135191000Y-71859300D02*
X135191000Y-72189300D01*
X135191000Y-74599300D02*
X135191000Y-74269300D01*
%TO.C,C9*%
X138915000Y-95119300D02*
X140445000Y-95119300D01*
X140445000Y-96959300D02*
X138915000Y-96959300D01*
%TO.C,R5*%
X122931000Y-111949300D02*
X122931000Y-118489300D01*
X122931000Y-118489300D02*
X123261000Y-118489300D01*
X123261000Y-111949300D02*
X122931000Y-111949300D01*
X125341000Y-111949300D02*
X125671000Y-111949300D01*
X125671000Y-111949300D02*
X125671000Y-118489300D01*
X125671000Y-118489300D02*
X125341000Y-118489300D01*
%TO.C,D6*%
X129201000Y-122719300D02*
X129201000Y-123049300D01*
X129201000Y-125659300D02*
X129201000Y-125329300D01*
X133621000Y-125659300D02*
X133621000Y-122719300D01*
X133741000Y-125659300D02*
X133741000Y-122719300D01*
X133861000Y-125659300D02*
X133861000Y-122719300D01*
X134641000Y-122719300D02*
X129201000Y-122719300D01*
X134641000Y-123049300D02*
X134641000Y-122719300D01*
X134641000Y-125329300D02*
X134641000Y-125659300D01*
X134641000Y-125659300D02*
X129201000Y-125659300D01*
%TO.C,SW3*%
X117721000Y-84889300D02*
X117721000Y-76789300D01*
X117721000Y-84889300D02*
X120721000Y-84889300D01*
X120721000Y-76789300D02*
X117721000Y-76789300D01*
X120721000Y-76789300D02*
X120721000Y-84889300D01*
%TO.C,R14*%
X150596000Y-53359300D02*
X157136000Y-53359300D01*
X150596000Y-53689300D02*
X150596000Y-53359300D01*
X150596000Y-55769300D02*
X150596000Y-56099300D01*
X150596000Y-56099300D02*
X157136000Y-56099300D01*
X157136000Y-53359300D02*
X157136000Y-53689300D01*
X157136000Y-56099300D02*
X157136000Y-55769300D01*
%TO.C,C7*%
X131081000Y-135863401D02*
X129850000Y-135863401D01*
X131081000Y-135903401D02*
X129855000Y-135903401D01*
X131081000Y-135943401D02*
X129860000Y-135943401D01*
X131081000Y-135983401D02*
X129865000Y-135983401D01*
X131081000Y-136023401D02*
X129872000Y-136023401D01*
X131081000Y-136063401D02*
X129879000Y-136063401D01*
X131081000Y-136103401D02*
X129887000Y-136103401D01*
X131081000Y-136143401D02*
X129896000Y-136143401D01*
X131081000Y-136183401D02*
X129906000Y-136183401D01*
X131081000Y-136223401D02*
X129916000Y-136223401D01*
X131081000Y-136263401D02*
X129928000Y-136263401D01*
X131081000Y-136303401D02*
X129940000Y-136303401D01*
X131081000Y-136343401D02*
X129953000Y-136343401D01*
X131081000Y-136383401D02*
X129967000Y-136383401D01*
X131081000Y-136423401D02*
X129982000Y-136423401D01*
X131081000Y-136463401D02*
X129998000Y-136463401D01*
X131081000Y-136503401D02*
X130015000Y-136503401D01*
X131081000Y-136543401D02*
X130032000Y-136543401D01*
X131081000Y-136583401D02*
X130051000Y-136583401D01*
X131081000Y-136623401D02*
X130071000Y-136623401D01*
X131081000Y-136663401D02*
X130092000Y-136663401D01*
X131081000Y-136703401D02*
X130114000Y-136703401D01*
X131081000Y-136743401D02*
X130137000Y-136743401D01*
X131081000Y-136783401D02*
X130161000Y-136783401D01*
X131081000Y-136823401D02*
X130187000Y-136823401D01*
X131081000Y-136863401D02*
X130213000Y-136863401D01*
X131081000Y-136903401D02*
X130241000Y-136903401D01*
X131081000Y-136943401D02*
X130271000Y-136943401D01*
X131081000Y-136983401D02*
X130302000Y-136983401D01*
X131081000Y-137023401D02*
X130335000Y-137023401D01*
X131081000Y-137063401D02*
X130369000Y-137063401D01*
X131081000Y-137103401D02*
X130405000Y-137103401D01*
X131081000Y-137143401D02*
X130443000Y-137143401D01*
X131081000Y-137183401D02*
X130483000Y-137183401D01*
X131081000Y-137223401D02*
X130525000Y-137223401D01*
X131081000Y-137263401D02*
X130570000Y-137263401D01*
X131081000Y-137303401D02*
X130618000Y-137303401D01*
X131081000Y-137343401D02*
X130668000Y-137343401D01*
X131081000Y-137383401D02*
X130722000Y-137383401D01*
X131081000Y-137423401D02*
X130779000Y-137423401D01*
X131081000Y-137463401D02*
X130841000Y-137463401D01*
X132291000Y-137743401D02*
X131551000Y-137743401D01*
X132458000Y-137703401D02*
X131384000Y-137703401D01*
X132584000Y-137663401D02*
X131258000Y-137663401D01*
X132689000Y-137623401D02*
X131153000Y-137623401D01*
X132780000Y-137583401D02*
X131062000Y-137583401D01*
X132861000Y-137543401D02*
X130981000Y-137543401D01*
X132934000Y-137503401D02*
X130908000Y-137503401D01*
X133001000Y-137463401D02*
X132761000Y-137463401D01*
X133063000Y-137423401D02*
X132761000Y-137423401D01*
X133116000Y-133393600D02*
X133116000Y-133793600D01*
X133120000Y-137383401D02*
X132761000Y-137383401D01*
X133174000Y-137343401D02*
X132761000Y-137343401D01*
X133224000Y-137303401D02*
X132761000Y-137303401D01*
X133272000Y-137263401D02*
X132761000Y-137263401D01*
X133316000Y-133593600D02*
X132916000Y-133593600D01*
X133317000Y-137223401D02*
X132761000Y-137223401D01*
X133359000Y-137183401D02*
X132761000Y-137183401D01*
X133399000Y-137143401D02*
X132761000Y-137143401D01*
X133437000Y-137103401D02*
X132761000Y-137103401D01*
X133473000Y-137063401D02*
X132761000Y-137063401D01*
X133507000Y-137023401D02*
X132761000Y-137023401D01*
X133540000Y-136983401D02*
X132761000Y-136983401D01*
X133571000Y-136943401D02*
X132761000Y-136943401D01*
X133601000Y-136903401D02*
X132761000Y-136903401D01*
X133629000Y-136863401D02*
X132761000Y-136863401D01*
X133655000Y-136823401D02*
X132761000Y-136823401D01*
X133681000Y-136783401D02*
X132761000Y-136783401D01*
X133705000Y-136743401D02*
X132761000Y-136743401D01*
X133728000Y-136703401D02*
X132761000Y-136703401D01*
X133750000Y-136663401D02*
X132761000Y-136663401D01*
X133771000Y-136623401D02*
X132761000Y-136623401D01*
X133791000Y-136583401D02*
X132761000Y-136583401D01*
X133810000Y-136543401D02*
X132761000Y-136543401D01*
X133827000Y-136503401D02*
X132761000Y-136503401D01*
X133844000Y-136463401D02*
X132761000Y-136463401D01*
X133860000Y-136423401D02*
X132761000Y-136423401D01*
X133875000Y-136383401D02*
X132761000Y-136383401D01*
X133889000Y-136343401D02*
X132761000Y-136343401D01*
X133902000Y-136303401D02*
X132761000Y-136303401D01*
X133914000Y-136263401D02*
X132761000Y-136263401D01*
X133926000Y-136223401D02*
X132761000Y-136223401D01*
X133936000Y-136183401D02*
X132761000Y-136183401D01*
X133946000Y-136143401D02*
X132761000Y-136143401D01*
X133955000Y-136103401D02*
X132761000Y-136103401D01*
X133963000Y-136063401D02*
X132761000Y-136063401D01*
X133970000Y-136023401D02*
X132761000Y-136023401D01*
X133977000Y-135983401D02*
X132761000Y-135983401D01*
X133982000Y-135943401D02*
X132761000Y-135943401D01*
X133987000Y-135903401D02*
X132761000Y-135903401D01*
X133992000Y-135863401D02*
X132761000Y-135863401D01*
X133995000Y-135823401D02*
X129847000Y-135823401D01*
X133998000Y-135783401D02*
X129844000Y-135783401D01*
X133999000Y-135743401D02*
X129843000Y-135743401D01*
X134001000Y-135663401D02*
X129841000Y-135663401D01*
X134001000Y-135703401D02*
X129841000Y-135703401D01*
X134041000Y-135663401D02*
G75*
G02*
X129801000Y-135663401I-2120000J0D01*
G01*
X129801000Y-135663401D02*
G75*
G02*
X134041000Y-135663401I2120000J0D01*
G01*
%TO.C,C3*%
X138621000Y-82904300D02*
X138621000Y-81374300D01*
X140461000Y-81374300D02*
X140461000Y-82904300D01*
%TO.C,SW6*%
X117721000Y-130689300D02*
X117721000Y-122589300D01*
X117721000Y-130689300D02*
X120721000Y-130689300D01*
X120721000Y-122589300D02*
X117721000Y-122589300D01*
X120721000Y-122589300D02*
X120721000Y-130689300D01*
%TO.C,C2*%
X138621000Y-72744300D02*
X138621000Y-71214300D01*
X140461000Y-71214300D02*
X140461000Y-72744300D01*
%TO.C,SW5*%
X117721000Y-120529300D02*
X117721000Y-112429300D01*
X117721000Y-120529300D02*
X120721000Y-120529300D01*
X120721000Y-112429300D02*
X117721000Y-112429300D01*
X120721000Y-112429300D02*
X120721000Y-120529300D01*
%TO.C,SW2*%
X117721000Y-74729300D02*
X117721000Y-66629300D01*
X117721000Y-74729300D02*
X120721000Y-74729300D01*
X120721000Y-66629300D02*
X117721000Y-66629300D01*
X120721000Y-66629300D02*
X120721000Y-74729300D01*
%TO.C,R4*%
X122931000Y-101789300D02*
X122931000Y-108329300D01*
X122931000Y-108329300D02*
X123261000Y-108329300D01*
X123261000Y-101789300D02*
X122931000Y-101789300D01*
X125341000Y-101789300D02*
X125671000Y-101789300D01*
X125671000Y-101789300D02*
X125671000Y-108329300D01*
X125671000Y-108329300D02*
X125341000Y-108329300D01*
%TO.C,R2*%
X122931000Y-66149300D02*
X122931000Y-72689300D01*
X122931000Y-72689300D02*
X123261000Y-72689300D01*
X123261000Y-66149300D02*
X122931000Y-66149300D01*
X125341000Y-66149300D02*
X125671000Y-66149300D01*
X125671000Y-66149300D02*
X125671000Y-72689300D01*
X125671000Y-72689300D02*
X125341000Y-72689300D01*
%TO.C,D5*%
X129201000Y-112559300D02*
X129201000Y-112889300D01*
X129201000Y-115499300D02*
X129201000Y-115169300D01*
X133621000Y-115499300D02*
X133621000Y-112559300D01*
X133741000Y-115499300D02*
X133741000Y-112559300D01*
X133861000Y-115499300D02*
X133861000Y-112559300D01*
X134641000Y-112559300D02*
X129201000Y-112559300D01*
X134641000Y-112889300D02*
X134641000Y-112559300D01*
X134641000Y-115169300D02*
X134641000Y-115499300D01*
X134641000Y-115499300D02*
X129201000Y-115499300D01*
%TO.C,SW4*%
X117721000Y-110369300D02*
X117721000Y-102269300D01*
X117721000Y-110369300D02*
X120721000Y-110369300D01*
X120721000Y-102269300D02*
X117721000Y-102269300D01*
X120721000Y-102269300D02*
X120721000Y-110369300D01*
%TO.C,R11*%
X128651000Y-117659300D02*
X135191000Y-117659300D01*
X128651000Y-117989300D02*
X128651000Y-117659300D01*
X128651000Y-120069300D02*
X128651000Y-120399300D01*
X128651000Y-120399300D02*
X135191000Y-120399300D01*
X135191000Y-117659300D02*
X135191000Y-117989300D01*
X135191000Y-120399300D02*
X135191000Y-120069300D01*
%TO.C,C1*%
X138621000Y-62544300D02*
X138621000Y-61014300D01*
X140461000Y-61014300D02*
X140461000Y-62544300D01*
%TO.C,C6*%
X138621000Y-128704300D02*
X138621000Y-127174300D01*
X140461000Y-127174300D02*
X140461000Y-128704300D01*
%TO.C,J6*%
X160611000Y-151904300D02*
X160611000Y-157554300D01*
X163516000Y-160459300D02*
X169166000Y-160459300D01*
X169166000Y-148999300D02*
X163516000Y-148999300D01*
X171641000Y-154729300D02*
X170941000Y-154229300D01*
X171641000Y-154729300D02*
X170941000Y-155229300D01*
X171841000Y-157554300D02*
X171841000Y-151904300D01*
%TO.C,R1*%
X122931000Y-55989300D02*
X122931000Y-62529300D01*
X122931000Y-62529300D02*
X123261000Y-62529300D01*
X123261000Y-55989300D02*
X122931000Y-55989300D01*
X125341000Y-55989300D02*
X125671000Y-55989300D01*
X125671000Y-55989300D02*
X125671000Y-62529300D01*
X125671000Y-62529300D02*
X125341000Y-62529300D01*
%TO.C,J4*%
X160611000Y-101904300D02*
X160611000Y-107554300D01*
X163516000Y-110459300D02*
X169166000Y-110459300D01*
X169166000Y-98999300D02*
X163516000Y-98999300D01*
X171641000Y-104729300D02*
X170941000Y-104229300D01*
X171641000Y-104729300D02*
X170941000Y-105229300D01*
X171841000Y-107554300D02*
X171841000Y-101904300D01*
%TO.C,R10*%
X128651000Y-107499300D02*
X135191000Y-107499300D01*
X128651000Y-107829300D02*
X128651000Y-107499300D01*
X128651000Y-109909300D02*
X128651000Y-110239300D01*
X128651000Y-110239300D02*
X135191000Y-110239300D01*
X135191000Y-107499300D02*
X135191000Y-107829300D01*
X135191000Y-110239300D02*
X135191000Y-109909300D01*
%TO.C,J3*%
X160611000Y-76904300D02*
X160611000Y-82554300D01*
X163516000Y-85459300D02*
X169166000Y-85459300D01*
X169166000Y-73999300D02*
X163516000Y-73999300D01*
X171641000Y-79729300D02*
X170941000Y-79229300D01*
X171641000Y-79729300D02*
X170941000Y-80229300D01*
X171841000Y-82554300D02*
X171841000Y-76904300D01*
D12*
%TO.C,U2*%
X116498500Y-88927300D02*
X116498500Y-95531300D01*
X116498500Y-95531300D02*
X117882431Y-95531300D01*
X117882431Y-88927300D02*
X116498500Y-88927300D01*
X119559569Y-95531300D02*
X120422431Y-95531300D01*
X120422431Y-88927300D02*
X119559569Y-88927300D01*
X122099569Y-95531300D02*
X122962431Y-95531300D01*
X122962431Y-88927300D02*
X122099569Y-88927300D01*
X124639569Y-95531300D02*
X125502431Y-95531300D01*
X125502431Y-88927300D02*
X124639569Y-88927300D01*
X127179569Y-95531300D02*
X128042431Y-95531300D01*
X128042431Y-88927300D02*
X127179569Y-88927300D01*
X129719569Y-95531300D02*
X130582431Y-95531300D01*
X130582431Y-88927300D02*
X129719569Y-88927300D01*
X132259569Y-95531300D02*
X133122431Y-95531300D01*
X132980560Y-88927300D02*
X132259569Y-88927300D01*
X134799569Y-95531300D02*
X136183500Y-95531300D01*
X136183500Y-88927300D02*
X134941440Y-88927300D01*
X136183500Y-95531300D02*
X136183500Y-88927300D01*
X136183500Y-92534100D02*
G75*
G02*
X136183500Y-91924500I0J304800D01*
G01*
%TD*%
M02*
