M48
; DRILL file {KiCad 9.0.3} date 2025-07-27T17:26:02-0700
; FORMAT={-:-/ absolute / metric / decimal}
; #@! TF.CreationDate,2025-07-27T17:26:02-07:00
; #@! TF.GenerationSoftware,Kicad,Pcbnew,9.0.3
; #@! TF.FileFunction,Plated,1,2,PTH
FMAT,2
METRIC
; #@! TA.AperFunction,Plated,PTH,ViaDrill
T1C0.400
; #@! TA.AperFunction,Plated,PTH,ComponentDrill
T2C0.600
; #@! TA.AperFunction,Plated,PTH,ComponentDrill
T3C0.800
; #@! TA.AperFunction,Plated,PTH,ComponentDrill
T4C1.067
; #@! TA.AperFunction,Plated,PTH,ComponentDrill
T5C1.194
; #@! TA.AperFunction,Plated,PTH,ComponentDrill
T6C1.200
; #@! TA.AperFunction,Plated,PTH,ComponentDrill
T7C1.270
; #@! TA.AperFunction,Plated,PTH,ComponentDrill
T8C1.300
; #@! TA.AperFunction,Plated,PTH,ComponentDrill
T9C1.850
; #@! TA.AperFunction,Plated,PTH,ComponentDrill
T10C3.500
%
G90
G05
T1
X127.96Y-79.75
X128.99Y-111.47
X128.99Y-120.78
X133.0Y-79.75
X138.0Y-79.75
X143.0Y-79.75
T2
X141.75Y-109.19
X143.75Y-109.19
T3
X108.682Y-85.0
X108.682Y-95.0
X108.682Y-120.0
X111.182Y-85.0
X111.182Y-95.0
X111.182Y-120.0
X117.432Y-85.0
X117.432Y-95.0
X117.432Y-120.0
X119.932Y-85.0
X119.932Y-95.0
X119.932Y-120.0
X138.75Y-113.75
X138.75Y-118.5
X138.75Y-123.06
X140.75Y-113.75
X143.75Y-118.5
X143.75Y-123.06
X153.91Y-80.25
X153.91Y-90.41
X153.91Y-94.25
X153.91Y-104.41
X153.91Y-108.25
X153.91Y-118.41
X153.91Y-122.25
X153.91Y-132.41
X156.91Y-80.25
X156.91Y-90.41
X156.91Y-94.25
X156.91Y-104.41
X156.91Y-108.25
X156.91Y-118.41
X156.91Y-122.25
X156.91Y-132.41
X160.16Y-81.59
X160.16Y-86.59
X160.16Y-95.59
X160.16Y-100.59
X160.16Y-109.59
X160.16Y-114.59
X160.16Y-123.59
X160.16Y-128.59
X163.35Y-80.275
X163.35Y-87.895
X163.35Y-94.275
X163.35Y-101.895
X163.35Y-108.275
X163.35Y-115.895
X163.35Y-122.275
X163.35Y-129.895
X165.89Y-80.275
X165.89Y-87.895
X165.89Y-94.275
X165.89Y-101.895
X165.89Y-108.275
X165.89Y-115.895
X165.89Y-122.275
X165.89Y-129.895
X168.43Y-80.275
X168.43Y-87.895
X168.43Y-94.275
X168.43Y-101.895
X168.43Y-108.275
X168.43Y-115.895
X168.43Y-122.275
X168.43Y-129.895
X170.97Y-80.275
X170.97Y-87.895
X170.97Y-94.275
X170.97Y-101.895
X170.97Y-108.275
X170.97Y-115.895
X170.97Y-122.275
X170.97Y-129.895
X173.97Y-82.895
X173.97Y-87.895
X173.97Y-96.895
X173.97Y-101.895
X173.97Y-110.895
X173.97Y-115.895
X173.97Y-124.895
X173.97Y-129.895
X178.16Y-80.59
X178.16Y-90.75
X178.16Y-94.59
X178.16Y-104.75
X178.16Y-108.59
X178.16Y-118.75
X178.16Y-122.59
X178.16Y-132.75
X180.75Y-81.25
X180.75Y-84.25
X180.75Y-87.5
X180.75Y-90.75
X180.75Y-95.25
X180.75Y-98.25
X180.75Y-101.5
X180.75Y-104.75
X180.75Y-109.25
X180.75Y-112.25
X180.75Y-115.5
X180.75Y-118.75
X180.75Y-123.25
X180.75Y-126.25
X180.75Y-129.5
X180.75Y-132.75
X185.75Y-87.5
X185.75Y-101.5
X185.75Y-115.5
X185.75Y-129.5
X190.91Y-81.25
X190.91Y-84.25
X190.91Y-90.75
X190.91Y-95.25
X190.91Y-98.25
X190.91Y-104.75
X190.91Y-109.25
X190.91Y-112.25
X190.91Y-118.75
X190.91Y-123.25
X190.91Y-126.25
X190.91Y-132.75
T4
X180.855Y-138.197
X180.855Y-141.197
X183.855Y-138.197
X183.855Y-141.197
X186.855Y-138.197
X186.855Y-141.197
X189.855Y-138.197
X189.855Y-141.197
T5
X157.116Y-138.655
X158.5Y-141.5
X159.884Y-138.655
X161.269Y-141.5
X162.653Y-138.655
X164.037Y-141.5
X165.421Y-138.655
X166.806Y-141.5
X168.19Y-138.655
T6
X127.96Y-84.84
X127.96Y-105.16
X133.0Y-84.84
X133.0Y-105.16
X138.0Y-84.84
X138.0Y-105.16
X143.0Y-84.84
X143.0Y-105.16
X159.92Y-91.0
X159.92Y-105.0
X159.92Y-119.0
X159.92Y-133.0
X175.16Y-91.0
X175.16Y-105.0
X175.16Y-119.0
X175.16Y-133.0
T8
X108.682Y-105.0
X108.682Y-110.0
X119.932Y-105.0
X119.932Y-110.0
T9
X110.56Y-129.955
X110.56Y-133.765
X112.71Y-146.465
X115.25Y-129.955
X115.25Y-133.765
X117.79Y-146.465
X119.94Y-129.955
X119.94Y-133.765
T10
X104.25Y-79.25
X104.25Y-145.75
X195.75Y-79.25
X195.75Y-145.75
T7
G00X124.743Y-127.728
M15
G01X128.705Y-127.728
M16
G05
G00X132.619Y-127.728
M15
G01X136.581Y-127.728
M16
G05
G00X140.495Y-127.728
M15
G01X144.457Y-127.728
M16
G05
M30
