M48
; DRILL file {KiCad 9.0.7} date 2026-03-11T17:30:20-0400
; FORMAT={-:-/ absolute / inch / decimal}
; #@! TF.CreationDate,2026-03-11T17:30:20-04:00
; #@! TF.GenerationSoftware,Kicad,Pcbnew,9.0.7
; #@! TF.FileFunction,Plated,1,2,PTH
FMAT,2
INCH
; #@! TA.AperFunction,Plated,PTH,ComponentDrill
T1C0.0236
; #@! TA.AperFunction,Plated,PTH,ComponentDrill
T2C0.0310
; #@! TA.AperFunction,Plated,PTH,ComponentDrill
T3C0.0315
; #@! TA.AperFunction,Plated,PTH,ComponentDrill
T4C0.0354
; #@! TA.AperFunction,Plated,PTH,ComponentDrill
T5C0.0433
; #@! TA.AperFunction,Plated,PTH,ComponentDrill
T6C0.0512
; #@! TA.AperFunction,Plated,PTH,ComponentDrill
T7C0.0591
%
G90
G05
T1
X5.1937Y-5.3017
X5.1937Y-5.3804
X5.4437Y-5.3017
X5.4437Y-5.3804
T2
X4.6741Y-3.4811
X4.6741Y-3.7811
X4.7741Y-3.4811
X4.7741Y-3.7811
X4.8741Y-3.4811
X4.8741Y-3.7811
X4.9741Y-3.4811
X4.9741Y-3.7811
X5.0741Y-3.4811
X5.0741Y-3.7811
X5.1741Y-3.4811
X5.1741Y-3.7811
X5.2741Y-3.4811
X5.2741Y-3.7811
T3
X4.8937Y-2.183
X4.8937Y-2.483
X4.8937Y-2.583
X4.8937Y-2.883
X4.8937Y-2.983
X4.8937Y-3.283
X4.8937Y-3.9862
X4.8937Y-4.2862
X4.8937Y-4.3862
X4.8937Y-4.6862
X4.8937Y-4.7862
X4.8937Y-5.0862
X5.0437Y-2.483
X5.0437Y-2.883
X5.0437Y-3.283
X5.0437Y-4.2862
X5.0437Y-4.6862
X5.0437Y-5.0862
X5.3437Y-2.483
X5.3437Y-2.883
X5.3437Y-3.283
X5.3437Y-4.2862
X5.3437Y-4.6862
X5.3437Y-5.0862
X5.45Y-3.7811
X5.4937Y-2.383
X5.4937Y-2.4815
X5.4937Y-2.7846
X5.4937Y-2.883
X5.4937Y-3.1846
X5.4937Y-3.283
X5.4937Y-4.1878
X5.4937Y-4.2862
X5.4937Y-4.5878
X5.4937Y-4.6862
X5.4937Y-4.9878
X5.4937Y-5.0862
X5.5484Y-3.7811
X5.9077Y-1.1704
X5.9077Y-2.1547
X5.9077Y-3.1389
X5.9077Y-4.1232
X5.9077Y-5.1075
X5.9077Y-6.0917
X6.2077Y-1.1704
X6.2077Y-2.1547
X6.2077Y-3.1389
X6.2077Y-4.1232
X6.2077Y-5.1075
X6.2077Y-6.0917
T4
X5.0437Y-2.2862
X5.0437Y-2.6862
X5.0437Y-3.0862
X5.0437Y-4.0893
X5.0437Y-4.4893
X5.0437Y-4.8893
X5.3437Y-2.2862
X5.3437Y-2.6862
X5.3437Y-3.0862
X5.3437Y-4.0893
X5.3437Y-4.4893
X5.3437Y-4.8893
T5
X6.5489Y-1.1704
X6.5489Y-2.1547
X6.5489Y-3.1389
X6.5489Y-4.1232
X6.5489Y-5.1075
X6.5489Y-6.0917
T6
X4.6937Y-2.283
X4.6937Y-2.483
X4.6937Y-2.683
X4.6937Y-2.883
X4.6937Y-3.083
X4.6937Y-3.283
X4.6937Y-4.0862
X4.6937Y-4.2862
X4.6937Y-4.4862
X4.6937Y-4.6862
X4.6937Y-4.8862
X4.6937Y-5.0862
X4.7437Y-5.3017
X4.9437Y-5.3017
T7
X6.351Y-0.9726
X6.351Y-1.3683
X6.351Y-1.9569
X6.351Y-2.3525
X6.351Y-2.9411
X6.351Y-3.3368
X6.351Y-3.9254
X6.351Y-4.321
X6.351Y-4.9096
X6.351Y-5.3053
X6.351Y-5.8939
X6.351Y-6.2895
X6.7467Y-0.9726
X6.7467Y-1.3683
X6.7467Y-1.9569
X6.7467Y-2.3525
X6.7467Y-2.9411
X6.7467Y-3.3368
X6.7467Y-3.9254
X6.7467Y-4.321
X6.7467Y-4.9096
X6.7467Y-5.3053
X6.7467Y-5.8939
X6.7467Y-6.2895
M30
