%TF.GenerationSoftware,KiCad,Pcbnew,9.0.3*%
%TF.CreationDate,2025-07-27T17:23:19-07:00*%
%TF.ProjectId,bfieldsmaller,62666965-6c64-4736-9d61-6c6c65722e6b,rev?*%
%TF.SameCoordinates,Original*%
%TF.FileFunction,Legend,Top*%
%TF.FilePolarity,Positive*%
%FSLAX46Y46*%
G04 Gerber Fmt 4.6, Leading zero omitted, Abs format (unit mm)*
G04 Created by KiCad (PCBNEW 9.0.3) date 2025-07-27 17:23:19*
%MOMM*%
%LPD*%
G01*
G04 APERTURE LIST*
%ADD10C,0.150000*%
%ADD11C,0.100000*%
%ADD12C,0.508000*%
%ADD13C,0.152400*%
%ADD14C,0.120000*%
G04 APERTURE END LIST*
D10*
X185021566Y-139151919D02*
X185021566Y-139866204D01*
X185021566Y-139866204D02*
X184973947Y-140009061D01*
X184973947Y-140009061D02*
X184878709Y-140104300D01*
X184878709Y-140104300D02*
X184735852Y-140151919D01*
X184735852Y-140151919D02*
X184640614Y-140151919D01*
X185450138Y-139247157D02*
X185497757Y-139199538D01*
X185497757Y-139199538D02*
X185592995Y-139151919D01*
X185592995Y-139151919D02*
X185831090Y-139151919D01*
X185831090Y-139151919D02*
X185926328Y-139199538D01*
X185926328Y-139199538D02*
X185973947Y-139247157D01*
X185973947Y-139247157D02*
X186021566Y-139342395D01*
X186021566Y-139342395D02*
X186021566Y-139437633D01*
X186021566Y-139437633D02*
X185973947Y-139580490D01*
X185973947Y-139580490D02*
X185402519Y-140151919D01*
X185402519Y-140151919D02*
X186021566Y-140151919D01*
X166594819Y-84846904D02*
X167404342Y-84846904D01*
X167404342Y-84846904D02*
X167499580Y-84799285D01*
X167499580Y-84799285D02*
X167547200Y-84751666D01*
X167547200Y-84751666D02*
X167594819Y-84656428D01*
X167594819Y-84656428D02*
X167594819Y-84465952D01*
X167594819Y-84465952D02*
X167547200Y-84370714D01*
X167547200Y-84370714D02*
X167499580Y-84323095D01*
X167499580Y-84323095D02*
X167404342Y-84275476D01*
X167404342Y-84275476D02*
X166594819Y-84275476D01*
X167594819Y-83275476D02*
X167594819Y-83846904D01*
X167594819Y-83561190D02*
X166594819Y-83561190D01*
X166594819Y-83561190D02*
X166737676Y-83656428D01*
X166737676Y-83656428D02*
X166832914Y-83751666D01*
X166832914Y-83751666D02*
X166880533Y-83846904D01*
X188318095Y-86954819D02*
X188318095Y-87764342D01*
X188318095Y-87764342D02*
X188365714Y-87859580D01*
X188365714Y-87859580D02*
X188413333Y-87907200D01*
X188413333Y-87907200D02*
X188508571Y-87954819D01*
X188508571Y-87954819D02*
X188699047Y-87954819D01*
X188699047Y-87954819D02*
X188794285Y-87907200D01*
X188794285Y-87907200D02*
X188841904Y-87859580D01*
X188841904Y-87859580D02*
X188889523Y-87764342D01*
X188889523Y-87764342D02*
X188889523Y-86954819D01*
X189318095Y-87050057D02*
X189365714Y-87002438D01*
X189365714Y-87002438D02*
X189460952Y-86954819D01*
X189460952Y-86954819D02*
X189699047Y-86954819D01*
X189699047Y-86954819D02*
X189794285Y-87002438D01*
X189794285Y-87002438D02*
X189841904Y-87050057D01*
X189841904Y-87050057D02*
X189889523Y-87145295D01*
X189889523Y-87145295D02*
X189889523Y-87240533D01*
X189889523Y-87240533D02*
X189841904Y-87383390D01*
X189841904Y-87383390D02*
X189270476Y-87954819D01*
X189270476Y-87954819D02*
X189889523Y-87954819D01*
X185187142Y-81704819D02*
X184853809Y-81228628D01*
X184615714Y-81704819D02*
X184615714Y-80704819D01*
X184615714Y-80704819D02*
X184996666Y-80704819D01*
X184996666Y-80704819D02*
X185091904Y-80752438D01*
X185091904Y-80752438D02*
X185139523Y-80800057D01*
X185139523Y-80800057D02*
X185187142Y-80895295D01*
X185187142Y-80895295D02*
X185187142Y-81038152D01*
X185187142Y-81038152D02*
X185139523Y-81133390D01*
X185139523Y-81133390D02*
X185091904Y-81181009D01*
X185091904Y-81181009D02*
X184996666Y-81228628D01*
X184996666Y-81228628D02*
X184615714Y-81228628D01*
X186139523Y-81704819D02*
X185568095Y-81704819D01*
X185853809Y-81704819D02*
X185853809Y-80704819D01*
X185853809Y-80704819D02*
X185758571Y-80847676D01*
X185758571Y-80847676D02*
X185663333Y-80942914D01*
X185663333Y-80942914D02*
X185568095Y-80990533D01*
X186472857Y-80704819D02*
X187139523Y-80704819D01*
X187139523Y-80704819D02*
X186710952Y-81704819D01*
X167373333Y-91454819D02*
X167040000Y-90978628D01*
X166801905Y-91454819D02*
X166801905Y-90454819D01*
X166801905Y-90454819D02*
X167182857Y-90454819D01*
X167182857Y-90454819D02*
X167278095Y-90502438D01*
X167278095Y-90502438D02*
X167325714Y-90550057D01*
X167325714Y-90550057D02*
X167373333Y-90645295D01*
X167373333Y-90645295D02*
X167373333Y-90788152D01*
X167373333Y-90788152D02*
X167325714Y-90883390D01*
X167325714Y-90883390D02*
X167278095Y-90931009D01*
X167278095Y-90931009D02*
X167182857Y-90978628D01*
X167182857Y-90978628D02*
X166801905Y-90978628D01*
X168278095Y-90454819D02*
X167801905Y-90454819D01*
X167801905Y-90454819D02*
X167754286Y-90931009D01*
X167754286Y-90931009D02*
X167801905Y-90883390D01*
X167801905Y-90883390D02*
X167897143Y-90835771D01*
X167897143Y-90835771D02*
X168135238Y-90835771D01*
X168135238Y-90835771D02*
X168230476Y-90883390D01*
X168230476Y-90883390D02*
X168278095Y-90931009D01*
X168278095Y-90931009D02*
X168325714Y-91026247D01*
X168325714Y-91026247D02*
X168325714Y-91264342D01*
X168325714Y-91264342D02*
X168278095Y-91359580D01*
X168278095Y-91359580D02*
X168230476Y-91407200D01*
X168230476Y-91407200D02*
X168135238Y-91454819D01*
X168135238Y-91454819D02*
X167897143Y-91454819D01*
X167897143Y-91454819D02*
X167801905Y-91407200D01*
X167801905Y-91407200D02*
X167754286Y-91359580D01*
X185187142Y-91204819D02*
X184853809Y-90728628D01*
X184615714Y-91204819D02*
X184615714Y-90204819D01*
X184615714Y-90204819D02*
X184996666Y-90204819D01*
X184996666Y-90204819D02*
X185091904Y-90252438D01*
X185091904Y-90252438D02*
X185139523Y-90300057D01*
X185139523Y-90300057D02*
X185187142Y-90395295D01*
X185187142Y-90395295D02*
X185187142Y-90538152D01*
X185187142Y-90538152D02*
X185139523Y-90633390D01*
X185139523Y-90633390D02*
X185091904Y-90681009D01*
X185091904Y-90681009D02*
X184996666Y-90728628D01*
X184996666Y-90728628D02*
X184615714Y-90728628D01*
X185568095Y-90300057D02*
X185615714Y-90252438D01*
X185615714Y-90252438D02*
X185710952Y-90204819D01*
X185710952Y-90204819D02*
X185949047Y-90204819D01*
X185949047Y-90204819D02*
X186044285Y-90252438D01*
X186044285Y-90252438D02*
X186091904Y-90300057D01*
X186091904Y-90300057D02*
X186139523Y-90395295D01*
X186139523Y-90395295D02*
X186139523Y-90490533D01*
X186139523Y-90490533D02*
X186091904Y-90633390D01*
X186091904Y-90633390D02*
X185520476Y-91204819D01*
X185520476Y-91204819D02*
X186139523Y-91204819D01*
X187044285Y-90204819D02*
X186568095Y-90204819D01*
X186568095Y-90204819D02*
X186520476Y-90681009D01*
X186520476Y-90681009D02*
X186568095Y-90633390D01*
X186568095Y-90633390D02*
X186663333Y-90585771D01*
X186663333Y-90585771D02*
X186901428Y-90585771D01*
X186901428Y-90585771D02*
X186996666Y-90633390D01*
X186996666Y-90633390D02*
X187044285Y-90681009D01*
X187044285Y-90681009D02*
X187091904Y-90776247D01*
X187091904Y-90776247D02*
X187091904Y-91014342D01*
X187091904Y-91014342D02*
X187044285Y-91109580D01*
X187044285Y-91109580D02*
X186996666Y-91157200D01*
X186996666Y-91157200D02*
X186901428Y-91204819D01*
X186901428Y-91204819D02*
X186663333Y-91204819D01*
X186663333Y-91204819D02*
X186568095Y-91157200D01*
X186568095Y-91157200D02*
X186520476Y-91109580D01*
X185187142Y-84704819D02*
X184853809Y-84228628D01*
X184615714Y-84704819D02*
X184615714Y-83704819D01*
X184615714Y-83704819D02*
X184996666Y-83704819D01*
X184996666Y-83704819D02*
X185091904Y-83752438D01*
X185091904Y-83752438D02*
X185139523Y-83800057D01*
X185139523Y-83800057D02*
X185187142Y-83895295D01*
X185187142Y-83895295D02*
X185187142Y-84038152D01*
X185187142Y-84038152D02*
X185139523Y-84133390D01*
X185139523Y-84133390D02*
X185091904Y-84181009D01*
X185091904Y-84181009D02*
X184996666Y-84228628D01*
X184996666Y-84228628D02*
X184615714Y-84228628D01*
X186139523Y-84704819D02*
X185568095Y-84704819D01*
X185853809Y-84704819D02*
X185853809Y-83704819D01*
X185853809Y-83704819D02*
X185758571Y-83847676D01*
X185758571Y-83847676D02*
X185663333Y-83942914D01*
X185663333Y-83942914D02*
X185568095Y-83990533D01*
X186710952Y-84133390D02*
X186615714Y-84085771D01*
X186615714Y-84085771D02*
X186568095Y-84038152D01*
X186568095Y-84038152D02*
X186520476Y-83942914D01*
X186520476Y-83942914D02*
X186520476Y-83895295D01*
X186520476Y-83895295D02*
X186568095Y-83800057D01*
X186568095Y-83800057D02*
X186615714Y-83752438D01*
X186615714Y-83752438D02*
X186710952Y-83704819D01*
X186710952Y-83704819D02*
X186901428Y-83704819D01*
X186901428Y-83704819D02*
X186996666Y-83752438D01*
X186996666Y-83752438D02*
X187044285Y-83800057D01*
X187044285Y-83800057D02*
X187091904Y-83895295D01*
X187091904Y-83895295D02*
X187091904Y-83942914D01*
X187091904Y-83942914D02*
X187044285Y-84038152D01*
X187044285Y-84038152D02*
X186996666Y-84085771D01*
X186996666Y-84085771D02*
X186901428Y-84133390D01*
X186901428Y-84133390D02*
X186710952Y-84133390D01*
X186710952Y-84133390D02*
X186615714Y-84181009D01*
X186615714Y-84181009D02*
X186568095Y-84228628D01*
X186568095Y-84228628D02*
X186520476Y-84323866D01*
X186520476Y-84323866D02*
X186520476Y-84514342D01*
X186520476Y-84514342D02*
X186568095Y-84609580D01*
X186568095Y-84609580D02*
X186615714Y-84657200D01*
X186615714Y-84657200D02*
X186710952Y-84704819D01*
X186710952Y-84704819D02*
X186901428Y-84704819D01*
X186901428Y-84704819D02*
X186996666Y-84657200D01*
X186996666Y-84657200D02*
X187044285Y-84609580D01*
X187044285Y-84609580D02*
X187091904Y-84514342D01*
X187091904Y-84514342D02*
X187091904Y-84323866D01*
X187091904Y-84323866D02*
X187044285Y-84228628D01*
X187044285Y-84228628D02*
X186996666Y-84181009D01*
X186996666Y-84181009D02*
X186901428Y-84133390D01*
X174329580Y-86037857D02*
X174377200Y-86085476D01*
X174377200Y-86085476D02*
X174424819Y-86228333D01*
X174424819Y-86228333D02*
X174424819Y-86323571D01*
X174424819Y-86323571D02*
X174377200Y-86466428D01*
X174377200Y-86466428D02*
X174281961Y-86561666D01*
X174281961Y-86561666D02*
X174186723Y-86609285D01*
X174186723Y-86609285D02*
X173996247Y-86656904D01*
X173996247Y-86656904D02*
X173853390Y-86656904D01*
X173853390Y-86656904D02*
X173662914Y-86609285D01*
X173662914Y-86609285D02*
X173567676Y-86561666D01*
X173567676Y-86561666D02*
X173472438Y-86466428D01*
X173472438Y-86466428D02*
X173424819Y-86323571D01*
X173424819Y-86323571D02*
X173424819Y-86228333D01*
X173424819Y-86228333D02*
X173472438Y-86085476D01*
X173472438Y-86085476D02*
X173520057Y-86037857D01*
X174424819Y-85085476D02*
X174424819Y-85656904D01*
X174424819Y-85371190D02*
X173424819Y-85371190D01*
X173424819Y-85371190D02*
X173567676Y-85466428D01*
X173567676Y-85466428D02*
X173662914Y-85561666D01*
X173662914Y-85561666D02*
X173710533Y-85656904D01*
X173520057Y-84704523D02*
X173472438Y-84656904D01*
X173472438Y-84656904D02*
X173424819Y-84561666D01*
X173424819Y-84561666D02*
X173424819Y-84323571D01*
X173424819Y-84323571D02*
X173472438Y-84228333D01*
X173472438Y-84228333D02*
X173520057Y-84180714D01*
X173520057Y-84180714D02*
X173615295Y-84133095D01*
X173615295Y-84133095D02*
X173710533Y-84133095D01*
X173710533Y-84133095D02*
X173853390Y-84180714D01*
X173853390Y-84180714D02*
X174424819Y-84752142D01*
X174424819Y-84752142D02*
X174424819Y-84133095D01*
X157364819Y-85496666D02*
X156888628Y-85829999D01*
X157364819Y-86068094D02*
X156364819Y-86068094D01*
X156364819Y-86068094D02*
X156364819Y-85687142D01*
X156364819Y-85687142D02*
X156412438Y-85591904D01*
X156412438Y-85591904D02*
X156460057Y-85544285D01*
X156460057Y-85544285D02*
X156555295Y-85496666D01*
X156555295Y-85496666D02*
X156698152Y-85496666D01*
X156698152Y-85496666D02*
X156793390Y-85544285D01*
X156793390Y-85544285D02*
X156841009Y-85591904D01*
X156841009Y-85591904D02*
X156888628Y-85687142D01*
X156888628Y-85687142D02*
X156888628Y-86068094D01*
X157364819Y-85020475D02*
X157364819Y-84829999D01*
X157364819Y-84829999D02*
X157317200Y-84734761D01*
X157317200Y-84734761D02*
X157269580Y-84687142D01*
X157269580Y-84687142D02*
X157126723Y-84591904D01*
X157126723Y-84591904D02*
X156936247Y-84544285D01*
X156936247Y-84544285D02*
X156555295Y-84544285D01*
X156555295Y-84544285D02*
X156460057Y-84591904D01*
X156460057Y-84591904D02*
X156412438Y-84639523D01*
X156412438Y-84639523D02*
X156364819Y-84734761D01*
X156364819Y-84734761D02*
X156364819Y-84925237D01*
X156364819Y-84925237D02*
X156412438Y-85020475D01*
X156412438Y-85020475D02*
X156460057Y-85068094D01*
X156460057Y-85068094D02*
X156555295Y-85115713D01*
X156555295Y-85115713D02*
X156793390Y-85115713D01*
X156793390Y-85115713D02*
X156888628Y-85068094D01*
X156888628Y-85068094D02*
X156936247Y-85020475D01*
X156936247Y-85020475D02*
X156983866Y-84925237D01*
X156983866Y-84925237D02*
X156983866Y-84734761D01*
X156983866Y-84734761D02*
X156936247Y-84639523D01*
X156936247Y-84639523D02*
X156888628Y-84591904D01*
X156888628Y-84591904D02*
X156793390Y-84544285D01*
X182607142Y-87859580D02*
X182559523Y-87907200D01*
X182559523Y-87907200D02*
X182416666Y-87954819D01*
X182416666Y-87954819D02*
X182321428Y-87954819D01*
X182321428Y-87954819D02*
X182178571Y-87907200D01*
X182178571Y-87907200D02*
X182083333Y-87811961D01*
X182083333Y-87811961D02*
X182035714Y-87716723D01*
X182035714Y-87716723D02*
X181988095Y-87526247D01*
X181988095Y-87526247D02*
X181988095Y-87383390D01*
X181988095Y-87383390D02*
X182035714Y-87192914D01*
X182035714Y-87192914D02*
X182083333Y-87097676D01*
X182083333Y-87097676D02*
X182178571Y-87002438D01*
X182178571Y-87002438D02*
X182321428Y-86954819D01*
X182321428Y-86954819D02*
X182416666Y-86954819D01*
X182416666Y-86954819D02*
X182559523Y-87002438D01*
X182559523Y-87002438D02*
X182607142Y-87050057D01*
X183559523Y-87954819D02*
X182988095Y-87954819D01*
X183273809Y-87954819D02*
X183273809Y-86954819D01*
X183273809Y-86954819D02*
X183178571Y-87097676D01*
X183178571Y-87097676D02*
X183083333Y-87192914D01*
X183083333Y-87192914D02*
X182988095Y-87240533D01*
X183892857Y-86954819D02*
X184511904Y-86954819D01*
X184511904Y-86954819D02*
X184178571Y-87335771D01*
X184178571Y-87335771D02*
X184321428Y-87335771D01*
X184321428Y-87335771D02*
X184416666Y-87383390D01*
X184416666Y-87383390D02*
X184464285Y-87431009D01*
X184464285Y-87431009D02*
X184511904Y-87526247D01*
X184511904Y-87526247D02*
X184511904Y-87764342D01*
X184511904Y-87764342D02*
X184464285Y-87859580D01*
X184464285Y-87859580D02*
X184416666Y-87907200D01*
X184416666Y-87907200D02*
X184321428Y-87954819D01*
X184321428Y-87954819D02*
X184035714Y-87954819D01*
X184035714Y-87954819D02*
X183940476Y-87907200D01*
X183940476Y-87907200D02*
X183892857Y-87859580D01*
X154364819Y-85496666D02*
X153888628Y-85829999D01*
X154364819Y-86068094D02*
X153364819Y-86068094D01*
X153364819Y-86068094D02*
X153364819Y-85687142D01*
X153364819Y-85687142D02*
X153412438Y-85591904D01*
X153412438Y-85591904D02*
X153460057Y-85544285D01*
X153460057Y-85544285D02*
X153555295Y-85496666D01*
X153555295Y-85496666D02*
X153698152Y-85496666D01*
X153698152Y-85496666D02*
X153793390Y-85544285D01*
X153793390Y-85544285D02*
X153841009Y-85591904D01*
X153841009Y-85591904D02*
X153888628Y-85687142D01*
X153888628Y-85687142D02*
X153888628Y-86068094D01*
X154364819Y-84544285D02*
X154364819Y-85115713D01*
X154364819Y-84829999D02*
X153364819Y-84829999D01*
X153364819Y-84829999D02*
X153507676Y-84925237D01*
X153507676Y-84925237D02*
X153602914Y-85020475D01*
X153602914Y-85020475D02*
X153650533Y-85115713D01*
X160519580Y-84732857D02*
X160567200Y-84780476D01*
X160567200Y-84780476D02*
X160614819Y-84923333D01*
X160614819Y-84923333D02*
X160614819Y-85018571D01*
X160614819Y-85018571D02*
X160567200Y-85161428D01*
X160567200Y-85161428D02*
X160471961Y-85256666D01*
X160471961Y-85256666D02*
X160376723Y-85304285D01*
X160376723Y-85304285D02*
X160186247Y-85351904D01*
X160186247Y-85351904D02*
X160043390Y-85351904D01*
X160043390Y-85351904D02*
X159852914Y-85304285D01*
X159852914Y-85304285D02*
X159757676Y-85256666D01*
X159757676Y-85256666D02*
X159662438Y-85161428D01*
X159662438Y-85161428D02*
X159614819Y-85018571D01*
X159614819Y-85018571D02*
X159614819Y-84923333D01*
X159614819Y-84923333D02*
X159662438Y-84780476D01*
X159662438Y-84780476D02*
X159710057Y-84732857D01*
X160614819Y-83780476D02*
X160614819Y-84351904D01*
X160614819Y-84066190D02*
X159614819Y-84066190D01*
X159614819Y-84066190D02*
X159757676Y-84161428D01*
X159757676Y-84161428D02*
X159852914Y-84256666D01*
X159852914Y-84256666D02*
X159900533Y-84351904D01*
X160614819Y-82828095D02*
X160614819Y-83399523D01*
X160614819Y-83113809D02*
X159614819Y-83113809D01*
X159614819Y-83113809D02*
X159757676Y-83209047D01*
X159757676Y-83209047D02*
X159852914Y-83304285D01*
X159852914Y-83304285D02*
X159900533Y-83399523D01*
X178614819Y-86312857D02*
X178138628Y-86646190D01*
X178614819Y-86884285D02*
X177614819Y-86884285D01*
X177614819Y-86884285D02*
X177614819Y-86503333D01*
X177614819Y-86503333D02*
X177662438Y-86408095D01*
X177662438Y-86408095D02*
X177710057Y-86360476D01*
X177710057Y-86360476D02*
X177805295Y-86312857D01*
X177805295Y-86312857D02*
X177948152Y-86312857D01*
X177948152Y-86312857D02*
X178043390Y-86360476D01*
X178043390Y-86360476D02*
X178091009Y-86408095D01*
X178091009Y-86408095D02*
X178138628Y-86503333D01*
X178138628Y-86503333D02*
X178138628Y-86884285D01*
X178614819Y-85360476D02*
X178614819Y-85931904D01*
X178614819Y-85646190D02*
X177614819Y-85646190D01*
X177614819Y-85646190D02*
X177757676Y-85741428D01*
X177757676Y-85741428D02*
X177852914Y-85836666D01*
X177852914Y-85836666D02*
X177900533Y-85931904D01*
X177614819Y-85027142D02*
X177614819Y-84408095D01*
X177614819Y-84408095D02*
X177995771Y-84741428D01*
X177995771Y-84741428D02*
X177995771Y-84598571D01*
X177995771Y-84598571D02*
X178043390Y-84503333D01*
X178043390Y-84503333D02*
X178091009Y-84455714D01*
X178091009Y-84455714D02*
X178186247Y-84408095D01*
X178186247Y-84408095D02*
X178424342Y-84408095D01*
X178424342Y-84408095D02*
X178519580Y-84455714D01*
X178519580Y-84455714D02*
X178567200Y-84503333D01*
X178567200Y-84503333D02*
X178614819Y-84598571D01*
X178614819Y-84598571D02*
X178614819Y-84884285D01*
X178614819Y-84884285D02*
X178567200Y-84979523D01*
X178567200Y-84979523D02*
X178519580Y-85027142D01*
X129011905Y-115204819D02*
X129011905Y-116014342D01*
X129011905Y-116014342D02*
X129059524Y-116109580D01*
X129059524Y-116109580D02*
X129107143Y-116157200D01*
X129107143Y-116157200D02*
X129202381Y-116204819D01*
X129202381Y-116204819D02*
X129392857Y-116204819D01*
X129392857Y-116204819D02*
X129488095Y-116157200D01*
X129488095Y-116157200D02*
X129535714Y-116109580D01*
X129535714Y-116109580D02*
X129583333Y-116014342D01*
X129583333Y-116014342D02*
X129583333Y-115204819D01*
X130583333Y-116204819D02*
X130011905Y-116204819D01*
X130297619Y-116204819D02*
X130297619Y-115204819D01*
X130297619Y-115204819D02*
X130202381Y-115347676D01*
X130202381Y-115347676D02*
X130107143Y-115442914D01*
X130107143Y-115442914D02*
X130011905Y-115490533D01*
X131202381Y-115204819D02*
X131297619Y-115204819D01*
X131297619Y-115204819D02*
X131392857Y-115252438D01*
X131392857Y-115252438D02*
X131440476Y-115300057D01*
X131440476Y-115300057D02*
X131488095Y-115395295D01*
X131488095Y-115395295D02*
X131535714Y-115585771D01*
X131535714Y-115585771D02*
X131535714Y-115823866D01*
X131535714Y-115823866D02*
X131488095Y-116014342D01*
X131488095Y-116014342D02*
X131440476Y-116109580D01*
X131440476Y-116109580D02*
X131392857Y-116157200D01*
X131392857Y-116157200D02*
X131297619Y-116204819D01*
X131297619Y-116204819D02*
X131202381Y-116204819D01*
X131202381Y-116204819D02*
X131107143Y-116157200D01*
X131107143Y-116157200D02*
X131059524Y-116109580D01*
X131059524Y-116109580D02*
X131011905Y-116014342D01*
X131011905Y-116014342D02*
X130964286Y-115823866D01*
X130964286Y-115823866D02*
X130964286Y-115585771D01*
X130964286Y-115585771D02*
X131011905Y-115395295D01*
X131011905Y-115395295D02*
X131059524Y-115300057D01*
X131059524Y-115300057D02*
X131107143Y-115252438D01*
X131107143Y-115252438D02*
X131202381Y-115204819D01*
X145357142Y-111109580D02*
X145309523Y-111157200D01*
X145309523Y-111157200D02*
X145166666Y-111204819D01*
X145166666Y-111204819D02*
X145071428Y-111204819D01*
X145071428Y-111204819D02*
X144928571Y-111157200D01*
X144928571Y-111157200D02*
X144833333Y-111061961D01*
X144833333Y-111061961D02*
X144785714Y-110966723D01*
X144785714Y-110966723D02*
X144738095Y-110776247D01*
X144738095Y-110776247D02*
X144738095Y-110633390D01*
X144738095Y-110633390D02*
X144785714Y-110442914D01*
X144785714Y-110442914D02*
X144833333Y-110347676D01*
X144833333Y-110347676D02*
X144928571Y-110252438D01*
X144928571Y-110252438D02*
X145071428Y-110204819D01*
X145071428Y-110204819D02*
X145166666Y-110204819D01*
X145166666Y-110204819D02*
X145309523Y-110252438D01*
X145309523Y-110252438D02*
X145357142Y-110300057D01*
X146309523Y-111204819D02*
X145738095Y-111204819D01*
X146023809Y-111204819D02*
X146023809Y-110204819D01*
X146023809Y-110204819D02*
X145928571Y-110347676D01*
X145928571Y-110347676D02*
X145833333Y-110442914D01*
X145833333Y-110442914D02*
X145738095Y-110490533D01*
X146928571Y-110204819D02*
X147023809Y-110204819D01*
X147023809Y-110204819D02*
X147119047Y-110252438D01*
X147119047Y-110252438D02*
X147166666Y-110300057D01*
X147166666Y-110300057D02*
X147214285Y-110395295D01*
X147214285Y-110395295D02*
X147261904Y-110585771D01*
X147261904Y-110585771D02*
X147261904Y-110823866D01*
X147261904Y-110823866D02*
X147214285Y-111014342D01*
X147214285Y-111014342D02*
X147166666Y-111109580D01*
X147166666Y-111109580D02*
X147119047Y-111157200D01*
X147119047Y-111157200D02*
X147023809Y-111204819D01*
X147023809Y-111204819D02*
X146928571Y-111204819D01*
X146928571Y-111204819D02*
X146833333Y-111157200D01*
X146833333Y-111157200D02*
X146785714Y-111109580D01*
X146785714Y-111109580D02*
X146738095Y-111014342D01*
X146738095Y-111014342D02*
X146690476Y-110823866D01*
X146690476Y-110823866D02*
X146690476Y-110585771D01*
X146690476Y-110585771D02*
X146738095Y-110395295D01*
X146738095Y-110395295D02*
X146785714Y-110300057D01*
X146785714Y-110300057D02*
X146833333Y-110252438D01*
X146833333Y-110252438D02*
X146928571Y-110204819D01*
X142583333Y-116109580D02*
X142535714Y-116157200D01*
X142535714Y-116157200D02*
X142392857Y-116204819D01*
X142392857Y-116204819D02*
X142297619Y-116204819D01*
X142297619Y-116204819D02*
X142154762Y-116157200D01*
X142154762Y-116157200D02*
X142059524Y-116061961D01*
X142059524Y-116061961D02*
X142011905Y-115966723D01*
X142011905Y-115966723D02*
X141964286Y-115776247D01*
X141964286Y-115776247D02*
X141964286Y-115633390D01*
X141964286Y-115633390D02*
X142011905Y-115442914D01*
X142011905Y-115442914D02*
X142059524Y-115347676D01*
X142059524Y-115347676D02*
X142154762Y-115252438D01*
X142154762Y-115252438D02*
X142297619Y-115204819D01*
X142297619Y-115204819D02*
X142392857Y-115204819D01*
X142392857Y-115204819D02*
X142535714Y-115252438D01*
X142535714Y-115252438D02*
X142583333Y-115300057D01*
X143059524Y-116204819D02*
X143250000Y-116204819D01*
X143250000Y-116204819D02*
X143345238Y-116157200D01*
X143345238Y-116157200D02*
X143392857Y-116109580D01*
X143392857Y-116109580D02*
X143488095Y-115966723D01*
X143488095Y-115966723D02*
X143535714Y-115776247D01*
X143535714Y-115776247D02*
X143535714Y-115395295D01*
X143535714Y-115395295D02*
X143488095Y-115300057D01*
X143488095Y-115300057D02*
X143440476Y-115252438D01*
X143440476Y-115252438D02*
X143345238Y-115204819D01*
X143345238Y-115204819D02*
X143154762Y-115204819D01*
X143154762Y-115204819D02*
X143059524Y-115252438D01*
X143059524Y-115252438D02*
X143011905Y-115300057D01*
X143011905Y-115300057D02*
X142964286Y-115395295D01*
X142964286Y-115395295D02*
X142964286Y-115633390D01*
X142964286Y-115633390D02*
X143011905Y-115728628D01*
X143011905Y-115728628D02*
X143059524Y-115776247D01*
X143059524Y-115776247D02*
X143154762Y-115823866D01*
X143154762Y-115823866D02*
X143345238Y-115823866D01*
X143345238Y-115823866D02*
X143440476Y-115776247D01*
X143440476Y-115776247D02*
X143488095Y-115728628D01*
X143488095Y-115728628D02*
X143535714Y-115633390D01*
X129488095Y-124454819D02*
X129488095Y-125264342D01*
X129488095Y-125264342D02*
X129535714Y-125359580D01*
X129535714Y-125359580D02*
X129583333Y-125407200D01*
X129583333Y-125407200D02*
X129678571Y-125454819D01*
X129678571Y-125454819D02*
X129869047Y-125454819D01*
X129869047Y-125454819D02*
X129964285Y-125407200D01*
X129964285Y-125407200D02*
X130011904Y-125359580D01*
X130011904Y-125359580D02*
X130059523Y-125264342D01*
X130059523Y-125264342D02*
X130059523Y-124454819D01*
X130583333Y-125454819D02*
X130773809Y-125454819D01*
X130773809Y-125454819D02*
X130869047Y-125407200D01*
X130869047Y-125407200D02*
X130916666Y-125359580D01*
X130916666Y-125359580D02*
X131011904Y-125216723D01*
X131011904Y-125216723D02*
X131059523Y-125026247D01*
X131059523Y-125026247D02*
X131059523Y-124645295D01*
X131059523Y-124645295D02*
X131011904Y-124550057D01*
X131011904Y-124550057D02*
X130964285Y-124502438D01*
X130964285Y-124502438D02*
X130869047Y-124454819D01*
X130869047Y-124454819D02*
X130678571Y-124454819D01*
X130678571Y-124454819D02*
X130583333Y-124502438D01*
X130583333Y-124502438D02*
X130535714Y-124550057D01*
X130535714Y-124550057D02*
X130488095Y-124645295D01*
X130488095Y-124645295D02*
X130488095Y-124883390D01*
X130488095Y-124883390D02*
X130535714Y-124978628D01*
X130535714Y-124978628D02*
X130583333Y-125026247D01*
X130583333Y-125026247D02*
X130678571Y-125073866D01*
X130678571Y-125073866D02*
X130869047Y-125073866D01*
X130869047Y-125073866D02*
X130964285Y-125026247D01*
X130964285Y-125026247D02*
X131011904Y-124978628D01*
X131011904Y-124978628D02*
X131059523Y-124883390D01*
X141083333Y-123359580D02*
X141035714Y-123407200D01*
X141035714Y-123407200D02*
X140892857Y-123454819D01*
X140892857Y-123454819D02*
X140797619Y-123454819D01*
X140797619Y-123454819D02*
X140654762Y-123407200D01*
X140654762Y-123407200D02*
X140559524Y-123311961D01*
X140559524Y-123311961D02*
X140511905Y-123216723D01*
X140511905Y-123216723D02*
X140464286Y-123026247D01*
X140464286Y-123026247D02*
X140464286Y-122883390D01*
X140464286Y-122883390D02*
X140511905Y-122692914D01*
X140511905Y-122692914D02*
X140559524Y-122597676D01*
X140559524Y-122597676D02*
X140654762Y-122502438D01*
X140654762Y-122502438D02*
X140797619Y-122454819D01*
X140797619Y-122454819D02*
X140892857Y-122454819D01*
X140892857Y-122454819D02*
X141035714Y-122502438D01*
X141035714Y-122502438D02*
X141083333Y-122550057D01*
X141416667Y-122454819D02*
X142083333Y-122454819D01*
X142083333Y-122454819D02*
X141654762Y-123454819D01*
X141083333Y-118859580D02*
X141035714Y-118907200D01*
X141035714Y-118907200D02*
X140892857Y-118954819D01*
X140892857Y-118954819D02*
X140797619Y-118954819D01*
X140797619Y-118954819D02*
X140654762Y-118907200D01*
X140654762Y-118907200D02*
X140559524Y-118811961D01*
X140559524Y-118811961D02*
X140511905Y-118716723D01*
X140511905Y-118716723D02*
X140464286Y-118526247D01*
X140464286Y-118526247D02*
X140464286Y-118383390D01*
X140464286Y-118383390D02*
X140511905Y-118192914D01*
X140511905Y-118192914D02*
X140559524Y-118097676D01*
X140559524Y-118097676D02*
X140654762Y-118002438D01*
X140654762Y-118002438D02*
X140797619Y-117954819D01*
X140797619Y-117954819D02*
X140892857Y-117954819D01*
X140892857Y-117954819D02*
X141035714Y-118002438D01*
X141035714Y-118002438D02*
X141083333Y-118050057D01*
X141654762Y-118383390D02*
X141559524Y-118335771D01*
X141559524Y-118335771D02*
X141511905Y-118288152D01*
X141511905Y-118288152D02*
X141464286Y-118192914D01*
X141464286Y-118192914D02*
X141464286Y-118145295D01*
X141464286Y-118145295D02*
X141511905Y-118050057D01*
X141511905Y-118050057D02*
X141559524Y-118002438D01*
X141559524Y-118002438D02*
X141654762Y-117954819D01*
X141654762Y-117954819D02*
X141845238Y-117954819D01*
X141845238Y-117954819D02*
X141940476Y-118002438D01*
X141940476Y-118002438D02*
X141988095Y-118050057D01*
X141988095Y-118050057D02*
X142035714Y-118145295D01*
X142035714Y-118145295D02*
X142035714Y-118192914D01*
X142035714Y-118192914D02*
X141988095Y-118288152D01*
X141988095Y-118288152D02*
X141940476Y-118335771D01*
X141940476Y-118335771D02*
X141845238Y-118383390D01*
X141845238Y-118383390D02*
X141654762Y-118383390D01*
X141654762Y-118383390D02*
X141559524Y-118431009D01*
X141559524Y-118431009D02*
X141511905Y-118478628D01*
X141511905Y-118478628D02*
X141464286Y-118573866D01*
X141464286Y-118573866D02*
X141464286Y-118764342D01*
X141464286Y-118764342D02*
X141511905Y-118859580D01*
X141511905Y-118859580D02*
X141559524Y-118907200D01*
X141559524Y-118907200D02*
X141654762Y-118954819D01*
X141654762Y-118954819D02*
X141845238Y-118954819D01*
X141845238Y-118954819D02*
X141940476Y-118907200D01*
X141940476Y-118907200D02*
X141988095Y-118859580D01*
X141988095Y-118859580D02*
X142035714Y-118764342D01*
X142035714Y-118764342D02*
X142035714Y-118573866D01*
X142035714Y-118573866D02*
X141988095Y-118478628D01*
X141988095Y-118478628D02*
X141940476Y-118431009D01*
X141940476Y-118431009D02*
X141845238Y-118383390D01*
X138454819Y-95642857D02*
X137978628Y-95976190D01*
X138454819Y-96214285D02*
X137454819Y-96214285D01*
X137454819Y-96214285D02*
X137454819Y-95833333D01*
X137454819Y-95833333D02*
X137502438Y-95738095D01*
X137502438Y-95738095D02*
X137550057Y-95690476D01*
X137550057Y-95690476D02*
X137645295Y-95642857D01*
X137645295Y-95642857D02*
X137788152Y-95642857D01*
X137788152Y-95642857D02*
X137883390Y-95690476D01*
X137883390Y-95690476D02*
X137931009Y-95738095D01*
X137931009Y-95738095D02*
X137978628Y-95833333D01*
X137978628Y-95833333D02*
X137978628Y-96214285D01*
X137454819Y-95309523D02*
X137454819Y-94690476D01*
X137454819Y-94690476D02*
X137835771Y-95023809D01*
X137835771Y-95023809D02*
X137835771Y-94880952D01*
X137835771Y-94880952D02*
X137883390Y-94785714D01*
X137883390Y-94785714D02*
X137931009Y-94738095D01*
X137931009Y-94738095D02*
X138026247Y-94690476D01*
X138026247Y-94690476D02*
X138264342Y-94690476D01*
X138264342Y-94690476D02*
X138359580Y-94738095D01*
X138359580Y-94738095D02*
X138407200Y-94785714D01*
X138407200Y-94785714D02*
X138454819Y-94880952D01*
X138454819Y-94880952D02*
X138454819Y-95166666D01*
X138454819Y-95166666D02*
X138407200Y-95261904D01*
X138407200Y-95261904D02*
X138359580Y-95309523D01*
X138454819Y-93738095D02*
X138454819Y-94309523D01*
X138454819Y-94023809D02*
X137454819Y-94023809D01*
X137454819Y-94023809D02*
X137597676Y-94119047D01*
X137597676Y-94119047D02*
X137692914Y-94214285D01*
X137692914Y-94214285D02*
X137740533Y-94309523D01*
X128414819Y-95642857D02*
X127938628Y-95976190D01*
X128414819Y-96214285D02*
X127414819Y-96214285D01*
X127414819Y-96214285D02*
X127414819Y-95833333D01*
X127414819Y-95833333D02*
X127462438Y-95738095D01*
X127462438Y-95738095D02*
X127510057Y-95690476D01*
X127510057Y-95690476D02*
X127605295Y-95642857D01*
X127605295Y-95642857D02*
X127748152Y-95642857D01*
X127748152Y-95642857D02*
X127843390Y-95690476D01*
X127843390Y-95690476D02*
X127891009Y-95738095D01*
X127891009Y-95738095D02*
X127938628Y-95833333D01*
X127938628Y-95833333D02*
X127938628Y-96214285D01*
X127510057Y-95261904D02*
X127462438Y-95214285D01*
X127462438Y-95214285D02*
X127414819Y-95119047D01*
X127414819Y-95119047D02*
X127414819Y-94880952D01*
X127414819Y-94880952D02*
X127462438Y-94785714D01*
X127462438Y-94785714D02*
X127510057Y-94738095D01*
X127510057Y-94738095D02*
X127605295Y-94690476D01*
X127605295Y-94690476D02*
X127700533Y-94690476D01*
X127700533Y-94690476D02*
X127843390Y-94738095D01*
X127843390Y-94738095D02*
X128414819Y-95309523D01*
X128414819Y-95309523D02*
X128414819Y-94690476D01*
X128414819Y-94214285D02*
X128414819Y-94023809D01*
X128414819Y-94023809D02*
X128367200Y-93928571D01*
X128367200Y-93928571D02*
X128319580Y-93880952D01*
X128319580Y-93880952D02*
X128176723Y-93785714D01*
X128176723Y-93785714D02*
X127986247Y-93738095D01*
X127986247Y-93738095D02*
X127605295Y-93738095D01*
X127605295Y-93738095D02*
X127510057Y-93785714D01*
X127510057Y-93785714D02*
X127462438Y-93833333D01*
X127462438Y-93833333D02*
X127414819Y-93928571D01*
X127414819Y-93928571D02*
X127414819Y-94119047D01*
X127414819Y-94119047D02*
X127462438Y-94214285D01*
X127462438Y-94214285D02*
X127510057Y-94261904D01*
X127510057Y-94261904D02*
X127605295Y-94309523D01*
X127605295Y-94309523D02*
X127843390Y-94309523D01*
X127843390Y-94309523D02*
X127938628Y-94261904D01*
X127938628Y-94261904D02*
X127986247Y-94214285D01*
X127986247Y-94214285D02*
X128033866Y-94119047D01*
X128033866Y-94119047D02*
X128033866Y-93928571D01*
X128033866Y-93928571D02*
X127986247Y-93833333D01*
X127986247Y-93833333D02*
X127938628Y-93785714D01*
X127938628Y-93785714D02*
X127843390Y-93738095D01*
X133454819Y-95642857D02*
X132978628Y-95976190D01*
X133454819Y-96214285D02*
X132454819Y-96214285D01*
X132454819Y-96214285D02*
X132454819Y-95833333D01*
X132454819Y-95833333D02*
X132502438Y-95738095D01*
X132502438Y-95738095D02*
X132550057Y-95690476D01*
X132550057Y-95690476D02*
X132645295Y-95642857D01*
X132645295Y-95642857D02*
X132788152Y-95642857D01*
X132788152Y-95642857D02*
X132883390Y-95690476D01*
X132883390Y-95690476D02*
X132931009Y-95738095D01*
X132931009Y-95738095D02*
X132978628Y-95833333D01*
X132978628Y-95833333D02*
X132978628Y-96214285D01*
X132454819Y-95309523D02*
X132454819Y-94690476D01*
X132454819Y-94690476D02*
X132835771Y-95023809D01*
X132835771Y-95023809D02*
X132835771Y-94880952D01*
X132835771Y-94880952D02*
X132883390Y-94785714D01*
X132883390Y-94785714D02*
X132931009Y-94738095D01*
X132931009Y-94738095D02*
X133026247Y-94690476D01*
X133026247Y-94690476D02*
X133264342Y-94690476D01*
X133264342Y-94690476D02*
X133359580Y-94738095D01*
X133359580Y-94738095D02*
X133407200Y-94785714D01*
X133407200Y-94785714D02*
X133454819Y-94880952D01*
X133454819Y-94880952D02*
X133454819Y-95166666D01*
X133454819Y-95166666D02*
X133407200Y-95261904D01*
X133407200Y-95261904D02*
X133359580Y-95309523D01*
X132454819Y-94071428D02*
X132454819Y-93976190D01*
X132454819Y-93976190D02*
X132502438Y-93880952D01*
X132502438Y-93880952D02*
X132550057Y-93833333D01*
X132550057Y-93833333D02*
X132645295Y-93785714D01*
X132645295Y-93785714D02*
X132835771Y-93738095D01*
X132835771Y-93738095D02*
X133073866Y-93738095D01*
X133073866Y-93738095D02*
X133264342Y-93785714D01*
X133264342Y-93785714D02*
X133359580Y-93833333D01*
X133359580Y-93833333D02*
X133407200Y-93880952D01*
X133407200Y-93880952D02*
X133454819Y-93976190D01*
X133454819Y-93976190D02*
X133454819Y-94071428D01*
X133454819Y-94071428D02*
X133407200Y-94166666D01*
X133407200Y-94166666D02*
X133359580Y-94214285D01*
X133359580Y-94214285D02*
X133264342Y-94261904D01*
X133264342Y-94261904D02*
X133073866Y-94309523D01*
X133073866Y-94309523D02*
X132835771Y-94309523D01*
X132835771Y-94309523D02*
X132645295Y-94261904D01*
X132645295Y-94261904D02*
X132550057Y-94214285D01*
X132550057Y-94214285D02*
X132502438Y-94166666D01*
X132502438Y-94166666D02*
X132454819Y-94071428D01*
X143454819Y-95642857D02*
X142978628Y-95976190D01*
X143454819Y-96214285D02*
X142454819Y-96214285D01*
X142454819Y-96214285D02*
X142454819Y-95833333D01*
X142454819Y-95833333D02*
X142502438Y-95738095D01*
X142502438Y-95738095D02*
X142550057Y-95690476D01*
X142550057Y-95690476D02*
X142645295Y-95642857D01*
X142645295Y-95642857D02*
X142788152Y-95642857D01*
X142788152Y-95642857D02*
X142883390Y-95690476D01*
X142883390Y-95690476D02*
X142931009Y-95738095D01*
X142931009Y-95738095D02*
X142978628Y-95833333D01*
X142978628Y-95833333D02*
X142978628Y-96214285D01*
X142454819Y-95309523D02*
X142454819Y-94690476D01*
X142454819Y-94690476D02*
X142835771Y-95023809D01*
X142835771Y-95023809D02*
X142835771Y-94880952D01*
X142835771Y-94880952D02*
X142883390Y-94785714D01*
X142883390Y-94785714D02*
X142931009Y-94738095D01*
X142931009Y-94738095D02*
X143026247Y-94690476D01*
X143026247Y-94690476D02*
X143264342Y-94690476D01*
X143264342Y-94690476D02*
X143359580Y-94738095D01*
X143359580Y-94738095D02*
X143407200Y-94785714D01*
X143407200Y-94785714D02*
X143454819Y-94880952D01*
X143454819Y-94880952D02*
X143454819Y-95166666D01*
X143454819Y-95166666D02*
X143407200Y-95261904D01*
X143407200Y-95261904D02*
X143359580Y-95309523D01*
X142550057Y-94309523D02*
X142502438Y-94261904D01*
X142502438Y-94261904D02*
X142454819Y-94166666D01*
X142454819Y-94166666D02*
X142454819Y-93928571D01*
X142454819Y-93928571D02*
X142502438Y-93833333D01*
X142502438Y-93833333D02*
X142550057Y-93785714D01*
X142550057Y-93785714D02*
X142645295Y-93738095D01*
X142645295Y-93738095D02*
X142740533Y-93738095D01*
X142740533Y-93738095D02*
X142883390Y-93785714D01*
X142883390Y-93785714D02*
X143454819Y-94357142D01*
X143454819Y-94357142D02*
X143454819Y-93738095D01*
X114787199Y-107666666D02*
X114787199Y-108142856D01*
X114787199Y-108142856D02*
X113787199Y-108142856D01*
X113882437Y-107380951D02*
X113834818Y-107333332D01*
X113834818Y-107333332D02*
X113787199Y-107238094D01*
X113787199Y-107238094D02*
X113787199Y-106999999D01*
X113787199Y-106999999D02*
X113834818Y-106904761D01*
X113834818Y-106904761D02*
X113882437Y-106857142D01*
X113882437Y-106857142D02*
X113977675Y-106809523D01*
X113977675Y-106809523D02*
X114072913Y-106809523D01*
X114072913Y-106809523D02*
X114215770Y-106857142D01*
X114215770Y-106857142D02*
X114787199Y-107428570D01*
X114787199Y-107428570D02*
X114787199Y-106809523D01*
X103537199Y-107666666D02*
X103537199Y-108142856D01*
X103537199Y-108142856D02*
X102537199Y-108142856D01*
X103537199Y-106809523D02*
X103537199Y-107380951D01*
X103537199Y-107095237D02*
X102537199Y-107095237D01*
X102537199Y-107095237D02*
X102680056Y-107190475D01*
X102680056Y-107190475D02*
X102775294Y-107285713D01*
X102775294Y-107285713D02*
X102822913Y-107380951D01*
X109765713Y-99759580D02*
X109718094Y-99807200D01*
X109718094Y-99807200D02*
X109575237Y-99854819D01*
X109575237Y-99854819D02*
X109479999Y-99854819D01*
X109479999Y-99854819D02*
X109337142Y-99807200D01*
X109337142Y-99807200D02*
X109241904Y-99711961D01*
X109241904Y-99711961D02*
X109194285Y-99616723D01*
X109194285Y-99616723D02*
X109146666Y-99426247D01*
X109146666Y-99426247D02*
X109146666Y-99283390D01*
X109146666Y-99283390D02*
X109194285Y-99092914D01*
X109194285Y-99092914D02*
X109241904Y-98997676D01*
X109241904Y-98997676D02*
X109337142Y-98902438D01*
X109337142Y-98902438D02*
X109479999Y-98854819D01*
X109479999Y-98854819D02*
X109575237Y-98854819D01*
X109575237Y-98854819D02*
X109718094Y-98902438D01*
X109718094Y-98902438D02*
X109765713Y-98950057D01*
X110670475Y-98854819D02*
X110194285Y-98854819D01*
X110194285Y-98854819D02*
X110146666Y-99331009D01*
X110146666Y-99331009D02*
X110194285Y-99283390D01*
X110194285Y-99283390D02*
X110289523Y-99235771D01*
X110289523Y-99235771D02*
X110527618Y-99235771D01*
X110527618Y-99235771D02*
X110622856Y-99283390D01*
X110622856Y-99283390D02*
X110670475Y-99331009D01*
X110670475Y-99331009D02*
X110718094Y-99426247D01*
X110718094Y-99426247D02*
X110718094Y-99664342D01*
X110718094Y-99664342D02*
X110670475Y-99759580D01*
X110670475Y-99759580D02*
X110622856Y-99807200D01*
X110622856Y-99807200D02*
X110527618Y-99854819D01*
X110527618Y-99854819D02*
X110289523Y-99854819D01*
X110289523Y-99854819D02*
X110194285Y-99807200D01*
X110194285Y-99807200D02*
X110146666Y-99759580D01*
X118515713Y-99759580D02*
X118468094Y-99807200D01*
X118468094Y-99807200D02*
X118325237Y-99854819D01*
X118325237Y-99854819D02*
X118229999Y-99854819D01*
X118229999Y-99854819D02*
X118087142Y-99807200D01*
X118087142Y-99807200D02*
X117991904Y-99711961D01*
X117991904Y-99711961D02*
X117944285Y-99616723D01*
X117944285Y-99616723D02*
X117896666Y-99426247D01*
X117896666Y-99426247D02*
X117896666Y-99283390D01*
X117896666Y-99283390D02*
X117944285Y-99092914D01*
X117944285Y-99092914D02*
X117991904Y-98997676D01*
X117991904Y-98997676D02*
X118087142Y-98902438D01*
X118087142Y-98902438D02*
X118229999Y-98854819D01*
X118229999Y-98854819D02*
X118325237Y-98854819D01*
X118325237Y-98854819D02*
X118468094Y-98902438D01*
X118468094Y-98902438D02*
X118515713Y-98950057D01*
X118896666Y-98950057D02*
X118944285Y-98902438D01*
X118944285Y-98902438D02*
X119039523Y-98854819D01*
X119039523Y-98854819D02*
X119277618Y-98854819D01*
X119277618Y-98854819D02*
X119372856Y-98902438D01*
X119372856Y-98902438D02*
X119420475Y-98950057D01*
X119420475Y-98950057D02*
X119468094Y-99045295D01*
X119468094Y-99045295D02*
X119468094Y-99140533D01*
X119468094Y-99140533D02*
X119420475Y-99283390D01*
X119420475Y-99283390D02*
X118849047Y-99854819D01*
X118849047Y-99854819D02*
X119468094Y-99854819D01*
X118515713Y-89759580D02*
X118468094Y-89807200D01*
X118468094Y-89807200D02*
X118325237Y-89854819D01*
X118325237Y-89854819D02*
X118229999Y-89854819D01*
X118229999Y-89854819D02*
X118087142Y-89807200D01*
X118087142Y-89807200D02*
X117991904Y-89711961D01*
X117991904Y-89711961D02*
X117944285Y-89616723D01*
X117944285Y-89616723D02*
X117896666Y-89426247D01*
X117896666Y-89426247D02*
X117896666Y-89283390D01*
X117896666Y-89283390D02*
X117944285Y-89092914D01*
X117944285Y-89092914D02*
X117991904Y-88997676D01*
X117991904Y-88997676D02*
X118087142Y-88902438D01*
X118087142Y-88902438D02*
X118229999Y-88854819D01*
X118229999Y-88854819D02*
X118325237Y-88854819D01*
X118325237Y-88854819D02*
X118468094Y-88902438D01*
X118468094Y-88902438D02*
X118515713Y-88950057D01*
X118849047Y-88854819D02*
X119468094Y-88854819D01*
X119468094Y-88854819D02*
X119134761Y-89235771D01*
X119134761Y-89235771D02*
X119277618Y-89235771D01*
X119277618Y-89235771D02*
X119372856Y-89283390D01*
X119372856Y-89283390D02*
X119420475Y-89331009D01*
X119420475Y-89331009D02*
X119468094Y-89426247D01*
X119468094Y-89426247D02*
X119468094Y-89664342D01*
X119468094Y-89664342D02*
X119420475Y-89759580D01*
X119420475Y-89759580D02*
X119372856Y-89807200D01*
X119372856Y-89807200D02*
X119277618Y-89854819D01*
X119277618Y-89854819D02*
X118991904Y-89854819D01*
X118991904Y-89854819D02*
X118896666Y-89807200D01*
X118896666Y-89807200D02*
X118849047Y-89759580D01*
X175459319Y-95851904D02*
X175459319Y-95280476D01*
X176459319Y-95566190D02*
X175459319Y-95566190D01*
X176459319Y-94947142D02*
X175459319Y-94947142D01*
X175459319Y-94947142D02*
X175459319Y-94566190D01*
X175459319Y-94566190D02*
X175506938Y-94470952D01*
X175506938Y-94470952D02*
X175554557Y-94423333D01*
X175554557Y-94423333D02*
X175649795Y-94375714D01*
X175649795Y-94375714D02*
X175792652Y-94375714D01*
X175792652Y-94375714D02*
X175887890Y-94423333D01*
X175887890Y-94423333D02*
X175935509Y-94470952D01*
X175935509Y-94470952D02*
X175983128Y-94566190D01*
X175983128Y-94566190D02*
X175983128Y-94947142D01*
X175554557Y-93994761D02*
X175506938Y-93947142D01*
X175506938Y-93947142D02*
X175459319Y-93851904D01*
X175459319Y-93851904D02*
X175459319Y-93613809D01*
X175459319Y-93613809D02*
X175506938Y-93518571D01*
X175506938Y-93518571D02*
X175554557Y-93470952D01*
X175554557Y-93470952D02*
X175649795Y-93423333D01*
X175649795Y-93423333D02*
X175745033Y-93423333D01*
X175745033Y-93423333D02*
X175887890Y-93470952D01*
X175887890Y-93470952D02*
X176459319Y-94042380D01*
X176459319Y-94042380D02*
X176459319Y-93423333D01*
X175424819Y-109851904D02*
X175424819Y-109280476D01*
X176424819Y-109566190D02*
X175424819Y-109566190D01*
X176424819Y-108947142D02*
X175424819Y-108947142D01*
X175424819Y-108947142D02*
X175424819Y-108566190D01*
X175424819Y-108566190D02*
X175472438Y-108470952D01*
X175472438Y-108470952D02*
X175520057Y-108423333D01*
X175520057Y-108423333D02*
X175615295Y-108375714D01*
X175615295Y-108375714D02*
X175758152Y-108375714D01*
X175758152Y-108375714D02*
X175853390Y-108423333D01*
X175853390Y-108423333D02*
X175901009Y-108470952D01*
X175901009Y-108470952D02*
X175948628Y-108566190D01*
X175948628Y-108566190D02*
X175948628Y-108947142D01*
X175424819Y-108042380D02*
X175424819Y-107423333D01*
X175424819Y-107423333D02*
X175805771Y-107756666D01*
X175805771Y-107756666D02*
X175805771Y-107613809D01*
X175805771Y-107613809D02*
X175853390Y-107518571D01*
X175853390Y-107518571D02*
X175901009Y-107470952D01*
X175901009Y-107470952D02*
X175996247Y-107423333D01*
X175996247Y-107423333D02*
X176234342Y-107423333D01*
X176234342Y-107423333D02*
X176329580Y-107470952D01*
X176329580Y-107470952D02*
X176377200Y-107518571D01*
X176377200Y-107518571D02*
X176424819Y-107613809D01*
X176424819Y-107613809D02*
X176424819Y-107899523D01*
X176424819Y-107899523D02*
X176377200Y-107994761D01*
X176377200Y-107994761D02*
X176329580Y-108042380D01*
X175422819Y-123851904D02*
X175422819Y-123280476D01*
X176422819Y-123566190D02*
X175422819Y-123566190D01*
X176422819Y-122947142D02*
X175422819Y-122947142D01*
X175422819Y-122947142D02*
X175422819Y-122566190D01*
X175422819Y-122566190D02*
X175470438Y-122470952D01*
X175470438Y-122470952D02*
X175518057Y-122423333D01*
X175518057Y-122423333D02*
X175613295Y-122375714D01*
X175613295Y-122375714D02*
X175756152Y-122375714D01*
X175756152Y-122375714D02*
X175851390Y-122423333D01*
X175851390Y-122423333D02*
X175899009Y-122470952D01*
X175899009Y-122470952D02*
X175946628Y-122566190D01*
X175946628Y-122566190D02*
X175946628Y-122947142D01*
X175756152Y-121518571D02*
X176422819Y-121518571D01*
X175375200Y-121756666D02*
X176089485Y-121994761D01*
X176089485Y-121994761D02*
X176089485Y-121375714D01*
X175424819Y-81851904D02*
X175424819Y-81280476D01*
X176424819Y-81566190D02*
X175424819Y-81566190D01*
X176424819Y-80947142D02*
X175424819Y-80947142D01*
X175424819Y-80947142D02*
X175424819Y-80566190D01*
X175424819Y-80566190D02*
X175472438Y-80470952D01*
X175472438Y-80470952D02*
X175520057Y-80423333D01*
X175520057Y-80423333D02*
X175615295Y-80375714D01*
X175615295Y-80375714D02*
X175758152Y-80375714D01*
X175758152Y-80375714D02*
X175853390Y-80423333D01*
X175853390Y-80423333D02*
X175901009Y-80470952D01*
X175901009Y-80470952D02*
X175948628Y-80566190D01*
X175948628Y-80566190D02*
X175948628Y-80947142D01*
X176424819Y-79423333D02*
X176424819Y-79994761D01*
X176424819Y-79709047D02*
X175424819Y-79709047D01*
X175424819Y-79709047D02*
X175567676Y-79804285D01*
X175567676Y-79804285D02*
X175662914Y-79899523D01*
X175662914Y-79899523D02*
X175710533Y-79994761D01*
X185187142Y-126704819D02*
X184853809Y-126228628D01*
X184615714Y-126704819D02*
X184615714Y-125704819D01*
X184615714Y-125704819D02*
X184996666Y-125704819D01*
X184996666Y-125704819D02*
X185091904Y-125752438D01*
X185091904Y-125752438D02*
X185139523Y-125800057D01*
X185139523Y-125800057D02*
X185187142Y-125895295D01*
X185187142Y-125895295D02*
X185187142Y-126038152D01*
X185187142Y-126038152D02*
X185139523Y-126133390D01*
X185139523Y-126133390D02*
X185091904Y-126181009D01*
X185091904Y-126181009D02*
X184996666Y-126228628D01*
X184996666Y-126228628D02*
X184615714Y-126228628D01*
X185568095Y-125800057D02*
X185615714Y-125752438D01*
X185615714Y-125752438D02*
X185710952Y-125704819D01*
X185710952Y-125704819D02*
X185949047Y-125704819D01*
X185949047Y-125704819D02*
X186044285Y-125752438D01*
X186044285Y-125752438D02*
X186091904Y-125800057D01*
X186091904Y-125800057D02*
X186139523Y-125895295D01*
X186139523Y-125895295D02*
X186139523Y-125990533D01*
X186139523Y-125990533D02*
X186091904Y-126133390D01*
X186091904Y-126133390D02*
X185520476Y-126704819D01*
X185520476Y-126704819D02*
X186139523Y-126704819D01*
X186996666Y-126038152D02*
X186996666Y-126704819D01*
X186758571Y-125657200D02*
X186520476Y-126371485D01*
X186520476Y-126371485D02*
X187139523Y-126371485D01*
X154364819Y-127496666D02*
X153888628Y-127829999D01*
X154364819Y-128068094D02*
X153364819Y-128068094D01*
X153364819Y-128068094D02*
X153364819Y-127687142D01*
X153364819Y-127687142D02*
X153412438Y-127591904D01*
X153412438Y-127591904D02*
X153460057Y-127544285D01*
X153460057Y-127544285D02*
X153555295Y-127496666D01*
X153555295Y-127496666D02*
X153698152Y-127496666D01*
X153698152Y-127496666D02*
X153793390Y-127544285D01*
X153793390Y-127544285D02*
X153841009Y-127591904D01*
X153841009Y-127591904D02*
X153888628Y-127687142D01*
X153888628Y-127687142D02*
X153888628Y-128068094D01*
X153698152Y-126639523D02*
X154364819Y-126639523D01*
X153317200Y-126877618D02*
X154031485Y-127115713D01*
X154031485Y-127115713D02*
X154031485Y-126496666D01*
X185187142Y-133204819D02*
X184853809Y-132728628D01*
X184615714Y-133204819D02*
X184615714Y-132204819D01*
X184615714Y-132204819D02*
X184996666Y-132204819D01*
X184996666Y-132204819D02*
X185091904Y-132252438D01*
X185091904Y-132252438D02*
X185139523Y-132300057D01*
X185139523Y-132300057D02*
X185187142Y-132395295D01*
X185187142Y-132395295D02*
X185187142Y-132538152D01*
X185187142Y-132538152D02*
X185139523Y-132633390D01*
X185139523Y-132633390D02*
X185091904Y-132681009D01*
X185091904Y-132681009D02*
X184996666Y-132728628D01*
X184996666Y-132728628D02*
X184615714Y-132728628D01*
X185568095Y-132300057D02*
X185615714Y-132252438D01*
X185615714Y-132252438D02*
X185710952Y-132204819D01*
X185710952Y-132204819D02*
X185949047Y-132204819D01*
X185949047Y-132204819D02*
X186044285Y-132252438D01*
X186044285Y-132252438D02*
X186091904Y-132300057D01*
X186091904Y-132300057D02*
X186139523Y-132395295D01*
X186139523Y-132395295D02*
X186139523Y-132490533D01*
X186139523Y-132490533D02*
X186091904Y-132633390D01*
X186091904Y-132633390D02*
X185520476Y-133204819D01*
X185520476Y-133204819D02*
X186139523Y-133204819D01*
X186710952Y-132633390D02*
X186615714Y-132585771D01*
X186615714Y-132585771D02*
X186568095Y-132538152D01*
X186568095Y-132538152D02*
X186520476Y-132442914D01*
X186520476Y-132442914D02*
X186520476Y-132395295D01*
X186520476Y-132395295D02*
X186568095Y-132300057D01*
X186568095Y-132300057D02*
X186615714Y-132252438D01*
X186615714Y-132252438D02*
X186710952Y-132204819D01*
X186710952Y-132204819D02*
X186901428Y-132204819D01*
X186901428Y-132204819D02*
X186996666Y-132252438D01*
X186996666Y-132252438D02*
X187044285Y-132300057D01*
X187044285Y-132300057D02*
X187091904Y-132395295D01*
X187091904Y-132395295D02*
X187091904Y-132442914D01*
X187091904Y-132442914D02*
X187044285Y-132538152D01*
X187044285Y-132538152D02*
X186996666Y-132585771D01*
X186996666Y-132585771D02*
X186901428Y-132633390D01*
X186901428Y-132633390D02*
X186710952Y-132633390D01*
X186710952Y-132633390D02*
X186615714Y-132681009D01*
X186615714Y-132681009D02*
X186568095Y-132728628D01*
X186568095Y-132728628D02*
X186520476Y-132823866D01*
X186520476Y-132823866D02*
X186520476Y-133014342D01*
X186520476Y-133014342D02*
X186568095Y-133109580D01*
X186568095Y-133109580D02*
X186615714Y-133157200D01*
X186615714Y-133157200D02*
X186710952Y-133204819D01*
X186710952Y-133204819D02*
X186901428Y-133204819D01*
X186901428Y-133204819D02*
X186996666Y-133157200D01*
X186996666Y-133157200D02*
X187044285Y-133109580D01*
X187044285Y-133109580D02*
X187091904Y-133014342D01*
X187091904Y-133014342D02*
X187091904Y-132823866D01*
X187091904Y-132823866D02*
X187044285Y-132728628D01*
X187044285Y-132728628D02*
X186996666Y-132681009D01*
X186996666Y-132681009D02*
X186901428Y-132633390D01*
X166614819Y-126846904D02*
X167424342Y-126846904D01*
X167424342Y-126846904D02*
X167519580Y-126799285D01*
X167519580Y-126799285D02*
X167567200Y-126751666D01*
X167567200Y-126751666D02*
X167614819Y-126656428D01*
X167614819Y-126656428D02*
X167614819Y-126465952D01*
X167614819Y-126465952D02*
X167567200Y-126370714D01*
X167567200Y-126370714D02*
X167519580Y-126323095D01*
X167519580Y-126323095D02*
X167424342Y-126275476D01*
X167424342Y-126275476D02*
X166614819Y-126275476D01*
X166614819Y-125894523D02*
X166614819Y-125227857D01*
X166614819Y-125227857D02*
X167614819Y-125656428D01*
X178614819Y-128312857D02*
X178138628Y-128646190D01*
X178614819Y-128884285D02*
X177614819Y-128884285D01*
X177614819Y-128884285D02*
X177614819Y-128503333D01*
X177614819Y-128503333D02*
X177662438Y-128408095D01*
X177662438Y-128408095D02*
X177710057Y-128360476D01*
X177710057Y-128360476D02*
X177805295Y-128312857D01*
X177805295Y-128312857D02*
X177948152Y-128312857D01*
X177948152Y-128312857D02*
X178043390Y-128360476D01*
X178043390Y-128360476D02*
X178091009Y-128408095D01*
X178091009Y-128408095D02*
X178138628Y-128503333D01*
X178138628Y-128503333D02*
X178138628Y-128884285D01*
X178614819Y-127360476D02*
X178614819Y-127931904D01*
X178614819Y-127646190D02*
X177614819Y-127646190D01*
X177614819Y-127646190D02*
X177757676Y-127741428D01*
X177757676Y-127741428D02*
X177852914Y-127836666D01*
X177852914Y-127836666D02*
X177900533Y-127931904D01*
X177614819Y-126503333D02*
X177614819Y-126693809D01*
X177614819Y-126693809D02*
X177662438Y-126789047D01*
X177662438Y-126789047D02*
X177710057Y-126836666D01*
X177710057Y-126836666D02*
X177852914Y-126931904D01*
X177852914Y-126931904D02*
X178043390Y-126979523D01*
X178043390Y-126979523D02*
X178424342Y-126979523D01*
X178424342Y-126979523D02*
X178519580Y-126931904D01*
X178519580Y-126931904D02*
X178567200Y-126884285D01*
X178567200Y-126884285D02*
X178614819Y-126789047D01*
X178614819Y-126789047D02*
X178614819Y-126598571D01*
X178614819Y-126598571D02*
X178567200Y-126503333D01*
X178567200Y-126503333D02*
X178519580Y-126455714D01*
X178519580Y-126455714D02*
X178424342Y-126408095D01*
X178424342Y-126408095D02*
X178186247Y-126408095D01*
X178186247Y-126408095D02*
X178091009Y-126455714D01*
X178091009Y-126455714D02*
X178043390Y-126503333D01*
X178043390Y-126503333D02*
X177995771Y-126598571D01*
X177995771Y-126598571D02*
X177995771Y-126789047D01*
X177995771Y-126789047D02*
X178043390Y-126884285D01*
X178043390Y-126884285D02*
X178091009Y-126931904D01*
X178091009Y-126931904D02*
X178186247Y-126979523D01*
X174309580Y-128037857D02*
X174357200Y-128085476D01*
X174357200Y-128085476D02*
X174404819Y-128228333D01*
X174404819Y-128228333D02*
X174404819Y-128323571D01*
X174404819Y-128323571D02*
X174357200Y-128466428D01*
X174357200Y-128466428D02*
X174261961Y-128561666D01*
X174261961Y-128561666D02*
X174166723Y-128609285D01*
X174166723Y-128609285D02*
X173976247Y-128656904D01*
X173976247Y-128656904D02*
X173833390Y-128656904D01*
X173833390Y-128656904D02*
X173642914Y-128609285D01*
X173642914Y-128609285D02*
X173547676Y-128561666D01*
X173547676Y-128561666D02*
X173452438Y-128466428D01*
X173452438Y-128466428D02*
X173404819Y-128323571D01*
X173404819Y-128323571D02*
X173404819Y-128228333D01*
X173404819Y-128228333D02*
X173452438Y-128085476D01*
X173452438Y-128085476D02*
X173500057Y-128037857D01*
X173500057Y-127656904D02*
X173452438Y-127609285D01*
X173452438Y-127609285D02*
X173404819Y-127514047D01*
X173404819Y-127514047D02*
X173404819Y-127275952D01*
X173404819Y-127275952D02*
X173452438Y-127180714D01*
X173452438Y-127180714D02*
X173500057Y-127133095D01*
X173500057Y-127133095D02*
X173595295Y-127085476D01*
X173595295Y-127085476D02*
X173690533Y-127085476D01*
X173690533Y-127085476D02*
X173833390Y-127133095D01*
X173833390Y-127133095D02*
X174404819Y-127704523D01*
X174404819Y-127704523D02*
X174404819Y-127085476D01*
X174404819Y-126133095D02*
X174404819Y-126704523D01*
X174404819Y-126418809D02*
X173404819Y-126418809D01*
X173404819Y-126418809D02*
X173547676Y-126514047D01*
X173547676Y-126514047D02*
X173642914Y-126609285D01*
X173642914Y-126609285D02*
X173690533Y-126704523D01*
X157364819Y-127972857D02*
X156888628Y-128306190D01*
X157364819Y-128544285D02*
X156364819Y-128544285D01*
X156364819Y-128544285D02*
X156364819Y-128163333D01*
X156364819Y-128163333D02*
X156412438Y-128068095D01*
X156412438Y-128068095D02*
X156460057Y-128020476D01*
X156460057Y-128020476D02*
X156555295Y-127972857D01*
X156555295Y-127972857D02*
X156698152Y-127972857D01*
X156698152Y-127972857D02*
X156793390Y-128020476D01*
X156793390Y-128020476D02*
X156841009Y-128068095D01*
X156841009Y-128068095D02*
X156888628Y-128163333D01*
X156888628Y-128163333D02*
X156888628Y-128544285D01*
X157364819Y-127020476D02*
X157364819Y-127591904D01*
X157364819Y-127306190D02*
X156364819Y-127306190D01*
X156364819Y-127306190D02*
X156507676Y-127401428D01*
X156507676Y-127401428D02*
X156602914Y-127496666D01*
X156602914Y-127496666D02*
X156650533Y-127591904D01*
X156460057Y-126639523D02*
X156412438Y-126591904D01*
X156412438Y-126591904D02*
X156364819Y-126496666D01*
X156364819Y-126496666D02*
X156364819Y-126258571D01*
X156364819Y-126258571D02*
X156412438Y-126163333D01*
X156412438Y-126163333D02*
X156460057Y-126115714D01*
X156460057Y-126115714D02*
X156555295Y-126068095D01*
X156555295Y-126068095D02*
X156650533Y-126068095D01*
X156650533Y-126068095D02*
X156793390Y-126115714D01*
X156793390Y-126115714D02*
X157364819Y-126687142D01*
X157364819Y-126687142D02*
X157364819Y-126068095D01*
X167373333Y-133454819D02*
X167040000Y-132978628D01*
X166801905Y-133454819D02*
X166801905Y-132454819D01*
X166801905Y-132454819D02*
X167182857Y-132454819D01*
X167182857Y-132454819D02*
X167278095Y-132502438D01*
X167278095Y-132502438D02*
X167325714Y-132550057D01*
X167325714Y-132550057D02*
X167373333Y-132645295D01*
X167373333Y-132645295D02*
X167373333Y-132788152D01*
X167373333Y-132788152D02*
X167325714Y-132883390D01*
X167325714Y-132883390D02*
X167278095Y-132931009D01*
X167278095Y-132931009D02*
X167182857Y-132978628D01*
X167182857Y-132978628D02*
X166801905Y-132978628D01*
X167944762Y-132883390D02*
X167849524Y-132835771D01*
X167849524Y-132835771D02*
X167801905Y-132788152D01*
X167801905Y-132788152D02*
X167754286Y-132692914D01*
X167754286Y-132692914D02*
X167754286Y-132645295D01*
X167754286Y-132645295D02*
X167801905Y-132550057D01*
X167801905Y-132550057D02*
X167849524Y-132502438D01*
X167849524Y-132502438D02*
X167944762Y-132454819D01*
X167944762Y-132454819D02*
X168135238Y-132454819D01*
X168135238Y-132454819D02*
X168230476Y-132502438D01*
X168230476Y-132502438D02*
X168278095Y-132550057D01*
X168278095Y-132550057D02*
X168325714Y-132645295D01*
X168325714Y-132645295D02*
X168325714Y-132692914D01*
X168325714Y-132692914D02*
X168278095Y-132788152D01*
X168278095Y-132788152D02*
X168230476Y-132835771D01*
X168230476Y-132835771D02*
X168135238Y-132883390D01*
X168135238Y-132883390D02*
X167944762Y-132883390D01*
X167944762Y-132883390D02*
X167849524Y-132931009D01*
X167849524Y-132931009D02*
X167801905Y-132978628D01*
X167801905Y-132978628D02*
X167754286Y-133073866D01*
X167754286Y-133073866D02*
X167754286Y-133264342D01*
X167754286Y-133264342D02*
X167801905Y-133359580D01*
X167801905Y-133359580D02*
X167849524Y-133407200D01*
X167849524Y-133407200D02*
X167944762Y-133454819D01*
X167944762Y-133454819D02*
X168135238Y-133454819D01*
X168135238Y-133454819D02*
X168230476Y-133407200D01*
X168230476Y-133407200D02*
X168278095Y-133359580D01*
X168278095Y-133359580D02*
X168325714Y-133264342D01*
X168325714Y-133264342D02*
X168325714Y-133073866D01*
X168325714Y-133073866D02*
X168278095Y-132978628D01*
X168278095Y-132978628D02*
X168230476Y-132931009D01*
X168230476Y-132931009D02*
X168135238Y-132883390D01*
X185187142Y-123704819D02*
X184853809Y-123228628D01*
X184615714Y-123704819D02*
X184615714Y-122704819D01*
X184615714Y-122704819D02*
X184996666Y-122704819D01*
X184996666Y-122704819D02*
X185091904Y-122752438D01*
X185091904Y-122752438D02*
X185139523Y-122800057D01*
X185139523Y-122800057D02*
X185187142Y-122895295D01*
X185187142Y-122895295D02*
X185187142Y-123038152D01*
X185187142Y-123038152D02*
X185139523Y-123133390D01*
X185139523Y-123133390D02*
X185091904Y-123181009D01*
X185091904Y-123181009D02*
X184996666Y-123228628D01*
X184996666Y-123228628D02*
X184615714Y-123228628D01*
X185568095Y-122800057D02*
X185615714Y-122752438D01*
X185615714Y-122752438D02*
X185710952Y-122704819D01*
X185710952Y-122704819D02*
X185949047Y-122704819D01*
X185949047Y-122704819D02*
X186044285Y-122752438D01*
X186044285Y-122752438D02*
X186091904Y-122800057D01*
X186091904Y-122800057D02*
X186139523Y-122895295D01*
X186139523Y-122895295D02*
X186139523Y-122990533D01*
X186139523Y-122990533D02*
X186091904Y-123133390D01*
X186091904Y-123133390D02*
X185520476Y-123704819D01*
X185520476Y-123704819D02*
X186139523Y-123704819D01*
X186472857Y-122704819D02*
X187091904Y-122704819D01*
X187091904Y-122704819D02*
X186758571Y-123085771D01*
X186758571Y-123085771D02*
X186901428Y-123085771D01*
X186901428Y-123085771D02*
X186996666Y-123133390D01*
X186996666Y-123133390D02*
X187044285Y-123181009D01*
X187044285Y-123181009D02*
X187091904Y-123276247D01*
X187091904Y-123276247D02*
X187091904Y-123514342D01*
X187091904Y-123514342D02*
X187044285Y-123609580D01*
X187044285Y-123609580D02*
X186996666Y-123657200D01*
X186996666Y-123657200D02*
X186901428Y-123704819D01*
X186901428Y-123704819D02*
X186615714Y-123704819D01*
X186615714Y-123704819D02*
X186520476Y-123657200D01*
X186520476Y-123657200D02*
X186472857Y-123609580D01*
X160549580Y-126732857D02*
X160597200Y-126780476D01*
X160597200Y-126780476D02*
X160644819Y-126923333D01*
X160644819Y-126923333D02*
X160644819Y-127018571D01*
X160644819Y-127018571D02*
X160597200Y-127161428D01*
X160597200Y-127161428D02*
X160501961Y-127256666D01*
X160501961Y-127256666D02*
X160406723Y-127304285D01*
X160406723Y-127304285D02*
X160216247Y-127351904D01*
X160216247Y-127351904D02*
X160073390Y-127351904D01*
X160073390Y-127351904D02*
X159882914Y-127304285D01*
X159882914Y-127304285D02*
X159787676Y-127256666D01*
X159787676Y-127256666D02*
X159692438Y-127161428D01*
X159692438Y-127161428D02*
X159644819Y-127018571D01*
X159644819Y-127018571D02*
X159644819Y-126923333D01*
X159644819Y-126923333D02*
X159692438Y-126780476D01*
X159692438Y-126780476D02*
X159740057Y-126732857D01*
X159740057Y-126351904D02*
X159692438Y-126304285D01*
X159692438Y-126304285D02*
X159644819Y-126209047D01*
X159644819Y-126209047D02*
X159644819Y-125970952D01*
X159644819Y-125970952D02*
X159692438Y-125875714D01*
X159692438Y-125875714D02*
X159740057Y-125828095D01*
X159740057Y-125828095D02*
X159835295Y-125780476D01*
X159835295Y-125780476D02*
X159930533Y-125780476D01*
X159930533Y-125780476D02*
X160073390Y-125828095D01*
X160073390Y-125828095D02*
X160644819Y-126399523D01*
X160644819Y-126399523D02*
X160644819Y-125780476D01*
X159644819Y-125161428D02*
X159644819Y-125066190D01*
X159644819Y-125066190D02*
X159692438Y-124970952D01*
X159692438Y-124970952D02*
X159740057Y-124923333D01*
X159740057Y-124923333D02*
X159835295Y-124875714D01*
X159835295Y-124875714D02*
X160025771Y-124828095D01*
X160025771Y-124828095D02*
X160263866Y-124828095D01*
X160263866Y-124828095D02*
X160454342Y-124875714D01*
X160454342Y-124875714D02*
X160549580Y-124923333D01*
X160549580Y-124923333D02*
X160597200Y-124970952D01*
X160597200Y-124970952D02*
X160644819Y-125066190D01*
X160644819Y-125066190D02*
X160644819Y-125161428D01*
X160644819Y-125161428D02*
X160597200Y-125256666D01*
X160597200Y-125256666D02*
X160549580Y-125304285D01*
X160549580Y-125304285D02*
X160454342Y-125351904D01*
X160454342Y-125351904D02*
X160263866Y-125399523D01*
X160263866Y-125399523D02*
X160025771Y-125399523D01*
X160025771Y-125399523D02*
X159835295Y-125351904D01*
X159835295Y-125351904D02*
X159740057Y-125304285D01*
X159740057Y-125304285D02*
X159692438Y-125256666D01*
X159692438Y-125256666D02*
X159644819Y-125161428D01*
X188210595Y-128954819D02*
X188210595Y-129764342D01*
X188210595Y-129764342D02*
X188258214Y-129859580D01*
X188258214Y-129859580D02*
X188305833Y-129907200D01*
X188305833Y-129907200D02*
X188401071Y-129954819D01*
X188401071Y-129954819D02*
X188591547Y-129954819D01*
X188591547Y-129954819D02*
X188686785Y-129907200D01*
X188686785Y-129907200D02*
X188734404Y-129859580D01*
X188734404Y-129859580D02*
X188782023Y-129764342D01*
X188782023Y-129764342D02*
X188782023Y-128954819D01*
X189401071Y-129383390D02*
X189305833Y-129335771D01*
X189305833Y-129335771D02*
X189258214Y-129288152D01*
X189258214Y-129288152D02*
X189210595Y-129192914D01*
X189210595Y-129192914D02*
X189210595Y-129145295D01*
X189210595Y-129145295D02*
X189258214Y-129050057D01*
X189258214Y-129050057D02*
X189305833Y-129002438D01*
X189305833Y-129002438D02*
X189401071Y-128954819D01*
X189401071Y-128954819D02*
X189591547Y-128954819D01*
X189591547Y-128954819D02*
X189686785Y-129002438D01*
X189686785Y-129002438D02*
X189734404Y-129050057D01*
X189734404Y-129050057D02*
X189782023Y-129145295D01*
X189782023Y-129145295D02*
X189782023Y-129192914D01*
X189782023Y-129192914D02*
X189734404Y-129288152D01*
X189734404Y-129288152D02*
X189686785Y-129335771D01*
X189686785Y-129335771D02*
X189591547Y-129383390D01*
X189591547Y-129383390D02*
X189401071Y-129383390D01*
X189401071Y-129383390D02*
X189305833Y-129431009D01*
X189305833Y-129431009D02*
X189258214Y-129478628D01*
X189258214Y-129478628D02*
X189210595Y-129573866D01*
X189210595Y-129573866D02*
X189210595Y-129764342D01*
X189210595Y-129764342D02*
X189258214Y-129859580D01*
X189258214Y-129859580D02*
X189305833Y-129907200D01*
X189305833Y-129907200D02*
X189401071Y-129954819D01*
X189401071Y-129954819D02*
X189591547Y-129954819D01*
X189591547Y-129954819D02*
X189686785Y-129907200D01*
X189686785Y-129907200D02*
X189734404Y-129859580D01*
X189734404Y-129859580D02*
X189782023Y-129764342D01*
X189782023Y-129764342D02*
X189782023Y-129573866D01*
X189782023Y-129573866D02*
X189734404Y-129478628D01*
X189734404Y-129478628D02*
X189686785Y-129431009D01*
X189686785Y-129431009D02*
X189591547Y-129383390D01*
X182607142Y-129789580D02*
X182559523Y-129837200D01*
X182559523Y-129837200D02*
X182416666Y-129884819D01*
X182416666Y-129884819D02*
X182321428Y-129884819D01*
X182321428Y-129884819D02*
X182178571Y-129837200D01*
X182178571Y-129837200D02*
X182083333Y-129741961D01*
X182083333Y-129741961D02*
X182035714Y-129646723D01*
X182035714Y-129646723D02*
X181988095Y-129456247D01*
X181988095Y-129456247D02*
X181988095Y-129313390D01*
X181988095Y-129313390D02*
X182035714Y-129122914D01*
X182035714Y-129122914D02*
X182083333Y-129027676D01*
X182083333Y-129027676D02*
X182178571Y-128932438D01*
X182178571Y-128932438D02*
X182321428Y-128884819D01*
X182321428Y-128884819D02*
X182416666Y-128884819D01*
X182416666Y-128884819D02*
X182559523Y-128932438D01*
X182559523Y-128932438D02*
X182607142Y-128980057D01*
X182988095Y-128980057D02*
X183035714Y-128932438D01*
X183035714Y-128932438D02*
X183130952Y-128884819D01*
X183130952Y-128884819D02*
X183369047Y-128884819D01*
X183369047Y-128884819D02*
X183464285Y-128932438D01*
X183464285Y-128932438D02*
X183511904Y-128980057D01*
X183511904Y-128980057D02*
X183559523Y-129075295D01*
X183559523Y-129075295D02*
X183559523Y-129170533D01*
X183559523Y-129170533D02*
X183511904Y-129313390D01*
X183511904Y-129313390D02*
X182940476Y-129884819D01*
X182940476Y-129884819D02*
X183559523Y-129884819D01*
X183940476Y-128980057D02*
X183988095Y-128932438D01*
X183988095Y-128932438D02*
X184083333Y-128884819D01*
X184083333Y-128884819D02*
X184321428Y-128884819D01*
X184321428Y-128884819D02*
X184416666Y-128932438D01*
X184416666Y-128932438D02*
X184464285Y-128980057D01*
X184464285Y-128980057D02*
X184511904Y-129075295D01*
X184511904Y-129075295D02*
X184511904Y-129170533D01*
X184511904Y-129170533D02*
X184464285Y-129313390D01*
X184464285Y-129313390D02*
X183892857Y-129884819D01*
X183892857Y-129884819D02*
X184511904Y-129884819D01*
X167373333Y-105454819D02*
X167040000Y-104978628D01*
X166801905Y-105454819D02*
X166801905Y-104454819D01*
X166801905Y-104454819D02*
X167182857Y-104454819D01*
X167182857Y-104454819D02*
X167278095Y-104502438D01*
X167278095Y-104502438D02*
X167325714Y-104550057D01*
X167325714Y-104550057D02*
X167373333Y-104645295D01*
X167373333Y-104645295D02*
X167373333Y-104788152D01*
X167373333Y-104788152D02*
X167325714Y-104883390D01*
X167325714Y-104883390D02*
X167278095Y-104931009D01*
X167278095Y-104931009D02*
X167182857Y-104978628D01*
X167182857Y-104978628D02*
X166801905Y-104978628D01*
X168230476Y-104454819D02*
X168040000Y-104454819D01*
X168040000Y-104454819D02*
X167944762Y-104502438D01*
X167944762Y-104502438D02*
X167897143Y-104550057D01*
X167897143Y-104550057D02*
X167801905Y-104692914D01*
X167801905Y-104692914D02*
X167754286Y-104883390D01*
X167754286Y-104883390D02*
X167754286Y-105264342D01*
X167754286Y-105264342D02*
X167801905Y-105359580D01*
X167801905Y-105359580D02*
X167849524Y-105407200D01*
X167849524Y-105407200D02*
X167944762Y-105454819D01*
X167944762Y-105454819D02*
X168135238Y-105454819D01*
X168135238Y-105454819D02*
X168230476Y-105407200D01*
X168230476Y-105407200D02*
X168278095Y-105359580D01*
X168278095Y-105359580D02*
X168325714Y-105264342D01*
X168325714Y-105264342D02*
X168325714Y-105026247D01*
X168325714Y-105026247D02*
X168278095Y-104931009D01*
X168278095Y-104931009D02*
X168230476Y-104883390D01*
X168230476Y-104883390D02*
X168135238Y-104835771D01*
X168135238Y-104835771D02*
X167944762Y-104835771D01*
X167944762Y-104835771D02*
X167849524Y-104883390D01*
X167849524Y-104883390D02*
X167801905Y-104931009D01*
X167801905Y-104931009D02*
X167754286Y-105026247D01*
X182607142Y-101855080D02*
X182559523Y-101902700D01*
X182559523Y-101902700D02*
X182416666Y-101950319D01*
X182416666Y-101950319D02*
X182321428Y-101950319D01*
X182321428Y-101950319D02*
X182178571Y-101902700D01*
X182178571Y-101902700D02*
X182083333Y-101807461D01*
X182083333Y-101807461D02*
X182035714Y-101712223D01*
X182035714Y-101712223D02*
X181988095Y-101521747D01*
X181988095Y-101521747D02*
X181988095Y-101378890D01*
X181988095Y-101378890D02*
X182035714Y-101188414D01*
X182035714Y-101188414D02*
X182083333Y-101093176D01*
X182083333Y-101093176D02*
X182178571Y-100997938D01*
X182178571Y-100997938D02*
X182321428Y-100950319D01*
X182321428Y-100950319D02*
X182416666Y-100950319D01*
X182416666Y-100950319D02*
X182559523Y-100997938D01*
X182559523Y-100997938D02*
X182607142Y-101045557D01*
X183559523Y-101950319D02*
X182988095Y-101950319D01*
X183273809Y-101950319D02*
X183273809Y-100950319D01*
X183273809Y-100950319D02*
X183178571Y-101093176D01*
X183178571Y-101093176D02*
X183083333Y-101188414D01*
X183083333Y-101188414D02*
X182988095Y-101236033D01*
X184416666Y-100950319D02*
X184226190Y-100950319D01*
X184226190Y-100950319D02*
X184130952Y-100997938D01*
X184130952Y-100997938D02*
X184083333Y-101045557D01*
X184083333Y-101045557D02*
X183988095Y-101188414D01*
X183988095Y-101188414D02*
X183940476Y-101378890D01*
X183940476Y-101378890D02*
X183940476Y-101759842D01*
X183940476Y-101759842D02*
X183988095Y-101855080D01*
X183988095Y-101855080D02*
X184035714Y-101902700D01*
X184035714Y-101902700D02*
X184130952Y-101950319D01*
X184130952Y-101950319D02*
X184321428Y-101950319D01*
X184321428Y-101950319D02*
X184416666Y-101902700D01*
X184416666Y-101902700D02*
X184464285Y-101855080D01*
X184464285Y-101855080D02*
X184511904Y-101759842D01*
X184511904Y-101759842D02*
X184511904Y-101521747D01*
X184511904Y-101521747D02*
X184464285Y-101426509D01*
X184464285Y-101426509D02*
X184416666Y-101378890D01*
X184416666Y-101378890D02*
X184321428Y-101331271D01*
X184321428Y-101331271D02*
X184130952Y-101331271D01*
X184130952Y-101331271D02*
X184035714Y-101378890D01*
X184035714Y-101378890D02*
X183988095Y-101426509D01*
X183988095Y-101426509D02*
X183940476Y-101521747D01*
X185187142Y-98704819D02*
X184853809Y-98228628D01*
X184615714Y-98704819D02*
X184615714Y-97704819D01*
X184615714Y-97704819D02*
X184996666Y-97704819D01*
X184996666Y-97704819D02*
X185091904Y-97752438D01*
X185091904Y-97752438D02*
X185139523Y-97800057D01*
X185139523Y-97800057D02*
X185187142Y-97895295D01*
X185187142Y-97895295D02*
X185187142Y-98038152D01*
X185187142Y-98038152D02*
X185139523Y-98133390D01*
X185139523Y-98133390D02*
X185091904Y-98181009D01*
X185091904Y-98181009D02*
X184996666Y-98228628D01*
X184996666Y-98228628D02*
X184615714Y-98228628D01*
X185568095Y-97800057D02*
X185615714Y-97752438D01*
X185615714Y-97752438D02*
X185710952Y-97704819D01*
X185710952Y-97704819D02*
X185949047Y-97704819D01*
X185949047Y-97704819D02*
X186044285Y-97752438D01*
X186044285Y-97752438D02*
X186091904Y-97800057D01*
X186091904Y-97800057D02*
X186139523Y-97895295D01*
X186139523Y-97895295D02*
X186139523Y-97990533D01*
X186139523Y-97990533D02*
X186091904Y-98133390D01*
X186091904Y-98133390D02*
X185520476Y-98704819D01*
X185520476Y-98704819D02*
X186139523Y-98704819D01*
X186758571Y-97704819D02*
X186853809Y-97704819D01*
X186853809Y-97704819D02*
X186949047Y-97752438D01*
X186949047Y-97752438D02*
X186996666Y-97800057D01*
X186996666Y-97800057D02*
X187044285Y-97895295D01*
X187044285Y-97895295D02*
X187091904Y-98085771D01*
X187091904Y-98085771D02*
X187091904Y-98323866D01*
X187091904Y-98323866D02*
X187044285Y-98514342D01*
X187044285Y-98514342D02*
X186996666Y-98609580D01*
X186996666Y-98609580D02*
X186949047Y-98657200D01*
X186949047Y-98657200D02*
X186853809Y-98704819D01*
X186853809Y-98704819D02*
X186758571Y-98704819D01*
X186758571Y-98704819D02*
X186663333Y-98657200D01*
X186663333Y-98657200D02*
X186615714Y-98609580D01*
X186615714Y-98609580D02*
X186568095Y-98514342D01*
X186568095Y-98514342D02*
X186520476Y-98323866D01*
X186520476Y-98323866D02*
X186520476Y-98085771D01*
X186520476Y-98085771D02*
X186568095Y-97895295D01*
X186568095Y-97895295D02*
X186615714Y-97800057D01*
X186615714Y-97800057D02*
X186663333Y-97752438D01*
X186663333Y-97752438D02*
X186758571Y-97704819D01*
X157364819Y-99972857D02*
X156888628Y-100306190D01*
X157364819Y-100544285D02*
X156364819Y-100544285D01*
X156364819Y-100544285D02*
X156364819Y-100163333D01*
X156364819Y-100163333D02*
X156412438Y-100068095D01*
X156412438Y-100068095D02*
X156460057Y-100020476D01*
X156460057Y-100020476D02*
X156555295Y-99972857D01*
X156555295Y-99972857D02*
X156698152Y-99972857D01*
X156698152Y-99972857D02*
X156793390Y-100020476D01*
X156793390Y-100020476D02*
X156841009Y-100068095D01*
X156841009Y-100068095D02*
X156888628Y-100163333D01*
X156888628Y-100163333D02*
X156888628Y-100544285D01*
X157364819Y-99020476D02*
X157364819Y-99591904D01*
X157364819Y-99306190D02*
X156364819Y-99306190D01*
X156364819Y-99306190D02*
X156507676Y-99401428D01*
X156507676Y-99401428D02*
X156602914Y-99496666D01*
X156602914Y-99496666D02*
X156650533Y-99591904D01*
X156364819Y-98401428D02*
X156364819Y-98306190D01*
X156364819Y-98306190D02*
X156412438Y-98210952D01*
X156412438Y-98210952D02*
X156460057Y-98163333D01*
X156460057Y-98163333D02*
X156555295Y-98115714D01*
X156555295Y-98115714D02*
X156745771Y-98068095D01*
X156745771Y-98068095D02*
X156983866Y-98068095D01*
X156983866Y-98068095D02*
X157174342Y-98115714D01*
X157174342Y-98115714D02*
X157269580Y-98163333D01*
X157269580Y-98163333D02*
X157317200Y-98210952D01*
X157317200Y-98210952D02*
X157364819Y-98306190D01*
X157364819Y-98306190D02*
X157364819Y-98401428D01*
X157364819Y-98401428D02*
X157317200Y-98496666D01*
X157317200Y-98496666D02*
X157269580Y-98544285D01*
X157269580Y-98544285D02*
X157174342Y-98591904D01*
X157174342Y-98591904D02*
X156983866Y-98639523D01*
X156983866Y-98639523D02*
X156745771Y-98639523D01*
X156745771Y-98639523D02*
X156555295Y-98591904D01*
X156555295Y-98591904D02*
X156460057Y-98544285D01*
X156460057Y-98544285D02*
X156412438Y-98496666D01*
X156412438Y-98496666D02*
X156364819Y-98401428D01*
X160614080Y-98732857D02*
X160661700Y-98780476D01*
X160661700Y-98780476D02*
X160709319Y-98923333D01*
X160709319Y-98923333D02*
X160709319Y-99018571D01*
X160709319Y-99018571D02*
X160661700Y-99161428D01*
X160661700Y-99161428D02*
X160566461Y-99256666D01*
X160566461Y-99256666D02*
X160471223Y-99304285D01*
X160471223Y-99304285D02*
X160280747Y-99351904D01*
X160280747Y-99351904D02*
X160137890Y-99351904D01*
X160137890Y-99351904D02*
X159947414Y-99304285D01*
X159947414Y-99304285D02*
X159852176Y-99256666D01*
X159852176Y-99256666D02*
X159756938Y-99161428D01*
X159756938Y-99161428D02*
X159709319Y-99018571D01*
X159709319Y-99018571D02*
X159709319Y-98923333D01*
X159709319Y-98923333D02*
X159756938Y-98780476D01*
X159756938Y-98780476D02*
X159804557Y-98732857D01*
X160709319Y-97780476D02*
X160709319Y-98351904D01*
X160709319Y-98066190D02*
X159709319Y-98066190D01*
X159709319Y-98066190D02*
X159852176Y-98161428D01*
X159852176Y-98161428D02*
X159947414Y-98256666D01*
X159947414Y-98256666D02*
X159995033Y-98351904D01*
X160042652Y-96923333D02*
X160709319Y-96923333D01*
X159661700Y-97161428D02*
X160375985Y-97399523D01*
X160375985Y-97399523D02*
X160375985Y-96780476D01*
X154364819Y-99496666D02*
X153888628Y-99829999D01*
X154364819Y-100068094D02*
X153364819Y-100068094D01*
X153364819Y-100068094D02*
X153364819Y-99687142D01*
X153364819Y-99687142D02*
X153412438Y-99591904D01*
X153412438Y-99591904D02*
X153460057Y-99544285D01*
X153460057Y-99544285D02*
X153555295Y-99496666D01*
X153555295Y-99496666D02*
X153698152Y-99496666D01*
X153698152Y-99496666D02*
X153793390Y-99544285D01*
X153793390Y-99544285D02*
X153841009Y-99591904D01*
X153841009Y-99591904D02*
X153888628Y-99687142D01*
X153888628Y-99687142D02*
X153888628Y-100068094D01*
X153460057Y-99115713D02*
X153412438Y-99068094D01*
X153412438Y-99068094D02*
X153364819Y-98972856D01*
X153364819Y-98972856D02*
X153364819Y-98734761D01*
X153364819Y-98734761D02*
X153412438Y-98639523D01*
X153412438Y-98639523D02*
X153460057Y-98591904D01*
X153460057Y-98591904D02*
X153555295Y-98544285D01*
X153555295Y-98544285D02*
X153650533Y-98544285D01*
X153650533Y-98544285D02*
X153793390Y-98591904D01*
X153793390Y-98591904D02*
X154364819Y-99163332D01*
X154364819Y-99163332D02*
X154364819Y-98544285D01*
X166709319Y-98846904D02*
X167518842Y-98846904D01*
X167518842Y-98846904D02*
X167614080Y-98799285D01*
X167614080Y-98799285D02*
X167661700Y-98751666D01*
X167661700Y-98751666D02*
X167709319Y-98656428D01*
X167709319Y-98656428D02*
X167709319Y-98465952D01*
X167709319Y-98465952D02*
X167661700Y-98370714D01*
X167661700Y-98370714D02*
X167614080Y-98323095D01*
X167614080Y-98323095D02*
X167518842Y-98275476D01*
X167518842Y-98275476D02*
X166709319Y-98275476D01*
X166709319Y-97894523D02*
X166709319Y-97275476D01*
X166709319Y-97275476D02*
X167090271Y-97608809D01*
X167090271Y-97608809D02*
X167090271Y-97465952D01*
X167090271Y-97465952D02*
X167137890Y-97370714D01*
X167137890Y-97370714D02*
X167185509Y-97323095D01*
X167185509Y-97323095D02*
X167280747Y-97275476D01*
X167280747Y-97275476D02*
X167518842Y-97275476D01*
X167518842Y-97275476D02*
X167614080Y-97323095D01*
X167614080Y-97323095D02*
X167661700Y-97370714D01*
X167661700Y-97370714D02*
X167709319Y-97465952D01*
X167709319Y-97465952D02*
X167709319Y-97751666D01*
X167709319Y-97751666D02*
X167661700Y-97846904D01*
X167661700Y-97846904D02*
X167614080Y-97894523D01*
X188242595Y-100950319D02*
X188242595Y-101759842D01*
X188242595Y-101759842D02*
X188290214Y-101855080D01*
X188290214Y-101855080D02*
X188337833Y-101902700D01*
X188337833Y-101902700D02*
X188433071Y-101950319D01*
X188433071Y-101950319D02*
X188623547Y-101950319D01*
X188623547Y-101950319D02*
X188718785Y-101902700D01*
X188718785Y-101902700D02*
X188766404Y-101855080D01*
X188766404Y-101855080D02*
X188814023Y-101759842D01*
X188814023Y-101759842D02*
X188814023Y-100950319D01*
X189718785Y-101283652D02*
X189718785Y-101950319D01*
X189480690Y-100902700D02*
X189242595Y-101616985D01*
X189242595Y-101616985D02*
X189861642Y-101616985D01*
X174364080Y-100037857D02*
X174411700Y-100085476D01*
X174411700Y-100085476D02*
X174459319Y-100228333D01*
X174459319Y-100228333D02*
X174459319Y-100323571D01*
X174459319Y-100323571D02*
X174411700Y-100466428D01*
X174411700Y-100466428D02*
X174316461Y-100561666D01*
X174316461Y-100561666D02*
X174221223Y-100609285D01*
X174221223Y-100609285D02*
X174030747Y-100656904D01*
X174030747Y-100656904D02*
X173887890Y-100656904D01*
X173887890Y-100656904D02*
X173697414Y-100609285D01*
X173697414Y-100609285D02*
X173602176Y-100561666D01*
X173602176Y-100561666D02*
X173506938Y-100466428D01*
X173506938Y-100466428D02*
X173459319Y-100323571D01*
X173459319Y-100323571D02*
X173459319Y-100228333D01*
X173459319Y-100228333D02*
X173506938Y-100085476D01*
X173506938Y-100085476D02*
X173554557Y-100037857D01*
X174459319Y-99085476D02*
X174459319Y-99656904D01*
X174459319Y-99371190D02*
X173459319Y-99371190D01*
X173459319Y-99371190D02*
X173602176Y-99466428D01*
X173602176Y-99466428D02*
X173697414Y-99561666D01*
X173697414Y-99561666D02*
X173745033Y-99656904D01*
X173459319Y-98180714D02*
X173459319Y-98656904D01*
X173459319Y-98656904D02*
X173935509Y-98704523D01*
X173935509Y-98704523D02*
X173887890Y-98656904D01*
X173887890Y-98656904D02*
X173840271Y-98561666D01*
X173840271Y-98561666D02*
X173840271Y-98323571D01*
X173840271Y-98323571D02*
X173887890Y-98228333D01*
X173887890Y-98228333D02*
X173935509Y-98180714D01*
X173935509Y-98180714D02*
X174030747Y-98133095D01*
X174030747Y-98133095D02*
X174268842Y-98133095D01*
X174268842Y-98133095D02*
X174364080Y-98180714D01*
X174364080Y-98180714D02*
X174411700Y-98228333D01*
X174411700Y-98228333D02*
X174459319Y-98323571D01*
X174459319Y-98323571D02*
X174459319Y-98561666D01*
X174459319Y-98561666D02*
X174411700Y-98656904D01*
X174411700Y-98656904D02*
X174364080Y-98704523D01*
X185187142Y-95704819D02*
X184853809Y-95228628D01*
X184615714Y-95704819D02*
X184615714Y-94704819D01*
X184615714Y-94704819D02*
X184996666Y-94704819D01*
X184996666Y-94704819D02*
X185091904Y-94752438D01*
X185091904Y-94752438D02*
X185139523Y-94800057D01*
X185139523Y-94800057D02*
X185187142Y-94895295D01*
X185187142Y-94895295D02*
X185187142Y-95038152D01*
X185187142Y-95038152D02*
X185139523Y-95133390D01*
X185139523Y-95133390D02*
X185091904Y-95181009D01*
X185091904Y-95181009D02*
X184996666Y-95228628D01*
X184996666Y-95228628D02*
X184615714Y-95228628D01*
X186139523Y-95704819D02*
X185568095Y-95704819D01*
X185853809Y-95704819D02*
X185853809Y-94704819D01*
X185853809Y-94704819D02*
X185758571Y-94847676D01*
X185758571Y-94847676D02*
X185663333Y-94942914D01*
X185663333Y-94942914D02*
X185568095Y-94990533D01*
X186615714Y-95704819D02*
X186806190Y-95704819D01*
X186806190Y-95704819D02*
X186901428Y-95657200D01*
X186901428Y-95657200D02*
X186949047Y-95609580D01*
X186949047Y-95609580D02*
X187044285Y-95466723D01*
X187044285Y-95466723D02*
X187091904Y-95276247D01*
X187091904Y-95276247D02*
X187091904Y-94895295D01*
X187091904Y-94895295D02*
X187044285Y-94800057D01*
X187044285Y-94800057D02*
X186996666Y-94752438D01*
X186996666Y-94752438D02*
X186901428Y-94704819D01*
X186901428Y-94704819D02*
X186710952Y-94704819D01*
X186710952Y-94704819D02*
X186615714Y-94752438D01*
X186615714Y-94752438D02*
X186568095Y-94800057D01*
X186568095Y-94800057D02*
X186520476Y-94895295D01*
X186520476Y-94895295D02*
X186520476Y-95133390D01*
X186520476Y-95133390D02*
X186568095Y-95228628D01*
X186568095Y-95228628D02*
X186615714Y-95276247D01*
X186615714Y-95276247D02*
X186710952Y-95323866D01*
X186710952Y-95323866D02*
X186901428Y-95323866D01*
X186901428Y-95323866D02*
X186996666Y-95276247D01*
X186996666Y-95276247D02*
X187044285Y-95228628D01*
X187044285Y-95228628D02*
X187091904Y-95133390D01*
X185227142Y-105204819D02*
X184893809Y-104728628D01*
X184655714Y-105204819D02*
X184655714Y-104204819D01*
X184655714Y-104204819D02*
X185036666Y-104204819D01*
X185036666Y-104204819D02*
X185131904Y-104252438D01*
X185131904Y-104252438D02*
X185179523Y-104300057D01*
X185179523Y-104300057D02*
X185227142Y-104395295D01*
X185227142Y-104395295D02*
X185227142Y-104538152D01*
X185227142Y-104538152D02*
X185179523Y-104633390D01*
X185179523Y-104633390D02*
X185131904Y-104681009D01*
X185131904Y-104681009D02*
X185036666Y-104728628D01*
X185036666Y-104728628D02*
X184655714Y-104728628D01*
X185608095Y-104300057D02*
X185655714Y-104252438D01*
X185655714Y-104252438D02*
X185750952Y-104204819D01*
X185750952Y-104204819D02*
X185989047Y-104204819D01*
X185989047Y-104204819D02*
X186084285Y-104252438D01*
X186084285Y-104252438D02*
X186131904Y-104300057D01*
X186131904Y-104300057D02*
X186179523Y-104395295D01*
X186179523Y-104395295D02*
X186179523Y-104490533D01*
X186179523Y-104490533D02*
X186131904Y-104633390D01*
X186131904Y-104633390D02*
X185560476Y-105204819D01*
X185560476Y-105204819D02*
X186179523Y-105204819D01*
X187036666Y-104204819D02*
X186846190Y-104204819D01*
X186846190Y-104204819D02*
X186750952Y-104252438D01*
X186750952Y-104252438D02*
X186703333Y-104300057D01*
X186703333Y-104300057D02*
X186608095Y-104442914D01*
X186608095Y-104442914D02*
X186560476Y-104633390D01*
X186560476Y-104633390D02*
X186560476Y-105014342D01*
X186560476Y-105014342D02*
X186608095Y-105109580D01*
X186608095Y-105109580D02*
X186655714Y-105157200D01*
X186655714Y-105157200D02*
X186750952Y-105204819D01*
X186750952Y-105204819D02*
X186941428Y-105204819D01*
X186941428Y-105204819D02*
X187036666Y-105157200D01*
X187036666Y-105157200D02*
X187084285Y-105109580D01*
X187084285Y-105109580D02*
X187131904Y-105014342D01*
X187131904Y-105014342D02*
X187131904Y-104776247D01*
X187131904Y-104776247D02*
X187084285Y-104681009D01*
X187084285Y-104681009D02*
X187036666Y-104633390D01*
X187036666Y-104633390D02*
X186941428Y-104585771D01*
X186941428Y-104585771D02*
X186750952Y-104585771D01*
X186750952Y-104585771D02*
X186655714Y-104633390D01*
X186655714Y-104633390D02*
X186608095Y-104681009D01*
X186608095Y-104681009D02*
X186560476Y-104776247D01*
X178614819Y-100312857D02*
X178138628Y-100646190D01*
X178614819Y-100884285D02*
X177614819Y-100884285D01*
X177614819Y-100884285D02*
X177614819Y-100503333D01*
X177614819Y-100503333D02*
X177662438Y-100408095D01*
X177662438Y-100408095D02*
X177710057Y-100360476D01*
X177710057Y-100360476D02*
X177805295Y-100312857D01*
X177805295Y-100312857D02*
X177948152Y-100312857D01*
X177948152Y-100312857D02*
X178043390Y-100360476D01*
X178043390Y-100360476D02*
X178091009Y-100408095D01*
X178091009Y-100408095D02*
X178138628Y-100503333D01*
X178138628Y-100503333D02*
X178138628Y-100884285D01*
X178614819Y-99360476D02*
X178614819Y-99931904D01*
X178614819Y-99646190D02*
X177614819Y-99646190D01*
X177614819Y-99646190D02*
X177757676Y-99741428D01*
X177757676Y-99741428D02*
X177852914Y-99836666D01*
X177852914Y-99836666D02*
X177900533Y-99931904D01*
X177948152Y-98503333D02*
X178614819Y-98503333D01*
X177567200Y-98741428D02*
X178281485Y-98979523D01*
X178281485Y-98979523D02*
X178281485Y-98360476D01*
X185187142Y-119204819D02*
X184853809Y-118728628D01*
X184615714Y-119204819D02*
X184615714Y-118204819D01*
X184615714Y-118204819D02*
X184996666Y-118204819D01*
X184996666Y-118204819D02*
X185091904Y-118252438D01*
X185091904Y-118252438D02*
X185139523Y-118300057D01*
X185139523Y-118300057D02*
X185187142Y-118395295D01*
X185187142Y-118395295D02*
X185187142Y-118538152D01*
X185187142Y-118538152D02*
X185139523Y-118633390D01*
X185139523Y-118633390D02*
X185091904Y-118681009D01*
X185091904Y-118681009D02*
X184996666Y-118728628D01*
X184996666Y-118728628D02*
X184615714Y-118728628D01*
X185568095Y-118300057D02*
X185615714Y-118252438D01*
X185615714Y-118252438D02*
X185710952Y-118204819D01*
X185710952Y-118204819D02*
X185949047Y-118204819D01*
X185949047Y-118204819D02*
X186044285Y-118252438D01*
X186044285Y-118252438D02*
X186091904Y-118300057D01*
X186091904Y-118300057D02*
X186139523Y-118395295D01*
X186139523Y-118395295D02*
X186139523Y-118490533D01*
X186139523Y-118490533D02*
X186091904Y-118633390D01*
X186091904Y-118633390D02*
X185520476Y-119204819D01*
X185520476Y-119204819D02*
X186139523Y-119204819D01*
X186472857Y-118204819D02*
X187139523Y-118204819D01*
X187139523Y-118204819D02*
X186710952Y-119204819D01*
X185187142Y-112704819D02*
X184853809Y-112228628D01*
X184615714Y-112704819D02*
X184615714Y-111704819D01*
X184615714Y-111704819D02*
X184996666Y-111704819D01*
X184996666Y-111704819D02*
X185091904Y-111752438D01*
X185091904Y-111752438D02*
X185139523Y-111800057D01*
X185139523Y-111800057D02*
X185187142Y-111895295D01*
X185187142Y-111895295D02*
X185187142Y-112038152D01*
X185187142Y-112038152D02*
X185139523Y-112133390D01*
X185139523Y-112133390D02*
X185091904Y-112181009D01*
X185091904Y-112181009D02*
X184996666Y-112228628D01*
X184996666Y-112228628D02*
X184615714Y-112228628D01*
X185568095Y-111800057D02*
X185615714Y-111752438D01*
X185615714Y-111752438D02*
X185710952Y-111704819D01*
X185710952Y-111704819D02*
X185949047Y-111704819D01*
X185949047Y-111704819D02*
X186044285Y-111752438D01*
X186044285Y-111752438D02*
X186091904Y-111800057D01*
X186091904Y-111800057D02*
X186139523Y-111895295D01*
X186139523Y-111895295D02*
X186139523Y-111990533D01*
X186139523Y-111990533D02*
X186091904Y-112133390D01*
X186091904Y-112133390D02*
X185520476Y-112704819D01*
X185520476Y-112704819D02*
X186139523Y-112704819D01*
X186520476Y-111800057D02*
X186568095Y-111752438D01*
X186568095Y-111752438D02*
X186663333Y-111704819D01*
X186663333Y-111704819D02*
X186901428Y-111704819D01*
X186901428Y-111704819D02*
X186996666Y-111752438D01*
X186996666Y-111752438D02*
X187044285Y-111800057D01*
X187044285Y-111800057D02*
X187091904Y-111895295D01*
X187091904Y-111895295D02*
X187091904Y-111990533D01*
X187091904Y-111990533D02*
X187044285Y-112133390D01*
X187044285Y-112133390D02*
X186472857Y-112704819D01*
X186472857Y-112704819D02*
X187091904Y-112704819D01*
X167373333Y-119454819D02*
X167040000Y-118978628D01*
X166801905Y-119454819D02*
X166801905Y-118454819D01*
X166801905Y-118454819D02*
X167182857Y-118454819D01*
X167182857Y-118454819D02*
X167278095Y-118502438D01*
X167278095Y-118502438D02*
X167325714Y-118550057D01*
X167325714Y-118550057D02*
X167373333Y-118645295D01*
X167373333Y-118645295D02*
X167373333Y-118788152D01*
X167373333Y-118788152D02*
X167325714Y-118883390D01*
X167325714Y-118883390D02*
X167278095Y-118931009D01*
X167278095Y-118931009D02*
X167182857Y-118978628D01*
X167182857Y-118978628D02*
X166801905Y-118978628D01*
X167706667Y-118454819D02*
X168373333Y-118454819D01*
X168373333Y-118454819D02*
X167944762Y-119454819D01*
X160519580Y-112732857D02*
X160567200Y-112780476D01*
X160567200Y-112780476D02*
X160614819Y-112923333D01*
X160614819Y-112923333D02*
X160614819Y-113018571D01*
X160614819Y-113018571D02*
X160567200Y-113161428D01*
X160567200Y-113161428D02*
X160471961Y-113256666D01*
X160471961Y-113256666D02*
X160376723Y-113304285D01*
X160376723Y-113304285D02*
X160186247Y-113351904D01*
X160186247Y-113351904D02*
X160043390Y-113351904D01*
X160043390Y-113351904D02*
X159852914Y-113304285D01*
X159852914Y-113304285D02*
X159757676Y-113256666D01*
X159757676Y-113256666D02*
X159662438Y-113161428D01*
X159662438Y-113161428D02*
X159614819Y-113018571D01*
X159614819Y-113018571D02*
X159614819Y-112923333D01*
X159614819Y-112923333D02*
X159662438Y-112780476D01*
X159662438Y-112780476D02*
X159710057Y-112732857D01*
X160614819Y-111780476D02*
X160614819Y-112351904D01*
X160614819Y-112066190D02*
X159614819Y-112066190D01*
X159614819Y-112066190D02*
X159757676Y-112161428D01*
X159757676Y-112161428D02*
X159852914Y-112256666D01*
X159852914Y-112256666D02*
X159900533Y-112351904D01*
X159614819Y-111447142D02*
X159614819Y-110780476D01*
X159614819Y-110780476D02*
X160614819Y-111209047D01*
X188227095Y-114920819D02*
X188227095Y-115730342D01*
X188227095Y-115730342D02*
X188274714Y-115825580D01*
X188274714Y-115825580D02*
X188322333Y-115873200D01*
X188322333Y-115873200D02*
X188417571Y-115920819D01*
X188417571Y-115920819D02*
X188608047Y-115920819D01*
X188608047Y-115920819D02*
X188703285Y-115873200D01*
X188703285Y-115873200D02*
X188750904Y-115825580D01*
X188750904Y-115825580D02*
X188798523Y-115730342D01*
X188798523Y-115730342D02*
X188798523Y-114920819D01*
X189703285Y-114920819D02*
X189512809Y-114920819D01*
X189512809Y-114920819D02*
X189417571Y-114968438D01*
X189417571Y-114968438D02*
X189369952Y-115016057D01*
X189369952Y-115016057D02*
X189274714Y-115158914D01*
X189274714Y-115158914D02*
X189227095Y-115349390D01*
X189227095Y-115349390D02*
X189227095Y-115730342D01*
X189227095Y-115730342D02*
X189274714Y-115825580D01*
X189274714Y-115825580D02*
X189322333Y-115873200D01*
X189322333Y-115873200D02*
X189417571Y-115920819D01*
X189417571Y-115920819D02*
X189608047Y-115920819D01*
X189608047Y-115920819D02*
X189703285Y-115873200D01*
X189703285Y-115873200D02*
X189750904Y-115825580D01*
X189750904Y-115825580D02*
X189798523Y-115730342D01*
X189798523Y-115730342D02*
X189798523Y-115492247D01*
X189798523Y-115492247D02*
X189750904Y-115397009D01*
X189750904Y-115397009D02*
X189703285Y-115349390D01*
X189703285Y-115349390D02*
X189608047Y-115301771D01*
X189608047Y-115301771D02*
X189417571Y-115301771D01*
X189417571Y-115301771D02*
X189322333Y-115349390D01*
X189322333Y-115349390D02*
X189274714Y-115397009D01*
X189274714Y-115397009D02*
X189227095Y-115492247D01*
X178614819Y-114312857D02*
X178138628Y-114646190D01*
X178614819Y-114884285D02*
X177614819Y-114884285D01*
X177614819Y-114884285D02*
X177614819Y-114503333D01*
X177614819Y-114503333D02*
X177662438Y-114408095D01*
X177662438Y-114408095D02*
X177710057Y-114360476D01*
X177710057Y-114360476D02*
X177805295Y-114312857D01*
X177805295Y-114312857D02*
X177948152Y-114312857D01*
X177948152Y-114312857D02*
X178043390Y-114360476D01*
X178043390Y-114360476D02*
X178091009Y-114408095D01*
X178091009Y-114408095D02*
X178138628Y-114503333D01*
X178138628Y-114503333D02*
X178138628Y-114884285D01*
X178614819Y-113360476D02*
X178614819Y-113931904D01*
X178614819Y-113646190D02*
X177614819Y-113646190D01*
X177614819Y-113646190D02*
X177757676Y-113741428D01*
X177757676Y-113741428D02*
X177852914Y-113836666D01*
X177852914Y-113836666D02*
X177900533Y-113931904D01*
X177614819Y-112455714D02*
X177614819Y-112931904D01*
X177614819Y-112931904D02*
X178091009Y-112979523D01*
X178091009Y-112979523D02*
X178043390Y-112931904D01*
X178043390Y-112931904D02*
X177995771Y-112836666D01*
X177995771Y-112836666D02*
X177995771Y-112598571D01*
X177995771Y-112598571D02*
X178043390Y-112503333D01*
X178043390Y-112503333D02*
X178091009Y-112455714D01*
X178091009Y-112455714D02*
X178186247Y-112408095D01*
X178186247Y-112408095D02*
X178424342Y-112408095D01*
X178424342Y-112408095D02*
X178519580Y-112455714D01*
X178519580Y-112455714D02*
X178567200Y-112503333D01*
X178567200Y-112503333D02*
X178614819Y-112598571D01*
X178614819Y-112598571D02*
X178614819Y-112836666D01*
X178614819Y-112836666D02*
X178567200Y-112931904D01*
X178567200Y-112931904D02*
X178519580Y-112979523D01*
X174279580Y-114037857D02*
X174327200Y-114085476D01*
X174327200Y-114085476D02*
X174374819Y-114228333D01*
X174374819Y-114228333D02*
X174374819Y-114323571D01*
X174374819Y-114323571D02*
X174327200Y-114466428D01*
X174327200Y-114466428D02*
X174231961Y-114561666D01*
X174231961Y-114561666D02*
X174136723Y-114609285D01*
X174136723Y-114609285D02*
X173946247Y-114656904D01*
X173946247Y-114656904D02*
X173803390Y-114656904D01*
X173803390Y-114656904D02*
X173612914Y-114609285D01*
X173612914Y-114609285D02*
X173517676Y-114561666D01*
X173517676Y-114561666D02*
X173422438Y-114466428D01*
X173422438Y-114466428D02*
X173374819Y-114323571D01*
X173374819Y-114323571D02*
X173374819Y-114228333D01*
X173374819Y-114228333D02*
X173422438Y-114085476D01*
X173422438Y-114085476D02*
X173470057Y-114037857D01*
X174374819Y-113085476D02*
X174374819Y-113656904D01*
X174374819Y-113371190D02*
X173374819Y-113371190D01*
X173374819Y-113371190D02*
X173517676Y-113466428D01*
X173517676Y-113466428D02*
X173612914Y-113561666D01*
X173612914Y-113561666D02*
X173660533Y-113656904D01*
X173803390Y-112514047D02*
X173755771Y-112609285D01*
X173755771Y-112609285D02*
X173708152Y-112656904D01*
X173708152Y-112656904D02*
X173612914Y-112704523D01*
X173612914Y-112704523D02*
X173565295Y-112704523D01*
X173565295Y-112704523D02*
X173470057Y-112656904D01*
X173470057Y-112656904D02*
X173422438Y-112609285D01*
X173422438Y-112609285D02*
X173374819Y-112514047D01*
X173374819Y-112514047D02*
X173374819Y-112323571D01*
X173374819Y-112323571D02*
X173422438Y-112228333D01*
X173422438Y-112228333D02*
X173470057Y-112180714D01*
X173470057Y-112180714D02*
X173565295Y-112133095D01*
X173565295Y-112133095D02*
X173612914Y-112133095D01*
X173612914Y-112133095D02*
X173708152Y-112180714D01*
X173708152Y-112180714D02*
X173755771Y-112228333D01*
X173755771Y-112228333D02*
X173803390Y-112323571D01*
X173803390Y-112323571D02*
X173803390Y-112514047D01*
X173803390Y-112514047D02*
X173851009Y-112609285D01*
X173851009Y-112609285D02*
X173898628Y-112656904D01*
X173898628Y-112656904D02*
X173993866Y-112704523D01*
X173993866Y-112704523D02*
X174184342Y-112704523D01*
X174184342Y-112704523D02*
X174279580Y-112656904D01*
X174279580Y-112656904D02*
X174327200Y-112609285D01*
X174327200Y-112609285D02*
X174374819Y-112514047D01*
X174374819Y-112514047D02*
X174374819Y-112323571D01*
X174374819Y-112323571D02*
X174327200Y-112228333D01*
X174327200Y-112228333D02*
X174279580Y-112180714D01*
X174279580Y-112180714D02*
X174184342Y-112133095D01*
X174184342Y-112133095D02*
X173993866Y-112133095D01*
X173993866Y-112133095D02*
X173898628Y-112180714D01*
X173898628Y-112180714D02*
X173851009Y-112228333D01*
X173851009Y-112228333D02*
X173803390Y-112323571D01*
X154364819Y-113496666D02*
X153888628Y-113829999D01*
X154364819Y-114068094D02*
X153364819Y-114068094D01*
X153364819Y-114068094D02*
X153364819Y-113687142D01*
X153364819Y-113687142D02*
X153412438Y-113591904D01*
X153412438Y-113591904D02*
X153460057Y-113544285D01*
X153460057Y-113544285D02*
X153555295Y-113496666D01*
X153555295Y-113496666D02*
X153698152Y-113496666D01*
X153698152Y-113496666D02*
X153793390Y-113544285D01*
X153793390Y-113544285D02*
X153841009Y-113591904D01*
X153841009Y-113591904D02*
X153888628Y-113687142D01*
X153888628Y-113687142D02*
X153888628Y-114068094D01*
X153364819Y-113163332D02*
X153364819Y-112544285D01*
X153364819Y-112544285D02*
X153745771Y-112877618D01*
X153745771Y-112877618D02*
X153745771Y-112734761D01*
X153745771Y-112734761D02*
X153793390Y-112639523D01*
X153793390Y-112639523D02*
X153841009Y-112591904D01*
X153841009Y-112591904D02*
X153936247Y-112544285D01*
X153936247Y-112544285D02*
X154174342Y-112544285D01*
X154174342Y-112544285D02*
X154269580Y-112591904D01*
X154269580Y-112591904D02*
X154317200Y-112639523D01*
X154317200Y-112639523D02*
X154364819Y-112734761D01*
X154364819Y-112734761D02*
X154364819Y-113020475D01*
X154364819Y-113020475D02*
X154317200Y-113115713D01*
X154317200Y-113115713D02*
X154269580Y-113163332D01*
X185187142Y-109704819D02*
X184853809Y-109228628D01*
X184615714Y-109704819D02*
X184615714Y-108704819D01*
X184615714Y-108704819D02*
X184996666Y-108704819D01*
X184996666Y-108704819D02*
X185091904Y-108752438D01*
X185091904Y-108752438D02*
X185139523Y-108800057D01*
X185139523Y-108800057D02*
X185187142Y-108895295D01*
X185187142Y-108895295D02*
X185187142Y-109038152D01*
X185187142Y-109038152D02*
X185139523Y-109133390D01*
X185139523Y-109133390D02*
X185091904Y-109181009D01*
X185091904Y-109181009D02*
X184996666Y-109228628D01*
X184996666Y-109228628D02*
X184615714Y-109228628D01*
X185568095Y-108800057D02*
X185615714Y-108752438D01*
X185615714Y-108752438D02*
X185710952Y-108704819D01*
X185710952Y-108704819D02*
X185949047Y-108704819D01*
X185949047Y-108704819D02*
X186044285Y-108752438D01*
X186044285Y-108752438D02*
X186091904Y-108800057D01*
X186091904Y-108800057D02*
X186139523Y-108895295D01*
X186139523Y-108895295D02*
X186139523Y-108990533D01*
X186139523Y-108990533D02*
X186091904Y-109133390D01*
X186091904Y-109133390D02*
X185520476Y-109704819D01*
X185520476Y-109704819D02*
X186139523Y-109704819D01*
X187091904Y-109704819D02*
X186520476Y-109704819D01*
X186806190Y-109704819D02*
X186806190Y-108704819D01*
X186806190Y-108704819D02*
X186710952Y-108847676D01*
X186710952Y-108847676D02*
X186615714Y-108942914D01*
X186615714Y-108942914D02*
X186520476Y-108990533D01*
X166614819Y-112846904D02*
X167424342Y-112846904D01*
X167424342Y-112846904D02*
X167519580Y-112799285D01*
X167519580Y-112799285D02*
X167567200Y-112751666D01*
X167567200Y-112751666D02*
X167614819Y-112656428D01*
X167614819Y-112656428D02*
X167614819Y-112465952D01*
X167614819Y-112465952D02*
X167567200Y-112370714D01*
X167567200Y-112370714D02*
X167519580Y-112323095D01*
X167519580Y-112323095D02*
X167424342Y-112275476D01*
X167424342Y-112275476D02*
X166614819Y-112275476D01*
X166614819Y-111323095D02*
X166614819Y-111799285D01*
X166614819Y-111799285D02*
X167091009Y-111846904D01*
X167091009Y-111846904D02*
X167043390Y-111799285D01*
X167043390Y-111799285D02*
X166995771Y-111704047D01*
X166995771Y-111704047D02*
X166995771Y-111465952D01*
X166995771Y-111465952D02*
X167043390Y-111370714D01*
X167043390Y-111370714D02*
X167091009Y-111323095D01*
X167091009Y-111323095D02*
X167186247Y-111275476D01*
X167186247Y-111275476D02*
X167424342Y-111275476D01*
X167424342Y-111275476D02*
X167519580Y-111323095D01*
X167519580Y-111323095D02*
X167567200Y-111370714D01*
X167567200Y-111370714D02*
X167614819Y-111465952D01*
X167614819Y-111465952D02*
X167614819Y-111704047D01*
X167614819Y-111704047D02*
X167567200Y-111799285D01*
X167567200Y-111799285D02*
X167519580Y-111846904D01*
X182607142Y-115859580D02*
X182559523Y-115907200D01*
X182559523Y-115907200D02*
X182416666Y-115954819D01*
X182416666Y-115954819D02*
X182321428Y-115954819D01*
X182321428Y-115954819D02*
X182178571Y-115907200D01*
X182178571Y-115907200D02*
X182083333Y-115811961D01*
X182083333Y-115811961D02*
X182035714Y-115716723D01*
X182035714Y-115716723D02*
X181988095Y-115526247D01*
X181988095Y-115526247D02*
X181988095Y-115383390D01*
X181988095Y-115383390D02*
X182035714Y-115192914D01*
X182035714Y-115192914D02*
X182083333Y-115097676D01*
X182083333Y-115097676D02*
X182178571Y-115002438D01*
X182178571Y-115002438D02*
X182321428Y-114954819D01*
X182321428Y-114954819D02*
X182416666Y-114954819D01*
X182416666Y-114954819D02*
X182559523Y-115002438D01*
X182559523Y-115002438D02*
X182607142Y-115050057D01*
X183559523Y-115954819D02*
X182988095Y-115954819D01*
X183273809Y-115954819D02*
X183273809Y-114954819D01*
X183273809Y-114954819D02*
X183178571Y-115097676D01*
X183178571Y-115097676D02*
X183083333Y-115192914D01*
X183083333Y-115192914D02*
X182988095Y-115240533D01*
X184035714Y-115954819D02*
X184226190Y-115954819D01*
X184226190Y-115954819D02*
X184321428Y-115907200D01*
X184321428Y-115907200D02*
X184369047Y-115859580D01*
X184369047Y-115859580D02*
X184464285Y-115716723D01*
X184464285Y-115716723D02*
X184511904Y-115526247D01*
X184511904Y-115526247D02*
X184511904Y-115145295D01*
X184511904Y-115145295D02*
X184464285Y-115050057D01*
X184464285Y-115050057D02*
X184416666Y-115002438D01*
X184416666Y-115002438D02*
X184321428Y-114954819D01*
X184321428Y-114954819D02*
X184130952Y-114954819D01*
X184130952Y-114954819D02*
X184035714Y-115002438D01*
X184035714Y-115002438D02*
X183988095Y-115050057D01*
X183988095Y-115050057D02*
X183940476Y-115145295D01*
X183940476Y-115145295D02*
X183940476Y-115383390D01*
X183940476Y-115383390D02*
X183988095Y-115478628D01*
X183988095Y-115478628D02*
X184035714Y-115526247D01*
X184035714Y-115526247D02*
X184130952Y-115573866D01*
X184130952Y-115573866D02*
X184321428Y-115573866D01*
X184321428Y-115573866D02*
X184416666Y-115526247D01*
X184416666Y-115526247D02*
X184464285Y-115478628D01*
X184464285Y-115478628D02*
X184511904Y-115383390D01*
X157364819Y-113972857D02*
X156888628Y-114306190D01*
X157364819Y-114544285D02*
X156364819Y-114544285D01*
X156364819Y-114544285D02*
X156364819Y-114163333D01*
X156364819Y-114163333D02*
X156412438Y-114068095D01*
X156412438Y-114068095D02*
X156460057Y-114020476D01*
X156460057Y-114020476D02*
X156555295Y-113972857D01*
X156555295Y-113972857D02*
X156698152Y-113972857D01*
X156698152Y-113972857D02*
X156793390Y-114020476D01*
X156793390Y-114020476D02*
X156841009Y-114068095D01*
X156841009Y-114068095D02*
X156888628Y-114163333D01*
X156888628Y-114163333D02*
X156888628Y-114544285D01*
X157364819Y-113020476D02*
X157364819Y-113591904D01*
X157364819Y-113306190D02*
X156364819Y-113306190D01*
X156364819Y-113306190D02*
X156507676Y-113401428D01*
X156507676Y-113401428D02*
X156602914Y-113496666D01*
X156602914Y-113496666D02*
X156650533Y-113591904D01*
X157364819Y-112068095D02*
X157364819Y-112639523D01*
X157364819Y-112353809D02*
X156364819Y-112353809D01*
X156364819Y-112353809D02*
X156507676Y-112449047D01*
X156507676Y-112449047D02*
X156602914Y-112544285D01*
X156602914Y-112544285D02*
X156650533Y-112639523D01*
X125416819Y-81011904D02*
X125416819Y-80440476D01*
X126416819Y-80726190D02*
X125416819Y-80726190D01*
X126416819Y-80107142D02*
X125416819Y-80107142D01*
X125416819Y-80107142D02*
X125416819Y-79726190D01*
X125416819Y-79726190D02*
X125464438Y-79630952D01*
X125464438Y-79630952D02*
X125512057Y-79583333D01*
X125512057Y-79583333D02*
X125607295Y-79535714D01*
X125607295Y-79535714D02*
X125750152Y-79535714D01*
X125750152Y-79535714D02*
X125845390Y-79583333D01*
X125845390Y-79583333D02*
X125893009Y-79630952D01*
X125893009Y-79630952D02*
X125940628Y-79726190D01*
X125940628Y-79726190D02*
X125940628Y-80107142D01*
X125416819Y-78630952D02*
X125416819Y-79107142D01*
X125416819Y-79107142D02*
X125893009Y-79154761D01*
X125893009Y-79154761D02*
X125845390Y-79107142D01*
X125845390Y-79107142D02*
X125797771Y-79011904D01*
X125797771Y-79011904D02*
X125797771Y-78773809D01*
X125797771Y-78773809D02*
X125845390Y-78678571D01*
X125845390Y-78678571D02*
X125893009Y-78630952D01*
X125893009Y-78630952D02*
X125988247Y-78583333D01*
X125988247Y-78583333D02*
X126226342Y-78583333D01*
X126226342Y-78583333D02*
X126321580Y-78630952D01*
X126321580Y-78630952D02*
X126369200Y-78678571D01*
X126369200Y-78678571D02*
X126416819Y-78773809D01*
X126416819Y-78773809D02*
X126416819Y-79011904D01*
X126416819Y-79011904D02*
X126369200Y-79107142D01*
X126369200Y-79107142D02*
X126321580Y-79154761D01*
X140456819Y-81011904D02*
X140456819Y-80440476D01*
X141456819Y-80726190D02*
X140456819Y-80726190D01*
X141456819Y-80107142D02*
X140456819Y-80107142D01*
X140456819Y-80107142D02*
X140456819Y-79726190D01*
X140456819Y-79726190D02*
X140504438Y-79630952D01*
X140504438Y-79630952D02*
X140552057Y-79583333D01*
X140552057Y-79583333D02*
X140647295Y-79535714D01*
X140647295Y-79535714D02*
X140790152Y-79535714D01*
X140790152Y-79535714D02*
X140885390Y-79583333D01*
X140885390Y-79583333D02*
X140933009Y-79630952D01*
X140933009Y-79630952D02*
X140980628Y-79726190D01*
X140980628Y-79726190D02*
X140980628Y-80107142D01*
X140885390Y-78964285D02*
X140837771Y-79059523D01*
X140837771Y-79059523D02*
X140790152Y-79107142D01*
X140790152Y-79107142D02*
X140694914Y-79154761D01*
X140694914Y-79154761D02*
X140647295Y-79154761D01*
X140647295Y-79154761D02*
X140552057Y-79107142D01*
X140552057Y-79107142D02*
X140504438Y-79059523D01*
X140504438Y-79059523D02*
X140456819Y-78964285D01*
X140456819Y-78964285D02*
X140456819Y-78773809D01*
X140456819Y-78773809D02*
X140504438Y-78678571D01*
X140504438Y-78678571D02*
X140552057Y-78630952D01*
X140552057Y-78630952D02*
X140647295Y-78583333D01*
X140647295Y-78583333D02*
X140694914Y-78583333D01*
X140694914Y-78583333D02*
X140790152Y-78630952D01*
X140790152Y-78630952D02*
X140837771Y-78678571D01*
X140837771Y-78678571D02*
X140885390Y-78773809D01*
X140885390Y-78773809D02*
X140885390Y-78964285D01*
X140885390Y-78964285D02*
X140933009Y-79059523D01*
X140933009Y-79059523D02*
X140980628Y-79107142D01*
X140980628Y-79107142D02*
X141075866Y-79154761D01*
X141075866Y-79154761D02*
X141266342Y-79154761D01*
X141266342Y-79154761D02*
X141361580Y-79107142D01*
X141361580Y-79107142D02*
X141409200Y-79059523D01*
X141409200Y-79059523D02*
X141456819Y-78964285D01*
X141456819Y-78964285D02*
X141456819Y-78773809D01*
X141456819Y-78773809D02*
X141409200Y-78678571D01*
X141409200Y-78678571D02*
X141361580Y-78630952D01*
X141361580Y-78630952D02*
X141266342Y-78583333D01*
X141266342Y-78583333D02*
X141075866Y-78583333D01*
X141075866Y-78583333D02*
X140980628Y-78630952D01*
X140980628Y-78630952D02*
X140933009Y-78678571D01*
X140933009Y-78678571D02*
X140885390Y-78773809D01*
X127454819Y-82918094D02*
X126454819Y-82918094D01*
X126454819Y-82918094D02*
X126454819Y-82679999D01*
X126454819Y-82679999D02*
X126502438Y-82537142D01*
X126502438Y-82537142D02*
X126597676Y-82441904D01*
X126597676Y-82441904D02*
X126692914Y-82394285D01*
X126692914Y-82394285D02*
X126883390Y-82346666D01*
X126883390Y-82346666D02*
X127026247Y-82346666D01*
X127026247Y-82346666D02*
X127216723Y-82394285D01*
X127216723Y-82394285D02*
X127311961Y-82441904D01*
X127311961Y-82441904D02*
X127407200Y-82537142D01*
X127407200Y-82537142D02*
X127454819Y-82679999D01*
X127454819Y-82679999D02*
X127454819Y-82918094D01*
X127454819Y-81394285D02*
X127454819Y-81965713D01*
X127454819Y-81679999D02*
X126454819Y-81679999D01*
X126454819Y-81679999D02*
X126597676Y-81775237D01*
X126597676Y-81775237D02*
X126692914Y-81870475D01*
X126692914Y-81870475D02*
X126740533Y-81965713D01*
X109765713Y-124759580D02*
X109718094Y-124807200D01*
X109718094Y-124807200D02*
X109575237Y-124854819D01*
X109575237Y-124854819D02*
X109479999Y-124854819D01*
X109479999Y-124854819D02*
X109337142Y-124807200D01*
X109337142Y-124807200D02*
X109241904Y-124711961D01*
X109241904Y-124711961D02*
X109194285Y-124616723D01*
X109194285Y-124616723D02*
X109146666Y-124426247D01*
X109146666Y-124426247D02*
X109146666Y-124283390D01*
X109146666Y-124283390D02*
X109194285Y-124092914D01*
X109194285Y-124092914D02*
X109241904Y-123997676D01*
X109241904Y-123997676D02*
X109337142Y-123902438D01*
X109337142Y-123902438D02*
X109479999Y-123854819D01*
X109479999Y-123854819D02*
X109575237Y-123854819D01*
X109575237Y-123854819D02*
X109718094Y-123902438D01*
X109718094Y-123902438D02*
X109765713Y-123950057D01*
X110622856Y-124188152D02*
X110622856Y-124854819D01*
X110384761Y-123807200D02*
X110146666Y-124521485D01*
X110146666Y-124521485D02*
X110765713Y-124521485D01*
D11*
X122761905Y-129957419D02*
X122761905Y-130766942D01*
X122761905Y-130766942D02*
X122809524Y-130862180D01*
X122809524Y-130862180D02*
X122857143Y-130909800D01*
X122857143Y-130909800D02*
X122952381Y-130957419D01*
X122952381Y-130957419D02*
X123142857Y-130957419D01*
X123142857Y-130957419D02*
X123238095Y-130909800D01*
X123238095Y-130909800D02*
X123285714Y-130862180D01*
X123285714Y-130862180D02*
X123333333Y-130766942D01*
X123333333Y-130766942D02*
X123333333Y-129957419D01*
X124333333Y-130957419D02*
X123761905Y-130957419D01*
X124047619Y-130957419D02*
X124047619Y-129957419D01*
X124047619Y-129957419D02*
X123952381Y-130100276D01*
X123952381Y-130100276D02*
X123857143Y-130195514D01*
X123857143Y-130195514D02*
X123761905Y-130243133D01*
X125285714Y-130957419D02*
X124714286Y-130957419D01*
X125000000Y-130957419D02*
X125000000Y-129957419D01*
X125000000Y-129957419D02*
X124904762Y-130100276D01*
X124904762Y-130100276D02*
X124809524Y-130195514D01*
X124809524Y-130195514D02*
X124714286Y-130243133D01*
D10*
X132454819Y-82918094D02*
X131454819Y-82918094D01*
X131454819Y-82918094D02*
X131454819Y-82679999D01*
X131454819Y-82679999D02*
X131502438Y-82537142D01*
X131502438Y-82537142D02*
X131597676Y-82441904D01*
X131597676Y-82441904D02*
X131692914Y-82394285D01*
X131692914Y-82394285D02*
X131883390Y-82346666D01*
X131883390Y-82346666D02*
X132026247Y-82346666D01*
X132026247Y-82346666D02*
X132216723Y-82394285D01*
X132216723Y-82394285D02*
X132311961Y-82441904D01*
X132311961Y-82441904D02*
X132407200Y-82537142D01*
X132407200Y-82537142D02*
X132454819Y-82679999D01*
X132454819Y-82679999D02*
X132454819Y-82918094D01*
X131550057Y-81965713D02*
X131502438Y-81918094D01*
X131502438Y-81918094D02*
X131454819Y-81822856D01*
X131454819Y-81822856D02*
X131454819Y-81584761D01*
X131454819Y-81584761D02*
X131502438Y-81489523D01*
X131502438Y-81489523D02*
X131550057Y-81441904D01*
X131550057Y-81441904D02*
X131645295Y-81394285D01*
X131645295Y-81394285D02*
X131740533Y-81394285D01*
X131740533Y-81394285D02*
X131883390Y-81441904D01*
X131883390Y-81441904D02*
X132454819Y-82013332D01*
X132454819Y-82013332D02*
X132454819Y-81394285D01*
D11*
X108166667Y-127409800D02*
X108309524Y-127457419D01*
X108309524Y-127457419D02*
X108547619Y-127457419D01*
X108547619Y-127457419D02*
X108642857Y-127409800D01*
X108642857Y-127409800D02*
X108690476Y-127362180D01*
X108690476Y-127362180D02*
X108738095Y-127266942D01*
X108738095Y-127266942D02*
X108738095Y-127171704D01*
X108738095Y-127171704D02*
X108690476Y-127076466D01*
X108690476Y-127076466D02*
X108642857Y-127028847D01*
X108642857Y-127028847D02*
X108547619Y-126981228D01*
X108547619Y-126981228D02*
X108357143Y-126933609D01*
X108357143Y-126933609D02*
X108261905Y-126885990D01*
X108261905Y-126885990D02*
X108214286Y-126838371D01*
X108214286Y-126838371D02*
X108166667Y-126743133D01*
X108166667Y-126743133D02*
X108166667Y-126647895D01*
X108166667Y-126647895D02*
X108214286Y-126552657D01*
X108214286Y-126552657D02*
X108261905Y-126505038D01*
X108261905Y-126505038D02*
X108357143Y-126457419D01*
X108357143Y-126457419D02*
X108595238Y-126457419D01*
X108595238Y-126457419D02*
X108738095Y-126505038D01*
X109071429Y-126457419D02*
X109309524Y-127457419D01*
X109309524Y-127457419D02*
X109500000Y-126743133D01*
X109500000Y-126743133D02*
X109690476Y-127457419D01*
X109690476Y-127457419D02*
X109928572Y-126457419D01*
X110261905Y-126552657D02*
X110309524Y-126505038D01*
X110309524Y-126505038D02*
X110404762Y-126457419D01*
X110404762Y-126457419D02*
X110642857Y-126457419D01*
X110642857Y-126457419D02*
X110738095Y-126505038D01*
X110738095Y-126505038D02*
X110785714Y-126552657D01*
X110785714Y-126552657D02*
X110833333Y-126647895D01*
X110833333Y-126647895D02*
X110833333Y-126743133D01*
X110833333Y-126743133D02*
X110785714Y-126885990D01*
X110785714Y-126885990D02*
X110214286Y-127457419D01*
X110214286Y-127457419D02*
X110833333Y-127457419D01*
D10*
X109765713Y-89759580D02*
X109718094Y-89807200D01*
X109718094Y-89807200D02*
X109575237Y-89854819D01*
X109575237Y-89854819D02*
X109479999Y-89854819D01*
X109479999Y-89854819D02*
X109337142Y-89807200D01*
X109337142Y-89807200D02*
X109241904Y-89711961D01*
X109241904Y-89711961D02*
X109194285Y-89616723D01*
X109194285Y-89616723D02*
X109146666Y-89426247D01*
X109146666Y-89426247D02*
X109146666Y-89283390D01*
X109146666Y-89283390D02*
X109194285Y-89092914D01*
X109194285Y-89092914D02*
X109241904Y-88997676D01*
X109241904Y-88997676D02*
X109337142Y-88902438D01*
X109337142Y-88902438D02*
X109479999Y-88854819D01*
X109479999Y-88854819D02*
X109575237Y-88854819D01*
X109575237Y-88854819D02*
X109718094Y-88902438D01*
X109718094Y-88902438D02*
X109765713Y-88950057D01*
X110622856Y-88854819D02*
X110432380Y-88854819D01*
X110432380Y-88854819D02*
X110337142Y-88902438D01*
X110337142Y-88902438D02*
X110289523Y-88950057D01*
X110289523Y-88950057D02*
X110194285Y-89092914D01*
X110194285Y-89092914D02*
X110146666Y-89283390D01*
X110146666Y-89283390D02*
X110146666Y-89664342D01*
X110146666Y-89664342D02*
X110194285Y-89759580D01*
X110194285Y-89759580D02*
X110241904Y-89807200D01*
X110241904Y-89807200D02*
X110337142Y-89854819D01*
X110337142Y-89854819D02*
X110527618Y-89854819D01*
X110527618Y-89854819D02*
X110622856Y-89807200D01*
X110622856Y-89807200D02*
X110670475Y-89759580D01*
X110670475Y-89759580D02*
X110718094Y-89664342D01*
X110718094Y-89664342D02*
X110718094Y-89426247D01*
X110718094Y-89426247D02*
X110670475Y-89331009D01*
X110670475Y-89331009D02*
X110622856Y-89283390D01*
X110622856Y-89283390D02*
X110527618Y-89235771D01*
X110527618Y-89235771D02*
X110337142Y-89235771D01*
X110337142Y-89235771D02*
X110241904Y-89283390D01*
X110241904Y-89283390D02*
X110194285Y-89331009D01*
X110194285Y-89331009D02*
X110146666Y-89426247D01*
X118515713Y-124759580D02*
X118468094Y-124807200D01*
X118468094Y-124807200D02*
X118325237Y-124854819D01*
X118325237Y-124854819D02*
X118229999Y-124854819D01*
X118229999Y-124854819D02*
X118087142Y-124807200D01*
X118087142Y-124807200D02*
X117991904Y-124711961D01*
X117991904Y-124711961D02*
X117944285Y-124616723D01*
X117944285Y-124616723D02*
X117896666Y-124426247D01*
X117896666Y-124426247D02*
X117896666Y-124283390D01*
X117896666Y-124283390D02*
X117944285Y-124092914D01*
X117944285Y-124092914D02*
X117991904Y-123997676D01*
X117991904Y-123997676D02*
X118087142Y-123902438D01*
X118087142Y-123902438D02*
X118229999Y-123854819D01*
X118229999Y-123854819D02*
X118325237Y-123854819D01*
X118325237Y-123854819D02*
X118468094Y-123902438D01*
X118468094Y-123902438D02*
X118515713Y-123950057D01*
X119468094Y-124854819D02*
X118896666Y-124854819D01*
X119182380Y-124854819D02*
X119182380Y-123854819D01*
X119182380Y-123854819D02*
X119087142Y-123997676D01*
X119087142Y-123997676D02*
X118991904Y-124092914D01*
X118991904Y-124092914D02*
X118896666Y-124140533D01*
X142454819Y-82918094D02*
X141454819Y-82918094D01*
X141454819Y-82918094D02*
X141454819Y-82679999D01*
X141454819Y-82679999D02*
X141502438Y-82537142D01*
X141502438Y-82537142D02*
X141597676Y-82441904D01*
X141597676Y-82441904D02*
X141692914Y-82394285D01*
X141692914Y-82394285D02*
X141883390Y-82346666D01*
X141883390Y-82346666D02*
X142026247Y-82346666D01*
X142026247Y-82346666D02*
X142216723Y-82394285D01*
X142216723Y-82394285D02*
X142311961Y-82441904D01*
X142311961Y-82441904D02*
X142407200Y-82537142D01*
X142407200Y-82537142D02*
X142454819Y-82679999D01*
X142454819Y-82679999D02*
X142454819Y-82918094D01*
X141788152Y-81489523D02*
X142454819Y-81489523D01*
X141407200Y-81727618D02*
X142121485Y-81965713D01*
X142121485Y-81965713D02*
X142121485Y-81346666D01*
X130456819Y-81011904D02*
X130456819Y-80440476D01*
X131456819Y-80726190D02*
X130456819Y-80726190D01*
X131456819Y-80107142D02*
X130456819Y-80107142D01*
X130456819Y-80107142D02*
X130456819Y-79726190D01*
X130456819Y-79726190D02*
X130504438Y-79630952D01*
X130504438Y-79630952D02*
X130552057Y-79583333D01*
X130552057Y-79583333D02*
X130647295Y-79535714D01*
X130647295Y-79535714D02*
X130790152Y-79535714D01*
X130790152Y-79535714D02*
X130885390Y-79583333D01*
X130885390Y-79583333D02*
X130933009Y-79630952D01*
X130933009Y-79630952D02*
X130980628Y-79726190D01*
X130980628Y-79726190D02*
X130980628Y-80107142D01*
X130456819Y-78678571D02*
X130456819Y-78869047D01*
X130456819Y-78869047D02*
X130504438Y-78964285D01*
X130504438Y-78964285D02*
X130552057Y-79011904D01*
X130552057Y-79011904D02*
X130694914Y-79107142D01*
X130694914Y-79107142D02*
X130885390Y-79154761D01*
X130885390Y-79154761D02*
X131266342Y-79154761D01*
X131266342Y-79154761D02*
X131361580Y-79107142D01*
X131361580Y-79107142D02*
X131409200Y-79059523D01*
X131409200Y-79059523D02*
X131456819Y-78964285D01*
X131456819Y-78964285D02*
X131456819Y-78773809D01*
X131456819Y-78773809D02*
X131409200Y-78678571D01*
X131409200Y-78678571D02*
X131361580Y-78630952D01*
X131361580Y-78630952D02*
X131266342Y-78583333D01*
X131266342Y-78583333D02*
X131028247Y-78583333D01*
X131028247Y-78583333D02*
X130933009Y-78630952D01*
X130933009Y-78630952D02*
X130885390Y-78678571D01*
X130885390Y-78678571D02*
X130837771Y-78773809D01*
X130837771Y-78773809D02*
X130837771Y-78964285D01*
X130837771Y-78964285D02*
X130885390Y-79059523D01*
X130885390Y-79059523D02*
X130933009Y-79107142D01*
X130933009Y-79107142D02*
X131028247Y-79154761D01*
X137454819Y-82918094D02*
X136454819Y-82918094D01*
X136454819Y-82918094D02*
X136454819Y-82679999D01*
X136454819Y-82679999D02*
X136502438Y-82537142D01*
X136502438Y-82537142D02*
X136597676Y-82441904D01*
X136597676Y-82441904D02*
X136692914Y-82394285D01*
X136692914Y-82394285D02*
X136883390Y-82346666D01*
X136883390Y-82346666D02*
X137026247Y-82346666D01*
X137026247Y-82346666D02*
X137216723Y-82394285D01*
X137216723Y-82394285D02*
X137311961Y-82441904D01*
X137311961Y-82441904D02*
X137407200Y-82537142D01*
X137407200Y-82537142D02*
X137454819Y-82679999D01*
X137454819Y-82679999D02*
X137454819Y-82918094D01*
X136454819Y-82013332D02*
X136454819Y-81394285D01*
X136454819Y-81394285D02*
X136835771Y-81727618D01*
X136835771Y-81727618D02*
X136835771Y-81584761D01*
X136835771Y-81584761D02*
X136883390Y-81489523D01*
X136883390Y-81489523D02*
X136931009Y-81441904D01*
X136931009Y-81441904D02*
X137026247Y-81394285D01*
X137026247Y-81394285D02*
X137264342Y-81394285D01*
X137264342Y-81394285D02*
X137359580Y-81441904D01*
X137359580Y-81441904D02*
X137407200Y-81489523D01*
X137407200Y-81489523D02*
X137454819Y-81584761D01*
X137454819Y-81584761D02*
X137454819Y-81870475D01*
X137454819Y-81870475D02*
X137407200Y-81965713D01*
X137407200Y-81965713D02*
X137359580Y-82013332D01*
X135456819Y-81011904D02*
X135456819Y-80440476D01*
X136456819Y-80726190D02*
X135456819Y-80726190D01*
X136456819Y-80107142D02*
X135456819Y-80107142D01*
X135456819Y-80107142D02*
X135456819Y-79726190D01*
X135456819Y-79726190D02*
X135504438Y-79630952D01*
X135504438Y-79630952D02*
X135552057Y-79583333D01*
X135552057Y-79583333D02*
X135647295Y-79535714D01*
X135647295Y-79535714D02*
X135790152Y-79535714D01*
X135790152Y-79535714D02*
X135885390Y-79583333D01*
X135885390Y-79583333D02*
X135933009Y-79630952D01*
X135933009Y-79630952D02*
X135980628Y-79726190D01*
X135980628Y-79726190D02*
X135980628Y-80107142D01*
X135456819Y-79202380D02*
X135456819Y-78535714D01*
X135456819Y-78535714D02*
X136456819Y-78964285D01*
X162986233Y-150122380D02*
X162986233Y-149408095D01*
X162986233Y-149408095D02*
X163033852Y-149265238D01*
X163033852Y-149265238D02*
X163129090Y-149170000D01*
X163129090Y-149170000D02*
X163271947Y-149122380D01*
X163271947Y-149122380D02*
X163367185Y-149122380D01*
X161986233Y-149122380D02*
X162557661Y-149122380D01*
X162271947Y-149122380D02*
X162271947Y-150122380D01*
X162271947Y-150122380D02*
X162367185Y-149979523D01*
X162367185Y-149979523D02*
X162462423Y-149884285D01*
X162462423Y-149884285D02*
X162557661Y-149836666D01*
D12*
%TO.C,J2*%
X181235901Y-143107418D02*
G75*
G02*
X180473901Y-143107418I-381000J0D01*
G01*
X180473901Y-143107418D02*
G75*
G02*
X181235901Y-143107418I381000J0D01*
G01*
D13*
X191831900Y-134620100D02*
X191831900Y-155879900D01*
X191831900Y-155879900D02*
X178877900Y-155879900D01*
X178877900Y-155879900D02*
X178877900Y-134620100D01*
X178877900Y-134620100D02*
X191831900Y-134620100D01*
D14*
%TO.C,U1*%
X162020000Y-86735000D02*
X172300000Y-86735000D01*
X172300000Y-86735000D02*
X172300000Y-81435000D01*
X162020000Y-85085000D02*
X162020000Y-86735000D01*
X162020000Y-81435000D02*
X162020000Y-83085000D01*
X172300000Y-81435000D02*
X162020000Y-81435000D01*
X162020000Y-83085000D02*
G75*
G02*
X162020000Y-85085000I0J-1000000D01*
G01*
%TO.C,U2*%
X191312500Y-89340000D02*
X190832500Y-89340000D01*
X191072500Y-89010000D01*
X191312500Y-89340000D01*
G36*
X191312500Y-89340000D02*
G01*
X190832500Y-89340000D01*
X191072500Y-89010000D01*
X191312500Y-89340000D01*
G37*
X189772500Y-85940000D02*
X188972500Y-85940000D01*
X189772500Y-85940000D02*
X190572500Y-85940000D01*
X189772500Y-89060000D02*
X188972500Y-89060000D01*
X189772500Y-89060000D02*
X190572500Y-89060000D01*
%TO.C,R17*%
X189870000Y-81250000D02*
X189100000Y-81250000D01*
X181790000Y-81250000D02*
X182560000Y-81250000D01*
X189100000Y-82620000D02*
X182560000Y-82620000D01*
X182560000Y-79880000D01*
X189100000Y-79880000D01*
X189100000Y-82620000D01*
%TO.C,R5*%
X162470000Y-89080000D02*
X172610000Y-89080000D01*
X172610000Y-92920000D01*
X162470000Y-92920000D01*
X162470000Y-89080000D01*
X173720000Y-91000000D02*
X172610000Y-91000000D01*
X161360000Y-91000000D02*
X162470000Y-91000000D01*
%TO.C,R25*%
X182560000Y-89380000D02*
X189100000Y-89380000D01*
X189100000Y-92120000D01*
X182560000Y-92120000D01*
X182560000Y-89380000D01*
X189870000Y-90750000D02*
X189100000Y-90750000D01*
X181790000Y-90750000D02*
X182560000Y-90750000D01*
%TO.C,R18*%
X189100000Y-85620000D02*
X182560000Y-85620000D01*
X182560000Y-82880000D01*
X189100000Y-82880000D01*
X189100000Y-85620000D01*
X181790000Y-84250000D02*
X182560000Y-84250000D01*
X189870000Y-84250000D02*
X189100000Y-84250000D01*
%TO.C,C12*%
X175340000Y-82775000D02*
X175340000Y-88015000D01*
X175003000Y-82775000D02*
X175340000Y-82775000D01*
X172600000Y-82775000D02*
X172937000Y-82775000D01*
X175340000Y-88015000D02*
X175003000Y-88015000D01*
X172937000Y-88015000D02*
X172600000Y-88015000D01*
X172600000Y-88015000D02*
X172600000Y-82775000D01*
%TO.C,R9*%
X155540000Y-88600000D02*
X158280000Y-88600000D01*
X158280000Y-82060000D01*
X155540000Y-82060000D01*
X155540000Y-88600000D01*
X156910000Y-81290000D02*
X156910000Y-82060000D01*
X156910000Y-89370000D02*
X156910000Y-88600000D01*
%TO.C,C13*%
X180630000Y-86130000D02*
X185870000Y-86130000D01*
X180630000Y-86467000D02*
X180630000Y-86130000D01*
X180630000Y-88870000D02*
X180630000Y-88533000D01*
X185870000Y-86130000D02*
X185870000Y-86467000D01*
X185870000Y-88533000D02*
X185870000Y-88870000D01*
X185870000Y-88870000D02*
X180630000Y-88870000D01*
%TO.C,R1*%
X155280000Y-82060000D02*
X152540000Y-82060000D01*
X152540000Y-88600000D01*
X155280000Y-88600000D01*
X155280000Y-82060000D01*
X153910000Y-89370000D02*
X153910000Y-88600000D01*
X153910000Y-81290000D02*
X153910000Y-82060000D01*
%TO.C,C11*%
X161530000Y-81470000D02*
X161530000Y-86710000D01*
X161193000Y-81470000D02*
X161530000Y-81470000D01*
X158790000Y-81470000D02*
X159127000Y-81470000D01*
X161530000Y-86710000D02*
X161193000Y-86710000D01*
X159127000Y-86710000D02*
X158790000Y-86710000D01*
X158790000Y-86710000D02*
X158790000Y-81470000D01*
%TO.C,R13*%
X178160000Y-81630000D02*
X178160000Y-82400000D01*
X178160000Y-89710000D02*
X178160000Y-88940000D01*
X179530000Y-82400000D02*
X176790000Y-82400000D01*
X176790000Y-88940000D01*
X179530000Y-88940000D01*
X179530000Y-82400000D01*
%TO.C,U10*%
X133560000Y-114920000D02*
X133560000Y-114650000D01*
X133560000Y-108020000D02*
X133560000Y-108290000D01*
X127140000Y-114920000D02*
X133560000Y-114920000D01*
X127140000Y-108020000D02*
X133560000Y-108020000D01*
X135630000Y-115080000D02*
X134950000Y-115080000D01*
X135290000Y-114610000D01*
X135630000Y-115080000D01*
G36*
X135630000Y-115080000D02*
G01*
X134950000Y-115080000D01*
X135290000Y-114610000D01*
X135630000Y-115080000D01*
G37*
%TO.C,C10*%
X140480199Y-107995000D02*
X140880199Y-107995000D01*
X140680199Y-107795000D02*
X140680199Y-108195000D01*
X142750000Y-107110000D02*
X142750000Y-111270000D01*
X142790000Y-107110000D02*
X142790000Y-111270000D01*
X142830000Y-107112000D02*
X142830000Y-111268000D01*
X142870000Y-107113000D02*
X142870000Y-111267000D01*
X142910000Y-107116000D02*
X142910000Y-111264000D01*
X142950000Y-107119000D02*
X142950000Y-108350000D01*
X142950000Y-110030000D02*
X142950000Y-111261000D01*
X142990000Y-107124000D02*
X142990000Y-108350000D01*
X142990000Y-110030000D02*
X142990000Y-111256000D01*
X143030000Y-107129000D02*
X143030000Y-108350000D01*
X143030000Y-110030000D02*
X143030000Y-111251000D01*
X143070000Y-107134000D02*
X143070000Y-108350000D01*
X143070000Y-110030000D02*
X143070000Y-111246000D01*
X143110000Y-107141000D02*
X143110000Y-108350000D01*
X143110000Y-110030000D02*
X143110000Y-111239000D01*
X143150000Y-107148000D02*
X143150000Y-108350000D01*
X143150000Y-110030000D02*
X143150000Y-111232000D01*
X143190000Y-107156000D02*
X143190000Y-108350000D01*
X143190000Y-110030000D02*
X143190000Y-111224000D01*
X143230000Y-107165000D02*
X143230000Y-108350000D01*
X143230000Y-110030000D02*
X143230000Y-111215000D01*
X143270000Y-107175000D02*
X143270000Y-108350000D01*
X143270000Y-110030000D02*
X143270000Y-111205000D01*
X143310000Y-107185000D02*
X143310000Y-108350000D01*
X143310000Y-110030000D02*
X143310000Y-111195000D01*
X143350000Y-107197000D02*
X143350000Y-108350000D01*
X143350000Y-110030000D02*
X143350000Y-111183000D01*
X143390000Y-107209000D02*
X143390000Y-108350000D01*
X143390000Y-110030000D02*
X143390000Y-111171000D01*
X143430000Y-107222000D02*
X143430000Y-108350000D01*
X143430000Y-110030000D02*
X143430000Y-111158000D01*
X143470000Y-107236000D02*
X143470000Y-108350000D01*
X143470000Y-110030000D02*
X143470000Y-111144000D01*
X143510000Y-107251000D02*
X143510000Y-108350000D01*
X143510000Y-110030000D02*
X143510000Y-111129000D01*
X143550000Y-107267000D02*
X143550000Y-108350000D01*
X143550000Y-110030000D02*
X143550000Y-111113000D01*
X143590000Y-107284000D02*
X143590000Y-108350000D01*
X143590000Y-110030000D02*
X143590000Y-111096000D01*
X143630000Y-107301000D02*
X143630000Y-108350000D01*
X143630000Y-110030000D02*
X143630000Y-111079000D01*
X143670000Y-107320000D02*
X143670000Y-108350000D01*
X143670000Y-110030000D02*
X143670000Y-111060000D01*
X143710000Y-107340000D02*
X143710000Y-108350000D01*
X143710000Y-110030000D02*
X143710000Y-111040000D01*
X143750000Y-107361000D02*
X143750000Y-108350000D01*
X143750000Y-110030000D02*
X143750000Y-111019000D01*
X143790000Y-107383000D02*
X143790000Y-108350000D01*
X143790000Y-110030000D02*
X143790000Y-110997000D01*
X143830000Y-107406000D02*
X143830000Y-108350000D01*
X143830000Y-110030000D02*
X143830000Y-110974000D01*
X143870000Y-107430000D02*
X143870000Y-108350000D01*
X143870000Y-110030000D02*
X143870000Y-110950000D01*
X143910000Y-107456000D02*
X143910000Y-108350000D01*
X143910000Y-110030000D02*
X143910000Y-110924000D01*
X143950000Y-107482000D02*
X143950000Y-108350000D01*
X143950000Y-110030000D02*
X143950000Y-110898000D01*
X143990000Y-107510000D02*
X143990000Y-108350000D01*
X143990000Y-110030000D02*
X143990000Y-110870000D01*
X144030000Y-107540000D02*
X144030000Y-108350000D01*
X144030000Y-110030000D02*
X144030000Y-110840000D01*
X144070000Y-107571000D02*
X144070000Y-108350000D01*
X144070000Y-110030000D02*
X144070000Y-110809000D01*
X144110000Y-107604000D02*
X144110000Y-108350000D01*
X144110000Y-110030000D02*
X144110000Y-110776000D01*
X144150000Y-107638000D02*
X144150000Y-108350000D01*
X144150000Y-110030000D02*
X144150000Y-110742000D01*
X144190000Y-107674000D02*
X144190000Y-108350000D01*
X144190000Y-110030000D02*
X144190000Y-110706000D01*
X144230000Y-107712000D02*
X144230000Y-108350000D01*
X144230000Y-110030000D02*
X144230000Y-110668000D01*
X144270000Y-107752000D02*
X144270000Y-108350000D01*
X144270000Y-110030000D02*
X144270000Y-110628000D01*
X144310000Y-107794000D02*
X144310000Y-108350000D01*
X144310000Y-110030000D02*
X144310000Y-110586000D01*
X144350000Y-107839000D02*
X144350000Y-108350000D01*
X144350000Y-110030000D02*
X144350000Y-110541000D01*
X144390000Y-107887000D02*
X144390000Y-108350000D01*
X144390000Y-110030000D02*
X144390000Y-110493000D01*
X144430000Y-107937000D02*
X144430000Y-108350000D01*
X144430000Y-110030000D02*
X144430000Y-110443000D01*
X144470000Y-107991000D02*
X144470000Y-108350000D01*
X144470000Y-110030000D02*
X144470000Y-110389000D01*
X144510000Y-108048000D02*
X144510000Y-108350000D01*
X144510000Y-110030000D02*
X144510000Y-110332000D01*
X144550000Y-108110000D02*
X144550000Y-108350000D01*
X144550000Y-110030000D02*
X144550000Y-110270000D01*
X144590000Y-108177000D02*
X144590000Y-110203000D01*
X144630000Y-108250000D02*
X144630000Y-110130000D01*
X144670000Y-108331000D02*
X144670000Y-110049000D01*
X144710000Y-108422000D02*
X144710000Y-109958000D01*
X144750000Y-108527000D02*
X144750000Y-109853000D01*
X144790000Y-108653000D02*
X144790000Y-109727000D01*
X144830000Y-108820000D02*
X144830000Y-109560000D01*
X144870000Y-109190000D02*
G75*
G02*
X140630000Y-109190000I-2120000J0D01*
G01*
X140630000Y-109190000D02*
G75*
G02*
X144870000Y-109190000I2120000J0D01*
G01*
%TO.C,C9*%
X142370000Y-113750000D02*
G75*
G02*
X137130000Y-113750000I-2620000J0D01*
G01*
X137130000Y-113750000D02*
G75*
G02*
X142370000Y-113750000I2620000J0D01*
G01*
X142350000Y-113467000D02*
X142350000Y-114033000D01*
X142310000Y-113233000D02*
X142310000Y-114267000D01*
X142270000Y-113073000D02*
X142270000Y-114427000D01*
X142230000Y-112945000D02*
X142230000Y-114555000D01*
X142190000Y-112836000D02*
X142190000Y-114664000D01*
X142150000Y-112739000D02*
X142150000Y-114761000D01*
X142110000Y-112652000D02*
X142110000Y-114848000D01*
X142070000Y-112573000D02*
X142070000Y-114927000D01*
X142030000Y-112499000D02*
X142030000Y-115001000D01*
X141990000Y-112431000D02*
X141990000Y-115069000D01*
X141950000Y-112367000D02*
X141950000Y-115133000D01*
X141910000Y-112307000D02*
X141910000Y-115193000D01*
X141870000Y-112251000D02*
X141870000Y-115249000D01*
X141830000Y-112197000D02*
X141830000Y-115303000D01*
X141790000Y-112146000D02*
X141790000Y-115354000D01*
X141750000Y-114790000D02*
X141750000Y-115402000D01*
X141750000Y-112098000D02*
X141750000Y-112710000D01*
X141710000Y-114790000D02*
X141710000Y-115449000D01*
X141710000Y-112051000D02*
X141710000Y-112710000D01*
X141670000Y-114790000D02*
X141670000Y-115493000D01*
X141670000Y-112007000D02*
X141670000Y-112710000D01*
X141630000Y-114790000D02*
X141630000Y-115535000D01*
X141630000Y-111965000D02*
X141630000Y-112710000D01*
X141590000Y-114790000D02*
X141590000Y-115575000D01*
X141590000Y-111925000D02*
X141590000Y-112710000D01*
X141550000Y-114790000D02*
X141550000Y-115614000D01*
X141550000Y-111886000D02*
X141550000Y-112710000D01*
X141510000Y-114790000D02*
X141510000Y-115651000D01*
X141510000Y-111849000D02*
X141510000Y-112710000D01*
X141470000Y-114790000D02*
X141470000Y-115686000D01*
X141470000Y-111814000D02*
X141470000Y-112710000D01*
X141430000Y-114790000D02*
X141430000Y-115720000D01*
X141430000Y-111780000D02*
X141430000Y-112710000D01*
X141390000Y-114790000D02*
X141390000Y-115753000D01*
X141390000Y-111747000D02*
X141390000Y-112710000D01*
X141350000Y-114790000D02*
X141350000Y-115785000D01*
X141350000Y-111715000D02*
X141350000Y-112710000D01*
X141310000Y-114790000D02*
X141310000Y-115815000D01*
X141310000Y-111685000D02*
X141310000Y-112710000D01*
X141270000Y-114790000D02*
X141270000Y-115844000D01*
X141270000Y-111656000D02*
X141270000Y-112710000D01*
X141230000Y-114790000D02*
X141230000Y-115872000D01*
X141230000Y-111628000D02*
X141230000Y-112710000D01*
X141190000Y-114790000D02*
X141190000Y-115899000D01*
X141190000Y-111601000D02*
X141190000Y-112710000D01*
X141150000Y-114790000D02*
X141150000Y-115925000D01*
X141150000Y-111575000D02*
X141150000Y-112710000D01*
X141110000Y-114790000D02*
X141110000Y-115949000D01*
X141110000Y-111551000D02*
X141110000Y-112710000D01*
X141070000Y-114790000D02*
X141070000Y-115973000D01*
X141070000Y-111527000D02*
X141070000Y-112710000D01*
X141030000Y-114790000D02*
X141030000Y-115996000D01*
X141030000Y-111504000D02*
X141030000Y-112710000D01*
X140990000Y-114790000D02*
X140990000Y-116018000D01*
X140990000Y-111482000D02*
X140990000Y-112710000D01*
X140950000Y-114790000D02*
X140950000Y-116039000D01*
X140950000Y-111461000D02*
X140950000Y-112710000D01*
X140910000Y-114790000D02*
X140910000Y-116059000D01*
X140910000Y-111441000D02*
X140910000Y-112710000D01*
X140870000Y-114790000D02*
X140870000Y-116079000D01*
X140870000Y-111421000D02*
X140870000Y-112710000D01*
X140830000Y-114790000D02*
X140830000Y-116097000D01*
X140830000Y-111403000D02*
X140830000Y-112710000D01*
X140790000Y-114790000D02*
X140790000Y-116115000D01*
X140790000Y-111385000D02*
X140790000Y-112710000D01*
X140750000Y-114790000D02*
X140750000Y-116132000D01*
X140750000Y-111368000D02*
X140750000Y-112710000D01*
X140710000Y-114790000D02*
X140710000Y-116148000D01*
X140710000Y-111352000D02*
X140710000Y-112710000D01*
X140670000Y-114790000D02*
X140670000Y-116163000D01*
X140670000Y-111337000D02*
X140670000Y-112710000D01*
X140630000Y-114790000D02*
X140630000Y-116178000D01*
X140630000Y-111322000D02*
X140630000Y-112710000D01*
X140590000Y-114790000D02*
X140590000Y-116192000D01*
X140590000Y-111308000D02*
X140590000Y-112710000D01*
X140550000Y-114790000D02*
X140550000Y-116205000D01*
X140550000Y-111295000D02*
X140550000Y-112710000D01*
X140510000Y-114790000D02*
X140510000Y-116217000D01*
X140510000Y-111283000D02*
X140510000Y-112710000D01*
X140470000Y-114790000D02*
X140470000Y-116229000D01*
X140470000Y-111271000D02*
X140470000Y-112710000D01*
X140430000Y-114790000D02*
X140430000Y-116240000D01*
X140430000Y-111260000D02*
X140430000Y-112710000D01*
X140390000Y-114790000D02*
X140390000Y-116251000D01*
X140390000Y-111249000D02*
X140390000Y-112710000D01*
X140350000Y-114790000D02*
X140350000Y-116260000D01*
X140350000Y-111240000D02*
X140350000Y-112710000D01*
X140310000Y-114790000D02*
X140310000Y-116269000D01*
X140310000Y-111231000D02*
X140310000Y-112710000D01*
X140270000Y-114790000D02*
X140270000Y-116278000D01*
X140270000Y-111222000D02*
X140270000Y-112710000D01*
X140230000Y-114790000D02*
X140230000Y-116286000D01*
X140230000Y-111214000D02*
X140230000Y-112710000D01*
X140190000Y-114790000D02*
X140190000Y-116293000D01*
X140190000Y-111207000D02*
X140190000Y-112710000D01*
X140150000Y-114790000D02*
X140150000Y-116299000D01*
X140150000Y-111201000D02*
X140150000Y-112710000D01*
X140110000Y-114790000D02*
X140110000Y-116305000D01*
X140110000Y-111195000D02*
X140110000Y-112710000D01*
X140070000Y-114790000D02*
X140070000Y-116310000D01*
X140070000Y-111190000D02*
X140070000Y-112710000D01*
X140030000Y-114790000D02*
X140030000Y-116315000D01*
X140030000Y-111185000D02*
X140030000Y-112710000D01*
X139990000Y-114790000D02*
X139990000Y-116319000D01*
X139990000Y-111181000D02*
X139990000Y-112710000D01*
X139950000Y-114790000D02*
X139950000Y-116322000D01*
X139950000Y-111178000D02*
X139950000Y-112710000D01*
X139910000Y-114790000D02*
X139910000Y-116325000D01*
X139910000Y-111175000D02*
X139910000Y-112710000D01*
X139870000Y-114790000D02*
X139870000Y-116327000D01*
X139870000Y-111173000D02*
X139870000Y-112710000D01*
X139830000Y-114790000D02*
X139830000Y-116329000D01*
X139830000Y-111171000D02*
X139830000Y-112710000D01*
X139790000Y-114790000D02*
X139790000Y-116330000D01*
X139790000Y-111170000D02*
X139790000Y-112710000D01*
X139750000Y-114790000D02*
X139750000Y-116330000D01*
X139750000Y-111170000D02*
X139750000Y-112710000D01*
X137195225Y-112025000D02*
X137195225Y-112525000D01*
X136945225Y-112275000D02*
X137445225Y-112275000D01*
%TO.C,U9*%
X135630000Y-124390000D02*
X134950000Y-124390000D01*
X135290000Y-123920000D01*
X135630000Y-124390000D01*
G36*
X135630000Y-124390000D02*
G01*
X134950000Y-124390000D01*
X135290000Y-123920000D01*
X135630000Y-124390000D01*
G37*
X127140000Y-117330000D02*
X133560000Y-117330000D01*
X127140000Y-124230000D02*
X133560000Y-124230000D01*
X133560000Y-117330000D02*
X133560000Y-117600000D01*
X133560000Y-124230000D02*
X133560000Y-123960000D01*
%TO.C,C7*%
X143870000Y-124430000D02*
X138630000Y-124430000D01*
X143870000Y-124093000D02*
X143870000Y-124430000D01*
X143870000Y-121690000D02*
X143870000Y-122027000D01*
X138630000Y-124430000D02*
X138630000Y-124093000D01*
X138630000Y-122027000D02*
X138630000Y-121690000D01*
X138630000Y-121690000D02*
X143870000Y-121690000D01*
%TO.C,C8*%
X143870000Y-119870000D02*
X138630000Y-119870000D01*
X143870000Y-119533000D02*
X143870000Y-119870000D01*
X143870000Y-117130000D02*
X143870000Y-117467000D01*
X138630000Y-119870000D02*
X138630000Y-119533000D01*
X138630000Y-117467000D02*
X138630000Y-117130000D01*
X138630000Y-117130000D02*
X143870000Y-117130000D01*
%TO.C,R31*%
X138000000Y-103720000D02*
X138000000Y-101070000D01*
X138000000Y-86280000D02*
X138000000Y-88930000D01*
X135630000Y-101070000D02*
X140370000Y-101070000D01*
X140370000Y-88930000D01*
X135630000Y-88930000D01*
X135630000Y-101070000D01*
%TO.C,R29*%
X127960000Y-103720000D02*
X127960000Y-101070000D01*
X127960000Y-86280000D02*
X127960000Y-88930000D01*
X125590000Y-101070000D02*
X130330000Y-101070000D01*
X130330000Y-88930000D01*
X125590000Y-88930000D01*
X125590000Y-101070000D01*
%TO.C,R30*%
X133000000Y-103720000D02*
X133000000Y-101070000D01*
X133000000Y-86280000D02*
X133000000Y-88930000D01*
X130630000Y-101070000D02*
X135370000Y-101070000D01*
X135370000Y-88930000D01*
X130630000Y-88930000D01*
X130630000Y-101070000D01*
%TO.C,R32*%
X143000000Y-103720000D02*
X143000000Y-101070000D01*
X143000000Y-86280000D02*
X143000000Y-88930000D01*
X140630000Y-101070000D02*
X145370000Y-101070000D01*
X145370000Y-88930000D01*
X140630000Y-88930000D01*
X140630000Y-101070000D01*
%TO.C,L2*%
X124402380Y-107500000D02*
G75*
G02*
X115462380Y-107500000I-4470000J0D01*
G01*
X115462380Y-107500000D02*
G75*
G02*
X124402380Y-107500000I4470000J0D01*
G01*
%TO.C,L1*%
X113152380Y-107500000D02*
G75*
G02*
X104212380Y-107500000I-4470000J0D01*
G01*
X104212380Y-107500000D02*
G75*
G02*
X113152380Y-107500000I4470000J0D01*
G01*
%TO.C,C5*%
X113432621Y-96839000D02*
X112802621Y-96839000D01*
X113117621Y-97154000D02*
X113117621Y-96524000D01*
X109932380Y-98230000D02*
X109932380Y-91770000D01*
X109892380Y-98230000D02*
X109892380Y-91770000D01*
X109852380Y-98229000D02*
X109852380Y-91771000D01*
X109812380Y-98228000D02*
X109812380Y-91772000D01*
X109772380Y-98226000D02*
X109772380Y-91774000D01*
X109732380Y-98224000D02*
X109732380Y-91776000D01*
X109692380Y-98221000D02*
X109692380Y-96040000D01*
X109692380Y-93960000D02*
X109692380Y-91779000D01*
X109652380Y-98218000D02*
X109652380Y-96040000D01*
X109652380Y-93960000D02*
X109652380Y-91782000D01*
X109612380Y-98214000D02*
X109612380Y-96040000D01*
X109612380Y-93960000D02*
X109612380Y-91786000D01*
X109572380Y-98210000D02*
X109572380Y-96040000D01*
X109572380Y-93960000D02*
X109572380Y-91790000D01*
X109532380Y-98205000D02*
X109532380Y-96040000D01*
X109532380Y-93960000D02*
X109532380Y-91795000D01*
X109492380Y-98200000D02*
X109492380Y-96040000D01*
X109492380Y-93960000D02*
X109492380Y-91800000D01*
X109452380Y-98195000D02*
X109452380Y-96040000D01*
X109452380Y-93960000D02*
X109452380Y-91805000D01*
X109412380Y-98188000D02*
X109412380Y-96040000D01*
X109412380Y-93960000D02*
X109412380Y-91812000D01*
X109372380Y-98182000D02*
X109372380Y-96040000D01*
X109372380Y-93960000D02*
X109372380Y-91818000D01*
X109332380Y-98174000D02*
X109332380Y-96040000D01*
X109332380Y-93960000D02*
X109332380Y-91826000D01*
X109292380Y-98167000D02*
X109292380Y-96040000D01*
X109292380Y-93960000D02*
X109292380Y-91833000D01*
X109252380Y-98159000D02*
X109252380Y-96040000D01*
X109252380Y-93960000D02*
X109252380Y-91841000D01*
X109212380Y-98150000D02*
X109212380Y-96040000D01*
X109212380Y-93960000D02*
X109212380Y-91850000D01*
X109172380Y-98140000D02*
X109172380Y-96040000D01*
X109172380Y-93960000D02*
X109172380Y-91860000D01*
X109132380Y-98131000D02*
X109132380Y-96040000D01*
X109132380Y-93960000D02*
X109132380Y-91869000D01*
X109092380Y-98120000D02*
X109092380Y-96040000D01*
X109092380Y-93960000D02*
X109092380Y-91880000D01*
X109052380Y-98109000D02*
X109052380Y-96040000D01*
X109052380Y-93960000D02*
X109052380Y-91891000D01*
X109012380Y-98098000D02*
X109012380Y-96040000D01*
X109012380Y-93960000D02*
X109012380Y-91902000D01*
X108972380Y-98086000D02*
X108972380Y-96040000D01*
X108972380Y-93960000D02*
X108972380Y-91914000D01*
X108932380Y-98073000D02*
X108932380Y-96040000D01*
X108932380Y-93960000D02*
X108932380Y-91927000D01*
X108892380Y-98060000D02*
X108892380Y-96040000D01*
X108892380Y-93960000D02*
X108892380Y-91940000D01*
X108852380Y-98047000D02*
X108852380Y-96040000D01*
X108852380Y-93960000D02*
X108852380Y-91953000D01*
X108812380Y-98032000D02*
X108812380Y-96040000D01*
X108812380Y-93960000D02*
X108812380Y-91968000D01*
X108772380Y-98017000D02*
X108772380Y-96040000D01*
X108772380Y-93960000D02*
X108772380Y-91983000D01*
X108732380Y-98002000D02*
X108732380Y-96040000D01*
X108732380Y-93960000D02*
X108732380Y-91998000D01*
X108692380Y-97986000D02*
X108692380Y-96040000D01*
X108692380Y-93960000D02*
X108692380Y-92014000D01*
X108652380Y-97969000D02*
X108652380Y-96040000D01*
X108652380Y-93960000D02*
X108652380Y-92031000D01*
X108612380Y-97952000D02*
X108612380Y-96040000D01*
X108612380Y-93960000D02*
X108612380Y-92048000D01*
X108572380Y-97934000D02*
X108572380Y-96040000D01*
X108572380Y-93960000D02*
X108572380Y-92066000D01*
X108532380Y-97915000D02*
X108532380Y-96040000D01*
X108532380Y-93960000D02*
X108532380Y-92085000D01*
X108492380Y-97896000D02*
X108492380Y-96040000D01*
X108492380Y-93960000D02*
X108492380Y-92104000D01*
X108452380Y-97876000D02*
X108452380Y-96040000D01*
X108452380Y-93960000D02*
X108452380Y-92124000D01*
X108412380Y-97855000D02*
X108412380Y-96040000D01*
X108412380Y-93960000D02*
X108412380Y-92145000D01*
X108372380Y-97834000D02*
X108372380Y-96040000D01*
X108372380Y-93960000D02*
X108372380Y-92166000D01*
X108332380Y-97812000D02*
X108332380Y-96040000D01*
X108332380Y-93960000D02*
X108332380Y-92188000D01*
X108292380Y-97789000D02*
X108292380Y-96040000D01*
X108292380Y-93960000D02*
X108292380Y-92211000D01*
X108252380Y-97765000D02*
X108252380Y-96040000D01*
X108252380Y-93960000D02*
X108252380Y-92235000D01*
X108212380Y-97741000D02*
X108212380Y-96040000D01*
X108212380Y-93960000D02*
X108212380Y-92259000D01*
X108172380Y-97716000D02*
X108172380Y-96040000D01*
X108172380Y-93960000D02*
X108172380Y-92284000D01*
X108132380Y-97690000D02*
X108132380Y-96040000D01*
X108132380Y-93960000D02*
X108132380Y-92310000D01*
X108092380Y-97663000D02*
X108092380Y-96040000D01*
X108092380Y-93960000D02*
X108092380Y-92337000D01*
X108052380Y-97636000D02*
X108052380Y-96040000D01*
X108052380Y-93960000D02*
X108052380Y-92364000D01*
X108012380Y-97607000D02*
X108012380Y-96040000D01*
X108012380Y-93960000D02*
X108012380Y-92393000D01*
X107972380Y-97577000D02*
X107972380Y-96040000D01*
X107972380Y-93960000D02*
X107972380Y-92423000D01*
X107932380Y-97547000D02*
X107932380Y-96040000D01*
X107932380Y-93960000D02*
X107932380Y-92453000D01*
X107892380Y-97516000D02*
X107892380Y-96040000D01*
X107892380Y-93960000D02*
X107892380Y-92484000D01*
X107852380Y-97483000D02*
X107852380Y-96040000D01*
X107852380Y-93960000D02*
X107852380Y-92517000D01*
X107812380Y-97450000D02*
X107812380Y-96040000D01*
X107812380Y-93960000D02*
X107812380Y-92550000D01*
X107772380Y-97415000D02*
X107772380Y-96040000D01*
X107772380Y-93960000D02*
X107772380Y-92585000D01*
X107732380Y-97379000D02*
X107732380Y-96040000D01*
X107732380Y-93960000D02*
X107732380Y-92621000D01*
X107692380Y-97342000D02*
X107692380Y-96040000D01*
X107692380Y-93960000D02*
X107692380Y-92658000D01*
X107652380Y-97304000D02*
X107652380Y-96040000D01*
X107652380Y-93960000D02*
X107652380Y-92696000D01*
X107612380Y-97264000D02*
X107612380Y-92736000D01*
X107572380Y-97223000D02*
X107572380Y-92777000D01*
X107532380Y-97181000D02*
X107532380Y-92819000D01*
X107492380Y-97137000D02*
X107492380Y-92863000D01*
X107452380Y-97091000D02*
X107452380Y-92909000D01*
X107412380Y-97044000D02*
X107412380Y-92956000D01*
X107372380Y-96995000D02*
X107372380Y-93005000D01*
X107332380Y-96943000D02*
X107332380Y-93057000D01*
X107292380Y-96890000D02*
X107292380Y-93110000D01*
X107252380Y-96834000D02*
X107252380Y-93166000D01*
X107212380Y-96775000D02*
X107212380Y-93225000D01*
X107172380Y-96714000D02*
X107172380Y-93286000D01*
X107132380Y-96649000D02*
X107132380Y-93351000D01*
X107092380Y-96581000D02*
X107092380Y-93419000D01*
X107052380Y-96509000D02*
X107052380Y-93491000D01*
X107012380Y-96432000D02*
X107012380Y-93568000D01*
X106972380Y-96350000D02*
X106972380Y-93650000D01*
X106932380Y-96261000D02*
X106932380Y-93739000D01*
X106892380Y-96165000D02*
X106892380Y-93835000D01*
X106852380Y-96058000D02*
X106852380Y-93942000D01*
X106812380Y-95939000D02*
X106812380Y-94061000D01*
X106772380Y-95801000D02*
X106772380Y-94199000D01*
X106732380Y-95633000D02*
X106732380Y-94367000D01*
X106692380Y-95402000D02*
X106692380Y-94598000D01*
X113202380Y-95000000D02*
G75*
G02*
X106662380Y-95000000I-3270000J0D01*
G01*
X106662380Y-95000000D02*
G75*
G02*
X113202380Y-95000000I3270000J0D01*
G01*
%TO.C,C2*%
X122182621Y-96839000D02*
X121552621Y-96839000D01*
X121867621Y-97154000D02*
X121867621Y-96524000D01*
X118682380Y-98230000D02*
X118682380Y-91770000D01*
X118642380Y-98230000D02*
X118642380Y-91770000D01*
X118602380Y-98229000D02*
X118602380Y-91771000D01*
X118562380Y-98228000D02*
X118562380Y-91772000D01*
X118522380Y-98226000D02*
X118522380Y-91774000D01*
X118482380Y-98224000D02*
X118482380Y-91776000D01*
X118442380Y-98221000D02*
X118442380Y-96040000D01*
X118442380Y-93960000D02*
X118442380Y-91779000D01*
X118402380Y-98218000D02*
X118402380Y-96040000D01*
X118402380Y-93960000D02*
X118402380Y-91782000D01*
X118362380Y-98214000D02*
X118362380Y-96040000D01*
X118362380Y-93960000D02*
X118362380Y-91786000D01*
X118322380Y-98210000D02*
X118322380Y-96040000D01*
X118322380Y-93960000D02*
X118322380Y-91790000D01*
X118282380Y-98205000D02*
X118282380Y-96040000D01*
X118282380Y-93960000D02*
X118282380Y-91795000D01*
X118242380Y-98200000D02*
X118242380Y-96040000D01*
X118242380Y-93960000D02*
X118242380Y-91800000D01*
X118202380Y-98195000D02*
X118202380Y-96040000D01*
X118202380Y-93960000D02*
X118202380Y-91805000D01*
X118162380Y-98188000D02*
X118162380Y-96040000D01*
X118162380Y-93960000D02*
X118162380Y-91812000D01*
X118122380Y-98182000D02*
X118122380Y-96040000D01*
X118122380Y-93960000D02*
X118122380Y-91818000D01*
X118082380Y-98174000D02*
X118082380Y-96040000D01*
X118082380Y-93960000D02*
X118082380Y-91826000D01*
X118042380Y-98167000D02*
X118042380Y-96040000D01*
X118042380Y-93960000D02*
X118042380Y-91833000D01*
X118002380Y-98159000D02*
X118002380Y-96040000D01*
X118002380Y-93960000D02*
X118002380Y-91841000D01*
X117962380Y-98150000D02*
X117962380Y-96040000D01*
X117962380Y-93960000D02*
X117962380Y-91850000D01*
X117922380Y-98140000D02*
X117922380Y-96040000D01*
X117922380Y-93960000D02*
X117922380Y-91860000D01*
X117882380Y-98131000D02*
X117882380Y-96040000D01*
X117882380Y-93960000D02*
X117882380Y-91869000D01*
X117842380Y-98120000D02*
X117842380Y-96040000D01*
X117842380Y-93960000D02*
X117842380Y-91880000D01*
X117802380Y-98109000D02*
X117802380Y-96040000D01*
X117802380Y-93960000D02*
X117802380Y-91891000D01*
X117762380Y-98098000D02*
X117762380Y-96040000D01*
X117762380Y-93960000D02*
X117762380Y-91902000D01*
X117722380Y-98086000D02*
X117722380Y-96040000D01*
X117722380Y-93960000D02*
X117722380Y-91914000D01*
X117682380Y-98073000D02*
X117682380Y-96040000D01*
X117682380Y-93960000D02*
X117682380Y-91927000D01*
X117642380Y-98060000D02*
X117642380Y-96040000D01*
X117642380Y-93960000D02*
X117642380Y-91940000D01*
X117602380Y-98047000D02*
X117602380Y-96040000D01*
X117602380Y-93960000D02*
X117602380Y-91953000D01*
X117562380Y-98032000D02*
X117562380Y-96040000D01*
X117562380Y-93960000D02*
X117562380Y-91968000D01*
X117522380Y-98017000D02*
X117522380Y-96040000D01*
X117522380Y-93960000D02*
X117522380Y-91983000D01*
X117482380Y-98002000D02*
X117482380Y-96040000D01*
X117482380Y-93960000D02*
X117482380Y-91998000D01*
X117442380Y-97986000D02*
X117442380Y-96040000D01*
X117442380Y-93960000D02*
X117442380Y-92014000D01*
X117402380Y-97969000D02*
X117402380Y-96040000D01*
X117402380Y-93960000D02*
X117402380Y-92031000D01*
X117362380Y-97952000D02*
X117362380Y-96040000D01*
X117362380Y-93960000D02*
X117362380Y-92048000D01*
X117322380Y-97934000D02*
X117322380Y-96040000D01*
X117322380Y-93960000D02*
X117322380Y-92066000D01*
X117282380Y-97915000D02*
X117282380Y-96040000D01*
X117282380Y-93960000D02*
X117282380Y-92085000D01*
X117242380Y-97896000D02*
X117242380Y-96040000D01*
X117242380Y-93960000D02*
X117242380Y-92104000D01*
X117202380Y-97876000D02*
X117202380Y-96040000D01*
X117202380Y-93960000D02*
X117202380Y-92124000D01*
X117162380Y-97855000D02*
X117162380Y-96040000D01*
X117162380Y-93960000D02*
X117162380Y-92145000D01*
X117122380Y-97834000D02*
X117122380Y-96040000D01*
X117122380Y-93960000D02*
X117122380Y-92166000D01*
X117082380Y-97812000D02*
X117082380Y-96040000D01*
X117082380Y-93960000D02*
X117082380Y-92188000D01*
X117042380Y-97789000D02*
X117042380Y-96040000D01*
X117042380Y-93960000D02*
X117042380Y-92211000D01*
X117002380Y-97765000D02*
X117002380Y-96040000D01*
X117002380Y-93960000D02*
X117002380Y-92235000D01*
X116962380Y-97741000D02*
X116962380Y-96040000D01*
X116962380Y-93960000D02*
X116962380Y-92259000D01*
X116922380Y-97716000D02*
X116922380Y-96040000D01*
X116922380Y-93960000D02*
X116922380Y-92284000D01*
X116882380Y-97690000D02*
X116882380Y-96040000D01*
X116882380Y-93960000D02*
X116882380Y-92310000D01*
X116842380Y-97663000D02*
X116842380Y-96040000D01*
X116842380Y-93960000D02*
X116842380Y-92337000D01*
X116802380Y-97636000D02*
X116802380Y-96040000D01*
X116802380Y-93960000D02*
X116802380Y-92364000D01*
X116762380Y-97607000D02*
X116762380Y-96040000D01*
X116762380Y-93960000D02*
X116762380Y-92393000D01*
X116722380Y-97577000D02*
X116722380Y-96040000D01*
X116722380Y-93960000D02*
X116722380Y-92423000D01*
X116682380Y-97547000D02*
X116682380Y-96040000D01*
X116682380Y-93960000D02*
X116682380Y-92453000D01*
X116642380Y-97516000D02*
X116642380Y-96040000D01*
X116642380Y-93960000D02*
X116642380Y-92484000D01*
X116602380Y-97483000D02*
X116602380Y-96040000D01*
X116602380Y-93960000D02*
X116602380Y-92517000D01*
X116562380Y-97450000D02*
X116562380Y-96040000D01*
X116562380Y-93960000D02*
X116562380Y-92550000D01*
X116522380Y-97415000D02*
X116522380Y-96040000D01*
X116522380Y-93960000D02*
X116522380Y-92585000D01*
X116482380Y-97379000D02*
X116482380Y-96040000D01*
X116482380Y-93960000D02*
X116482380Y-92621000D01*
X116442380Y-97342000D02*
X116442380Y-96040000D01*
X116442380Y-93960000D02*
X116442380Y-92658000D01*
X116402380Y-97304000D02*
X116402380Y-96040000D01*
X116402380Y-93960000D02*
X116402380Y-92696000D01*
X116362380Y-97264000D02*
X116362380Y-92736000D01*
X116322380Y-97223000D02*
X116322380Y-92777000D01*
X116282380Y-97181000D02*
X116282380Y-92819000D01*
X116242380Y-97137000D02*
X116242380Y-92863000D01*
X116202380Y-97091000D02*
X116202380Y-92909000D01*
X116162380Y-97044000D02*
X116162380Y-92956000D01*
X116122380Y-96995000D02*
X116122380Y-93005000D01*
X116082380Y-96943000D02*
X116082380Y-93057000D01*
X116042380Y-96890000D02*
X116042380Y-93110000D01*
X116002380Y-96834000D02*
X116002380Y-93166000D01*
X115962380Y-96775000D02*
X115962380Y-93225000D01*
X115922380Y-96714000D02*
X115922380Y-93286000D01*
X115882380Y-96649000D02*
X115882380Y-93351000D01*
X115842380Y-96581000D02*
X115842380Y-93419000D01*
X115802380Y-96509000D02*
X115802380Y-93491000D01*
X115762380Y-96432000D02*
X115762380Y-93568000D01*
X115722380Y-96350000D02*
X115722380Y-93650000D01*
X115682380Y-96261000D02*
X115682380Y-93739000D01*
X115642380Y-96165000D02*
X115642380Y-93835000D01*
X115602380Y-96058000D02*
X115602380Y-93942000D01*
X115562380Y-95939000D02*
X115562380Y-94061000D01*
X115522380Y-95801000D02*
X115522380Y-94199000D01*
X115482380Y-95633000D02*
X115482380Y-94367000D01*
X115442380Y-95402000D02*
X115442380Y-94598000D01*
X121952380Y-95000000D02*
G75*
G02*
X115412380Y-95000000I-3270000J0D01*
G01*
X115412380Y-95000000D02*
G75*
G02*
X121952380Y-95000000I3270000J0D01*
G01*
%TO.C,C3*%
X122182621Y-86839000D02*
X121552621Y-86839000D01*
X121867621Y-87154000D02*
X121867621Y-86524000D01*
X118682380Y-88230000D02*
X118682380Y-81770000D01*
X118642380Y-88230000D02*
X118642380Y-81770000D01*
X118602380Y-88229000D02*
X118602380Y-81771000D01*
X118562380Y-88228000D02*
X118562380Y-81772000D01*
X118522380Y-88226000D02*
X118522380Y-81774000D01*
X118482380Y-88224000D02*
X118482380Y-81776000D01*
X118442380Y-88221000D02*
X118442380Y-86040000D01*
X118442380Y-83960000D02*
X118442380Y-81779000D01*
X118402380Y-88218000D02*
X118402380Y-86040000D01*
X118402380Y-83960000D02*
X118402380Y-81782000D01*
X118362380Y-88214000D02*
X118362380Y-86040000D01*
X118362380Y-83960000D02*
X118362380Y-81786000D01*
X118322380Y-88210000D02*
X118322380Y-86040000D01*
X118322380Y-83960000D02*
X118322380Y-81790000D01*
X118282380Y-88205000D02*
X118282380Y-86040000D01*
X118282380Y-83960000D02*
X118282380Y-81795000D01*
X118242380Y-88200000D02*
X118242380Y-86040000D01*
X118242380Y-83960000D02*
X118242380Y-81800000D01*
X118202380Y-88195000D02*
X118202380Y-86040000D01*
X118202380Y-83960000D02*
X118202380Y-81805000D01*
X118162380Y-88188000D02*
X118162380Y-86040000D01*
X118162380Y-83960000D02*
X118162380Y-81812000D01*
X118122380Y-88182000D02*
X118122380Y-86040000D01*
X118122380Y-83960000D02*
X118122380Y-81818000D01*
X118082380Y-88174000D02*
X118082380Y-86040000D01*
X118082380Y-83960000D02*
X118082380Y-81826000D01*
X118042380Y-88167000D02*
X118042380Y-86040000D01*
X118042380Y-83960000D02*
X118042380Y-81833000D01*
X118002380Y-88159000D02*
X118002380Y-86040000D01*
X118002380Y-83960000D02*
X118002380Y-81841000D01*
X117962380Y-88150000D02*
X117962380Y-86040000D01*
X117962380Y-83960000D02*
X117962380Y-81850000D01*
X117922380Y-88140000D02*
X117922380Y-86040000D01*
X117922380Y-83960000D02*
X117922380Y-81860000D01*
X117882380Y-88131000D02*
X117882380Y-86040000D01*
X117882380Y-83960000D02*
X117882380Y-81869000D01*
X117842380Y-88120000D02*
X117842380Y-86040000D01*
X117842380Y-83960000D02*
X117842380Y-81880000D01*
X117802380Y-88109000D02*
X117802380Y-86040000D01*
X117802380Y-83960000D02*
X117802380Y-81891000D01*
X117762380Y-88098000D02*
X117762380Y-86040000D01*
X117762380Y-83960000D02*
X117762380Y-81902000D01*
X117722380Y-88086000D02*
X117722380Y-86040000D01*
X117722380Y-83960000D02*
X117722380Y-81914000D01*
X117682380Y-88073000D02*
X117682380Y-86040000D01*
X117682380Y-83960000D02*
X117682380Y-81927000D01*
X117642380Y-88060000D02*
X117642380Y-86040000D01*
X117642380Y-83960000D02*
X117642380Y-81940000D01*
X117602380Y-88047000D02*
X117602380Y-86040000D01*
X117602380Y-83960000D02*
X117602380Y-81953000D01*
X117562380Y-88032000D02*
X117562380Y-86040000D01*
X117562380Y-83960000D02*
X117562380Y-81968000D01*
X117522380Y-88017000D02*
X117522380Y-86040000D01*
X117522380Y-83960000D02*
X117522380Y-81983000D01*
X117482380Y-88002000D02*
X117482380Y-86040000D01*
X117482380Y-83960000D02*
X117482380Y-81998000D01*
X117442380Y-87986000D02*
X117442380Y-86040000D01*
X117442380Y-83960000D02*
X117442380Y-82014000D01*
X117402380Y-87969000D02*
X117402380Y-86040000D01*
X117402380Y-83960000D02*
X117402380Y-82031000D01*
X117362380Y-87952000D02*
X117362380Y-86040000D01*
X117362380Y-83960000D02*
X117362380Y-82048000D01*
X117322380Y-87934000D02*
X117322380Y-86040000D01*
X117322380Y-83960000D02*
X117322380Y-82066000D01*
X117282380Y-87915000D02*
X117282380Y-86040000D01*
X117282380Y-83960000D02*
X117282380Y-82085000D01*
X117242380Y-87896000D02*
X117242380Y-86040000D01*
X117242380Y-83960000D02*
X117242380Y-82104000D01*
X117202380Y-87876000D02*
X117202380Y-86040000D01*
X117202380Y-83960000D02*
X117202380Y-82124000D01*
X117162380Y-87855000D02*
X117162380Y-86040000D01*
X117162380Y-83960000D02*
X117162380Y-82145000D01*
X117122380Y-87834000D02*
X117122380Y-86040000D01*
X117122380Y-83960000D02*
X117122380Y-82166000D01*
X117082380Y-87812000D02*
X117082380Y-86040000D01*
X117082380Y-83960000D02*
X117082380Y-82188000D01*
X117042380Y-87789000D02*
X117042380Y-86040000D01*
X117042380Y-83960000D02*
X117042380Y-82211000D01*
X117002380Y-87765000D02*
X117002380Y-86040000D01*
X117002380Y-83960000D02*
X117002380Y-82235000D01*
X116962380Y-87741000D02*
X116962380Y-86040000D01*
X116962380Y-83960000D02*
X116962380Y-82259000D01*
X116922380Y-87716000D02*
X116922380Y-86040000D01*
X116922380Y-83960000D02*
X116922380Y-82284000D01*
X116882380Y-87690000D02*
X116882380Y-86040000D01*
X116882380Y-83960000D02*
X116882380Y-82310000D01*
X116842380Y-87663000D02*
X116842380Y-86040000D01*
X116842380Y-83960000D02*
X116842380Y-82337000D01*
X116802380Y-87636000D02*
X116802380Y-86040000D01*
X116802380Y-83960000D02*
X116802380Y-82364000D01*
X116762380Y-87607000D02*
X116762380Y-86040000D01*
X116762380Y-83960000D02*
X116762380Y-82393000D01*
X116722380Y-87577000D02*
X116722380Y-86040000D01*
X116722380Y-83960000D02*
X116722380Y-82423000D01*
X116682380Y-87547000D02*
X116682380Y-86040000D01*
X116682380Y-83960000D02*
X116682380Y-82453000D01*
X116642380Y-87516000D02*
X116642380Y-86040000D01*
X116642380Y-83960000D02*
X116642380Y-82484000D01*
X116602380Y-87483000D02*
X116602380Y-86040000D01*
X116602380Y-83960000D02*
X116602380Y-82517000D01*
X116562380Y-87450000D02*
X116562380Y-86040000D01*
X116562380Y-83960000D02*
X116562380Y-82550000D01*
X116522380Y-87415000D02*
X116522380Y-86040000D01*
X116522380Y-83960000D02*
X116522380Y-82585000D01*
X116482380Y-87379000D02*
X116482380Y-86040000D01*
X116482380Y-83960000D02*
X116482380Y-82621000D01*
X116442380Y-87342000D02*
X116442380Y-86040000D01*
X116442380Y-83960000D02*
X116442380Y-82658000D01*
X116402380Y-87304000D02*
X116402380Y-86040000D01*
X116402380Y-83960000D02*
X116402380Y-82696000D01*
X116362380Y-87264000D02*
X116362380Y-82736000D01*
X116322380Y-87223000D02*
X116322380Y-82777000D01*
X116282380Y-87181000D02*
X116282380Y-82819000D01*
X116242380Y-87137000D02*
X116242380Y-82863000D01*
X116202380Y-87091000D02*
X116202380Y-82909000D01*
X116162380Y-87044000D02*
X116162380Y-82956000D01*
X116122380Y-86995000D02*
X116122380Y-83005000D01*
X116082380Y-86943000D02*
X116082380Y-83057000D01*
X116042380Y-86890000D02*
X116042380Y-83110000D01*
X116002380Y-86834000D02*
X116002380Y-83166000D01*
X115962380Y-86775000D02*
X115962380Y-83225000D01*
X115922380Y-86714000D02*
X115922380Y-83286000D01*
X115882380Y-86649000D02*
X115882380Y-83351000D01*
X115842380Y-86581000D02*
X115842380Y-83419000D01*
X115802380Y-86509000D02*
X115802380Y-83491000D01*
X115762380Y-86432000D02*
X115762380Y-83568000D01*
X115722380Y-86350000D02*
X115722380Y-83650000D01*
X115682380Y-86261000D02*
X115682380Y-83739000D01*
X115642380Y-86165000D02*
X115642380Y-83835000D01*
X115602380Y-86058000D02*
X115602380Y-83942000D01*
X115562380Y-85939000D02*
X115562380Y-84061000D01*
X115522380Y-85801000D02*
X115522380Y-84199000D01*
X115482380Y-85633000D02*
X115482380Y-84367000D01*
X115442380Y-85402000D02*
X115442380Y-84598000D01*
X121952380Y-85000000D02*
G75*
G02*
X115412380Y-85000000I-3270000J0D01*
G01*
X115412380Y-85000000D02*
G75*
G02*
X121952380Y-85000000I3270000J0D01*
G01*
%TO.C,TP2*%
X175170000Y-95790000D02*
X172770000Y-95790000D01*
X175170000Y-93390000D02*
X175170000Y-95790000D01*
X172770000Y-95790000D02*
X172770000Y-93390000D01*
X172770000Y-93390000D02*
X175170000Y-93390000D01*
%TO.C,TP3*%
X172770000Y-107390000D02*
X175170000Y-107390000D01*
X172770000Y-109790000D02*
X172770000Y-107390000D01*
X175170000Y-107390000D02*
X175170000Y-109790000D01*
X175170000Y-109790000D02*
X172770000Y-109790000D01*
%TO.C,TP4*%
X175170000Y-121390000D02*
X175170000Y-123790000D01*
X172770000Y-121390000D02*
X175170000Y-121390000D01*
X175170000Y-123790000D02*
X172770000Y-123790000D01*
X172770000Y-123790000D02*
X172770000Y-121390000D01*
%TO.C,TP1*%
X175170000Y-81790000D02*
X172770000Y-81790000D01*
X175170000Y-79390000D02*
X175170000Y-81790000D01*
X172770000Y-81790000D02*
X172770000Y-79390000D01*
X172770000Y-79390000D02*
X175170000Y-79390000D01*
%TO.C,R24*%
X189100000Y-127620000D02*
X182560000Y-127620000D01*
X182560000Y-124880000D01*
X189100000Y-124880000D01*
X189100000Y-127620000D01*
X181790000Y-126250000D02*
X182560000Y-126250000D01*
X189870000Y-126250000D02*
X189100000Y-126250000D01*
%TO.C,R4*%
X155280000Y-124060000D02*
X152540000Y-124060000D01*
X152540000Y-130600000D01*
X155280000Y-130600000D01*
X155280000Y-124060000D01*
X153910000Y-131370000D02*
X153910000Y-130600000D01*
X153910000Y-123290000D02*
X153910000Y-124060000D01*
%TO.C,R28*%
X182560000Y-131380000D02*
X189100000Y-131380000D01*
X189100000Y-134120000D01*
X182560000Y-134120000D01*
X182560000Y-131380000D01*
X189870000Y-132750000D02*
X189100000Y-132750000D01*
X181790000Y-132750000D02*
X182560000Y-132750000D01*
%TO.C,U7*%
X162020000Y-125085000D02*
G75*
G02*
X162020000Y-127085000I0J-1000000D01*
G01*
X172300000Y-123435000D02*
X162020000Y-123435000D01*
X162020000Y-123435000D02*
X162020000Y-125085000D01*
X162020000Y-127085000D02*
X162020000Y-128735000D01*
X172300000Y-128735000D02*
X172300000Y-123435000D01*
X162020000Y-128735000D02*
X172300000Y-128735000D01*
%TO.C,R16*%
X179530000Y-124400000D02*
X176790000Y-124400000D01*
X176790000Y-130940000D01*
X179530000Y-130940000D01*
X179530000Y-124400000D01*
X178160000Y-131710000D02*
X178160000Y-130940000D01*
X178160000Y-123630000D02*
X178160000Y-124400000D01*
%TO.C,C21*%
X175340000Y-124775000D02*
X175340000Y-130015000D01*
X175003000Y-124775000D02*
X175340000Y-124775000D01*
X172600000Y-124775000D02*
X172937000Y-124775000D01*
X175340000Y-130015000D02*
X175003000Y-130015000D01*
X172937000Y-130015000D02*
X172600000Y-130015000D01*
X172600000Y-130015000D02*
X172600000Y-124775000D01*
%TO.C,R12*%
X155540000Y-130600000D02*
X158280000Y-130600000D01*
X158280000Y-124060000D01*
X155540000Y-124060000D01*
X155540000Y-130600000D01*
X156910000Y-123290000D02*
X156910000Y-124060000D01*
X156910000Y-131370000D02*
X156910000Y-130600000D01*
%TO.C,R8*%
X162470000Y-131080000D02*
X172610000Y-131080000D01*
X172610000Y-134920000D01*
X162470000Y-134920000D01*
X162470000Y-131080000D01*
X173720000Y-133000000D02*
X172610000Y-133000000D01*
X161360000Y-133000000D02*
X162470000Y-133000000D01*
%TO.C,R23*%
X182560000Y-121880000D02*
X189100000Y-121880000D01*
X189100000Y-124620000D01*
X182560000Y-124620000D01*
X182560000Y-121880000D01*
X189870000Y-123250000D02*
X189100000Y-123250000D01*
X181790000Y-123250000D02*
X182560000Y-123250000D01*
%TO.C,C20*%
X161530000Y-123470000D02*
X161530000Y-128710000D01*
X161193000Y-123470000D02*
X161530000Y-123470000D01*
X158790000Y-123470000D02*
X159127000Y-123470000D01*
X161530000Y-128710000D02*
X161193000Y-128710000D01*
X159127000Y-128710000D02*
X158790000Y-128710000D01*
X158790000Y-128710000D02*
X158790000Y-123470000D01*
%TO.C,U8*%
X191312500Y-131340000D02*
X190832500Y-131340000D01*
X191072500Y-131010000D01*
X191312500Y-131340000D01*
G36*
X191312500Y-131340000D02*
G01*
X190832500Y-131340000D01*
X191072500Y-131010000D01*
X191312500Y-131340000D01*
G37*
X189772500Y-127940000D02*
X188972500Y-127940000D01*
X189772500Y-127940000D02*
X190572500Y-127940000D01*
X189772500Y-131060000D02*
X188972500Y-131060000D01*
X189772500Y-131060000D02*
X190572500Y-131060000D01*
%TO.C,C22*%
X185870000Y-130870000D02*
X180630000Y-130870000D01*
X185870000Y-130533000D02*
X185870000Y-130870000D01*
X185870000Y-128130000D02*
X185870000Y-128467000D01*
X180630000Y-130870000D02*
X180630000Y-130533000D01*
X180630000Y-128467000D02*
X180630000Y-128130000D01*
X180630000Y-128130000D02*
X185870000Y-128130000D01*
%TO.C,R6*%
X161360000Y-105000000D02*
X162470000Y-105000000D01*
X173720000Y-105000000D02*
X172610000Y-105000000D01*
X162470000Y-103080000D02*
X172610000Y-103080000D01*
X172610000Y-106920000D01*
X162470000Y-106920000D01*
X162470000Y-103080000D01*
%TO.C,C16*%
X180630000Y-100130000D02*
X185870000Y-100130000D01*
X180630000Y-100467000D02*
X180630000Y-100130000D01*
X180630000Y-102870000D02*
X180630000Y-102533000D01*
X185870000Y-100130000D02*
X185870000Y-100467000D01*
X185870000Y-102533000D02*
X185870000Y-102870000D01*
X185870000Y-102870000D02*
X180630000Y-102870000D01*
%TO.C,R20*%
X189100000Y-99620000D02*
X182560000Y-99620000D01*
X182560000Y-96880000D01*
X189100000Y-96880000D01*
X189100000Y-99620000D01*
X181790000Y-98250000D02*
X182560000Y-98250000D01*
X189870000Y-98250000D02*
X189100000Y-98250000D01*
%TO.C,R10*%
X156910000Y-103370000D02*
X156910000Y-102600000D01*
X156910000Y-95290000D02*
X156910000Y-96060000D01*
X155540000Y-102600000D02*
X158280000Y-102600000D01*
X158280000Y-96060000D01*
X155540000Y-96060000D01*
X155540000Y-102600000D01*
%TO.C,C14*%
X161530000Y-95470000D02*
X161530000Y-100710000D01*
X161193000Y-95470000D02*
X161530000Y-95470000D01*
X158790000Y-95470000D02*
X159127000Y-95470000D01*
X161530000Y-100710000D02*
X161193000Y-100710000D01*
X159127000Y-100710000D02*
X158790000Y-100710000D01*
X158790000Y-100710000D02*
X158790000Y-95470000D01*
%TO.C,R2*%
X153910000Y-95290000D02*
X153910000Y-96060000D01*
X153910000Y-103370000D02*
X153910000Y-102600000D01*
X155280000Y-96060000D02*
X152540000Y-96060000D01*
X152540000Y-102600000D01*
X155280000Y-102600000D01*
X155280000Y-96060000D01*
%TO.C,U3*%
X162020000Y-100735000D02*
X172300000Y-100735000D01*
X172300000Y-100735000D02*
X172300000Y-95435000D01*
X162020000Y-99085000D02*
X162020000Y-100735000D01*
X162020000Y-95435000D02*
X162020000Y-97085000D01*
X172300000Y-95435000D02*
X162020000Y-95435000D01*
X162020000Y-97085000D02*
G75*
G02*
X162020000Y-99085000I0J-1000000D01*
G01*
%TO.C,U4*%
X189772500Y-103060000D02*
X190572500Y-103060000D01*
X189772500Y-103060000D02*
X188972500Y-103060000D01*
X189772500Y-99940000D02*
X190572500Y-99940000D01*
X189772500Y-99940000D02*
X188972500Y-99940000D01*
X191312500Y-103340000D02*
X190832500Y-103340000D01*
X191072500Y-103010000D01*
X191312500Y-103340000D01*
G36*
X191312500Y-103340000D02*
G01*
X190832500Y-103340000D01*
X191072500Y-103010000D01*
X191312500Y-103340000D01*
G37*
%TO.C,C15*%
X172600000Y-102015000D02*
X172600000Y-96775000D01*
X172937000Y-102015000D02*
X172600000Y-102015000D01*
X175340000Y-102015000D02*
X175003000Y-102015000D01*
X172600000Y-96775000D02*
X172937000Y-96775000D01*
X175003000Y-96775000D02*
X175340000Y-96775000D01*
X175340000Y-96775000D02*
X175340000Y-102015000D01*
%TO.C,R19*%
X181790000Y-95250000D02*
X182560000Y-95250000D01*
X189870000Y-95250000D02*
X189100000Y-95250000D01*
X182560000Y-93880000D02*
X189100000Y-93880000D01*
X189100000Y-96620000D01*
X182560000Y-96620000D01*
X182560000Y-93880000D01*
%TO.C,R26*%
X181790000Y-104750000D02*
X182560000Y-104750000D01*
X189870000Y-104750000D02*
X189100000Y-104750000D01*
X182560000Y-103380000D02*
X189100000Y-103380000D01*
X189100000Y-106120000D01*
X182560000Y-106120000D01*
X182560000Y-103380000D01*
%TO.C,R14*%
X178160000Y-95630000D02*
X178160000Y-96400000D01*
X178160000Y-103710000D02*
X178160000Y-102940000D01*
X179530000Y-96400000D02*
X176790000Y-96400000D01*
X176790000Y-102940000D01*
X179530000Y-102940000D01*
X179530000Y-96400000D01*
%TO.C,R27*%
X182560000Y-117380000D02*
X189100000Y-117380000D01*
X189100000Y-120120000D01*
X182560000Y-120120000D01*
X182560000Y-117380000D01*
X189870000Y-118750000D02*
X189100000Y-118750000D01*
X181790000Y-118750000D02*
X182560000Y-118750000D01*
%TO.C,R22*%
X189870000Y-112250000D02*
X189100000Y-112250000D01*
X181790000Y-112250000D02*
X182560000Y-112250000D01*
X189100000Y-113620000D02*
X182560000Y-113620000D01*
X182560000Y-110880000D01*
X189100000Y-110880000D01*
X189100000Y-113620000D01*
%TO.C,R7*%
X161360000Y-119000000D02*
X162470000Y-119000000D01*
X173720000Y-119000000D02*
X172610000Y-119000000D01*
X162470000Y-117080000D02*
X172610000Y-117080000D01*
X172610000Y-120920000D01*
X162470000Y-120920000D01*
X162470000Y-117080000D01*
%TO.C,C17*%
X158790000Y-114710000D02*
X158790000Y-109470000D01*
X159127000Y-114710000D02*
X158790000Y-114710000D01*
X161530000Y-114710000D02*
X161193000Y-114710000D01*
X158790000Y-109470000D02*
X159127000Y-109470000D01*
X161193000Y-109470000D02*
X161530000Y-109470000D01*
X161530000Y-109470000D02*
X161530000Y-114710000D01*
%TO.C,U6*%
X189772500Y-117060000D02*
X190572500Y-117060000D01*
X189772500Y-117060000D02*
X188972500Y-117060000D01*
X189772500Y-113940000D02*
X190572500Y-113940000D01*
X189772500Y-113940000D02*
X188972500Y-113940000D01*
X191312500Y-117340000D02*
X190832500Y-117340000D01*
X191072500Y-117010000D01*
X191312500Y-117340000D01*
G36*
X191312500Y-117340000D02*
G01*
X190832500Y-117340000D01*
X191072500Y-117010000D01*
X191312500Y-117340000D01*
G37*
%TO.C,R15*%
X179530000Y-110400000D02*
X176790000Y-110400000D01*
X176790000Y-116940000D01*
X179530000Y-116940000D01*
X179530000Y-110400000D01*
X178160000Y-117710000D02*
X178160000Y-116940000D01*
X178160000Y-109630000D02*
X178160000Y-110400000D01*
%TO.C,C18*%
X172600000Y-116015000D02*
X172600000Y-110775000D01*
X172937000Y-116015000D02*
X172600000Y-116015000D01*
X175340000Y-116015000D02*
X175003000Y-116015000D01*
X172600000Y-110775000D02*
X172937000Y-110775000D01*
X175003000Y-110775000D02*
X175340000Y-110775000D01*
X175340000Y-110775000D02*
X175340000Y-116015000D01*
%TO.C,R3*%
X153910000Y-109290000D02*
X153910000Y-110060000D01*
X153910000Y-117370000D02*
X153910000Y-116600000D01*
X155280000Y-110060000D02*
X152540000Y-110060000D01*
X152540000Y-116600000D01*
X155280000Y-116600000D01*
X155280000Y-110060000D01*
%TO.C,R21*%
X182560000Y-107880000D02*
X189100000Y-107880000D01*
X189100000Y-110620000D01*
X182560000Y-110620000D01*
X182560000Y-107880000D01*
X189870000Y-109250000D02*
X189100000Y-109250000D01*
X181790000Y-109250000D02*
X182560000Y-109250000D01*
%TO.C,U5*%
X162020000Y-111085000D02*
G75*
G02*
X162020000Y-113085000I0J-1000000D01*
G01*
X172300000Y-109435000D02*
X162020000Y-109435000D01*
X162020000Y-109435000D02*
X162020000Y-111085000D01*
X162020000Y-113085000D02*
X162020000Y-114735000D01*
X172300000Y-114735000D02*
X172300000Y-109435000D01*
X162020000Y-114735000D02*
X172300000Y-114735000D01*
%TO.C,C19*%
X185870000Y-116870000D02*
X180630000Y-116870000D01*
X185870000Y-116533000D02*
X185870000Y-116870000D01*
X185870000Y-114130000D02*
X185870000Y-114467000D01*
X180630000Y-116870000D02*
X180630000Y-116533000D01*
X180630000Y-114467000D02*
X180630000Y-114130000D01*
X180630000Y-114130000D02*
X185870000Y-114130000D01*
%TO.C,R11*%
X156910000Y-117370000D02*
X156910000Y-116600000D01*
X156910000Y-109290000D02*
X156910000Y-110060000D01*
X155540000Y-116600000D02*
X158280000Y-116600000D01*
X158280000Y-110060000D01*
X155540000Y-110060000D01*
X155540000Y-116600000D01*
%TO.C,TP5*%
X129160000Y-78550000D02*
X129160000Y-80950000D01*
X126760000Y-78550000D02*
X129160000Y-78550000D01*
X129160000Y-80950000D02*
X126760000Y-80950000D01*
X126760000Y-80950000D02*
X126760000Y-78550000D01*
%TO.C,TP8*%
X144200000Y-78550000D02*
X144200000Y-80950000D01*
X141800000Y-78550000D02*
X144200000Y-78550000D01*
X144200000Y-80950000D02*
X141800000Y-80950000D01*
X141800000Y-80950000D02*
X141800000Y-78550000D01*
D11*
%TO.C,D1*%
X128010000Y-81320000D02*
G75*
G02*
X127910000Y-81320000I-50000J0D01*
G01*
X127910000Y-81320000D02*
G75*
G02*
X128010000Y-81320000I50000J0D01*
G01*
D14*
%TO.C,C4*%
X113202380Y-120000000D02*
G75*
G02*
X106662380Y-120000000I-3270000J0D01*
G01*
X106662380Y-120000000D02*
G75*
G02*
X113202380Y-120000000I3270000J0D01*
G01*
X106692380Y-120402000D02*
X106692380Y-119598000D01*
X106732380Y-120633000D02*
X106732380Y-119367000D01*
X106772380Y-120801000D02*
X106772380Y-119199000D01*
X106812380Y-120939000D02*
X106812380Y-119061000D01*
X106852380Y-121058000D02*
X106852380Y-118942000D01*
X106892380Y-121165000D02*
X106892380Y-118835000D01*
X106932380Y-121261000D02*
X106932380Y-118739000D01*
X106972380Y-121350000D02*
X106972380Y-118650000D01*
X107012380Y-121432000D02*
X107012380Y-118568000D01*
X107052380Y-121509000D02*
X107052380Y-118491000D01*
X107092380Y-121581000D02*
X107092380Y-118419000D01*
X107132380Y-121649000D02*
X107132380Y-118351000D01*
X107172380Y-121714000D02*
X107172380Y-118286000D01*
X107212380Y-121775000D02*
X107212380Y-118225000D01*
X107252380Y-121834000D02*
X107252380Y-118166000D01*
X107292380Y-121890000D02*
X107292380Y-118110000D01*
X107332380Y-121943000D02*
X107332380Y-118057000D01*
X107372380Y-121995000D02*
X107372380Y-118005000D01*
X107412380Y-122044000D02*
X107412380Y-117956000D01*
X107452380Y-122091000D02*
X107452380Y-117909000D01*
X107492380Y-122137000D02*
X107492380Y-117863000D01*
X107532380Y-122181000D02*
X107532380Y-117819000D01*
X107572380Y-122223000D02*
X107572380Y-117777000D01*
X107612380Y-122264000D02*
X107612380Y-117736000D01*
X107652380Y-118960000D02*
X107652380Y-117696000D01*
X107652380Y-122304000D02*
X107652380Y-121040000D01*
X107692380Y-118960000D02*
X107692380Y-117658000D01*
X107692380Y-122342000D02*
X107692380Y-121040000D01*
X107732380Y-118960000D02*
X107732380Y-117621000D01*
X107732380Y-122379000D02*
X107732380Y-121040000D01*
X107772380Y-118960000D02*
X107772380Y-117585000D01*
X107772380Y-122415000D02*
X107772380Y-121040000D01*
X107812380Y-118960000D02*
X107812380Y-117550000D01*
X107812380Y-122450000D02*
X107812380Y-121040000D01*
X107852380Y-118960000D02*
X107852380Y-117517000D01*
X107852380Y-122483000D02*
X107852380Y-121040000D01*
X107892380Y-118960000D02*
X107892380Y-117484000D01*
X107892380Y-122516000D02*
X107892380Y-121040000D01*
X107932380Y-118960000D02*
X107932380Y-117453000D01*
X107932380Y-122547000D02*
X107932380Y-121040000D01*
X107972380Y-118960000D02*
X107972380Y-117423000D01*
X107972380Y-122577000D02*
X107972380Y-121040000D01*
X108012380Y-118960000D02*
X108012380Y-117393000D01*
X108012380Y-122607000D02*
X108012380Y-121040000D01*
X108052380Y-118960000D02*
X108052380Y-117364000D01*
X108052380Y-122636000D02*
X108052380Y-121040000D01*
X108092380Y-118960000D02*
X108092380Y-117337000D01*
X108092380Y-122663000D02*
X108092380Y-121040000D01*
X108132380Y-118960000D02*
X108132380Y-117310000D01*
X108132380Y-122690000D02*
X108132380Y-121040000D01*
X108172380Y-118960000D02*
X108172380Y-117284000D01*
X108172380Y-122716000D02*
X108172380Y-121040000D01*
X108212380Y-118960000D02*
X108212380Y-117259000D01*
X108212380Y-122741000D02*
X108212380Y-121040000D01*
X108252380Y-118960000D02*
X108252380Y-117235000D01*
X108252380Y-122765000D02*
X108252380Y-121040000D01*
X108292380Y-118960000D02*
X108292380Y-117211000D01*
X108292380Y-122789000D02*
X108292380Y-121040000D01*
X108332380Y-118960000D02*
X108332380Y-117188000D01*
X108332380Y-122812000D02*
X108332380Y-121040000D01*
X108372380Y-118960000D02*
X108372380Y-117166000D01*
X108372380Y-122834000D02*
X108372380Y-121040000D01*
X108412380Y-118960000D02*
X108412380Y-117145000D01*
X108412380Y-122855000D02*
X108412380Y-121040000D01*
X108452380Y-118960000D02*
X108452380Y-117124000D01*
X108452380Y-122876000D02*
X108452380Y-121040000D01*
X108492380Y-118960000D02*
X108492380Y-117104000D01*
X108492380Y-122896000D02*
X108492380Y-121040000D01*
X108532380Y-118960000D02*
X108532380Y-117085000D01*
X108532380Y-122915000D02*
X108532380Y-121040000D01*
X108572380Y-118960000D02*
X108572380Y-117066000D01*
X108572380Y-122934000D02*
X108572380Y-121040000D01*
X108612380Y-118960000D02*
X108612380Y-117048000D01*
X108612380Y-122952000D02*
X108612380Y-121040000D01*
X108652380Y-118960000D02*
X108652380Y-117031000D01*
X108652380Y-122969000D02*
X108652380Y-121040000D01*
X108692380Y-118960000D02*
X108692380Y-117014000D01*
X108692380Y-122986000D02*
X108692380Y-121040000D01*
X108732380Y-118960000D02*
X108732380Y-116998000D01*
X108732380Y-123002000D02*
X108732380Y-121040000D01*
X108772380Y-118960000D02*
X108772380Y-116983000D01*
X108772380Y-123017000D02*
X108772380Y-121040000D01*
X108812380Y-118960000D02*
X108812380Y-116968000D01*
X108812380Y-123032000D02*
X108812380Y-121040000D01*
X108852380Y-118960000D02*
X108852380Y-116953000D01*
X108852380Y-123047000D02*
X108852380Y-121040000D01*
X108892380Y-118960000D02*
X108892380Y-116940000D01*
X108892380Y-123060000D02*
X108892380Y-121040000D01*
X108932380Y-118960000D02*
X108932380Y-116927000D01*
X108932380Y-123073000D02*
X108932380Y-121040000D01*
X108972380Y-118960000D02*
X108972380Y-116914000D01*
X108972380Y-123086000D02*
X108972380Y-121040000D01*
X109012380Y-118960000D02*
X109012380Y-116902000D01*
X109012380Y-123098000D02*
X109012380Y-121040000D01*
X109052380Y-118960000D02*
X109052380Y-116891000D01*
X109052380Y-123109000D02*
X109052380Y-121040000D01*
X109092380Y-118960000D02*
X109092380Y-116880000D01*
X109092380Y-123120000D02*
X109092380Y-121040000D01*
X109132380Y-118960000D02*
X109132380Y-116869000D01*
X109132380Y-123131000D02*
X109132380Y-121040000D01*
X109172380Y-118960000D02*
X109172380Y-116860000D01*
X109172380Y-123140000D02*
X109172380Y-121040000D01*
X109212380Y-118960000D02*
X109212380Y-116850000D01*
X109212380Y-123150000D02*
X109212380Y-121040000D01*
X109252380Y-118960000D02*
X109252380Y-116841000D01*
X109252380Y-123159000D02*
X109252380Y-121040000D01*
X109292380Y-118960000D02*
X109292380Y-116833000D01*
X109292380Y-123167000D02*
X109292380Y-121040000D01*
X109332380Y-118960000D02*
X109332380Y-116826000D01*
X109332380Y-123174000D02*
X109332380Y-121040000D01*
X109372380Y-118960000D02*
X109372380Y-116818000D01*
X109372380Y-123182000D02*
X109372380Y-121040000D01*
X109412380Y-118960000D02*
X109412380Y-116812000D01*
X109412380Y-123188000D02*
X109412380Y-121040000D01*
X109452380Y-118960000D02*
X109452380Y-116805000D01*
X109452380Y-123195000D02*
X109452380Y-121040000D01*
X109492380Y-118960000D02*
X109492380Y-116800000D01*
X109492380Y-123200000D02*
X109492380Y-121040000D01*
X109532380Y-118960000D02*
X109532380Y-116795000D01*
X109532380Y-123205000D02*
X109532380Y-121040000D01*
X109572380Y-118960000D02*
X109572380Y-116790000D01*
X109572380Y-123210000D02*
X109572380Y-121040000D01*
X109612380Y-118960000D02*
X109612380Y-116786000D01*
X109612380Y-123214000D02*
X109612380Y-121040000D01*
X109652380Y-118960000D02*
X109652380Y-116782000D01*
X109652380Y-123218000D02*
X109652380Y-121040000D01*
X109692380Y-118960000D02*
X109692380Y-116779000D01*
X109692380Y-123221000D02*
X109692380Y-121040000D01*
X109732380Y-123224000D02*
X109732380Y-116776000D01*
X109772380Y-123226000D02*
X109772380Y-116774000D01*
X109812380Y-123228000D02*
X109812380Y-116772000D01*
X109852380Y-123229000D02*
X109852380Y-116771000D01*
X109892380Y-123230000D02*
X109892380Y-116770000D01*
X109932380Y-123230000D02*
X109932380Y-116770000D01*
X113117621Y-122154000D02*
X113117621Y-121524000D01*
X113432621Y-121839000D02*
X112802621Y-121839000D01*
%TO.C,U11*%
D11*
X122786000Y-155910500D02*
X130662000Y-155910500D01*
X130662000Y-131268500D01*
X122786000Y-131268500D01*
X122786000Y-155910500D01*
X130662000Y-155910500D02*
X138538000Y-155910500D01*
X138538000Y-131268500D01*
X130662000Y-131268500D01*
X130662000Y-155910500D01*
X138538000Y-155910500D02*
X146414000Y-155910500D01*
X146414000Y-131268500D01*
X138538000Y-131268500D01*
X138538000Y-155910500D01*
%TO.C,D2*%
X133050000Y-83040000D02*
G75*
G02*
X132950000Y-83040000I-50000J0D01*
G01*
X132950000Y-83040000D02*
G75*
G02*
X133050000Y-83040000I50000J0D01*
G01*
%TO.C,SW2*%
X108250000Y-148765000D02*
X122250000Y-148765000D01*
X122250000Y-127765000D01*
X108250000Y-127765000D01*
X108250000Y-148765000D01*
D14*
%TO.C,C6*%
X113202380Y-85000000D02*
G75*
G02*
X106662380Y-85000000I-3270000J0D01*
G01*
X106662380Y-85000000D02*
G75*
G02*
X113202380Y-85000000I3270000J0D01*
G01*
X106692380Y-85402000D02*
X106692380Y-84598000D01*
X106732380Y-85633000D02*
X106732380Y-84367000D01*
X106772380Y-85801000D02*
X106772380Y-84199000D01*
X106812380Y-85939000D02*
X106812380Y-84061000D01*
X106852380Y-86058000D02*
X106852380Y-83942000D01*
X106892380Y-86165000D02*
X106892380Y-83835000D01*
X106932380Y-86261000D02*
X106932380Y-83739000D01*
X106972380Y-86350000D02*
X106972380Y-83650000D01*
X107012380Y-86432000D02*
X107012380Y-83568000D01*
X107052380Y-86509000D02*
X107052380Y-83491000D01*
X107092380Y-86581000D02*
X107092380Y-83419000D01*
X107132380Y-86649000D02*
X107132380Y-83351000D01*
X107172380Y-86714000D02*
X107172380Y-83286000D01*
X107212380Y-86775000D02*
X107212380Y-83225000D01*
X107252380Y-86834000D02*
X107252380Y-83166000D01*
X107292380Y-86890000D02*
X107292380Y-83110000D01*
X107332380Y-86943000D02*
X107332380Y-83057000D01*
X107372380Y-86995000D02*
X107372380Y-83005000D01*
X107412380Y-87044000D02*
X107412380Y-82956000D01*
X107452380Y-87091000D02*
X107452380Y-82909000D01*
X107492380Y-87137000D02*
X107492380Y-82863000D01*
X107532380Y-87181000D02*
X107532380Y-82819000D01*
X107572380Y-87223000D02*
X107572380Y-82777000D01*
X107612380Y-87264000D02*
X107612380Y-82736000D01*
X107652380Y-83960000D02*
X107652380Y-82696000D01*
X107652380Y-87304000D02*
X107652380Y-86040000D01*
X107692380Y-83960000D02*
X107692380Y-82658000D01*
X107692380Y-87342000D02*
X107692380Y-86040000D01*
X107732380Y-83960000D02*
X107732380Y-82621000D01*
X107732380Y-87379000D02*
X107732380Y-86040000D01*
X107772380Y-83960000D02*
X107772380Y-82585000D01*
X107772380Y-87415000D02*
X107772380Y-86040000D01*
X107812380Y-83960000D02*
X107812380Y-82550000D01*
X107812380Y-87450000D02*
X107812380Y-86040000D01*
X107852380Y-83960000D02*
X107852380Y-82517000D01*
X107852380Y-87483000D02*
X107852380Y-86040000D01*
X107892380Y-83960000D02*
X107892380Y-82484000D01*
X107892380Y-87516000D02*
X107892380Y-86040000D01*
X107932380Y-83960000D02*
X107932380Y-82453000D01*
X107932380Y-87547000D02*
X107932380Y-86040000D01*
X107972380Y-83960000D02*
X107972380Y-82423000D01*
X107972380Y-87577000D02*
X107972380Y-86040000D01*
X108012380Y-83960000D02*
X108012380Y-82393000D01*
X108012380Y-87607000D02*
X108012380Y-86040000D01*
X108052380Y-83960000D02*
X108052380Y-82364000D01*
X108052380Y-87636000D02*
X108052380Y-86040000D01*
X108092380Y-83960000D02*
X108092380Y-82337000D01*
X108092380Y-87663000D02*
X108092380Y-86040000D01*
X108132380Y-83960000D02*
X108132380Y-82310000D01*
X108132380Y-87690000D02*
X108132380Y-86040000D01*
X108172380Y-83960000D02*
X108172380Y-82284000D01*
X108172380Y-87716000D02*
X108172380Y-86040000D01*
X108212380Y-83960000D02*
X108212380Y-82259000D01*
X108212380Y-87741000D02*
X108212380Y-86040000D01*
X108252380Y-83960000D02*
X108252380Y-82235000D01*
X108252380Y-87765000D02*
X108252380Y-86040000D01*
X108292380Y-83960000D02*
X108292380Y-82211000D01*
X108292380Y-87789000D02*
X108292380Y-86040000D01*
X108332380Y-83960000D02*
X108332380Y-82188000D01*
X108332380Y-87812000D02*
X108332380Y-86040000D01*
X108372380Y-83960000D02*
X108372380Y-82166000D01*
X108372380Y-87834000D02*
X108372380Y-86040000D01*
X108412380Y-83960000D02*
X108412380Y-82145000D01*
X108412380Y-87855000D02*
X108412380Y-86040000D01*
X108452380Y-83960000D02*
X108452380Y-82124000D01*
X108452380Y-87876000D02*
X108452380Y-86040000D01*
X108492380Y-83960000D02*
X108492380Y-82104000D01*
X108492380Y-87896000D02*
X108492380Y-86040000D01*
X108532380Y-83960000D02*
X108532380Y-82085000D01*
X108532380Y-87915000D02*
X108532380Y-86040000D01*
X108572380Y-83960000D02*
X108572380Y-82066000D01*
X108572380Y-87934000D02*
X108572380Y-86040000D01*
X108612380Y-83960000D02*
X108612380Y-82048000D01*
X108612380Y-87952000D02*
X108612380Y-86040000D01*
X108652380Y-83960000D02*
X108652380Y-82031000D01*
X108652380Y-87969000D02*
X108652380Y-86040000D01*
X108692380Y-83960000D02*
X108692380Y-82014000D01*
X108692380Y-87986000D02*
X108692380Y-86040000D01*
X108732380Y-83960000D02*
X108732380Y-81998000D01*
X108732380Y-88002000D02*
X108732380Y-86040000D01*
X108772380Y-83960000D02*
X108772380Y-81983000D01*
X108772380Y-88017000D02*
X108772380Y-86040000D01*
X108812380Y-83960000D02*
X108812380Y-81968000D01*
X108812380Y-88032000D02*
X108812380Y-86040000D01*
X108852380Y-83960000D02*
X108852380Y-81953000D01*
X108852380Y-88047000D02*
X108852380Y-86040000D01*
X108892380Y-83960000D02*
X108892380Y-81940000D01*
X108892380Y-88060000D02*
X108892380Y-86040000D01*
X108932380Y-83960000D02*
X108932380Y-81927000D01*
X108932380Y-88073000D02*
X108932380Y-86040000D01*
X108972380Y-83960000D02*
X108972380Y-81914000D01*
X108972380Y-88086000D02*
X108972380Y-86040000D01*
X109012380Y-83960000D02*
X109012380Y-81902000D01*
X109012380Y-88098000D02*
X109012380Y-86040000D01*
X109052380Y-83960000D02*
X109052380Y-81891000D01*
X109052380Y-88109000D02*
X109052380Y-86040000D01*
X109092380Y-83960000D02*
X109092380Y-81880000D01*
X109092380Y-88120000D02*
X109092380Y-86040000D01*
X109132380Y-83960000D02*
X109132380Y-81869000D01*
X109132380Y-88131000D02*
X109132380Y-86040000D01*
X109172380Y-83960000D02*
X109172380Y-81860000D01*
X109172380Y-88140000D02*
X109172380Y-86040000D01*
X109212380Y-83960000D02*
X109212380Y-81850000D01*
X109212380Y-88150000D02*
X109212380Y-86040000D01*
X109252380Y-83960000D02*
X109252380Y-81841000D01*
X109252380Y-88159000D02*
X109252380Y-86040000D01*
X109292380Y-83960000D02*
X109292380Y-81833000D01*
X109292380Y-88167000D02*
X109292380Y-86040000D01*
X109332380Y-83960000D02*
X109332380Y-81826000D01*
X109332380Y-88174000D02*
X109332380Y-86040000D01*
X109372380Y-83960000D02*
X109372380Y-81818000D01*
X109372380Y-88182000D02*
X109372380Y-86040000D01*
X109412380Y-83960000D02*
X109412380Y-81812000D01*
X109412380Y-88188000D02*
X109412380Y-86040000D01*
X109452380Y-83960000D02*
X109452380Y-81805000D01*
X109452380Y-88195000D02*
X109452380Y-86040000D01*
X109492380Y-83960000D02*
X109492380Y-81800000D01*
X109492380Y-88200000D02*
X109492380Y-86040000D01*
X109532380Y-83960000D02*
X109532380Y-81795000D01*
X109532380Y-88205000D02*
X109532380Y-86040000D01*
X109572380Y-83960000D02*
X109572380Y-81790000D01*
X109572380Y-88210000D02*
X109572380Y-86040000D01*
X109612380Y-83960000D02*
X109612380Y-81786000D01*
X109612380Y-88214000D02*
X109612380Y-86040000D01*
X109652380Y-83960000D02*
X109652380Y-81782000D01*
X109652380Y-88218000D02*
X109652380Y-86040000D01*
X109692380Y-83960000D02*
X109692380Y-81779000D01*
X109692380Y-88221000D02*
X109692380Y-86040000D01*
X109732380Y-88224000D02*
X109732380Y-81776000D01*
X109772380Y-88226000D02*
X109772380Y-81774000D01*
X109812380Y-88228000D02*
X109812380Y-81772000D01*
X109852380Y-88229000D02*
X109852380Y-81771000D01*
X109892380Y-88230000D02*
X109892380Y-81770000D01*
X109932380Y-88230000D02*
X109932380Y-81770000D01*
X113117621Y-87154000D02*
X113117621Y-86524000D01*
X113432621Y-86839000D02*
X112802621Y-86839000D01*
%TO.C,C1*%
X121952380Y-120000000D02*
G75*
G02*
X115412380Y-120000000I-3270000J0D01*
G01*
X115412380Y-120000000D02*
G75*
G02*
X121952380Y-120000000I3270000J0D01*
G01*
X115442380Y-120402000D02*
X115442380Y-119598000D01*
X115482380Y-120633000D02*
X115482380Y-119367000D01*
X115522380Y-120801000D02*
X115522380Y-119199000D01*
X115562380Y-120939000D02*
X115562380Y-119061000D01*
X115602380Y-121058000D02*
X115602380Y-118942000D01*
X115642380Y-121165000D02*
X115642380Y-118835000D01*
X115682380Y-121261000D02*
X115682380Y-118739000D01*
X115722380Y-121350000D02*
X115722380Y-118650000D01*
X115762380Y-121432000D02*
X115762380Y-118568000D01*
X115802380Y-121509000D02*
X115802380Y-118491000D01*
X115842380Y-121581000D02*
X115842380Y-118419000D01*
X115882380Y-121649000D02*
X115882380Y-118351000D01*
X115922380Y-121714000D02*
X115922380Y-118286000D01*
X115962380Y-121775000D02*
X115962380Y-118225000D01*
X116002380Y-121834000D02*
X116002380Y-118166000D01*
X116042380Y-121890000D02*
X116042380Y-118110000D01*
X116082380Y-121943000D02*
X116082380Y-118057000D01*
X116122380Y-121995000D02*
X116122380Y-118005000D01*
X116162380Y-122044000D02*
X116162380Y-117956000D01*
X116202380Y-122091000D02*
X116202380Y-117909000D01*
X116242380Y-122137000D02*
X116242380Y-117863000D01*
X116282380Y-122181000D02*
X116282380Y-117819000D01*
X116322380Y-122223000D02*
X116322380Y-117777000D01*
X116362380Y-122264000D02*
X116362380Y-117736000D01*
X116402380Y-118960000D02*
X116402380Y-117696000D01*
X116402380Y-122304000D02*
X116402380Y-121040000D01*
X116442380Y-118960000D02*
X116442380Y-117658000D01*
X116442380Y-122342000D02*
X116442380Y-121040000D01*
X116482380Y-118960000D02*
X116482380Y-117621000D01*
X116482380Y-122379000D02*
X116482380Y-121040000D01*
X116522380Y-118960000D02*
X116522380Y-117585000D01*
X116522380Y-122415000D02*
X116522380Y-121040000D01*
X116562380Y-118960000D02*
X116562380Y-117550000D01*
X116562380Y-122450000D02*
X116562380Y-121040000D01*
X116602380Y-118960000D02*
X116602380Y-117517000D01*
X116602380Y-122483000D02*
X116602380Y-121040000D01*
X116642380Y-118960000D02*
X116642380Y-117484000D01*
X116642380Y-122516000D02*
X116642380Y-121040000D01*
X116682380Y-118960000D02*
X116682380Y-117453000D01*
X116682380Y-122547000D02*
X116682380Y-121040000D01*
X116722380Y-118960000D02*
X116722380Y-117423000D01*
X116722380Y-122577000D02*
X116722380Y-121040000D01*
X116762380Y-118960000D02*
X116762380Y-117393000D01*
X116762380Y-122607000D02*
X116762380Y-121040000D01*
X116802380Y-118960000D02*
X116802380Y-117364000D01*
X116802380Y-122636000D02*
X116802380Y-121040000D01*
X116842380Y-118960000D02*
X116842380Y-117337000D01*
X116842380Y-122663000D02*
X116842380Y-121040000D01*
X116882380Y-118960000D02*
X116882380Y-117310000D01*
X116882380Y-122690000D02*
X116882380Y-121040000D01*
X116922380Y-118960000D02*
X116922380Y-117284000D01*
X116922380Y-122716000D02*
X116922380Y-121040000D01*
X116962380Y-118960000D02*
X116962380Y-117259000D01*
X116962380Y-122741000D02*
X116962380Y-121040000D01*
X117002380Y-118960000D02*
X117002380Y-117235000D01*
X117002380Y-122765000D02*
X117002380Y-121040000D01*
X117042380Y-118960000D02*
X117042380Y-117211000D01*
X117042380Y-122789000D02*
X117042380Y-121040000D01*
X117082380Y-118960000D02*
X117082380Y-117188000D01*
X117082380Y-122812000D02*
X117082380Y-121040000D01*
X117122380Y-118960000D02*
X117122380Y-117166000D01*
X117122380Y-122834000D02*
X117122380Y-121040000D01*
X117162380Y-118960000D02*
X117162380Y-117145000D01*
X117162380Y-122855000D02*
X117162380Y-121040000D01*
X117202380Y-118960000D02*
X117202380Y-117124000D01*
X117202380Y-122876000D02*
X117202380Y-121040000D01*
X117242380Y-118960000D02*
X117242380Y-117104000D01*
X117242380Y-122896000D02*
X117242380Y-121040000D01*
X117282380Y-118960000D02*
X117282380Y-117085000D01*
X117282380Y-122915000D02*
X117282380Y-121040000D01*
X117322380Y-118960000D02*
X117322380Y-117066000D01*
X117322380Y-122934000D02*
X117322380Y-121040000D01*
X117362380Y-118960000D02*
X117362380Y-117048000D01*
X117362380Y-122952000D02*
X117362380Y-121040000D01*
X117402380Y-118960000D02*
X117402380Y-117031000D01*
X117402380Y-122969000D02*
X117402380Y-121040000D01*
X117442380Y-118960000D02*
X117442380Y-117014000D01*
X117442380Y-122986000D02*
X117442380Y-121040000D01*
X117482380Y-118960000D02*
X117482380Y-116998000D01*
X117482380Y-123002000D02*
X117482380Y-121040000D01*
X117522380Y-118960000D02*
X117522380Y-116983000D01*
X117522380Y-123017000D02*
X117522380Y-121040000D01*
X117562380Y-118960000D02*
X117562380Y-116968000D01*
X117562380Y-123032000D02*
X117562380Y-121040000D01*
X117602380Y-118960000D02*
X117602380Y-116953000D01*
X117602380Y-123047000D02*
X117602380Y-121040000D01*
X117642380Y-118960000D02*
X117642380Y-116940000D01*
X117642380Y-123060000D02*
X117642380Y-121040000D01*
X117682380Y-118960000D02*
X117682380Y-116927000D01*
X117682380Y-123073000D02*
X117682380Y-121040000D01*
X117722380Y-118960000D02*
X117722380Y-116914000D01*
X117722380Y-123086000D02*
X117722380Y-121040000D01*
X117762380Y-118960000D02*
X117762380Y-116902000D01*
X117762380Y-123098000D02*
X117762380Y-121040000D01*
X117802380Y-118960000D02*
X117802380Y-116891000D01*
X117802380Y-123109000D02*
X117802380Y-121040000D01*
X117842380Y-118960000D02*
X117842380Y-116880000D01*
X117842380Y-123120000D02*
X117842380Y-121040000D01*
X117882380Y-118960000D02*
X117882380Y-116869000D01*
X117882380Y-123131000D02*
X117882380Y-121040000D01*
X117922380Y-118960000D02*
X117922380Y-116860000D01*
X117922380Y-123140000D02*
X117922380Y-121040000D01*
X117962380Y-118960000D02*
X117962380Y-116850000D01*
X117962380Y-123150000D02*
X117962380Y-121040000D01*
X118002380Y-118960000D02*
X118002380Y-116841000D01*
X118002380Y-123159000D02*
X118002380Y-121040000D01*
X118042380Y-118960000D02*
X118042380Y-116833000D01*
X118042380Y-123167000D02*
X118042380Y-121040000D01*
X118082380Y-118960000D02*
X118082380Y-116826000D01*
X118082380Y-123174000D02*
X118082380Y-121040000D01*
X118122380Y-118960000D02*
X118122380Y-116818000D01*
X118122380Y-123182000D02*
X118122380Y-121040000D01*
X118162380Y-118960000D02*
X118162380Y-116812000D01*
X118162380Y-123188000D02*
X118162380Y-121040000D01*
X118202380Y-118960000D02*
X118202380Y-116805000D01*
X118202380Y-123195000D02*
X118202380Y-121040000D01*
X118242380Y-118960000D02*
X118242380Y-116800000D01*
X118242380Y-123200000D02*
X118242380Y-121040000D01*
X118282380Y-118960000D02*
X118282380Y-116795000D01*
X118282380Y-123205000D02*
X118282380Y-121040000D01*
X118322380Y-118960000D02*
X118322380Y-116790000D01*
X118322380Y-123210000D02*
X118322380Y-121040000D01*
X118362380Y-118960000D02*
X118362380Y-116786000D01*
X118362380Y-123214000D02*
X118362380Y-121040000D01*
X118402380Y-118960000D02*
X118402380Y-116782000D01*
X118402380Y-123218000D02*
X118402380Y-121040000D01*
X118442380Y-118960000D02*
X118442380Y-116779000D01*
X118442380Y-123221000D02*
X118442380Y-121040000D01*
X118482380Y-123224000D02*
X118482380Y-116776000D01*
X118522380Y-123226000D02*
X118522380Y-116774000D01*
X118562380Y-123228000D02*
X118562380Y-116772000D01*
X118602380Y-123229000D02*
X118602380Y-116771000D01*
X118642380Y-123230000D02*
X118642380Y-116770000D01*
X118682380Y-123230000D02*
X118682380Y-116770000D01*
X121867621Y-122154000D02*
X121867621Y-121524000D01*
X122182621Y-121839000D02*
X121552621Y-121839000D01*
D11*
%TO.C,D4*%
X143050000Y-81320000D02*
G75*
G02*
X142950000Y-81320000I-50000J0D01*
G01*
X142950000Y-81320000D02*
G75*
G02*
X143050000Y-81320000I50000J0D01*
G01*
D14*
%TO.C,TP6*%
X134200000Y-78550000D02*
X134200000Y-80950000D01*
X131800000Y-78550000D02*
X134200000Y-78550000D01*
X134200000Y-80950000D02*
X131800000Y-80950000D01*
X131800000Y-80950000D02*
X131800000Y-78550000D01*
D11*
%TO.C,D3*%
X138050000Y-81320000D02*
G75*
G02*
X137950000Y-81320000I-50000J0D01*
G01*
X137950000Y-81320000D02*
G75*
G02*
X138050000Y-81320000I50000J0D01*
G01*
D14*
%TO.C,TP7*%
X139200000Y-78550000D02*
X139200000Y-80950000D01*
X136800000Y-78550000D02*
X139200000Y-78550000D01*
X139200000Y-80950000D02*
X136800000Y-80950000D01*
X136800000Y-80950000D02*
X136800000Y-78550000D01*
D13*
%TO.C,J1*%
X176876900Y-149704200D02*
X176876900Y-155851000D01*
X176876900Y-155851000D02*
X173422500Y-155851000D01*
X173422500Y-155851000D02*
X173422500Y-149704200D01*
X151883300Y-149704200D02*
X151883300Y-155851000D01*
X151883300Y-155851000D02*
X148428900Y-155851000D01*
X148428900Y-155851000D02*
X148428900Y-149704200D01*
X178375500Y-137055000D02*
X146930300Y-137055000D01*
X146930300Y-137055000D02*
X146930300Y-149704200D01*
X146930300Y-149704200D02*
X178375500Y-149704200D01*
X178375500Y-149704200D02*
X178375500Y-137055000D01*
X171060300Y-149450200D02*
X154245500Y-149450200D01*
X154245500Y-149450200D02*
X154245500Y-155851000D01*
X154245500Y-155851000D02*
X171060300Y-155851000D01*
X171060300Y-155851000D02*
X171060300Y-149450200D01*
%TD*%
M02*
