%TF.GenerationSoftware,KiCad,Pcbnew,9.0.3*%
%TF.CreationDate,2025-07-27T17:23:19-07:00*%
%TF.ProjectId,bfieldsmaller,62666965-6c64-4736-9d61-6c6c65722e6b,rev?*%
%TF.SameCoordinates,Original*%
%TF.FileFunction,Paste,Top*%
%TF.FilePolarity,Positive*%
%FSLAX46Y46*%
G04 Gerber Fmt 4.6, Leading zero omitted, Abs format (unit mm)*
G04 Created by KiCad (PCBNEW 9.0.3) date 2025-07-27 17:23:19*
%MOMM*%
%LPD*%
G01*
G04 APERTURE LIST*
G04 Aperture macros list*
%AMRoundRect*
0 Rectangle with rounded corners*
0 $1 Rounding radius*
0 $2 $3 $4 $5 $6 $7 $8 $9 X,Y pos of 4 corners*
0 Add a 4 corners polygon primitive as box body*
4,1,4,$2,$3,$4,$5,$6,$7,$8,$9,$2,$3,0*
0 Add four circle primitives for the rounded corners*
1,1,$1+$1,$2,$3*
1,1,$1+$1,$4,$5*
1,1,$1+$1,$6,$7*
1,1,$1+$1,$8,$9*
0 Add four rect primitives between the rounded corners*
20,1,$1+$1,$2,$3,$4,$5,0*
20,1,$1+$1,$4,$5,$6,$7,0*
20,1,$1+$1,$6,$7,$8,$9,0*
20,1,$1+$1,$8,$9,$2,$3,0*%
G04 Aperture macros list end*
%ADD10RoundRect,0.150000X0.512500X0.150000X-0.512500X0.150000X-0.512500X-0.150000X0.512500X-0.150000X0*%
%ADD11RoundRect,0.250000X1.275000X1.125000X-1.275000X1.125000X-1.275000X-1.125000X1.275000X-1.125000X0*%
%ADD12RoundRect,0.250000X0.850000X0.350000X-0.850000X0.350000X-0.850000X-0.350000X0.850000X-0.350000X0*%
%ADD13RoundRect,0.079500X-0.100500X0.079500X-0.100500X-0.079500X0.100500X-0.079500X0.100500X0.079500X0*%
%ADD14O,5.842000X1.778000*%
%ADD15RoundRect,0.079500X0.100500X-0.079500X0.100500X0.079500X-0.100500X0.079500X-0.100500X-0.079500X0*%
%ADD16C,3.350000*%
G04 APERTURE END LIST*
D10*
%TO.C,U2*%
X188635000Y-88450000D03*
X188635000Y-86550000D03*
X190910000Y-86550000D03*
X190910000Y-87500000D03*
X190910000Y-88450000D03*
%TD*%
D11*
%TO.C,U10*%
X130665000Y-112995000D03*
X130665000Y-109945000D03*
X127315000Y-112995000D03*
X127315000Y-109945000D03*
D12*
X135290000Y-113750000D03*
X135290000Y-111470000D03*
X135290000Y-109190000D03*
%TD*%
%TO.C,U9*%
X135290000Y-118500000D03*
X135290000Y-123060000D03*
D11*
X127315000Y-119255000D03*
X127315000Y-122305000D03*
X130665000Y-119255000D03*
X130665000Y-122305000D03*
%TD*%
D10*
%TO.C,U8*%
X188635000Y-130450000D03*
X188635000Y-128550000D03*
X190910000Y-128550000D03*
X190910000Y-129500000D03*
X190910000Y-130450000D03*
%TD*%
%TO.C,U4*%
X190910000Y-102450000D03*
X190910000Y-101500000D03*
X190910000Y-100550000D03*
X188635000Y-100550000D03*
X188635000Y-102450000D03*
%TD*%
%TO.C,U6*%
X190910000Y-116450000D03*
X190910000Y-115500000D03*
X190910000Y-114550000D03*
X188635000Y-114550000D03*
X188635000Y-116450000D03*
%TD*%
D13*
%TO.C,D1*%
X127960000Y-82525000D03*
X127960000Y-81835000D03*
%TD*%
D14*
%TO.C,U11*%
X126724000Y-127728500D03*
X134600000Y-127728500D03*
X142476000Y-127728500D03*
%TD*%
D15*
%TO.C,D2*%
X133000000Y-82525000D03*
X133000000Y-81835000D03*
%TD*%
D16*
%TO.C,SW2*%
X119940000Y-133765000D03*
X115250000Y-133765000D03*
X110560000Y-133765000D03*
X119940000Y-129955000D03*
X115250000Y-129955000D03*
X110560000Y-129955000D03*
X112710000Y-146465000D03*
X117790000Y-146465000D03*
%TD*%
D13*
%TO.C,D4*%
X143000000Y-82525000D03*
X143000000Y-81835000D03*
%TD*%
%TO.C,D3*%
X138000000Y-82525000D03*
X138000000Y-81835000D03*
%TD*%
M02*
